<svg xmlns="http://www.w3.org/2000/svg" xmlns:xlink="http://www.w3.org/1999/xlink" width="598.417" height="456.883" viewBox="0 0 598.417 456.883">
  <defs>
    <clipPath id="clip-path">
      <path id="Clip_2" data-name="Clip 2" d="M0,0H437.757V437.756H0Z" transform="translate(0 0)" fill="none"/>
    </clipPath>
  </defs>
  <g id="_500" data-name="500" transform="translate(-624 -169.999)">
    <ellipse id="Ellipse_433" data-name="Ellipse 433" cx="63" cy="11" rx="63" ry="11" transform="translate(997.587 604.882)" fill="#38393e" opacity="0.19"/>
    <g id="Group_2901" data-name="Group 2901" transform="translate(624 169.999)">
      <path id="Clip_2-2" data-name="Clip 2" d="M0,0H437.757V437.756H0Z" transform="translate(62.926 0.001)" fill="none"/>
      <g id="Group_3" data-name="Group 3" transform="translate(62.926 0)" clip-path="url(#clip-path)">
        <path id="Fill_1" data-name="Fill 1" d="M437.757,218.878c0,120.883-98,218.878-218.878,218.878S0,339.762,0,218.878,98,0,218.878,0,437.757,98,437.757,218.878" transform="translate(0 0)" fill="#e8f6ff"/>
      </g>
      <path id="Fill_4" data-name="Fill 4" d="M352.475,176.238A176.238,176.238,0,1,1,176.238,0,176.237,176.237,0,0,1,352.475,176.238" transform="translate(105.566 42.641)" fill="#d6eeff"/>
      <path id="Fill_6" data-name="Fill 6" d="M264.841,132.421A132.42,132.42,0,1,1,132.42,0,132.421,132.421,0,0,1,264.841,132.421" transform="translate(149.384 86.458)" fill="#c7e9fd"/>
      <path id="Fill_8" data-name="Fill 8" d="M183.55,91.775A91.775,91.775,0,1,1,91.775,0,91.776,91.776,0,0,1,183.55,91.775" transform="translate(190.029 127.104)" fill="#bbe0ff"/>
      <path id="Fill_10" data-name="Fill 10" d="M112.54,56.27A56.27,56.27,0,1,1,56.27,0a56.27,56.27,0,0,1,56.27,56.27" transform="translate(225.534 162.609)" fill="#aad5ff"/>
      <path id="Clip_13" data-name="Clip 13" d="M0,0H526.228V315.185H0Z" transform="translate(0 0.001)" fill="none"/>
      <path id="Fill_14" data-name="Fill 14" d="M144.431,72.216A72.216,72.216,0,1,1,72.216,0a72.216,72.216,0,0,1,72.215,72.216" transform="translate(204.91 143.05)" fill="#242429"/>
      <path id="Fill_15" data-name="Fill 15" d="M164.939,82.469A82.469,82.469,0,1,1,82.469,0a82.469,82.469,0,0,1,82.469,82.469" transform="translate(199.335 136.409)" fill="#2e2e37"/>
      <path id="Fill_16" data-name="Fill 16" d="M317.192,194.385A97.91,97.91,0,0,1,297.6,192.41a96.664,96.664,0,0,1-34.754-14.624,97.477,97.477,0,0,1-35.214-42.762,96.705,96.705,0,0,1-5.663-18.244,98.165,98.165,0,0,1-1.319-30.913A96.736,96.736,0,0,1,241.7,35.977a97.642,97.642,0,0,1,20.72-19.083,97.222,97.222,0,0,1,149.5,58.441,98.084,98.084,0,0,1,.493,41.446,96.661,96.661,0,0,1-14.624,34.753,97.476,97.476,0,0,1-42.762,35.213,96.7,96.7,0,0,1-18.244,5.663A97.91,97.91,0,0,1,317.192,194.385ZM316.085,40.831a55.857,55.857,0,0,0-12.854,1.494A55.371,55.371,0,0,0,281.068,53.25a55.943,55.943,0,0,0-8.622,8.745,55.218,55.218,0,0,0-11.761,30.046c-.112,1.474-.168,2.939-.168,4.354a55.594,55.594,0,1,0,55.569-55.564ZM97.193,194.385a97.91,97.91,0,0,1-19.588-1.975,96.664,96.664,0,0,1-34.754-14.624A97.477,97.477,0,0,1,7.638,135.024,96.705,96.705,0,0,1,1.975,116.78,98.214,98.214,0,0,1,.654,85.867,96.752,96.752,0,0,1,21.7,35.977a97.638,97.638,0,0,1,20.72-19.083,97.222,97.222,0,0,1,149.5,58.441,98.1,98.1,0,0,1,.492,41.446,96.662,96.662,0,0,1-14.624,34.753,97.476,97.476,0,0,1-42.762,35.213,96.7,96.7,0,0,1-18.244,5.663A97.907,97.907,0,0,1,97.193,194.385ZM96.085,40.831a55.857,55.857,0,0,0-12.854,1.494A55.371,55.371,0,0,0,61.068,53.25a55.942,55.942,0,0,0-8.622,8.745,55.223,55.223,0,0,0-11.76,30.046c-.112,1.462-.168,2.927-.168,4.354A55.594,55.594,0,1,0,96.085,40.831Z" transform="translate(184.032 120.801)" fill="#4284fc"/>
      <path id="Clip_13-2" data-name="Clip 13" d="M0,0H526.228V315.185H0Z" transform="translate(0 0.001)" fill="none"/>
      <text id="_5" data-name="5" transform="translate(95.587 303.883)" fill="#4284fc" font-size="248" font-family="Roboto-Bold, Roboto" font-weight="700"><tspan x="-71.143" y="0">5</tspan></text>
      <g id="Group_2655" data-name="Group 2655" transform="translate(369.722 170.769)">
        <path id="Path_2761" data-name="Path 2761" d="M15439.369-23464s-7.5,2.451-7.9,23.979,12.5,42.693,12.5,42.693,11.57,25.484,28.314,31.064,43.053,29.1,46.242,41.061,7.576,30.7,6.381,33.09,8.77,11.961,11.162,23.92,6.377-19.934,6.775-30.7-6.387-33.424-19.143-49.369-34.277-28.768-34.277-28.768a98.268,98.268,0,0,1-12.193-10.156,183.139,183.139,0,0,1-14.117-16.156c-2.789-3.586-16.346-51.426-16.346-51.426Z" transform="translate(-15414.5 23464)" fill="#fff"/>
        <g id="Group_2654" data-name="Group 2654" transform="translate(0 0)">
          <g id="Group_2653" data-name="Group 2653" transform="translate(0 0)">
            <path id="Path_2707" data-name="Path 2707" d="M498.033,563.865c3.638,5.974,5.868,12.331,5.568,19.451-.159,3.784-.715,7.488-2.622,10.764-7.262,12.472-4.91,24.135,2.751,35.4a114.01,114.01,0,0,1,8.245,13.875c2.085,4.255,1.59,7.667-1.961,10.726-4.645,4-9.745,6.872-16.3,5.5-2.558-.534-5.1.072-7.613.74-1.257.335-2.757.7-3.644-.67-.9-1.391.139-2.579.95-3.559,2.215-2.675,4.951-4.079,8.56-3.121a6.157,6.157,0,0,0,2.932.4c1.8-.395,3.71-.732,4.3-2.839a6.649,6.649,0,0,0-1.734-6.654c-2.856-3.012-5.907-5.841-8.715-8.894-6.306-6.858-12.225-14-15.522-23.409a25.947,25.947,0,0,0-2.69,12.154,31.406,31.406,0,0,0,6.9,19.536,6.109,6.109,0,0,1,.437,7.593,11.569,11.569,0,0,1-7.307,5.177c-5.81,1.543-11.816,1.651-17.716,2.525-2.4.355-4.753.757-7.124-.06-2.558-.882-3.144-2.508-1.719-4.794,2-3.21,4.374-3.86,7.733-2.065a4.767,4.767,0,0,0,2.836.744,53.231,53.231,0,0,0,10.6-2.629c.349-.53.068-.646-.1-.766-12.662-8.957-18.067-21.593-18.421-36.692-.05-2.143-.434-2.8-2.687-2.669a41.027,41.027,0,0,1-13.11-.932,6.084,6.084,0,0,0-1.5-.016,38.668,38.668,0,0,1,3.669,20.112c-.281,3.8-.824,7.582-1.207,11.376a21.271,21.271,0,0,0,.252,6.928,10.732,10.732,0,0,1-.219,5.659c-.743,2.361-2.12,3.8-4.8,3.9-2.481.088-4.954.45-7.427.718-1.337.145-2.544-.073-3.173-1.38a4.146,4.146,0,0,1,.364-4.475,3.167,3.167,0,0,1,3.518-1.26c1.377.337,2.476,1.26,4.148,2.271-.892-8.472-5.833-15.354-6.238-24.062-5.571,8.762-13.084,15.406-16.949,24.674-1.619,3.881-4.587,6.209-9.113,5.995-1.99-.094-3.966-.219-5.949-.448-2.368-.275-3.106-1.566-2.943-3.72a5.1,5.1,0,0,1,3.427-4.747c2.452-.918,3.577,1,4.812,2.554a5.759,5.759,0,0,0,1.85-2.96,243.518,243.518,0,0,1,11.135-23.829,15.94,15.94,0,0,0,1.058-13.9,87.936,87.936,0,0,1-5.252-22.667,34.728,34.728,0,0,0-6.907-16.82c-3.155-4.266-5.856-8.855-9.244-12.956a4.705,4.705,0,0,1-.949-5.3,2.54,2.54,0,0,0,.146-.975c.1-3.79.74-4.437,4.6-4.461a9.61,9.61,0,0,1,2.957.289c2.6.836,4.98.319,7.492-.518,4.488-1.5,8.845-1.294,12.534,2.159a3.87,3.87,0,0,0,3.663,1c1.38-.281,2.753-.589,4.13-.879,3.126-.658,3.978.177,3.664,3.472-.372,3.9-1.827,7.521-2.947,11.371a18.888,18.888,0,0,0,8.687-2.137c4.128-1.9,8.126-4.089,12.172-6.17,10.208-5.252,21.022-8.092,32.525-7.626a31.939,31.939,0,0,1,19.661,8.026C495.463,558.865,496.75,561.363,498.033,563.865Z" transform="translate(-382.784 -388.472)"/>
            <path id="Path_2708" data-name="Path 2708" d="M413.117,253.4A48.768,48.768,0,0,1,418.1,232.94c1.067-2.115,2.3-4.239,5-4.692,2.244,1.585,2.338,4.12,2.011,6.286a70.849,70.849,0,0,0,1.241,27.126,2.412,2.412,0,0,1-.022.986c-1.233,1.583-2.846,1.123-4.236.515C417.7,261.242,414.183,258.424,413.117,253.4Z" transform="translate(-398 -228.178)" fill="#575655"/>
            <path id="Path_2709" data-name="Path 2709" d="M436.071,262.928a64.035,64.035,0,0,1-1.7-27.526,10.971,10.971,0,0,0-1.225-7.224c2.5-.429,3.823,1.183,4.909,2.991,2.228,3.712,3.195,7.916,4.436,12,.789,2.6,1.417,5.247,2.124,7.871a9.124,9.124,0,0,1-5.226,11.235c-.594.281-1.221.493-1.833.738C437.049,263.2,436.543,263.363,436.071,262.928Z" transform="translate(-408.048 -228.108)"/>
            <path id="Path_2710" data-name="Path 2710" d="M445.011,370.318C443.247,369,442.35,367,441.062,365.3c.266-1.827,1.759-2.217,3.168-2.654,3.7-1.147,7.61-1.173,11.346-2.121,2.611,1.779,4.051,4.674,6.389,6.716a1.286,1.286,0,0,1-.041.418c-2.773,3.139-6.5,4.03-10.428,4.216C449.237,371.984,446.824,372.267,445.011,370.318Z" transform="translate(-412.018 -294.533)" fill="#575655"/>
            <path id="Path_2711" data-name="Path 2711" d="M464.2,391.9l-5.529-5.5a1.873,1.873,0,0,1,1.048-2.646,5.746,5.746,0,0,1,3.051-.919,13.861,13.861,0,0,0,9.885-3.012c2.714.8,4.068,3.2,5.915,5.022l-.033.507c-1,5.372-8.649,7.8-12.688,7.031A5.365,5.365,0,0,1,464.2,391.9Z" transform="translate(-420.74 -304.214)" fill="#575655"/>
            <path id="Path_2712" data-name="Path 2712" d="M493.067,411.936a35.733,35.733,0,0,1-8.854-5.915,1.176,1.176,0,0,1,.657-.973,55.639,55.639,0,0,0,11.087-7.564l.617-.457c1.611,1.63,3.9,2.49,5.135,4.551C500.07,406.066,497.762,410,493.067,411.936Z" transform="translate(-433.664 -312.842)" fill="#575655"/>
            <path id="Path_2713" data-name="Path 2713" d="M524.048,415.026q.161-.06.326-.108c2.577.855,4.372,3.063,6.905,3.991q0,.416.005.831c-.346,3.649-2.28,6.594-4.283,9.488-.449.648-1.147,1.222-2.09.674l-8.923-4.991a.873.873,0,0,1,.222-1.12A38.96,38.96,0,0,0,524.048,415.026Z" transform="translate(-449.548 -321.818)" fill="#575655"/>
            <path id="Path_2714" data-name="Path 2714" d="M557.7,452.4c-3-2.406-5.366-5.56-8.786-7.475-.817-.736-.257-1.419.243-1.867,2.339-2.095,3.621-4.883,5.119-7.533l.463-.5a57.822,57.822,0,0,0,5.661,6.087,5.232,5.232,0,0,1,1.728,2.328l.06.537C561.56,447.249,560.365,450.216,557.7,452.4Z" transform="translate(-465.911 -331.904)" fill="#575655"/>
            <path id="Path_2715" data-name="Path 2715" d="M430.888,351.047l-3-5.037c-.451-1.829,1.042-1.6,1.958-1.678a63.54,63.54,0,0,1,7.407-.061c1.976.065,3.93-.445,5.9-.132,1.943.834,2.753,2.507,3.246,4.413a3.022,3.022,0,0,0-.078.411c-.629,1.545-2.066,2.055-3.426,2.646-3.153,1.372-6.449,1.276-9.755.849A3.236,3.236,0,0,1,430.888,351.047Z" transform="translate(-405.369 -286.261)" fill="#575655"/>
            <path id="Path_2716" data-name="Path 2716" d="M517.076,409.9c-.981,3.5-3.6,5.752-6.155,8.049-.656.589-1.552.932-1.9,1.836l-7.037-4a24.5,24.5,0,0,0,8.385-10.494c-.036-.384.168-.555.524-.591.3,2.052,2.25,2.413,3.557,3.42C515.282,408.766,516.2,409.311,517.076,409.9Z" transform="translate(-442.576 -316.692)" fill="#f4f3f2"/>
            <path id="Path_2717" data-name="Path 2717" d="M590.429,504.891l-3.6-7.423c1.084-2.824,5.023-4.241,8.576-3.087l.078.11-.09.1c1.138.407,1.521,1.453,1.917,2.415a46.349,46.349,0,0,1,2.676,7.074.541.541,0,0,1-.112.384C596.8,506.161,593.681,507.033,590.429,504.891Z" transform="translate(-485.14 -361.476)" fill="#575655"/>
            <path id="Path_2718" data-name="Path 2718" d="M547,430.291c-.295,3.02-2.164,5.154-4.042,7.308-.534.612-1.667.908-1.321,2.093A39.107,39.107,0,0,0,534,434.756c1.241.343,1.5-.742,1.98-1.42,1.914-2.684,2.989-5.8,4.393-8.741C542.184,426.96,544.822,428.361,547,430.291Z" transform="translate(-458.641 -326.671)" fill="#f4f3f2"/>
            <path id="Path_2719" data-name="Path 2719" d="M584.775,472.741l-.573.98c-1.52,2.758-3.283,5.216-6.788,5.543-1.9-2.617-3.363-5.534-5.522-7.971-.179-1.09.582-1.669,1.3-2.184,2.042-1.464,3.93-3.244,6.621-3.477C581.918,467.686,583.156,470.347,584.775,472.741Z" transform="translate(-477.634 -347.257)" fill="#575655"/>
            <path id="Path_2720" data-name="Path 2720" d="M608.608,501.361c-1.822-1.932-2.025-4.629-3.238-6.851-.474-.868-.9-1.758-1.355-2.638,2.858.067,5.582-.145,7.525-2.719.766-1.014,1.446-.65,1.884.457.331.837.78,1.627,1.173,2.44,1.86,3.84,1.44,5.362-2.194,7.593A12.042,12.042,0,0,1,608.608,501.361Z" transform="translate(-493.761 -358.757)" fill="#010101"/>
            <path id="Path_2721" data-name="Path 2721" d="M488.821,394.419c-2.957,4.163-7.45,6.214-11.744,8.538-2.749-1.332-4.725-3.663-7.089-5.492,5.956.395,11.108-.969,14.337-6.547Z" transform="translate(-426.528 -309.779)" fill="#f4f3f2"/>
            <path id="Path_2722" data-name="Path 2722" d="M425.934,288.317l1.486.087c-2.021,1.453.056,2.91-.005,4.365-.074,1.415-1.3,1.242-2.143,1.452a5.806,5.806,0,0,1-4.065-.645c-2.542-1.322-5.13-2.535-7.73-3.73a57.468,57.468,0,0,1-.449-11.125c1.543,2.857,3.251,5.589,5.983,7.49C421.085,287.654,423.274,288.773,425.934,288.317Z" transform="translate(-397.911 -253.496)" fill="#f4f3f2"/>
            <path id="Path_2723" data-name="Path 2723" d="M613.025,532.468l-4,.147a23.5,23.5,0,0,1-4.927,2.21,2.632,2.632,0,0,1-3.582-1.217,18.158,18.158,0,0,1-1.419-6.546c.89-2.988,4.671-4.7,7.963-3.612l.069.117-.1.1c1.706.977,1.546,2.829,1.856,4.355.389,1.919.733,3.566,3.192,3.529A.881.881,0,0,1,613.025,532.468Z" transform="translate(-491.291 -376.095)" fill="#575655"/>
            <path id="Path_2724" data-name="Path 2724" d="M420.3,325.229l-.524-1.07c-.356-2.974-.048-3.31,2.555-2.284,3.926,1.548,7.9,2.459,12.126,1.622,1.776,1.254,2.37,3.153,2.8,5.142a.6.6,0,0,1-.077.323,3.881,3.881,0,0,1-3.128,1.716c-4.176.653-7.988-.52-11.6-2.532C421.3,327.506,420.883,326.3,420.3,325.229Z" transform="translate(-401.279 -274.881)" fill="#575655"/>
            <path id="Path_2725" data-name="Path 2725" d="M621.012,532.9c-4.4.281-4.654-2.931-5.135-6.02a19.255,19.255,0,0,0-.862-2.785,15.149,15.149,0,0,1,7.294,1.043c3.59,1.264,4.72,3.093,4.742,6.894.008,1.316-.745,1.5-1.681,1.649C623.83,533.925,622.468,533.141,621.012,532.9Z" transform="translate(-499.278 -376.526)" fill="#010101"/>
            <path id="Path_2726" data-name="Path 2726" d="M432.484,316.939c-4.42,1.648-8.559.476-12.646-1.253-2.53-1.07-2.567-1.042-2.388,1.688-1.268-3.044-1.645-6.317-2.431-9.484.849-.269,1.386.35,1.992.726a33.463,33.463,0,0,0,7.694,3.267,8.342,8.342,0,0,0,5.085-.172.773.773,0,0,1,.672.258c.636,1.567.5,3.562,2.445,4.4C433.129,316.83,432.893,316.949,432.484,316.939Z" transform="translate(-398.954 -268.095)" fill="#f3f2f1"/>
            <path id="Path_2727" data-name="Path 2727" d="M592.722,466.609c-2.505-1.731-3.485-4.537-4.939-7.009q-.2-.294.143-.386c1.871-.909,2.405-2.8,3.286-4.445.781-1.457,1.656-2.039,2.754-.247.212.347.549.615.793.945,1.221,1.654,3.064,3.174,3.481,5.014.49,2.165-2.636,2.273-3.65,3.832A26.408,26.408,0,0,1,592.722,466.609Z" transform="translate(-485.581 -341.125)" fill="#010101"/>
            <path id="Path_2728" data-name="Path 2728" d="M568.407,438.389c-2.186-2.146-4.349-4.317-6.573-6.422a2.922,2.922,0,0,1-.816-1.993,39.244,39.244,0,0,1,1.22-3.746c.552-1.274,1.458-1.778,2.684-.637a10.823,10.823,0,0,0,.991.734c5.035,3.7,5.3,4.574,3.157,10.478C568.873,437.34,568.629,437.86,568.407,438.389Z" transform="translate(-472.191 -326.852)" fill="#010101"/>
            <path id="Path_2729" data-name="Path 2729" d="M420.949,329.134c4.03,4.692,10.541,6.132,16.877,3.733.758,1.375,1.313,2.9,2.763,3.764a.255.255,0,0,1-.205.374,92.98,92.98,0,0,1-14,.481c-.749,0-1.968-.532-1.938,1.048C423.309,335.391,421.524,332.488,420.949,329.134Z" transform="translate(-401.929 -278.786)" fill="#f3f2f1"/>
            <path id="Path_2730" data-name="Path 2730" d="M450.063,316.929l.425-.569c1.23-.555,1.667-1.757,2.254-2.819.478-.863.787-1.827,1.316-2.654.85-1.328,1.574-3.717,3.334-2.927,1.389.624,1.854,3.052,1.445,4.856a13.179,13.179,0,0,1-6.329,9.027A17.807,17.807,0,0,1,450.063,316.929Z" transform="translate(-416.533 -268.086)" fill="#010101"/>
            <path id="Path_2731" data-name="Path 2731" d="M429.46,308.484c-1.308,1.43-3.033,1.286-4.565.835-3.689-1.087-7.39-2.245-10.379-4.866q-.25-1.722-.5-3.445c2.416-.284,4.161,1.261,6.107,2.25,2.523,1.282,5.044,2.492,7.83.673l.509.051C429.284,305.375,430.341,306.715,429.46,308.484Z" transform="translate(-398.452 -264.66)" fill="#575655"/>
            <path id="Path_2732" data-name="Path 2732" d="M476.984,361.078c-2.883-1.338-4.449-3.892-5.98-6.477.053-.289.344-.329.517-.493,2.363-.671,3.186-2.65,3.986-4.663.2-.506.32-1.27,1.008-1.2.34.033.66.632.924,1.019C481.041,354.543,480.939,357.079,476.984,361.078Z" transform="translate(-427.038 -288.368)" fill="#010101"/>
            <path id="Path_2733" data-name="Path 2733" d="M468.359,377.339a11,11,0,0,1-9.067,3.644c-2.124-.056-4.852-.357-5.369,2.921-1.58-2.185-3.774-3.9-4.938-6.4,6.088,1.979,11.673.762,16.913-2.658.611.976,1.239,1.931,2.533,2.073.109.116.135.217.077.3S468.405,377.339,468.359,377.339Z" transform="translate(-415.993 -301.714)" fill="#f3f2f1"/>
            <path id="Path_2734" data-name="Path 2734" d="M620.2,553.674c2.152.065,4.316,0,6.452.226,2.573.268,4.36,4.175,2.916,6.26-.566.817-1.48.543-2.291.29a29.637,29.637,0,0,0-8.074-1.281c-1.109-1.7-.87-3.465-.246-5.248A1.009,1.009,0,0,1,620.2,553.674Z" transform="translate(-500.99 -391.371)" fill="#010101"/>
            <path id="Path_2735" data-name="Path 2735" d="M577.517,459a.863.863,0,0,1-.143.386c-2.872,1.534-5.908,2.833-7.944,5.56l-2.472-3.541c1.854-2.616,2.96-5.631,4.488-8.42,1.885,1.219,2.854,3.274,4.372,4.834C576.339,458.358,576.69,458.974,577.517,459Z" transform="translate(-475.172 -340.916)" fill="#f3f2f1"/>
            <path id="Path_2736" data-name="Path 2736" d="M452.954,356.96l-.517.493c-3.554,1.624-7.539,1.239-11.2,2.4-1.421.451-2.828.814-3.721,2.135a35.434,35.434,0,0,1-3.525-5.982c5.548,2.3,10.624,1.091,15.434-2.084C450.569,354.972,450.8,357.085,452.954,356.96Z" transform="translate(-408.471 -291.22)" fill="#f3f1f1"/>
            <path id="Path_2737" data-name="Path 2737" d="M443.933,302.627c.127-1.6-1.4-2.838-1-4.5a16.109,16.109,0,0,0,6.129-6.6,7.16,7.16,0,0,1,1.53-1.908c.475-.448,1.018-.492,1.3.345.668,2,1.159,3.935-.444,5.8a41.849,41.849,0,0,1-7.016,6.916Z" transform="translate(-412.925 -258.803)" fill="#020202"/>
            <path id="Path_2738" data-name="Path 2738" d="M487.86,374.549a1.2,1.2,0,0,0,.072-.424c1.137-1.39,2.311-2.753,3.4-4.181.755-.991,1.185-.768,2.086-.013,3.956,3.315,1.175,6.439-.093,9.627A18.567,18.567,0,0,1,487.86,374.549Z" transform="translate(-435.494 -298.924)" fill="#010101"/>
            <path id="Path_2739" data-name="Path 2739" d="M604.527,519.388c-3.085.254-6.093.68-7.963,3.612a27.764,27.764,0,0,1-2.513-7.553c3.2.994,6.317.131,9.447-.426Z" transform="translate(-488.762 -372.032)" fill="#f4f3f2"/>
            <path id="Path_2740" data-name="Path 2740" d="M539.831,413.559c-.412.176-.728.7-1.293.268-1.863-1.43-3.741-2.841-5.613-4.26l1.154-5.316C541.256,408.338,540.933,407.568,539.831,413.559Z" transform="translate(-458.1 -316.467)" fill="#030303"/>
            <path id="Path_2741" data-name="Path 2741" d="M611.465,552.3q-.014,2.676-.028,5.353l.106.084-.058.123A7.762,7.762,0,0,1,603.5,555.7a9.411,9.411,0,0,1-.511-4.389A8.2,8.2,0,0,1,611.465,552.3Z" transform="translate(-493.227 -389.856)" fill="#575655"/>
            <path id="Path_2742" data-name="Path 2742" d="M583,487.406c2.931-1.029,4.751-3.419,6.788-5.543,1.808,1.817,2.3,4.387,3.7,6.44a16.706,16.706,0,0,0-6.661,1.328c-.791.4-1.642.776-1.916,1.759Z" transform="translate(-483.218 -355.399)" fill="#f3f2f1"/>
            <path id="Path_2743" data-name="Path 2743" d="M618.576,571.851a27.441,27.441,0,0,1,5.532,6.306c1.385,2.178,1.923,4.158-.476,6.084-2.253-2.362-3.336-5.76-6.092-7.819-.8-1.529-.177-2.96.3-4.4A.559.559,0,0,1,618.576,571.851Z" transform="translate(-500.352 -400.505)" fill="#020202"/>
            <path id="Path_2744" data-name="Path 2744" d="M459.946,336.726a.6.6,0,0,0,.205-.374c2.686-.608,3.53-2.97,4.7-4.994a26.181,26.181,0,0,0,1.205-2.781c2.425,4.7,1.216,8.687-3.534,12.22A11.944,11.944,0,0,1,459.946,336.726Z" transform="translate(-421.491 -278.506)" fill="#020202"/>
            <path id="Path_2745" data-name="Path 2745" d="M610.941,548.06a25.665,25.665,0,0,0-8.475-.994,11.037,11.037,0,0,1-.542-3.939c1.491,1.15,3.008.933,4.6.18,1.234-.585,2.425-1.395,3.911-1.174.478,1.932-.135,4.142,1.477,5.784Z" transform="translate(-492.703 -385.614)" fill="#f3f2f1"/>
            <path id="Path_2746" data-name="Path 2746" d="M514.418,396.448l-.524.591c-1.628-1.471-4.126-1.979-4.878-4.416a12.007,12.007,0,0,1,1.179-1.851c.756-.824.6-2.7,2.109-2.508,1.748.227,3.408,3.2,3.025,4.889C515.077,394.263,514.725,395.35,514.418,396.448Z" transform="translate(-446.106 -308.44)" fill="#020202"/>
            <path id="Path_2747" data-name="Path 2747" d="M610.964,568.909c.261,1.567-.4,3.026-.535,4.546l-1.939-.524c-1.884-1.948-3.337-4.294-5.51-5.976.443-.14.484-.529.559-.9C606.912,565.373,610.016,566.565,610.964,568.909Z" transform="translate(-493.241 -397.537)" fill="#585756"/>
            <path id="Path_2748" data-name="Path 2748" d="M611.5,566.405c-2.015-2.148-4.724-2.49-7.426-2.852q-.011-1.34-.023-2.679a21.17,21.17,0,0,0,7.984,2.165q-.016,1.67-.034,3.341Z" transform="translate(-493.78 -395.034)" fill="#f0efee"/>
            <path id="Path_2749" data-name="Path 2749" d="M445.792,593.019A22,22,0,0,0,448.31,584a3.01,3.01,0,0,1,1.377-2.785c2.8-1.361,2.524-3.592,1.862-5.932-.4-1.408-1.738-3.1-1.3-4.051.531-1.16,2.68-.53,4.113-.842,6.021-1.309,11.295-4.315,16.544-7.277,9.448-5.329,19.648-7.784,30.335-8.625a9.716,9.716,0,0,1,1.948.235c.623.83.138,1.592-.193,2.324-1.184,2.621-.542,4.811,1.45,6.753.951.928,2.025,1.707,3,2.6,4.942,4.5,6.885,9.98,5.285,16.574a6.24,6.24,0,0,1-1.137,2.464c-.567.71-1.2,1.223-1.99.23-1.138-.332-1.371.548-1.72,1.28q-1.84,3.845-3.686,7.689c-5.223,4.978-11.59,7.853-18.4,9.835a80.725,80.725,0,0,1-18.822,2.841c-3.082.148-6.288-.127-9.208,1.326-.653-2.947-.352-6.041-1.391-8.932-.361-1.006-.574-2.071-1-3.044-.4-.9-.464-2.7-1.635-2.324-1.428.463.227,1.783.057,2.75a55.96,55.96,0,0,1-7.594-3.042A.776.776,0,0,1,445.792,593.019Z" transform="translate(-414.362 -391.826)" fill="#9f9894"/>
            <path id="Path_2750" data-name="Path 2750" d="M565.881,585.909c2.215.448,2.093-1.564,2.43-2.633A15.571,15.571,0,0,0,562.6,566.51c-2.253-1.684-4.5-3.37-4.669-6.621-.1-1.892,1.3-3.2,1.535-4.922,24.5.686,37.2,26.835,26.916,44.4-5.794,9.9-4.175,20.194,1.1,29.936,3.156,5.831,7.293,11.083,10.344,17,2.646,5.134,2.248,7.969-2.369,11.383-4,2.959-8.257,5.193-13.6,4.02a15.1,15.1,0,0,0-7.394.514,3.864,3.864,0,0,1-2.661.229,6.112,6.112,0,0,1,7.151-4.472,11.2,11.2,0,0,0,3.927.5c2.453-.43,4.8-1.118,5.616-3.837a8.032,8.032,0,0,0-1.942-8.084c-3.6-3.906-7.5-7.541-11.029-11.5-4.367-4.9-8.43-10.042-11.221-16.07a35.094,35.094,0,0,1-2.87-21.342,22.267,22.267,0,0,1,2.451-6.483C564.754,589.508,565.9,587.919,565.881,585.909Z" transform="translate(-470.639 -392.07)" fill="#7c7c7c"/>
            <path id="Path_2751" data-name="Path 2751" d="M533.953,653.827a35.109,35.109,0,0,0,.9,7.5,3.4,3.4,0,0,1-.489,2.344c-4.957,11.6-3.458,22.517,3.592,32.766,2.893,4.2,2.087,7.853-2.6,10.265a22.523,22.523,0,0,1-7.406,2.008c-5.095.688-10.2,1.308-15.3,1.926a7.507,7.507,0,0,1-2.23-.019c-1.114-.206-2.581-.175-3.015-1.37-.447-1.227.724-2.127,1.534-2.9.909-.868,2.067-1.634,3.358-.846,5.818,3.551,11.038-.035,16.413-1.387,1.255-.316,1.365-1.568.411-2.6a7.9,7.9,0,0,0-1.152-.939c-12.228-8.967-17.234-21.406-17.4-36.173-.011-.923-.133-1.831,1.249-1.955,8.072-.719,15.153-3.955,21.662-8.619C533.518,653.794,533.621,653.827,533.953,653.827Z" transform="translate(-445.243 -441.655)" fill="#d3d3d1"/>
            <path id="Path_2752" data-name="Path 2752" d="M416.25,631.812c1.325,1.416,3.306,1.32,4.887,2.128,1.086.556,2.085,1.285,3.122,1.937,3.087,7.312,2.913,14.664.231,22.032a72.789,72.789,0,0,1-12.614,21.561c-3.952,4.777-7.758,9.667-10.157,15.546a7.147,7.147,0,0,1-7.7,4.742c-1.647-.157-3.3-.228-4.948-.393-1.071-.108-2.19-.157-2.229-1.73a3.921,3.921,0,0,1,2.132-3.67c1.222-.718,1.926.12,2.651,1.044,1.721,2.192,2.914,2.12,4.228-.368,1.041-1.971,1.859-4.064,2.7-6.132a184.183,184.183,0,0,1,9.1-19.048c3.14-5.717,3.144-11.345.963-17.228a68.16,68.16,0,0,1-3.215-9.9c1.051-1.466.369-3.433,1.418-4.9C410.544,636.537,414.018,635.215,416.25,631.812Z" transform="translate(-384.82 -430.618)" fill="#7b7b7b"/>
            <path id="Path_2753" data-name="Path 2753" d="M410.794,596.858c-.095,1.742.871,3.792-1.418,4.9-.5-3.693-.936-7.4-1.5-11.078a39.124,39.124,0,0,0-6.8-16.9c-2.05-2.892-4.042-5.825-6.3-9.09,2.769.173,4.9,1.711,7.446,1.106-.416-1.189-1.6-1.352-2.419-1.9a9.122,9.122,0,0,1-3.935-9.736c.313-1.348.91-2.118,2.41-1.606,2.031.692,3.953.086,5.819-.6,4.454-1.634,8.58-1.568,12.253,1.888,2,1.886,4.338,1.065,6.614.625,4.46-.862,4.705-.68,3.574,3.76-1,3.922-2.317,7.763-3.417,11.661-.614,2.178-2.31,2.025-3.978,2.088-4.512.17-9.125,4.531-8.223,8.752.948,4.437.355,8.465-.709,12.642A3.728,3.728,0,0,0,410.794,596.858Z" transform="translate(-388.794 -390.04)" fill="#dededc"/>
            <path id="Path_2754" data-name="Path 2754" d="M460.829,667.322c1.962,1.129,2.621,2.838,3.271,4.49,2.942,7.478,2.9,15.2,1.861,23.017-.588,4.427-1.363,8.851-.289,13.339a7.626,7.626,0,0,1-.315,4.166A3.477,3.477,0,0,1,462,715.1c-2.479.143-4.95.452-7.421.714-.79.084-1.522.07-1.872-.787a2.559,2.559,0,0,1,.31-2.6,1.635,1.635,0,0,1,2.186-.616c.948.5,1.866,1.06,2.781,1.619.729.445,1.522.891,2.313.4s.781-1.395.669-2.245c-.546-4.139-2.043-8-3.491-11.874a46.006,46.006,0,0,1-2.038-6.372c-.868-4.017-1.112-7.818,1.067-11.732A31.838,31.838,0,0,0,460.829,667.322Z" transform="translate(-417.749 -448.431)" fill="#d3d3d1"/>
            <path id="Path_2755" data-name="Path 2755" d="M469.888,648.808c-.023-1.741,1.183-1.562,2.373-1.62,7.921-.39,15.851-.682,23.6-2.678a49.654,49.654,0,0,0,19.28-9.365c.322-.262.583-.942,1.177-.339a29.843,29.843,0,0,0-1.008,5.851c.018,1.23-.924,1.669-1.691,2.262a42.354,42.354,0,0,1-25.61,8.8c-4.975.117-9.954.17-14.757-1.476A9.728,9.728,0,0,1,469.888,648.808Z" transform="translate(-426.478 -431.999)" fill="#dededc"/>
            <path id="Path_2756" data-name="Path 2756" d="M478.275,361.263c-.38.728-.692,1.169-1.344,1.211C476.876,361.559,477.386,361.363,478.275,361.263Z" transform="translate(-430.009 -294.903)" fill="#0a0909"/>
            <path id="Path_2757" data-name="Path 2757" d="M413.288,556c2.745-.029,4.909,1.664,4.905,3.837,0,2.2-2.174,4.1-4.736,4.138-2.611.044-4.44-1.561-4.462-3.916C408.972,557.609,410.649,556.023,413.288,556Z" transform="translate(-395.933 -392.586)" fill="#020202"/>
            <path id="Path_2758" data-name="Path 2758" d="M441.5,568.494c-.706.046-1.5-.041-1.554-.851-.094-1.336-1.131-2.7-.017-4.033,1.886-2.261,4.576-2.839,7.255-3.389.72-.148.959.4,1.016,1.077A6.98,6.98,0,0,1,441.5,568.494Z" transform="translate(-411.195 -394.694)" fill="#7d7d7d"/>
            <path id="Path_2759" data-name="Path 2759" d="M416,562.674c-1.134-.11-2.076-.413-2.073-1.686,0-1.356.939-1.825,2.128-1.8,1.1.022,2.332.291,2.314,1.622C418.349,562.189,417.16,562.59,416,562.674Z" transform="translate(-398.405 -394.187)" fill="#d0a93e"/>
            <path id="Path_2760" data-name="Path 2760" d="M442.168,569.03c.433-3.119,1.082-5.646,4.464-6.012.562-.061,1.2-.35,1.651.139.538.585.172,1.242-.083,1.843C447.113,567.558,445.026,568.6,442.168,569.03Z" transform="translate(-412.573 -396.039)" fill="#030303"/>
          </g>
        </g>
      </g>
    </g>
  </g>
</svg>
