<?xml version="1.0" encoding="utf-8"?>
<svg version="1.1" xmlns:xlink="http://www.w3.org/1999/xlink" width="49px" height="28px" xmlns="http://www.w3.org/2000/svg">
  <g transform="matrix(1 0 0 1 -353 -104 )">
    <path d="M 0 27.9037437504534  L 7.8394197783119 27.9465217626761  C 7.8394197783119 27.9465217626761  8.37316880636265 27.3155518044368  8.37316880636265 27.3155518044368  C 8.47324674912215 27.1979065487789  8.59556169189266 27.0909653329192  8.69563963465218 26.9733238919582  C 9.80761169077563 25.7969361852281  10.9195951896092 24.6205446638009  11.9648409887529 23.4227641362623  C 13.4437731301347 21.7865185201837  14.8893345145531 20.1395688643068  16.4127406559569 18.5140196586323  C 17.9361467973606 16.8884590088668  19.392834310258 15.2842873652126  20.8828773231718 13.5731783203957  C 22.7732359213604 11.4877559465847  24.6413537053013 9.38095601075336  26.5317046750165 7.28484104123518  C 26.7941661171701 6.98251867413393  27.080416953675 6.70006515638725  27.3879321598302 6.43997339248839  C 27.5600877336716 6.27264361567881  27.8147719471764 6.21137958176615  28.0485617719916 6.28108172545557  C 28.2823554110436 6.35078196179649  28.4563570754519 6.53985932623596  28.4999042159537 6.7715048945628  C 28.527935041525 6.98454046354699  28.527935041525 7.20012997217655  28.4999042159537 7.41317507790327  C 28.4999042159537 9.06012091908312  28.4999042159537 10.70707057496  28.4999042159537 12.3540049720488  C 28.5591774544049 12.8631335079238  28.4073479479835 13.3742113539688  28.0773554449046 13.776368156408  C 27.176653960069 14.7174882400044  26.3093117894865 15.6799858856211  25.4419772473775 16.6531761269449  C 23.9964120487223 18.2680441810033  22.5619653500726 19.8615155995563  21.1052740229385 21.497765030332  C 19.6485865100411 23.1340068317136  17.9361506115973 24.9093019683496  16.3682628416982 26.6204110131665  C 15.9679510706601 27.0588761017066  15.578765428101 27.4973488196408  15.1895683428317 27.9465217626761  C 15.1895683428317 27.9465217626761  22.3506833360747 27.9465217626761  22.3506833360747 27.9465217626761  C 22.3506833360747 27.9465217626761  26.4538675465047 23.4441607717677  26.4538675465047 23.4441607717677  C 27.9661513736662 21.7972073011938  29.4784428293012 20.1609616851152  30.9795967137471 18.5033232482281  C 30.9795967137471 18.5033232482281  36.6173170082964 12.2149859690676  36.6173170082964 12.2149859690676  C 38.2482083401477 10.3969242642999  39.8902143577678 8.58599985763006  41.5433503181035 6.78220130496697  C 41.6831039511055 6.61864426349611  41.8526696582218 6.48093560893634  42.0437476603745 6.37581972559386  C 42.254026530118 6.25655894575398  42.511731619096 6.24395327949842  42.7335142267526 6.34207110118381  C 42.9552968344093 6.44019273756622  43.1130307792556 6.63658478351424  43.1557120880245 6.86775732941237  C 43.1726625559574 7.04919767044629  43.1726625559574 7.23172901482384  43.1557197164979 7.41317507790327  C 43.1557197164979 8.99595390074907  43.1557197164979 10.6215069211206  43.1557197164979 12.1615115464407  C 43.1759351710533 12.7767115472581  42.9534965146828 13.3765116162633  42.5330150599298 13.8405428041361  C 42.0215106603635 14.4180421544455  41.4877616323127 14.9848489090477  40.9651272900307 15.5623482593572  C 39.964355490909 16.6317909355306  38.9524575633084 17.701237426401  37.9516819499499 18.8455397166157  C 36.5061167512947 20.460407770674  35.0716662384083 22.053879189227  33.6261048539899 23.6901248053057  C 33.6261048539899 23.6901248053057  29.7564320290953 27.9679183981815  29.7564320290953 27.9679183981815  C 29.7564320290953 27.9679183981815  36.261483051517 27.9679183981815  36.261483051517 27.9679183981815  C 37.3734512934038 26.6952744419047  38.5743980492281 25.4012338501226  39.7308402911368 24.1072161465225  C 40.3424226334627 23.4227641362623  40.9651272900307 22.727627159689  41.598954260841 22.053879189227  C 41.8547140890976 21.7758221097795  42.1438179746606 21.4870762493218  42.5774966884252 21.6367916627072  C 43.011160145243 21.7865185201837  43.1779643449823 22.2142986424106  43.1557197164979 22.7062381535777  C 43.1557197164979 22.8987392085798  43.1557197164979 23.0805476678748  43.1557197164979 23.2623561271697  C 43.1557197164979 24.813053348197  43.1557197164979 26.3744393502345  43.1557197164979 27.9251365712618  C 43.1557197164979 27.9251365712618  43.1557197164979 28  43.1557197164979 28  L 48.9935768253828 28  C 48.9935768253828 28  48.9935768253828 8.86761604938398  48.9935768253828 8.86761604938398  C 48.9935768253828 6.88914442817522  48.9935768253828 4.91067280696645  48.9935768253828 2.92150859005052  C 49.0477161012242 2.14740738545776  48.7578112259525 1.38757505501508  48.1959360164127 0.830875340129628  C 47.634060806873 0.27417562524417  46.8529814136916 -0.0271091442714966  46.0468348568614 0.00192069994240133  C 44.4900770296779 0.00192069994240133  42.9333192024945 0.00192069994240133  41.3876760610798 0.00192069994240133  C 40.8058600220276 -0.00562858543201273  40.2510564073455 0.237623198534884  39.8753922339183 0.664979889394219  C 39.8753922339183 0.664979889394219  36.6951503225716 4.17275591082192  36.6951503225716 4.17275591082192  C 35.8278081519891 5.1459518741913  34.9715921098855 6.11914974490916  34.0931314392976 7.08164739052586  C 33.9968944329036 7.14913319525493  33.8779322041999 7.17963741986156  33.7595382967658 7.16720532231975  C 33.7595382967658 7.16720532231975  33.6483456682375 7.02817487524749  33.6483456682375 6.94262075815059  C 33.6483456682375 6.85706473370519  33.6483456682375 6.46136812064525  33.6483456682375 6.21539836506174  C 33.6483456682375 4.78233877029836  33.6483456682375 3.34928299023199  33.6483456682375 1.93761812362547  C 33.7014627286411 1.42921056548456  33.5199622748637 0.923988279343453  33.1518541043561 0.555545769041217  C 32.7837344911384 0.187101351390471  32.2660739135244 -0.00745773264628271  31.7357462558012 0.0233116134022532  C 30.0900213573903 0.0233116134022532  28.3998224589575 0.0233116134022532  26.7985791890419 0.0233116134022532  C 25.926347166999 -0.00459480254345278  25.0880122665853 0.349380469364403  24.5190425767675 0.985814981064454  C 23.4070628921707 2.26914581100288  22.1616497647978 3.53109335687546  20.9940775801735 4.80372968375822  C 20.9940775801735 4.80372968375822  17.5691943405757 8.60026300973462  17.5691943405757 8.60026300973462  C 16.4572146559788 9.76595430606064  15.4230835426039 10.9209568213765  14.3667039865079 12.0866557470965  C 12.78770153084 13.8298463937319  11.2198213894143 15.5837334507715  9.62969661950427 17.3269393561949  C 8.61779487766691 18.3963782176714  7.583663764292 19.5620733286944  6.56064542956752 20.6849866127977  C 5.53762900196138 21.807903711598  4.24774187456657 23.2623561271697  3.0801677828239 24.5456888644567  C 3.0801677828239 24.5456888644567  0 27.9037437504534  0 27.9037437504534  Z " fill-rule="nonzero" fill="#d7d7d7" stroke="none" transform="matrix(1 0 0 1 353 104 )" />
  </g>
</svg>