<?xml version="1.0" encoding="utf-8"?>
<svg version="1.1" xmlns:xlink="http://www.w3.org/1999/xlink" width="75px" height="75px" xmlns="http://www.w3.org/2000/svg">
  <g transform="matrix(1 0 0 1 -20 -20 )">
    <path d="M 26 30  C 26 23.3725829199818  31.3725829199818 18  38 18  C 44.6274170800182 18  50 23.3725829199818  50 30  C 50 36.6274170800182  44.6274170800182 42  38 42  C 31.3725829199818 42  26 36.6274170800182  26 30  Z M 74.9999992878876 37.4999992878876  C 74.9999992878876 16.788459967432  58.2115386083432 0  37.4999992878876 0  C 16.788459967432 0  0 16.788459967432  0 37.4999992878876  C 0 58.2115386083432  16.788459967432 74.9999992878876  37.4999992878876 74.9999992878876  C 58.2115386083432 74.9999992878876  74.9999992878876 58.2115386083432  74.9999992878876 37.4999992878876  Z M 69.6346138311147 37.4999992878876  C 69.6605746018095 45.5307702925836  66.640380460592 53.2730787947275  61.1826881423824 59.1634620183158  C 59.9480731889785 56.9682700647077  58.4250014299218 54.9519208748523  56.6538410945612 53.1634590559281  C 46.075957870973 42.5855758323398  28.9269233359129 42.5855758323398  18.3490372638749 53.1605764248173  C 18.3490372638749 53.1605764248173  18.3461517843145 53.1634590559281  18.3461517843145 53.1634590559281  C 16.5749999943031 54.9519208748523  15.0519253867967 56.9682700647077  13.8173075849431 59.1634620183158  C 8.35961455462096 53.2730787947275  5.33942183762834 45.5307702925836  5.36538403254798 37.4999992878876  C 5.36538403254798 19.7538442392497  19.7538442392497 5.36538403254798  37.4999992878876 5.36538403254798  C 55.2461543365254 5.36538403254798  69.6346138311147 19.7538442392497  69.6346138311147 37.4999992878876  Z " fill-rule="nonzero" fill="#dde3e9" stroke="none" transform="matrix(1 0 0 1 20 20 )" />
  </g>
</svg>