<?xml version="1.0" encoding="utf-8"?>
<!-- Generator: Adobe Illustrator 19.0.0, SVG Export Plug-In . SVG Version: 6.00 Build 0)  -->
<svg version="1.1" id="Layer_1" xmlns="http://www.w3.org/2000/svg" xmlns:xlink="http://www.w3.org/1999/xlink" x="0px" y="0px"
	 viewBox="0 0 20 20" style="enable-background:new 0 0 20 20;" xml:space="preserve">
<style type="text/css">
	.st0{fill:#3B3F45;}
</style>
<path id="Path_3170" class="st0" d="M19.9,10.1c0-1-0.8-1.9-1.8-1.9c0,0,0,0,0,0H6.4L10.6,4c0.8-0.7,0.9-1.9,0.2-2.6
	c-0.3-0.3-0.6-0.5-1-0.6C9.2,0.6,8.5,0.8,8,1.4L0.6,8.8c-0.7,0.7-0.7,1.9,0,2.6L8,18.8c0.7,0.6,1.8,0.6,2.5-0.1
	c0.7-0.7,0.7-1.8,0.1-2.5L6.4,12h11.7C19.1,12,19.9,11.1,19.9,10.1z"/>
</svg>
