<svg xmlns="http://www.w3.org/2000/svg" width="43" height="55.517" viewBox="0 0 43 55.517">
  <g id="icon_brand" data-name="icon brand" transform="translate(17487 9263.517)">
    <rect id="Rectangle_3326" data-name="Rectangle 3326" width="40" height="28" rx="1.5" transform="translate(-17485.5 -9237.5)" fill="none" stroke="#657786" stroke-width="3"/>
    <path id="Path_4188" data-name="Path 4188" d="M-17516-18179.58v-25.652" transform="translate(50.5 8941.716)" fill="none" stroke="#657786" stroke-width="3"/>
    <g id="nav-warranty" transform="translate(-18303.32 -9288.065)">
      <g id="Group_2631" data-name="Group 2631" transform="translate(830.044 57)">
        <path id="Path_395" data-name="Path 395" d="M26.115,32.441a1.4,1.4,0,0,0,.357,1.448l2.506,2.451-.592,3.448a1.413,1.413,0,0,0,2.049,1.492l3.114-1.624,3.107,1.636A1.413,1.413,0,0,0,38.7,39.8l-.592-3.448L40.618,33.9a1.414,1.414,0,0,0-.783-2.41l-3.468-.517L34.8,27.84h0a1.412,1.412,0,0,0-2.531,0l-1.541,3.134-3.474.5A1.4,1.4,0,0,0,26.115,32.441Zm1.19.386a.154.154,0,0,1,.128-.107l3.8-.552a.627.627,0,0,0,.47-.345l1.7-3.448c.075-.147.213-.147.288,0h0l1.7,3.448a.627.627,0,0,0,.47.345l3.8.552a.154.154,0,0,1,.128.107.151.151,0,0,1-.041.163l-2.757,2.683a.627.627,0,0,0-.182.555l.658,3.786a.154.154,0,0,1-.066.157.15.15,0,0,1-.166,0l-3.4-1.777a.626.626,0,0,0-.583,0l-3.4,1.79a.15.15,0,0,1-.166,0,.154.154,0,0,1-.066-.157l.652-3.786a.627.627,0,0,0-.175-.567l-2.757-2.68A.151.151,0,0,1,27.305,32.827Z" transform="translate(-26.044 -27.055)" fill="#657786" stroke="#657786" stroke-width="0.5"/>
      </g>
    </g>
  </g>
</svg>
