<?xml version="1.0" encoding="utf-8"?>
<svg version="1.1" xmlns:xlink="http://www.w3.org/1999/xlink" width="50px" height="50px" xmlns="http://www.w3.org/2000/svg">
  <g>
    <path d="M 50 16.6666717529303  C 50 12.0642961957126  46.2690349123804 8.33333492279071  41.6666707992558 8.33333492279071  C 41.6666707992558 8.33333492279071  36.7083381700521 8.33333492279071  36.7083381700521 8.33333492279071  C 36.7083381700521 8.33333492279071  34.2604237663754 3.45833436489117  34.2604237663754 3.45833436489117  C 33.2037830204525 1.34180847264959  31.0427148104914 0.00323677100030186  28.6770910656461 0  C 28.6770910656461 0  21.3229222857959 0  21.3229222857959 0  C 18.9573023556483 0.00323677100030186  16.7962341456872 1.34180847264959  15.7395857703689 3.45833436489117  C 15.7395857703689 3.45833436489117  13.2916675519944 8.33333492279071  13.2916675519944 8.33333492279071  C 13.2916675519944 8.33333492279071  8.33333492279071 8.33333492279071  8.33333492279071 8.33333492279071  C 3.7309612729219 8.33333492279071  0 12.0642961957126  0 16.6666717529303  C 0 16.6666717529303  0 41.6666707992558  0 41.6666707992558  C 0 46.2690425417758  3.7309612729219 50  8.33333492279071 50  C 8.33333492279071 50  41.6666707992558 50  41.6666707992558 50  C 46.2690425417758 50  50 46.2690349123804  50 41.6666707992558  C 50 41.6666707992558  50 16.6666717529303  50 16.6666717529303  Z M 45.8333353996279 16.6666717529303  C 45.8333353996279 16.6666717529303  45.8333353996279 41.6666707992558  45.8333353996279 41.6666707992558  C 45.8333353996279 43.9678490411204  43.9678490411204 45.8333353996279  41.6666707992558 45.8333353996279  C 41.6666707992558 45.8333353996279  8.33333492279071 45.8333353996279  8.33333492279071 45.8333353996279  C 6.03214905153073 45.8333353996279  4.16666650772093 43.9678490411204  4.16666650772093 41.6666707992558  C 4.16666650772093 41.6666707992558  4.16666650772093 16.6666717529303  4.16666650772093 16.6666717529303  C 4.16666650772093 14.3654820669726  6.03214905153073 12.5000033378605  8.33333492279071 12.5000033378605  C 8.33333492279071 12.5000033378605  14.5833356380465 12.5000033378605  14.5833356380465 12.5000033378605  C 15.3739050339399 12.4995837211133  16.0961188617079 12.0517267667839  16.4479217278963 11.3437532055382  C 16.4479217278963 11.3437532055382  19.4583361959461 5.3229147326944  19.4583361959461 5.3229147326944  C 19.8101390621344 4.6149392640998  20.5323567046002 4.16708612446817  21.3229222857959 4.16666650772093  C 21.3229222857959 4.16666650772093  28.6770910656461 4.16666650772093  28.6770910656461 4.16666650772093  C 29.4676604615395 4.16708612446817  30.1898704746098 4.6149392640998  30.5416733407982 5.32291854739211  C 30.5416733407982 5.32291854739211  33.5520916235456 11.3437532055382  33.5520916235456 11.3437532055382  C 33.903894489734 12.0517267667839  34.626108317502 12.4995837211133  35.416670084 12.5000033378605  C 35.416670084 12.5000033378605  41.6666707992558 12.5000033378605  41.6666707992558 12.5000033378605  C 43.9678490411204 12.5000033378605  45.8333353996279 14.3654858816703  45.8333353996279 16.6666717529303  Z M 7.99999969482418 19.9999992370605  C 7.99999969482418 18.8954298019408  8.89543018341061 17.9999993133544  9.99999961853023 17.9999993133544  C 11.1045689392089 17.9999993133544  11.9999995422363 18.8954298019408  11.9999995422363 19.9999992370605  C 11.9999995422363 21.1045685577392  11.1045689392089 21.9999991607665  9.99999961853023 21.9999991607665  C 8.89543018341061 21.9999991607665  7.99999969482418 21.1045685577392  7.99999969482418 19.9999992370605  Z M 35.9999986267088 29.4999988746642  C 35.9999986267088 23.7010099481757  31.2989888145214 18.9999992752074  25.5000009498596 18.9999992752074  C 19.7010130851977 18.9999992752074  14.9999994277953 23.7010099481757  14.9999994277953 29.4999988746642  C 14.9999994277953 35.2989916463683  19.7010130851977 39.9999984741209  25.5000009498596 39.9999984741209  C 31.2989888145214 39.9999984741209  35.9999986267088 35.2989916463683  35.9999986267088 29.4999988746642  Z M 25.5000009498596 35.8000001724245  C 22.0206082310624 35.8000001724245  19.2000046508789 32.9793960757729  19.2000046508789 29.4999988746642  C 19.2000046508789 26.0206055187711  22.0206082310624 23.2000014221195  25.5000047950745 23.2000014221195  C 28.9793975138716 23.2000014221195  31.80000493927 26.0206055187711  31.80000493927 29.4999988746642  C 31.80000493927 32.9793960757729  28.9793975138716 35.8000001724245  25.5000047950745 35.8000001724245  Z " fill-rule="nonzero" fill="#3b3f45" stroke="none" />
  </g>
</svg>