<svg xmlns="http://www.w3.org/2000/svg" viewBox="0 0 50 50" width="50" height="50">
	<style>
		tspan { white-space:pre }
		.shp0 { fill: #657786 } 
	</style>
	<path id="close" class="shp0" d="M48.09 38.85L34.23 25L48.09 11.15C49.31 9.92 50 8.26 50 6.53C50 4.8 49.31 3.14 48.09 1.91C46.86 0.69 45.2 0 43.47 0C41.74 0 40.08 0.69 38.85 1.91L25 15.77L11.15 1.91C9.92 0.69 8.26 0 6.53 0C4.8 0 3.14 0.69 1.91 1.91C0.69 3.14 0 4.8 0 6.53C0 8.26 0.69 9.92 1.91 11.15L15.77 25L1.91 38.85C0.69 40.08 0 41.74 0 43.47C0 45.2 0.69 46.86 1.91 48.09C3.14 49.31 4.8 50 6.53 50C8.26 50 9.92 49.31 11.15 48.09L25 34.23L38.85 48.09C40.08 49.31 41.74 50 43.47 50C45.2 50 46.86 49.31 48.09 48.09C49.31 46.86 50 45.2 50 43.47C50 41.74 49.31 40.08 48.09 38.85L48.09 38.85Z" />
</svg>