<?xml version="1.0" encoding="utf-8"?>
<!-- Generator: Adobe Illustrator 19.0.0, SVG Export Plug-In . SVG Version: 6.00 Build 0)  -->
<svg version="1.1" id="Layer_1" xmlns="http://www.w3.org/2000/svg" xmlns:xlink="http://www.w3.org/1999/xlink" x="0px" y="0px"
	 viewBox="0 0 20 20" style="enable-background:new 0 0 20 20;" xml:space="preserve">
<style type="text/css">
	.st0{fill:#3B3F45;}
</style>
<path id="close" class="st0" d="M11.5,10l8.1-8.2c0.4-0.4,0.4-1.1,0-1.5s-1.1-0.4-1.5,0l0,0L10,8.5L1.8,0.3c-0.4-0.4-1.1-0.4-1.5,0
	s-0.4,1.1,0,1.5l0,0L8.4,10l-8.1,8.2c-0.4,0.4-0.4,1.1,0,1.5c0,0,0,0,0,0c0.4,0.4,1.1,0.4,1.5,0c0,0,0,0,0,0l8.2-8.2l8.2,8.2
	c0.4,0.4,1.1,0.4,1.5,0c0,0,0,0,0,0c0.4-0.4,0.4-1.1,0-1.5c0,0,0,0,0,0L11.5,10z"/>
</svg>
