<svg xmlns="http://www.w3.org/2000/svg" xmlns:xlink="http://www.w3.org/1999/xlink" width="500" height="350" viewBox="0 0 500 350">
  <defs>
    <linearGradient id="linear-gradient" x1="0.5" y1="1" x2="0.5" gradientUnits="objectBoundingBox">
      <stop offset="0" stop-color="gray" stop-opacity="0.251"/>
      <stop offset="0.54" stop-color="gray" stop-opacity="0.122"/>
      <stop offset="1" stop-color="gray" stop-opacity="0.102"/>
    </linearGradient>
    <linearGradient id="linear-gradient-2" x1="0.495" y1="1.014" x2="0.495" y2="0" xlink:href="#linear-gradient"/>
    <linearGradient id="linear-gradient-3" x1="0.5" y1="1" x2="0.5" y2="0" xlink:href="#linear-gradient"/>
    <linearGradient id="linear-gradient-4" x1="0.5" y1="1" x2="0.5" y2="0" xlink:href="#linear-gradient"/>
  </defs>
  <g id="undraw_celebration_0jvk" transform="translate(0.02 -0.02)">
    <ellipse id="Ellipse_673" data-name="Ellipse 673" cx="24.473" cy="24.598" rx="24.473" ry="24.598" transform="translate(25.595 10.348)" fill="#4284fc"/>
    <path id="Path_4237" data-name="Path 4237" d="M187.638,204.26c10.276,23.328-2.832,50.19-18.261,70.418-5.164,6.783-10.865,13.894-11.581,22.4-.863,10.407,6.149,19.974,14.466,26.228a60.66,60.66,0,0,0,53.947,9.169c15.6-4.968,28.721-16.191,44.461-20.714,26.321-7.577,54.221,4.984,76.762,20.635,15.956,11.064,33.043,24.545,52.278,22.175,13.534-1.667,25.021-11.217,32.817-22.46,3.764-5.429,7.038-11.513,12.518-15.175a31.238,31.238,0,0,1,10.913-4.159c34.949-7.508,72.04,10.815,106.526,1.392C585.777,307.821,604.349,289.3,615.9,268s16.94-45.365,21.43-69.2c3.19-16.931,5.838-35.222-1.495-50.794-7.759-16.487-25.721-26.482-43.771-28.355s-36.154,3.3-52.784,10.587c-20.778,9.132-41.145,21.915-63.823,21.958-15.445.032-30.174-5.926-44.94-10.471-24.689-7.593-50.362-11.365-75.946-14.847-24.494-3.333-49.23-6.434-73.872-4.466-17.435,1.392-32.833,8.09-49.752,11.19-11.028,2.021-22.109.529-32.933,3.915-13.329,4.19-27.037,13.9-27.774,29.19C169.545,181.26,182.189,191.885,187.638,204.26Z" transform="translate(-140.559 -119.24)" fill="#4284fc" opacity="0.1"/>
    <path id="Path_4238" data-name="Path 4238" d="M592.785,286.117c-2.248-5.889-8.044-19.73-11.86-16.984-4.822,3.471,4.822,18.8,4.822,18.8.274,2.815-5.148,8.672-8.054,11.593v-.365a1.269,1.269,0,0,1-.126.317l-.242-.132a1.589,1.589,0,0,1-.342.63,6.187,6.187,0,0,0-.026-.63c-.558,2.376-10.3,5.386-10.3,5.386h-.716c-2.706,0-9.749-.614-13.013-5.862a28.987,28.987,0,0,0-6.385-7.487,5.421,5.421,0,0,0-3.027-1.153,38.826,38.826,0,0,1-17.777-6.148l-.268-.185-.058.169c-.342-.492-.674-1.016-.984-1.556h0l-.158-.291a13.3,13.3,0,0,0,7.291-11.82v-.275a9.087,9.087,0,0,0,1.211-4.534v-1.587l2.058-1.841a8.5,8.5,0,0,0,2.4-2.889,3.438,3.438,0,0,0,.253-1.482,2.572,2.572,0,0,0-.969-2.3c-1.579-1.1-4.211,0-5.354-1.524-.526-.688-.432-1.624-.69-2.434-.526-1.645-2.422-2.534-4.175-2.561a17.955,17.955,0,0,0-5.117,1.1,29.9,29.9,0,0,1-10.9,1.026,7.082,7.082,0,0,0-2.985.106,4.126,4.126,0,0,0-2.422,2.831,6.683,6.683,0,0,0-.232,1.45,9.148,9.148,0,0,0-2.285,6.037v4.069a9.144,9.144,0,0,0,2.185,5.921,13.241,13.241,0,0,0,5.511,9.651v.323l.068.042a21.957,21.957,0,0,1-.579,3.741V285s-7.37,3.942-15.266,4.037h-.869a5.863,5.863,0,0,0-4.211,1.587c-2.337,2.212-6.433,5.709-8.949,5.709-.526,0-13.813,2.608-16.014,3.042l-4.111-4.048-.126.238-.242-.238a9.951,9.951,0,0,0-1.337.2,32.1,32.1,0,0,1-7.291-16.164s9.091-10.407,5.748-20.106c-2.853-8.265-10.713,9.45-12.945,14.788a4.285,4.285,0,0,0-.137,2.936l7.386,23.926a11.276,11.276,0,0,0-.584,5.82h-.084l5.38,6.936a28.279,28.279,0,0,0,10.381,1.7,36.129,36.129,0,0,0,13.55-2.614h1.248l-.237.09h6.406l4.074,12.386c-.137,1.127-2.106,16.857-3.685,20.376a8.883,8.883,0,0,0-.621,3.7,28.412,28.412,0,0,0,1.174,7.169l3.569-.132-.137.28c-3.022,6.227-8.07,17.323-11.055,27.693l-5.2,10.582,3.9,47.46h.158l.3.048h0c.421.063,1.053.159,1.885.265l-.305.529-8.586,14.286s-6.122,12.6,7.422,10.222c0,0,5.006-1.46,7.049-10.053l8.907-8.4s.416-5.577-2.106-7.8c-.158-2.577-.558-10.1.058-11.91.742-2.19-3.159-27.381-3.159-27.381s14.1-29.392,22.636-30.122a4.659,4.659,0,0,1,1.848.243c7.017,2.3,15.519,19.349,18.019,24.656h0l.116.243v.048l.095.206v.058l.084.18v.048l.074.164v.037l.063.132v.053l.047.1v.042l.031.074v.09h0l.026.063,1.111,33.042h0l.111.058h.053l-.095.682-.484,3.413s6.122,12.963,5.748,14.6,4.08,8.217,10.386,6.391,2.553-12.116,2.553-12.116l-6.075-12.582-.268-.561a11.949,11.949,0,0,0,1.706-1.275s-1.853-13.508,0-16.429,2.411-16.249,2.411-16.249-1.3-9.127-3.527-13.143l-9.328-33.466c2.8,2.614,4.97,3.635,6.786,3.566h.3a4.514,4.514,0,0,0,2.285-.571,6.438,6.438,0,0,0,1.053-.746,1.669,1.669,0,0,0,.174-.175h0c2.6-2.19-2.969-10.772-6.122-15.873-3.037-4.921,1.148-18.291,1.464-19.286a5.016,5.016,0,0,1,.9-.529,5.531,5.531,0,0,1,2.064-.45c3.022.106,6.738,1.852,11.339,2.73a53.229,53.229,0,0,0,9.681.757h.189c1.29,0,2.458-.026,3.406-.064a5.731,5.731,0,0,0,2.474-.672h0a7.476,7.476,0,0,0,1.758-1.429l8.075-9.169-.211.1a4.582,4.582,0,0,0,0-3.228L592.369,291a5.66,5.66,0,0,0,.416-4.884Z" transform="translate(-275.945 -180.324)" fill="url(#linear-gradient)"/>
    <path id="Path_4239" data-name="Path 4239" d="M523.38,617.327l-8.6,8.28c-1.969,8.466-6.806,9.9-6.806,9.9-13.071,2.339-7.165-10.053-7.165-10.053l8.291-14.1,1.021-1.741s5.912-1.8,9.849-.72a3.367,3.367,0,0,1,1.342.73C523.785,611.777,523.38,617.327,523.38,617.327Z" transform="translate(-302.411 -349.645)" fill="#444176"/>
    <path id="Path_4240" data-name="Path 4240" d="M631.566,614.914c-6.091,1.8-10.386-4.677-10-6.3S616,594.231,616,594.231l.463-3.365.432-3.116,10,.72.942,1.989,5.864,12.408S637.657,613.115,631.566,614.914Z" transform="translate(-357.592 -339.851)" fill="#444176"/>
    <path id="Path_4241" data-name="Path 4241" d="M530.072,611.007c-.942,1.624-8.581.8-12.3.3l1.021-1.741s5.912-1.8,9.849-.72a3.365,3.365,0,0,1,1.342.73C530.035,610.451,530.072,611.007,530.072,611.007Z" transform="translate(-311.072 -349.622)" opacity="0.1"/>
    <path id="Path_4242" data-name="Path 4242" d="M628.257,590.439c-5.122,3.429-10.576.836-11.4.407l.432-3.116,10,.719Z" transform="translate(-357.999 -339.842)" opacity="0.1"/>
    <path id="Path_4243" data-name="Path 4243" d="M577.538,496.816c-1.79,2.878,0,16.2,0,16.2-5.912,5.4-12.892,1.439-12.892,1.439l-1.053-32.577s-11.639-26.82-19.877-26.1-21.846,29.7-21.846,29.7,3.759,24.836,3.043,26.984,0,12.6,0,12.6c-1.253,2.159-14.324,0-14.324,0l-3.759-46.8,4.99-10.444a185.731,185.731,0,0,1,10.66-27.3c1.448-3.053,2.416-4.915,2.416-4.915l9.528-1.995,30.927-6.444,11.113,40.656c2.148,3.958,3.4,12.958,3.4,12.958S579.328,493.938,577.538,496.816Z" transform="translate(-305.891 -264.23)" fill="#565387"/>
    <g id="Group_8524" data-name="Group 8524" transform="translate(200.918 162.909)" opacity="0.1">
      <path id="Path_4244" data-name="Path 4244" d="M602.3,539.915l-1.053-32.577s-11.639-26.82-19.878-26.1a4.467,4.467,0,0,0-1.079.243c8.033,2.683,18.093,25.857,18.093,25.857l1.053,32.577a12.579,12.579,0,0,0,7.122,1.307A12.626,12.626,0,0,1,602.3,539.915Z" transform="translate(-541.598 -452.597)"/>
      <path id="Path_4245" data-name="Path 4245" d="M513.412,525.057l-3.759-46.8,5.011-10.46a185.713,185.713,0,0,1,10.66-27.3c1.448-3.053,2.416-4.915,2.416-4.915l9.528-1.995,28.232-5.9-.153-.566-30.943,6.466-9.528,1.995s-.969,1.862-2.416,4.915a185.493,185.493,0,0,0-10.66,27.3l-5.011,10.439,3.759,46.8a66.926,66.926,0,0,0,11.371.921A84.141,84.141,0,0,1,513.412,525.057Z" transform="translate(-506.79 -427.12)"/>
    </g>
    <path id="Path_4246" data-name="Path 4246" d="M469.981,338.21s-10.207.529-8.775,11.339l2.864.36,4.3-4.677,2.148-3.958v-.9Z" transform="translate(-284.219 -222.343)" fill="#ced2df"/>
    <path id="Path_4247" data-name="Path 4247" d="M469.981,338.21s-10.207.529-8.775,11.339l2.864.36,4.3-4.677,2.148-3.958v-.9Z" transform="translate(-284.219 -222.343)" opacity="0.1"/>
    <path id="Path_4248" data-name="Path 4248" d="M693.241,345.69s8.423,4.5,6.27,9.72l-2.685,1.058-3.58-1.979-.526-4.677.358-3.238Z" transform="translate(-393.925 -225.866)" fill="#ced2df"/>
    <path id="Path_4249" data-name="Path 4249" d="M693.241,345.69s8.423,4.5,6.27,9.72l-2.685,1.058-3.58-1.979-.526-4.677.358-3.238Z" transform="translate(-393.925 -225.866)" opacity="0.1"/>
    <rect id="Rectangle_3491" data-name="Rectangle 3491" width="29.369" height="22.317" rx="11.159" transform="translate(226.97 73.385)" fill="#88455e"/>
    <path id="Path_4250" data-name="Path 4250" d="M463.923,306.175l-6.27,10.053-.526-1.788-8.517-27.894a4.312,4.312,0,0,1,.132-2.894c2.153-5.259,9.744-22.751,12.5-14.577,3.222,9.524-5.554,19.8-5.554,19.8a31.77,31.77,0,0,0,7.491,16.476C463.639,305.894,463.923,306.175,463.923,306.175Z" transform="translate(-278.229 -188.779)" fill="#ec8c9c"/>
    <path id="Path_4251" data-name="Path 4251" d="M691.16,320.773s9.849-9.36,9.475-13.138c0,0-9.312-15.116-4.653-18.519,3.685-2.709,9.281,10.942,11.45,16.746a5.687,5.687,0,0,1-.374,4.762l-11.771,20.947Z" transform="translate(-393.187 -199.06)" fill="#ec8c9c"/>
    <path id="Path_4252" data-name="Path 4252" d="M566.219,299.921s1.79,11.519-3.4,15.841,14.866,4.3,14.866,4.3l7.165-6.661s-8.239-7.741-5.733-13.5Z" transform="translate(-332 -204.303)" fill="#ec8c9c"/>
    <path id="Path_4253" data-name="Path 4253" d="M556.069,324.13s7.7,5.762,15.4-.72L584,349.511l-.716,31.857s-25.968,13.5-36.712,5.222-1.79-12.6-1.79-12.6l-2.506-24.476,2.685-15.841s4.833-7.561,5.2-7.561S556.069,324.13,556.069,324.13Z" transform="translate(-322.208 -215.374)" opacity="0.1"/>
    <path id="Path_4254" data-name="Path 4254" d="M556.074,323.45s7.7,5.772,15.4-.72l12.534,26.1-.716,31.857s-25.968,13.5-36.712,5.222-1.79-12.6-1.79-12.6l-2.506-24.476,2.685-15.841s4.832-7.561,5.2-7.561S556.074,323.45,556.074,323.45Z" transform="translate(-322.213 -215.054)" fill="#ebf1f6"/>
    <path id="Path_4255" data-name="Path 4255" d="M518.46,319s-7.3,4.18-15.229,3.974a5.6,5.6,0,0,0-4.048,1.556c-2.258,2.18-6.212,5.63-8.659,5.63-.526,0-15.761,3.058-15.761,3.058l-4.027-4.048s-6,11.788-8.865,11.249l5.2,6.841s9.849,4.317,22.741-.9h7.522l3.938,12.238s-1.969,16.561-3.58,20.159.526,10.619.526,10.619l14.145-.529s.716-7.021,1.79-7.936-3.759-31.857-3.759-31.857-3.222-17.46,8.6-23.757Z" transform="translate(-284.599 -213.297)" opacity="0.1"/>
    <path id="Path_4256" data-name="Path 4256" d="M548.5,439.38a47.217,47.217,0,0,0-1.111,6.492l-10.828.413c1.448-3.053,2.416-4.915,2.416-4.915Z" transform="translate(-319.97 -269.984)" opacity="0.1"/>
    <path id="Path_4257" data-name="Path 4257" d="M471.756,340.361l-6.27,10.053-.526-1.788c2.3-2.3,5-7.1,6.07-9.1A10.645,10.645,0,0,0,471.756,340.361Z" transform="translate(-286.062 -222.965)" opacity="0.1"/>
    <path id="Path_4258" data-name="Path 4258" d="M518.123,319s-7.665,4.18-15.587,3.974a5.6,5.6,0,0,0-4.048,1.556c-2.258,2.18-6.212,5.63-8.66,5.63-.526,0-15.761,3.058-15.761,3.058l-4.043-4.053s-6,11.788-8.865,11.249l5.2,6.841s9.849,4.318,22.741-.9h7.522l3.938,12.233s-1.969,16.561-3.58,20.159.526,10.619.526,10.619l14.145-.529s.716-7.021,1.79-7.936-3.759-31.857-3.759-31.857-3.222-17.46,8.6-23.757Z" transform="translate(-284.262 -213.297)" fill="#ced2df"/>
    <path id="Path_4259" data-name="Path 4259" d="M596.409,316.94a34.75,34.75,0,0,0,17.061,6.243,5.171,5.171,0,0,1,2.922,1.138,28.391,28.391,0,0,1,6.164,7.407c3.938,6.482,13.608,5.762,13.608,5.762s9.4-2.968,9.939-5.291c0,0,.268,12.7,6.18,9.63l-7.775,9.005a5.475,5.475,0,0,1-3.922,1.9,57.353,57.353,0,0,1-12.281-.683c-6.449-1.259-11.1-4.318-14.5-1.619,0,0-4.475,14.037-1.432,19.079s8.423,13.5,5.912,15.661-5.554,1.979-10.565-3.238-5.554-14.037-5.554-14.037l1.253-22.677s-4.832-17.1-9.475-20.519Z" transform="translate(-347.145 -212.327)" opacity="0.1"/>
    <path id="Path_4260" data-name="Path 4260" d="M653.618,341.757l-7.8,9.042a5.482,5.482,0,0,1-1.879,1.407h0a5.435,5.435,0,0,1-2.032.482,56.675,56.675,0,0,1-12.281-.683c-6.033-1.18-10.5-3.931-13.834-2.074a4.889,4.889,0,0,0-.674.45s-4.475,14.037-1.432,19.079,8.423,13.5,5.912,15.661a5.789,5.789,0,0,1-1.4.915c-2.253,1.021-5.048.138-9.165-4.153-5.011-5.222-5.554-14.037-5.554-14.037l1.253-22.677s-4.833-17.1-9.475-20.518l2.048-7.381a37.064,37.064,0,0,0,17.161,6.063,5.17,5.17,0,0,1,2.922,1.138,28.414,28.414,0,0,1,6.164,7.407c3.938,6.482,13.608,5.762,13.608,5.762a52.1,52.1,0,0,0,6.775-2.709h0a10.323,10.323,0,0,0,3.158-2.116,1.591,1.591,0,0,0,.342-.635S647.712,344.815,653.618,341.757Z" transform="translate(-347.77 -212.483)" opacity="0.1"/>
    <path id="Path_4261" data-name="Path 4261" d="M652.924,341.786l-7.791,9.053a5.488,5.488,0,0,1-1.516,1.228h0a5.443,5.443,0,0,1-2.39.661,56.681,56.681,0,0,1-12.281-.683c-5.817-1.138-10.181-3.741-13.471-2.254a4.865,4.865,0,0,0-1.053.63s-4.475,14.037-1.432,19.079,8.423,13.5,5.912,15.661a6.209,6.209,0,0,1-1.053.735c-2.316,1.286-5.18.529-9.523-3.973-5.011-5.222-5.554-14.037-5.554-14.037l1.253-22.677s-4.832-17.1-9.475-20.519l2.148-7.741.258.18a37.063,37.063,0,0,0,17.161,6.063,5.17,5.17,0,0,1,2.922,1.138,28.414,28.414,0,0,1,6.164,7.407c3.938,6.482,13.608,5.762,13.608,5.762a52.1,52.1,0,0,0,6.775-2.709h0c1.627-.836,2.953-1.751,3.159-2.587v.455C646.9,334.844,647.692,344.49,652.924,341.786Z" transform="translate(-347.434 -212.332)" fill="#ced2df"/>
    <path id="Path_4262" data-name="Path 4262" d="M583.01,300.45H569.85a32.517,32.517,0,0,1,.247,6.349,13.471,13.471,0,0,0,13.908,1.005C582.742,305.455,581.973,302.789,583.01,300.45Z" transform="translate(-335.736 -204.562)" opacity="0.1"/>
    <ellipse id="Ellipse_674" data-name="Ellipse 674" cx="13.071" cy="13.138" rx="13.071" ry="13.138" transform="translate(229.029 78.158)" fill="#ec8c9c"/>
    <path id="Path_4263" data-name="Path 4263" d="M570.65,270.958c1.458-.175,2.916-.693,4.353-.4,1.305.265,2.416,1.169,3.722,1.444,2.516.529,4.854-1.333,6.754-3.069l4.106-3.757a8.415,8.415,0,0,0,2.316-2.847,2.867,2.867,0,0,0-.695-3.365c-1.5-1.058-4.085,0-5.169-1.5a7.875,7.875,0,0,1-.669-2.4,4.189,4.189,0,0,0-4.032-2.524A17.759,17.759,0,0,0,576.4,253.6a28.288,28.288,0,0,1-10.528,1.011,6.7,6.7,0,0,0-2.88.1,4.042,4.042,0,0,0-2.337,2.788c-.811,2.878.574,7.519,1.964,10.1S567.876,271.3,570.65,270.958Z" transform="translate(-331.267 -182.001)" opacity="0.1"/>
    <path id="Path_4264" data-name="Path 4264" d="M570.65,270.278c1.458-.175,2.916-.693,4.353-.4,1.305.265,2.416,1.169,3.722,1.444,2.516.529,4.854-1.333,6.754-3.069l4.106-3.757a8.414,8.414,0,0,0,2.316-2.847,2.867,2.867,0,0,0-.695-3.365c-1.5-1.058-4.085,0-5.169-1.5a7.875,7.875,0,0,1-.669-2.4,4.189,4.189,0,0,0-4.032-2.524,17.759,17.759,0,0,0-4.938,1.058,28.288,28.288,0,0,1-10.528,1.011,6.7,6.7,0,0,0-2.88.1,4.042,4.042,0,0,0-2.337,2.788c-.811,2.878.574,7.519,1.964,10.1S567.876,270.6,570.65,270.278Z" transform="translate(-331.267 -181.681)" fill="#88455e"/>
    <path id="Path_4265" data-name="Path 4265" d="M536.55,394a7.364,7.364,0,0,1,4.3,2.159,7.706,7.706,0,0,0,3.938,2.339" transform="translate(-319.966 -248.615)" opacity="0.1"/>
    <path id="Path_4266" data-name="Path 4266" d="M487.468,349.09s2.337,5.243.895,5.772-.895,4.318-.895,4.318" transform="translate(-296.673 -227.467)" opacity="0.1"/>
    <g id="Group_8525" data-name="Group 8525" transform="translate(191.437 105.787)" opacity="0.1">
      <path id="Path_4267" data-name="Path 4267" d="M488.943,336.736s15.219-3.058,15.745-3.058c2.453,0,6.4-3.45,8.66-5.63a5.52,5.52,0,0,1,2.453-1.37h-.195a5.6,5.6,0,0,0-4.048,1.556c-2.258,2.18-6.212,5.63-8.66,5.63-.426,0-10.165,1.942-14.118,2.73Z" transform="translate(-488.78 -322.699)"/>
      <path id="Path_4268" data-name="Path 4268" d="M558.915,319.832v-.672a37.858,37.858,0,0,1-11.665,3.751A35.9,35.9,0,0,0,558.915,319.832Z" transform="translate(-516.47 -319.16)"/>
      <path id="Path_4269" data-name="Path 4269" d="M525.675,413.536s-2.148-7.021-.526-10.619,3.58-20.159,3.58-20.159L524.8,370.52h-7.544l-.458.18h6.185l3.922,12.243s-1.969,16.561-3.58,20.159.526,10.619.526,10.619L538,413.192v-.111Z" transform="translate(-502.05 -343.345)"/>
    </g>
    <g id="Group_8526" data-name="Group 8526" transform="translate(255.518 129.465)" opacity="0.1">
      <path id="Path_4270" data-name="Path 4270" d="M626.639,425.959a6.2,6.2,0,0,1-1.053.735c-2.316,1.286-5.18.529-9.523-3.974-3.98-4.143-5.138-10.582-5.448-13.021l-.105,1.862s.526,8.82,5.554,14.037c4.343,4.519,7.207,5.259,9.523,3.974a6.213,6.213,0,0,0,1.053-.735c.753-.651.795-1.873.4-3.4A1.666,1.666,0,0,1,626.639,425.959Z" transform="translate(-610.51 -385.472)"/>
      <path id="Path_4271" data-name="Path 4271" d="M666.2,364.169l-5.069,5.889a5.481,5.481,0,0,1-1.516,1.228h0a5.442,5.442,0,0,1-2.39.661,56.679,56.679,0,0,1-12.281-.683c-5.817-1.138-10.181-3.741-13.471-2.254a4.864,4.864,0,0,0-1.053.63s-2.89,9.069-2.448,15.243a59.794,59.794,0,0,1,2.448-12.365,4.865,4.865,0,0,1,1.053-.63c3.3-1.487,7.654,1.116,13.471,2.254a57.343,57.343,0,0,0,12.281.683,5.443,5.443,0,0,0,2.39-.661h0a5.486,5.486,0,0,0,1.516-1.212l7.8-9.042A3.056,3.056,0,0,1,666.2,364.169Z" transform="translate(-618.756 -363.91)"/>
    </g>
    <path id="Path_4272" data-name="Path 4272" d="M265.74,486.89a.4.4,0,0,0,.479.063A1.623,1.623,0,0,1,265.74,486.89Z" transform="translate(-191.715 -292.356)" fill="url(#linear-gradient-2)"/>
    <path id="Path_4273" data-name="Path 4273" d="M252.773,297.57c-.948-.275-2.3-.725-3.927-1.3a20.739,20.739,0,0,0,3.638-7.365l-.137.053c.047-.164.095-.323.137-.492-3.122,1.275-6.575-.884-8.775-3.656s-3.685-6.212-6.1-8.762a27.94,27.94,0,0,0-3.232-2.8,4.46,4.46,0,0,0-2.343-1.153c-1.406-.042-2.506,1.344-3.859,1.751a5.239,5.239,0,0,1-2.69-.1c-3.49-.8-6.843-2.291-10.407-2.683a12.14,12.14,0,0,0-5.648.64c-1.79.683-2.606,2.042-4.053,3.132-1.579,1.169-4.664,1.143-6.5,1.349a46.356,46.356,0,0,1-6.717.28,15.641,15.641,0,0,0-3.864.143c-2.669.587-4.811,2.72-6.812,4.762a3.531,3.531,0,0,0-1.127,1.772,2.245,2.245,0,0,0,0,.587,3.832,3.832,0,0,0,.268,1.561,20.677,20.677,0,0,0,2.585,5.169,14.943,14.943,0,0,1,2.232,3.672,7.159,7.159,0,0,1,.342,2.116,15.466,15.466,0,0,1-.237,2.275,28.684,28.684,0,0,1-1.732,6.058,11.045,11.045,0,0,0-1.011,3.175,5.086,5.086,0,0,0,0,.677c-.132,3.492,3.374,6.005,4.053,9.476a5.685,5.685,0,0,1,.1.873,5.916,5.916,0,0,1-3.111,5.122c.158.064.321.116.484.169a4.378,4.378,0,0,1-.484.264,9.779,9.779,0,0,0,1.011.328,23.576,23.576,0,0,0-5.111,6.349c-6.091,11.4-47.341,33.72-47.341,33.72l.611.349-.495.323c-3.569,2.386-11.944,9.344-4.375,18.143,0,0,5.912-9.376,10.055-13.37.184-.18.368-.344.526-.5a1.222,1.222,0,0,1,.158.963l27.121-15.317s9.639-6.783,12.329-8.312a22.129,22.129,0,0,1,6.112-2.646l-.316.132a12.321,12.321,0,0,1,3.111-.444c4.8.074,10,3.608,11.713,17.6,2.3,18.741,1.232,22.122.495,22.582a1.347,1.347,0,0,1-.268-.048.457.457,0,0,0,.074.053,1.4,1.4,0,0,1-.295-.053.42.42,0,0,0,.4.1.372.372,0,0,0,.3-.037h0a3.1,3.1,0,0,0,.363,0,3.908,3.908,0,0,1-.037.529c-.037,0-.216.1,0,.111h0c-.058,1.058-.053,2.206,0,3.407-2.385.132-4.769.275-6.843.4l.184-.989.084-.444c1.832-.148,3.569-.688,3.774-2.18.447-3.28-4.032-5.032-7.844-5.249s-26.668,1.312-26.668,1.312-3.427,4.46,7.444,5.82l1.005.529a120.842,120.842,0,0,1,12.8,9.143l.384.307-1.242,1.016c6.722,1.529,13.224,27.349,16.809,39.153s11.428,11.376,17.93,9.624c6.091-1.64,6.843-19.418,6.943-21.651v-.228l10.834,13.45.821,1.021q.474.249.937.466c8.2,3.921,17.261-3.6,14.687-12.169-2.606-8.64-6.649-21.418-9.344-26.82-2.258-4.524-5.175-12.037-6.943-16.741a5.613,5.613,0,0,0,.669-.323s-.042-.212-.111-.6l.111-.058s-2.632-13.608-2.748-23.28v-.841c1.958-.45,3.2-.624,3.2-.624l.037-.423-.226.048,1.09-12.534s4-8.556.937-12.116a7.5,7.5,0,0,1-1.8-3.7c-.526-3.275,0-8.741,7.133-13.28,10.981-7,15.266-12.7,15.266-12.7S259.495,299.56,252.773,297.57Zm-21.809,8.7v-5.794c2.037-.1,4.117.138,6.164,0a15.527,15.527,0,0,0,2.974-.5l.495.344A54.171,54.171,0,0,1,230.963,306.269Zm-31.138,90.815c.805.561,1.616,1.143,2.411,1.73.495,2.857.932,4.873.963,5.016A39.686,39.686,0,0,0,199.826,397.084Z" transform="translate(-125.1 -190.682)" fill="url(#linear-gradient-3)"/>
    <path id="Path_4274" data-name="Path 4274" d="M277.568,500.32l-.474,2.587-.363,1.979-.663,3.619-6.433,4.524s-.579-.5-1.537-1.286a112.777,112.777,0,0,0-12.244-8.995,13.651,13.651,0,0,0-3.364-1.561Z" transform="translate(-185.44 -298.681)" fill="#ffbdc6"/>
    <path id="Path_4275" data-name="Path 4275" d="M277.564,500.32l-.474,2.587a19.9,19.9,0,0,1-4.243-.217l-15.008.217c-.711-.042-1.374-.1-2-.164a13.656,13.656,0,0,0-3.364-1.561Z" transform="translate(-185.435 -298.681)" opacity="0.1"/>
    <path id="Path_4276" data-name="Path 4276" d="M268.163,497.639s7.507,1.291,7.933-1.942-3.859-4.936-7.5-5.18-25.521,1.3-25.521,1.3-3.859,5.169,10.076,6.032Z" transform="translate(-180.75 -294.052)" fill="#7679b4"/>
    <path id="Path_4277" data-name="Path 4277" d="M277.568,500.32l-.474,2.587-.363,1.979-.663,3.619-6.433,4.524s-.579-.5-1.537-1.286a112.777,112.777,0,0,0-12.244-8.995,13.651,13.651,0,0,0-3.364-1.561Z" transform="translate(-185.44 -298.681)" opacity="0.1"/>
    <path id="Path_4278" data-name="Path 4278" d="M277.564,500.32l-.474,2.587a19.9,19.9,0,0,1-4.243-.217l-15.008.217c-.711-.042-1.374-.1-2-.164a13.656,13.656,0,0,0-3.364-1.561Z" transform="translate(-185.435 -298.681)" opacity="0.1"/>
    <path id="Path_4279" data-name="Path 4279" d="M268.163,497.639s7.507,1.291,7.933-1.942-3.859-4.936-7.5-5.18-25.521,1.3-25.521,1.3-3.859,5.169,10.076,6.032Z" transform="translate(-180.75 -294.052)" opacity="0.1"/>
    <rect id="Rectangle_3492" data-name="Rectangle 3492" width="39.234" height="46.762" transform="translate(64.576 97.338)" fill="#a66477"/>
    <rect id="Rectangle_3493" data-name="Rectangle 3493" width="39.234" height="46.762" transform="translate(64.576 97.338)" opacity="0.1"/>
    <path id="Path_4280" data-name="Path 4280" d="M146.986,451.044a6.283,6.283,0,0,0-2.39,1.7c-3.964,3.937-9.618,13.169-9.618,13.169-7.244-8.667.774-15.518,4.211-17.873.832-.571,1.39-.878,1.39-.878Z" transform="translate(-128.398 -273.648)" fill="#ffbdc6"/>
    <path id="Path_4281" data-name="Path 4281" d="M280.609,331.09s1.932,13.577,8.575,16.81-8.575,9.265-8.575,9.265l-20.8-7.757s11.792-3.878,9.433-15.3Z" transform="translate(-188.906 -218.99)" fill="#ffbdc6"/>
    <path id="Path_4282" data-name="Path 4282" d="M234.438,485.45l-.474,2.587-.363,1.979-.663,3.619-6.433,4.524s-.579-.5-1.537-1.286a112.79,112.79,0,0,0-12.244-8.995,13.656,13.656,0,0,0-3.364-1.561Z" transform="translate(-165.014 -291.678)" fill="#ffbdc6"/>
    <path id="Path_4283" data-name="Path 4283" d="M234.434,485.45l-.474,2.587a19.9,19.9,0,0,1-4.243-.217l-15.008.217c-.711-.042-1.374-.1-2-.164a13.651,13.651,0,0,0-3.364-1.561Z" transform="translate(-165.009 -291.678)" opacity="0.1"/>
    <path id="Path_4284" data-name="Path 4284" d="M224.988,482.773s7.507,1.291,7.933-1.942-3.859-4.958-7.507-5.169-25.515,1.291-25.515,1.291-3.859,5.169,10.076,6.032Z" transform="translate(-160.301 -287.059)" fill="#7679b4"/>
    <path id="Path_4285" data-name="Path 4285" d="M247.6,493.953l-.663,3.619-6.433,4.524s-.579-.5-1.537-1.286l8.507-7.01Z" transform="translate(-179.037 -295.61)" opacity="0.1"/>
    <path id="Path_4286" data-name="Path 4286" d="M289.3,534.754q-.442-.217-.895-.46l-.784-1.005-10.36-13.227v.233c-.068,2.2-.816,19.709-6.638,21.323-6.217,1.725-13.724,2.154-17.151-9.482s-9.649-37.063-16.082-38.571l9.539-7.868s6.317,7.407,8.9,14.54c-.095-.455-4.459-20.936-.858-24.556h31.3s4.822,13.831,8.149,20.688c2.579,5.323,6.449,17.9,8.949,26.418A10.086,10.086,0,0,1,289.3,534.754Z" transform="translate(-178.288 -287.078)" fill="#7679b4"/>
    <path id="Path_4287" data-name="Path 4287" d="M302.913,456.159c-4.827,2.873-26.052,1.7-32.969,1.238l-1.879-.138c-.205,0,.032-.116.032-.116l.195-1.958,5.143-13.143L300.987,426a24.081,24.081,0,0,0-.7,7.243C300.423,442.757,302.913,456.159,302.913,456.159Z" transform="translate(-192.776 -263.683)" opacity="0.1"/>
    <path id="Path_4288" data-name="Path 4288" d="M302.709,454.958c-4.827,2.873-26.052,1.7-32.969,1.238l-1.879-.137h-.311l.342-.09,1.7-.45,3.643-14.656,27.553-16.053a24.079,24.079,0,0,0-.7,7.243C300.219,441.551,302.709,454.958,302.709,454.958Z" transform="translate(-192.572 -263.123)" fill="#f2f1f2"/>
    <path id="Path_4289" data-name="Path 4289" d="M300.367,431.99c-5.6,1.3-17.93,5.111-22.668,14.286-3.158,6.127-5.791,8.757-7.67,9.857L268.15,456l.032-.116,1.7-.45,3.643-14.656,27.553-16.053A24.085,24.085,0,0,0,300.367,431.99Z" transform="translate(-192.856 -263.081)" opacity="0.1"/>
    <path id="Path_4290" data-name="Path 4290" d="M146.96,447.17l6.433,3.878a6.283,6.283,0,0,0-2.39,1.7c-.526-1.587-3.906-3.767-5.433-4.7C146.4,447.477,146.96,447.17,146.96,447.17Z" transform="translate(-134.804 -273.652)" opacity="0.1"/>
    <path id="Path_4291" data-name="Path 4291" d="M265.593,484.288a.383.383,0,0,1-.453-.058A1.541,1.541,0,0,0,265.593,484.288Z" transform="translate(-191.43 -291.104)" opacity="0.1"/>
    <path id="Path_4292" data-name="Path 4292" d="M223.4,331.912a12.711,12.711,0,0,1-9.865-3.661s-17.151,4.958-22.941,16.164S145.35,377.6,145.35,377.6s6.843,3.878,6.217,5.82l25.942-15.085s9.218-6.683,11.792-8.19,16.724-10.772,19.725,14.439,0,22.222,0,22.222,4.29,1.508,10.528-10.582,25.515-14.868,25.515-14.868l1.053-12.7s3.827-8.423.895-11.937a7.476,7.476,0,0,1-1.716-3.645c-.49-3.228,0-8.608,6.843-13.079,10.528-6.878,14.582-12.5,14.582-12.5s.216-4.1-6.217-6.032-32.59-12.5-32.59-12.5l-.858,3.661,20.583,14.656s-10.291,8.4-18.425,8.19C229.187,325.441,230.687,331.695,223.4,331.912Z" transform="translate(-134.7 -203.865)" fill="#565388"/>
    <path id="Path_4293" data-name="Path 4293" d="M289.638,337.551a42.516,42.516,0,0,1-1.184-5.291L277.088,335.3a12.654,12.654,0,0,1-.258,6.587,12.188,12.188,0,0,0,12.808-4.339Z" transform="translate(-196.967 -219.541)" opacity="0.1"/>
    <ellipse id="Ellipse_675" data-name="Ellipse 675" cx="12.223" cy="12.286" rx="12.223" ry="12.286" transform="translate(71.009 97.549)" fill="#ffbdc6"/>
    <path id="Path_4294" data-name="Path 4294" d="M265.643,273.9c3.39.386,6.617,1.852,9.954,2.646a4.894,4.894,0,0,0,2.574.1c1.3-.4,2.348-1.767,3.685-1.725a3.867,3.867,0,0,1,2.243,1.138,26.95,26.95,0,0,1,3.09,2.757c2.3,2.513,3.732,5.9,5.833,8.63s5.412,4.857,8.4,3.6c-2.027,7.936-8.681,14.005-15.871,14.5-2.869.2-5.791-.4-8.586.444a7.485,7.485,0,0,1-2.169.529c-1.579,0-2.885-1.476-3.885-2.91-2.337-3.376-4.211-7.206-6.843-10.28a5.594,5.594,0,0,0-3.122-2.169,5.759,5.759,0,0,0-3.453.974,16.394,16.394,0,0,0-5.054,3.524,7.068,7.068,0,0,0-1.706,6.2c.311,1.175,1.027,2.233,1.053,3.466,0,1.958-1.7,3.392-2.037,5.291a20.507,20.507,0,0,0-.084,2.413c-.153,2.614-1.848,4.762-3.627,6.4a4.6,4.6,0,0,0-1.658,2.312c-.137.672,0,1.386-.089,2.069-.258,1.7-1.942,2.556-3.432,2.778a9.9,9.9,0,0,1-5.148-.614,5.959,5.959,0,0,0,2.879-6.349c-.663-3.5-4.159-6.005-3.864-9.571a11.115,11.115,0,0,1,.969-3.148,28.924,28.924,0,0,0,1.653-5.968,10.161,10.161,0,0,0-.1-4.762,15.05,15.05,0,0,0-2.137-3.619,20.582,20.582,0,0,1-2.474-5.1,3.588,3.588,0,0,1-.237-1.683,3.49,3.49,0,0,1,1.053-1.746c1.916-2.016,3.969-4.116,6.517-4.7a14.538,14.538,0,0,1,3.685-.143,43.084,43.084,0,0,0,6.428-.275c1.758-.206,4.738-.18,6.222-1.333,1.384-1.058,2.169-2.407,3.88-3.085A11.3,11.3,0,0,1,265.643,273.9Z" transform="translate(-175.914 -192.01)" opacity="0.1"/>
    <path id="Path_4295" data-name="Path 4295" d="M308.48,513.76s7.075,14.005,4.933,18.318" transform="translate(-211.955 -305.01)" opacity="0.1"/>
    <path id="Path_4296" data-name="Path 4296" d="M323.453,570.207l-10.36-13.228v.233s-.6-4.275,1.374-2.836c4.322,3.143,11.239,8.3,11.386,9.185S324.453,568.017,323.453,570.207Z" transform="translate(-214.099 -323.996)" opacity="0.1"/>
    <g id="Group_8527" data-name="Group 8527" transform="translate(10.866 95.068)" opacity="0.1">
      <path id="Path_4297" data-name="Path 4297" d="M303.243,348.845s.874,3.64-1.953,5.46a4.878,4.878,0,0,0,4.411-5.635,13.645,13.645,0,0,1-2.458.175Z" transform="translate(-219.416 -322.337)"/>
      <path id="Path_4298" data-name="Path 4298" d="M148.124,403.112s39.45-21.979,45.24-33.185c4.153-8.042,14.161-12.862,19.477-14.947-3.88,1.307-16.935,6.317-21.841,15.81-5.791,11.206-45.24,33.185-45.24,33.185Z" transform="translate(-145.76 -325.308)"/>
      <path id="Path_4299" data-name="Path 4299" d="M310.752,323.7c6.712-2.116,13.129-7.339,13.129-7.339L303.3,301.7l.469-2.011L301.8,298.9l-.858,3.661,20.583,14.656A49.614,49.614,0,0,1,310.752,323.7Z" transform="translate(-219.251 -298.9)"/>
      <path id="Path_4300" data-name="Path 4300" d="M319.83,437.436a50.787,50.787,0,0,1,8.07-2.048l.037-.418A54.408,54.408,0,0,0,319.83,437.436Z" transform="translate(-228.197 -362.975)"/>
      <path id="Path_4301" data-name="Path 4301" d="M256.788,447.062h-.19a.383.383,0,0,1-.453-.058,1.57,1.57,0,0,0,.453.058c.705-.413,1.763-3.63-.453-22.254-2.369-19.884-11.665-18.323-16.756-16.037,5.2-1.439,12.36-.2,14.4,16.9,2.216,18.624,1.158,21.847.453,22.254a4.722,4.722,0,0,0,2.548-.862Z" transform="translate(-190.102 -350.025)"/>
      <path id="Path_4302" data-name="Path 4302" d="M267.193,483.888a1.57,1.57,0,0,1-.453-.058.383.383,0,0,0,.453.058Z" transform="translate(-203.054 -385.983)"/>
    </g>
    <path id="Path_4303" data-name="Path 4303" d="M265.643,273.114c3.39.386,6.617,1.852,9.954,2.645a4.893,4.893,0,0,0,2.574.1c1.3-.4,2.348-1.767,3.685-1.725a3.867,3.867,0,0,1,2.243,1.138,26.944,26.944,0,0,1,3.09,2.757c2.3,2.513,3.732,5.9,5.833,8.63s5.412,4.857,8.4,3.6c-2.027,7.936-8.681,14.005-15.871,14.5-2.869.2-5.791-.4-8.586.444a7.485,7.485,0,0,1-2.169.529c-1.579,0-2.885-1.476-3.885-2.91-2.337-3.376-4.211-7.206-6.843-10.28a5.594,5.594,0,0,0-3.122-2.169,5.759,5.759,0,0,0-3.453.974,16.394,16.394,0,0,0-5.054,3.524,7.069,7.069,0,0,0-1.706,6.2c.311,1.175,1.027,2.233,1.053,3.466,0,1.958-1.7,3.392-2.037,5.291a20.537,20.537,0,0,0-.084,2.413c-.153,2.614-1.848,4.762-3.627,6.4a4.6,4.6,0,0,0-1.658,2.312c-.137.672,0,1.386-.089,2.069-.258,1.7-1.943,2.556-3.432,2.778a9.9,9.9,0,0,1-5.148-.614,5.959,5.959,0,0,0,2.88-6.349c-.663-3.5-4.159-6.005-3.864-9.571a11.116,11.116,0,0,1,.969-3.148,28.923,28.923,0,0,0,1.653-5.968,10.161,10.161,0,0,0-.1-4.762,15.049,15.049,0,0,0-2.137-3.619,20.584,20.584,0,0,1-2.474-5.1,3.589,3.589,0,0,1-.237-1.683,3.49,3.49,0,0,1,1.053-1.746c1.916-2.016,3.969-4.116,6.517-4.7a14.541,14.541,0,0,1,3.685-.143,43.076,43.076,0,0,0,6.428-.275c1.758-.206,4.738-.18,6.222-1.333,1.384-1.058,2.169-2.407,3.88-3.085A11.3,11.3,0,0,1,265.643,273.114Z" transform="translate(-175.914 -191.638)" fill="#a66477"/>
    <path id="Path_4304" data-name="Path 4304" d="M858.226,208.8h0v-.2a.448.448,0,0,0-.032-.2h-.084v-.439c-.211-4.9-6.959-15.344-9.665-12.3-2.369,2.677,1.205,9.45,3.027,12.5l.163.275-.089-.058s-7.533,22.582-8.423,23.46-7.091,18.635-15.266,20.635c-1.616.386-2.958.735-4.085,1.058l.09-.3a32.851,32.851,0,0,0,1.437-5.291c.263-1.926,0-4.259-.969-5.2-.474-.466-1.053-.529-1.442-1.27a5.89,5.89,0,0,1-.4-2.037l-.695-8.561.484-.148c2.927-.942,5.764-3.175,6.1-6.18a3.167,3.167,0,0,1-.311.1q.058-.262.09-.529c-2.458.974-4.738-1.587-7.107-2.735-3.9-1.921-8.36-.111-12.387.328-4.564.5-8.9-1.4-13.56-1.058-2.537.2-5.359,1.926-5.222,4.439.079,1.381,1.053,2.55,1.453,3.873,1.011,3.2-1.237,6.413-3.206,9.143a13.642,13.642,0,0,0-2.758,6.085c-4.532-4.762-9.433-10.265-10-12.333L762.25,209.286s-.311.333-.811.825c-.079-.243-.174-.529-.279-.815-1.674-4.714-6.412-16.138-12.418-14.042s2.49,13.8,6.185,18.471l.526.645a1.655,1.655,0,0,1-.937-.042l14.624,25.212s2.658,4.825,5.1,6.138c0,0,18.167,23.021,18.388,27.624s8.17,16.884,8.17,16.884,2.658,19.952-2,23.46h.769q-.332.325-.679.714c-3.448,3.841-7.854,12.074-1.832,26.074,8.86,20.635,10.191,28.72,10.191,28.72s-16.845.878-20.162,1.534c-2.937.582-14.355.989-16.966,1.058-.932-1.09-3.685-3.5-7.4,0-4.654,4.386-7.975,19.048-7.975,19.048s-1.774,11.841,4.211,8.767c0,0,7.091-9.868,9.081-10.307.99-.217,2.037-1.683,2.837-3.1l.042.026h0c.047,0,.242-.106.558-.233h0c1.474-.587,5.533-2,8.733-1.3,1.753.386,9.27.476,17.151.455-1.779,4.286-4.969,15.344-4.969,15.344s-1.332,10.312,3.09,9.889c3.159-.312,8-8.423,10.528-13.053,1.832-1.349,7.08-6.185,10.96-5.82l26.142-10.085s6.2-3.508,2.879-15.127c-2.632-9.238-10.123-28.148-13.081-35.519h0l-.09-.19c-.716-1.783-1.148-2.841-1.148-2.841h0a43.677,43.677,0,0,1-2.374-10.429c-.026-.281-.048-.566-.068-.847a4.649,4.649,0,0,0,1.026-.6s-2.437-24.772,0-27.407h0l.042-.048h0v-.032h0l.042-.053h0l.095-.122h0l.116-.148h0c.132-.175.289-.392.469-.656h0c1.4-2.053,4-6.741,3.248-12.275h0q-.047-.36-.116-.725h0a15.164,15.164,0,0,0-1.516-4.3,11.972,11.972,0,0,1-.195-1.7v-1.5a5.121,5.121,0,0,1,.079-.762v-.1a.951.951,0,0,1,.047-.291V265.6a1.4,1.4,0,0,1,.063-.286v-.1c.032-.127.063-.254.105-.381v-.063q.047-.159.105-.312l.047-.122.105-.254.053-.127c.042-.1.089-.19.137-.286l.037-.079q.095-.175.2-.344l.058-.09.174-.249.084-.111.184-.222.084-.1c.095-.1.19-.2.295-.3,2.879-2.646,15.729-22.143,15.729-22.143s3.1-4.386,3.1-7.233C853.3,232.746,858.779,214.386,858.226,208.8Zm-34.5,163.889c-.316-3.005-.632-6.73-.921-10.582l5.012,7.852S827.347,372.355,823.73,372.693Z" transform="translate(-419.468 -154.906)" fill="url(#linear-gradient-4)"/>
    <path id="Path_4305" data-name="Path 4305" d="M779.9,525.7s-3-4.762-7.507-.429-7.717,18.746-7.717,18.746-1.716,11.64,4.074,8.619c0,0,6.843-9.7,8.791-10.127s4.075-5.82,4.075-5.82Z" transform="translate(-427.89 -309.572)" fill="#493545"/>
    <path id="Path_4306" data-name="Path 4306" d="M844.9,548.8s-4.074-1.942-5.359-.429-5.575,16.593-5.575,16.593-1.284,9.915,3,9.481,11.792-15.958,11.792-15.958Z" transform="translate(-460.733 -321.034)" fill="#493545"/>
    <path id="Path_4307" data-name="Path 4307" d="M844.9,548.8s-4.074-1.942-5.359-.429-5.575,16.593-5.575,16.593-1.284,9.915,3,9.481,11.792-15.958,11.792-15.958Z" transform="translate(-460.733 -321.034)" opacity="0.05"/>
    <path id="Path_4308" data-name="Path 4308" d="M867.091,470.934l9.217,14.439s-.642,3.233-6.217,2.587l-19.083,12.069s-1.658,14.693,3.643,13.36c.858-.217,6.843-6.466,11.149-6.032l25.3-9.915s6-3.45,2.785-14.868-13.85-37.894-13.85-37.894l-16.808,9.45Z" transform="translate(-468.772 -272.48)" fill="#3e3d77"/>
    <path id="Path_4309" data-name="Path 4309" d="M867.091,470.934l9.217,14.439s-.642,3.233-6.217,2.587l-19.083,12.069s-1.658,14.693,3.643,13.36c.858-.217,6.843-6.466,11.149-6.032l25.3-9.915s6-3.45,2.785-14.868-13.85-37.894-13.85-37.894l-16.808,9.45Z" transform="translate(-468.772 -272.48)" opacity="0.05"/>
    <path id="Path_4310" data-name="Path 4310" d="M843.3,478.432c1.284,8.19-6,8.836-6,8.836s-32.806.646-36.665-.217-9.007,1.508-9.007,1.508c-6.649-4.1-1.284-14.222-1.284-14.222s13.724-.429,16.94-1.058,19.509-1.524,19.509-1.524-1.284-7.974-9.865-28.228c-5.827-13.757-1.579-21.852,1.774-25.624a14.138,14.138,0,0,1,2.943-2.6l26.373,1.291a34.518,34.518,0,0,0,.147,4.005,42.83,42.83,0,0,0,3.5,13.228c-1.5,0-11.149,9.053-11.149,9.053S842.008,470.247,843.3,478.432Z" transform="translate(-439.189 -258.645)" fill="#3e3d77"/>
    <path id="Path_4311" data-name="Path 4311" d="M792.269,475.214s13.724-.429,16.94-1.058,19.509-1.508,19.509-1.508-1.285-7.974-9.865-28.228c-5.827-13.757-1.579-21.852,1.774-25.624a14.138,14.138,0,0,1,2.943-2.6l24.436,1.2v-.767l-26.373-1.291a14.14,14.14,0,0,0-2.943,2.6c-3.337,3.778-7.6,11.868-1.774,25.624,8.6,20.238,9.876,28.212,9.876,28.212s-16.319.862-19.509,1.508-16.94,1.058-16.94,1.058-5.359,10.132,1.285,14.243c0,0,.2-.1.526-.233C787.737,483.78,792.269,475.214,792.269,475.214Z" transform="translate(-439.191 -258.659)" opacity="0.1"/>
    <rect id="Rectangle_3494" data-name="Rectangle 3494" width="13.292" height="33.831" transform="translate(379.02 77.56)" fill="#493545"/>
    <rect id="Rectangle_3495" data-name="Rectangle 3495" width="13.292" height="33.831" transform="translate(379.02 77.56)" opacity="0.1"/>
    <path id="Path_4312" data-name="Path 4312" d="M879.381,251.34c.458.127.974.143,1.284.778a4.782,4.782,0,0,1,.311,1.587l.837,10.455a5.847,5.847,0,0,0,.39,2c.353.709.937.794,1.4,1.249.921.921,1.19,3.228.937,5.106a33.682,33.682,0,0,1-1.39,5.185c-.716,2.434-1.19,5.169-2.2,7.222s-2.832,3.175-4.011,1.45-1.021-5.206-1.242-8.058c-.369-4.762-2.216-8.868-2.342-13.661-.105-3.878.932-7.5,1.579-11.175.463-2.524.49-5.587,1.163-7.857C876.659,248.318,877.733,250.884,879.381,251.34Z" transform="translate(-479.467 -178.743)" fill="#493545"/>
    <path id="Path_4313" data-name="Path 4313" d="M879.381,251.34c.458.127.974.143,1.284.778a4.782,4.782,0,0,1,.311,1.587l.837,10.455a5.847,5.847,0,0,0,.39,2c.353.709.937.794,1.4,1.249.921.921,1.19,3.228.937,5.106a33.682,33.682,0,0,1-1.39,5.185c-.716,2.434-1.19,5.169-2.2,7.222s-2.832,3.175-4.011,1.45-1.021-5.206-1.242-8.058c-.369-4.762-2.216-8.868-2.342-13.661-.105-3.878.932-7.5,1.579-11.175.463-2.524.49-5.587,1.163-7.857C876.659,248.318,877.733,250.884,879.381,251.34Z" transform="translate(-479.467 -178.743)" opacity="0.1"/>
    <path id="Path_4314" data-name="Path 4314" d="M764.725,214.123l-5.143,4.312s-.611-.72-1.521-1.884c-3.574-4.587-11.792-16.1-5.985-18.153s10.4,9.164,12.018,13.8C764.5,213.372,764.725,214.123,764.725,214.123Z" transform="translate(-421.08 -156.388)" fill="#c77485"/>
    <path id="Path_4315" data-name="Path 4315" d="M945.5,212.731c-2.143,3.233-5.143,0-5.143,0s-.384-.577-.926-1.508c-1.764-3-5.222-9.651-2.932-12.286,2.632-3.011,9.154,7.265,9.354,12.085A2.879,2.879,0,0,1,945.5,212.731Z" transform="translate(-509.015 -156.504)" fill="#c77485"/>
    <path id="Path_4316" data-name="Path 4316" d="M854.08,288.221s4.29,13.794,3,17.884,9.223,8.852,9.223,8.852h12.007s4.29-8.836,3.216-11.423-10.291-4.524-10.291-4.524-5.359,0-5.143-14.439Z" transform="translate(-470.343 -197.084)" fill="#c77485"/>
    <path id="Path_4317" data-name="Path 4317" d="M771.924,226.626l-5.143,4.312s-.611-.72-1.521-1.884c1.869-.333,4.769-3.074,6.038-4.354C771.7,225.875,771.924,226.626,771.924,226.626Z" transform="translate(-428.279 -168.891)" opacity="0.1"/>
    <path id="Path_4318" data-name="Path 4318" d="M948.82,223.955c-2.143,3.233-5.143,0-5.143,0s-.384-.577-.926-1.508l.068-.217c1.39,1,5.711.148,6.354,0A2.879,2.879,0,0,1,948.82,223.955Z" transform="translate(-512.336 -167.728)" opacity="0.1"/>
    <path id="Path_4319" data-name="Path 4319" d="M875.479,420.582c-6.633,3.042-28.184-2.376-29.479-2.7a14.138,14.138,0,0,1,2.943-2.6l26.373,1.291A34.574,34.574,0,0,0,875.479,420.582Z" transform="translate(-466.516 -258.635)" opacity="0.1"/>
    <path id="Path_4320" data-name="Path 4320" d="M814.446,271.117s-5.143,1.725-12.434-4.958c0,0-16.319-16.164-17.372-20.042l-12.634-22.222s-5.359,5.82-7.507,4.958l14.15,24.783s2.574,4.762,4.932,6.032c0,0,17.582,22.63,17.793,27.154s7.922,16.64,7.922,16.64,2.574,19.608-1.932,23.058c0,0,25.084,6.466,30.443,2.153,0,0-2.358-24.339,0-26.937,0,0,7.291-8.619,2.358-18.1,0,0-1.053-5.169,1.716-7.757s15.224-21.767,15.224-21.767,3-4.312,3-7.111c0,0,5.575-18.963,4.738-23.921,0,0-4.932,1.058-6.433,0,0,0-7.291,22.222-8.149,23.058s-6.843,18.317-14.792,20.259-9.218,2.8-9.218,2.8,15.435,9.7,7.933,14.005S814.446,271.117,814.446,271.117Z" transform="translate(-427.919 -168.129)" fill="#ffaac4"/>
    <path id="Path_4321" data-name="Path 4321" d="M866.808,292.292a41.388,41.388,0,0,1-.311-6.122l-12.007,3.661a16.359,16.359,0,0,1,.753,2.476c1.374.608,3.227,2.048,4.822,2.048A10.9,10.9,0,0,0,866.808,292.292Z" transform="translate(-470.537 -197.838)" opacity="0.1"/>
    <ellipse id="Ellipse_676" data-name="Ellipse 676" cx="11.149" cy="11.206" rx="11.149" ry="11.206" transform="translate(378.162 73.465)" fill="#c77485"/>
    <path id="Path_4322" data-name="Path 4322" d="M830.975,246.485c-2.453.191-5.19,1.894-5.054,4.365.074,1.36,1,2.508,1.405,3.81.974,3.148-1.195,6.307-3.1,8.995s-3.685,6.249-2.053,9.1a22.378,22.378,0,0,0,1.506,1.974c2.016,2.735,1.99,6.429,2.885,9.714a16.95,16.95,0,0,0,19.92,12.169,10.693,10.693,0,0,1-2.237-7.206c.121-1.884.727-3.852,0-5.593-.937-2.238-3.685-3.122-5.1-5.079s-1.321-4.672-.637-7.005,1.869-4.5,2.437-6.878a20.768,20.768,0,0,1,.526-2.058c.99-2.825,3.948-4.466,6.843-5.169s5.938-.746,8.765-1.672,5.575-3.1,5.9-6.074c-2.379.958-4.585-1.54-6.88-2.688-3.78-1.884-8.091-.111-11.987.323C839.677,248,835.466,246.157,830.975,246.485Z" transform="translate(-454.929 -179.079)" opacity="0.1"/>
    <path id="Path_4323" data-name="Path 4323" d="M830.565,245.675c-2.453.19-5.19,1.894-5.054,4.365.074,1.36,1,2.508,1.406,3.81.974,3.148-1.195,6.307-3.1,8.995s-3.685,6.249-2.053,9.1a22.44,22.44,0,0,0,1.506,1.974c2.016,2.735,1.99,6.429,2.885,9.714a16.95,16.95,0,0,0,19.92,12.169,10.693,10.693,0,0,1-2.237-7.206c.121-1.884.726-3.852,0-5.593-.937-2.238-3.685-3.122-5.1-5.079s-1.321-4.672-.637-7.005,1.869-4.5,2.437-6.878a20.8,20.8,0,0,1,.526-2.058c.99-2.825,3.948-4.466,6.843-5.169s5.938-.746,8.765-1.672,5.575-3.1,5.9-6.074c-2.379.958-4.585-1.54-6.88-2.688-3.78-1.884-8.091-.111-11.987.323C839.277,247.188,835.082,245.321,830.565,245.675Z" transform="translate(-454.735 -178.697)" fill="#493545"/>
    <path id="Path_4324" data-name="Path 4324" d="M885.65,326.3s4.464,4.005,5.343,5.773" transform="translate(-485.294 -216.735)" opacity="0.1"/>
    <path id="Path_4325" data-name="Path 4325" d="M888.76,371.51a47.774,47.774,0,0,0-8.149.645c-2.574.645-8.791,0-8.791,0" transform="translate(-478.744 -238.024)" opacity="0.1"/>
    <g id="Group_8528" data-name="Group 8528" transform="translate(336.576 54.936)" opacity="0.1">
      <path id="Path_4326" data-name="Path 4326" d="M889.713,324.215a5.341,5.341,0,0,1-1.542.593,5.869,5.869,0,0,0,4.117-.593c7.507-4.312-7.933-14.005-7.933-14.005H881.78S897.22,319.908,889.713,324.215Z" transform="translate(-820.037 -264.094)"/>
      <path id="Path_4327" data-name="Path 4327" d="M952.742,223.442a2.273,2.273,0,0,0-.053-.392,25.075,25.075,0,0,1-2.669.407A11.764,11.764,0,0,0,952.742,223.442Z" transform="translate(-852.354 -223.05)"/>
      <path id="Path_4328" data-name="Path 4328" d="M809.941,331.669c4.5-3.45,1.932-23.058,1.932-23.058s-7.717-12.069-7.933-16.593-17.793-27.153-17.793-27.153c-2.358-1.291-4.933-6.032-4.933-6.032s-14.582-23.921-16.724-24.783l14.15,24.783s2.574,4.762,4.932,6.032c0,0,17.582,22.63,17.793,27.153s7.928,16.609,7.928,16.609,2.574,19.608-1.932,23.058c0,0,15.419,3.974,24.663,3.614C822.759,334.971,809.941,331.669,809.941,331.669Z" transform="translate(-764.49 -228.23)"/>
      <path id="Path_4329" data-name="Path 4329" d="M859.1,314.044l-.126-.164a3.378,3.378,0,0,1-.447.1C858.73,314.007,858.92,314.028,859.1,314.044Z" transform="translate(-809.026 -265.822)"/>
    </g>
    <g id="Group_8529" data-name="Group 8529" transform="translate(409.684 54.909)" opacity="0.1">
      <path id="Path_4330" data-name="Path 4330" d="M932.535,223l-.132.026c-.226,6.619-4.8,22.169-4.8,22.169,0,2.8-3,7.111-3,7.111s-12.434,19.18-15.224,21.767-1.716,7.757-1.716,7.757l.026.053c-.084-1.741.126-4.439,1.9-6.09,2.785-2.587,15.224-21.767,15.224-21.767s3-4.312,3-7.111C927.818,246.947,933.393,227.984,932.535,223Z" transform="translate(-905.309 -223)"/>
      <path id="Path_4331" data-name="Path 4331" d="M903.37,357.633c.321,1.831.105-.106.216,1.725,0,0,5.264-6.206,3.827-13.878C907.844,352.337,903.37,357.633,903.37,357.633Z" transform="translate(-903.37 -280.676)"/>
    </g>
    <ellipse id="Ellipse_677" data-name="Ellipse 677" cx="225.132" cy="21.735" rx="225.132" ry="21.735" transform="translate(22.163 306.549)" fill="#4284fc" opacity="0.1"/>
    <path id="Path_4332" data-name="Path 4332" d="M426.4,623.673s-7.665-26.164,1.437-45.418a41.513,41.513,0,0,0,3.327-25.926,69.768,69.768,0,0,0-3.653-12.169" transform="translate(-266.369 -317.441)" fill="none" stroke="#535461" stroke-miterlimit="10" stroke-width="2"/>
    <path id="Path_4333" data-name="Path 4333" d="M431.567,511.618c0,3.206-5.791,12.5-5.791,12.5s-5.791-9.3-5.791-12.5a5.829,5.829,0,0,1,2.757-5.4,5.765,5.765,0,0,1,6.036,0,5.829,5.829,0,0,1,2.757,5.4Z" transform="translate(-264.755 -301.058)" fill="#4284fc"/>
    <path id="Path_4334" data-name="Path 4334" d="M449.667,542.446c-1.732,2.693-11.608,7.339-11.608,7.339s.179-10.958,1.911-13.651a5.777,5.777,0,0,1,10.285.287,5.845,5.845,0,0,1-.589,6.025Z" transform="translate(-273.322 -314.13)" fill="#4284fc"/>
    <path id="Path_4335" data-name="Path 4335" d="M447.007,598.141c-2.848,1.444-13.687.444-13.687.444s5.659-9.37,8.507-10.815a5.765,5.765,0,0,1,6.035.045,5.833,5.833,0,0,1-.834,10.32Z" transform="translate(-271.078 -339.47)" fill="#4284fc"/>
    <path id="Path_4336" data-name="Path 4336" d="M436.859,642.3c-2.564,1.9-13.439,2.767-13.439,2.767s4-10.2,6.57-12.106a5.772,5.772,0,0,1,7.669,1.521,5.841,5.841,0,0,1-.825,7.812Z" transform="translate(-266.389 -360.745)" fill="#4284fc"/>
    <path id="Path_4337" data-name="Path 4337" d="M413.144,556.646c2.29,2.233,12.95,4.55,12.95,4.55s-2.632-10.64-4.9-12.878a5.781,5.781,0,0,0-9.968,2.585A5.837,5.837,0,0,0,413.144,556.646Z" transform="translate(-260.546 -320.367)" fill="#4284fc"/>
    <path id="Path_4338" data-name="Path 4338" d="M401,606.947c2.848,1.445,13.687.445,13.687.445s-5.638-9.37-8.486-10.788a5.778,5.778,0,0,0-7.391,2.754,5.836,5.836,0,0,0,2.19,7.611Z" transform="translate(-254.441 -343.81)" fill="#4284fc"/>
    <path id="Path_4339" data-name="Path 4339" d="M396.649,657.8c2.564,1.9,13.439,2.767,13.439,2.767s-4-10.2-6.57-12.106a5.785,5.785,0,0,0-9.608,3.884,5.829,5.829,0,0,0,2.764,5.449Z" transform="translate(-252.405 -367.752)" fill="#4284fc"/>
    <path id="Path_4340" data-name="Path 4340" d="M431.567,511.618c0,3.206-5.791,12.5-5.791,12.5s-5.791-9.3-5.791-12.5a5.829,5.829,0,0,1,2.757-5.4,5.765,5.765,0,0,1,6.036,0,5.829,5.829,0,0,1,2.757,5.4Z" transform="translate(-264.755 -301.058)" fill="#4284fc" opacity="0.1"/>
    <path id="Path_4341" data-name="Path 4341" d="M449.667,542.446c-1.732,2.693-11.608,7.339-11.608,7.339s.179-10.958,1.911-13.651a5.777,5.777,0,0,1,10.285.287,5.845,5.845,0,0,1-.589,6.025Z" transform="translate(-273.322 -314.13)" fill="#4284fc" opacity="0.1"/>
    <path id="Path_4342" data-name="Path 4342" d="M447.007,598.141c-2.848,1.444-13.687.444-13.687.444s5.659-9.37,8.507-10.815a5.765,5.765,0,0,1,6.035.045,5.833,5.833,0,0,1-.834,10.32Z" transform="translate(-271.078 -339.47)" fill="#4284fc" opacity="0.1"/>
    <path id="Path_4343" data-name="Path 4343" d="M436.859,642.3c-2.564,1.9-13.439,2.767-13.439,2.767s4-10.2,6.57-12.106a5.772,5.772,0,0,1,7.669,1.521,5.841,5.841,0,0,1-.825,7.812Z" transform="translate(-266.389 -360.745)" fill="#4284fc" opacity="0.1"/>
    <path id="Path_4344" data-name="Path 4344" d="M413.144,556.646c2.29,2.233,12.95,4.55,12.95,4.55s-2.632-10.64-4.9-12.878a5.781,5.781,0,0,0-9.968,2.585A5.837,5.837,0,0,0,413.144,556.646Z" transform="translate(-260.546 -320.367)" fill="#4284fc" opacity="0.1"/>
    <path id="Path_4345" data-name="Path 4345" d="M401,606.947c2.848,1.445,13.687.445,13.687.445s-5.638-9.37-8.486-10.788a5.778,5.778,0,0,0-7.391,2.754,5.836,5.836,0,0,0,2.19,7.611Z" transform="translate(-254.441 -343.81)" fill="#4284fc" opacity="0.1"/>
    <path id="Path_4346" data-name="Path 4346" d="M396.649,657.8c2.564,1.9,13.439,2.767,13.439,2.767s-4-10.2-6.57-12.106a5.785,5.785,0,0,0-9.608,3.884,5.829,5.829,0,0,0,2.764,5.449Z" transform="translate(-252.405 -367.752)" fill="#4284fc" opacity="0.1"/>
    <path id="Path_4347" data-name="Path 4347" d="M721.035,624.383s-7.664-26.164,1.437-45.418a41.512,41.512,0,0,0,3.327-25.926,69.747,69.747,0,0,0-3.653-12.169" transform="translate(-405.906 -317.776)" fill="none" stroke="#535461" stroke-miterlimit="10" stroke-width="2"/>
    <path id="Path_4348" data-name="Path 4348" d="M726.2,513.082c0,3.206-5.791,12.5-5.791,12.5s-5.79-9.3-5.79-12.5a5.788,5.788,0,0,1,11.549,0Z" transform="translate(-404.297 -302.152)" fill="#4284fc"/>
    <path id="Path_4349" data-name="Path 4349" d="M744.317,543.146c-1.732,2.693-11.608,7.339-11.608,7.339s.179-10.958,1.911-13.651a5.777,5.777,0,0,1,10.285.287A5.845,5.845,0,0,1,744.317,543.146Z" transform="translate(-412.864 -314.459)" fill="#4284fc"/>
    <path id="Path_4350" data-name="Path 4350" d="M741.687,598.832c-2.848,1.445-13.687.444-13.687.444s5.659-9.37,8.507-10.815a5.766,5.766,0,0,1,6.052.034,5.833,5.833,0,0,1-.873,10.336Z" transform="translate(-410.633 -339.79)" fill="#4284fc"/>
    <path id="Path_4351" data-name="Path 4351" d="M731.5,643.005c-2.564,1.9-13.439,2.767-13.439,2.767s4-10.2,6.57-12.106a5.772,5.772,0,0,1,7.668,1.521,5.841,5.841,0,0,1-.825,7.812Z" transform="translate(-405.926 -361.075)" fill="#4284fc"/>
    <path id="Path_4352" data-name="Path 4352" d="M707.8,557.346c2.29,2.233,12.95,4.55,12.95,4.55s-2.632-10.64-4.9-12.878a5.781,5.781,0,0,0-9.968,2.585A5.838,5.838,0,0,0,707.8,557.346Z" transform="translate(-400.092 -320.696)" fill="#4284fc"/>
    <path id="Path_4353" data-name="Path 4353" d="M695.622,607.623c2.848,1.444,13.687.444,13.687.444s-5.659-9.37-8.507-10.815a5.778,5.778,0,0,0-7.391,2.754,5.836,5.836,0,0,0,2.189,7.611Z" transform="translate(-393.959 -344.116)" fill="#4284fc"/>
    <path id="Path_4354" data-name="Path 4354" d="M692.046,659.045c2.564,1.9,13.439,2.767,13.439,2.767s-4-10.2-6.57-12.106a5.772,5.772,0,0,0-7.668,1.521,5.841,5.841,0,0,0,.825,7.812Z" transform="translate(-392.693 -368.628)" fill="#4284fc"/>
    <path id="Path_4355" data-name="Path 4355" d="M726.2,513.082c0,3.206-5.791,12.5-5.791,12.5s-5.79-9.3-5.79-12.5a5.788,5.788,0,0,1,11.549,0Z" transform="translate(-404.297 -302.152)" fill="#4284fc" opacity="0.1"/>
    <path id="Path_4356" data-name="Path 4356" d="M744.317,543.146c-1.732,2.693-11.608,7.339-11.608,7.339s.179-10.958,1.911-13.651a5.777,5.777,0,0,1,10.285.287A5.845,5.845,0,0,1,744.317,543.146Z" transform="translate(-412.864 -314.459)" fill="#4284fc" opacity="0.1"/>
    <path id="Path_4357" data-name="Path 4357" d="M741.687,598.832c-2.848,1.445-13.687.444-13.687.444s5.659-9.37,8.507-10.815a5.766,5.766,0,0,1,6.052.034,5.833,5.833,0,0,1-.873,10.336Z" transform="translate(-410.633 -339.79)" fill="#4284fc" opacity="0.1"/>
    <path id="Path_4358" data-name="Path 4358" d="M731.5,643.005c-2.564,1.9-13.439,2.767-13.439,2.767s4-10.2,6.57-12.106a5.772,5.772,0,0,1,7.668,1.521,5.841,5.841,0,0,1-.825,7.812Z" transform="translate(-405.926 -361.075)" fill="#4284fc" opacity="0.1"/>
    <path id="Path_4359" data-name="Path 4359" d="M707.8,557.346c2.29,2.233,12.95,4.55,12.95,4.55s-2.632-10.64-4.9-12.878a5.781,5.781,0,0,0-9.968,2.585A5.838,5.838,0,0,0,707.8,557.346Z" transform="translate(-400.092 -320.696)" fill="#4284fc" opacity="0.1"/>
    <path id="Path_4360" data-name="Path 4360" d="M695.622,607.623c2.848,1.444,13.687.444,13.687.444s-5.659-9.37-8.507-10.815a5.778,5.778,0,0,0-7.391,2.754,5.836,5.836,0,0,0,2.189,7.611Z" transform="translate(-393.959 -344.116)" fill="#4284fc" opacity="0.1"/>
    <path id="Path_4361" data-name="Path 4361" d="M692.046,659.045c2.564,1.9,13.439,2.767,13.439,2.767s-4-10.2-6.57-12.106a5.772,5.772,0,0,0-7.668,1.521,5.841,5.841,0,0,0,.825,7.812Z" transform="translate(-392.693 -368.628)" fill="#4284fc" opacity="0.1"/>
    <path id="Path_4362" data-name="Path 4362" d="M764.539,130.408h-3.306a2.313,2.313,0,0,0,2.1-1.129,2.338,2.338,0,0,0,0-2.392,2.313,2.313,0,0,0-2.1-1.129H734.428a2.329,2.329,0,0,0,0,4.651h3.306a2.329,2.329,0,0,0,0,4.651h-4.627a2.313,2.313,0,0,0-2.1,1.13,2.338,2.338,0,0,0,0,2.392,2.313,2.313,0,0,0,2.1,1.13h26.784a2.313,2.313,0,0,0,2.1-1.13,2.338,2.338,0,0,0,0-2.392,2.313,2.313,0,0,0-2.1-1.13h4.648a2.329,2.329,0,0,0,0-4.651Z" transform="translate(-411.903 -122.298)" fill="#dee3f3" opacity="0.5"/>
    <path id="Path_4363" data-name="Path 4363" d="M477.6,157.037h-2.516a1.761,1.761,0,0,0,1.607-.856,1.78,1.78,0,0,0,0-1.828,1.761,1.761,0,0,0-1.607-.856H454.7a1.773,1.773,0,0,0,0,3.54h2.516a1.761,1.761,0,0,0-1.607.856,1.78,1.78,0,0,0,0,1.828,1.761,1.761,0,0,0,1.607.856H453.7a1.761,1.761,0,0,0-1.607.856,1.78,1.78,0,0,0,0,1.828,1.761,1.761,0,0,0,1.607.856H474.08a1.761,1.761,0,0,0,1.607-.856,1.78,1.78,0,0,0,0-1.828,1.761,1.761,0,0,0-1.607-.856H477.6a1.773,1.773,0,0,0,0-3.54Z" transform="translate(-279.847 -135.361)" fill="#dee3f3" opacity="0.5"/>
    <path id="Path_4364" data-name="Path 4364" d="M174.465,634s9.212,18.175,1.706,28.116.684,37.037.684,37.037" transform="translate(-147.796 -361.631)" fill="none" stroke="#4284fc" stroke-miterlimit="10" stroke-width="1"/>
    <path id="Path_4365" data-name="Path 4365" d="M176.4,617.609a10.734,10.734,0,0,1-2.558,6.349,9.158,9.158,0,0,1,0-12.7A10.734,10.734,0,0,1,176.4,617.609Z" transform="translate(-146.98 -350.922)" fill="#4284fc"/>
    <path id="Path_4366" data-name="Path 4366" d="M180.666,634s-9.212,18.175-1.706,28.116-.684,37.037-.684,37.037" transform="translate(-149.222 -361.631)" fill="none" stroke="#4284fc" stroke-miterlimit="10" stroke-width="1"/>
    <path id="Path_4367" data-name="Path 4367" d="M179.67,617.609a10.734,10.734,0,0,0,2.558,6.349,9.158,9.158,0,0,0,0-12.7A10.734,10.734,0,0,0,179.67,617.609Z" transform="translate(-150.953 -350.922)" fill="#4284fc"/>
    <path id="Path_4368" data-name="Path 4368" d="M179.67,617.609a10.734,10.734,0,0,0,2.558,6.349,9.158,9.158,0,0,0,0-12.7A10.734,10.734,0,0,0,179.67,617.609Z" transform="translate(-150.953 -350.922)" opacity="0.1"/>
    <path id="Path_4369" data-name="Path 4369" d="M190.685,634s9.212,18.175,1.706,28.116.684,37.037.684,37.037" transform="translate(-155.477 -361.631)" fill="none" stroke="#4284fc" stroke-miterlimit="10" stroke-width="1"/>
    <path id="Path_4370" data-name="Path 4370" d="M192.567,617.609a10.734,10.734,0,0,1-2.558,6.349,9.158,9.158,0,0,1,0-12.7A10.734,10.734,0,0,1,192.567,617.609Z" transform="translate(-154.638 -350.922)" fill="#4284fc"/>
    <path id="Path_4371" data-name="Path 4371" d="M188.842,645.129a10.607,10.607,0,0,1-6.222,2.788,9.089,9.089,0,0,1,8.754-9.138A10.836,10.836,0,0,1,188.842,645.129Z" transform="translate(-152.35 -363.881)" fill="#4284fc"/>
    <path id="Path_4372" data-name="Path 4372" d="M189.3,668.829a10.608,10.608,0,0,1-6.222,2.788,9.089,9.089,0,0,1,8.754-9.138A10.717,10.717,0,0,1,189.3,668.829Z" transform="translate(-152.568 -375.042)" fill="#4284fc"/>
    <path id="Path_4373" data-name="Path 4373" d="M164.539,684.746a10.724,10.724,0,0,1,2.206,6.476,10.608,10.608,0,0,1-6.07-3.106,10.723,10.723,0,0,1-2.206-6.476A10.609,10.609,0,0,1,164.539,684.746Z" transform="translate(-140.913 -384.064)" fill="#4284fc"/>
    <path id="Path_4374" data-name="Path 4374" d="M167.995,635.716a10.694,10.694,0,0,1,3.848,5.651,10.569,10.569,0,0,1-6.675-1.36,10.7,10.7,0,0,1-3.848-5.651A10.48,10.48,0,0,1,167.995,635.716Z" transform="translate(-142.263 -361.759)" fill="#4284fc"/>
    <path id="Path_4375" data-name="Path 4375" d="M167.995,635.716a10.694,10.694,0,0,1,3.848,5.651,10.569,10.569,0,0,1-6.675-1.36,10.7,10.7,0,0,1-3.848-5.651A10.48,10.48,0,0,1,167.995,635.716Z" transform="translate(-142.263 -361.759)" opacity="0.1"/>
    <path id="Path_4376" data-name="Path 4376" d="M196.866,634s-9.212,18.175-1.706,28.116-.684,37.037-.684,37.037" transform="translate(-156.894 -361.631)" fill="none" stroke="#4284fc" stroke-miterlimit="10" stroke-width="1"/>
    <path id="Path_4377" data-name="Path 4377" d="M195.87,617.609a10.734,10.734,0,0,0,2.558,6.349,9.158,9.158,0,0,0,0-12.7A10.734,10.734,0,0,0,195.87,617.609Z" transform="translate(-158.625 -350.922)" fill="#4284fc"/>
    <path id="Path_4378" data-name="Path 4378" d="M195.87,617.609a10.734,10.734,0,0,0,2.558,6.349,9.158,9.158,0,0,0,0-12.7A10.734,10.734,0,0,0,195.87,617.609Z" transform="translate(-158.625 -350.922)" opacity="0.1"/>
    <path id="Path_4379" data-name="Path 4379" d="M194.9,648.874a10.868,10.868,0,0,0-2.632,6.349,10.591,10.591,0,0,0,6.254-2.714,10.868,10.868,0,0,0,2.632-6.349A10.591,10.591,0,0,0,194.9,648.874Z" transform="translate(-156.92 -367.357)" fill="#4284fc"/>
    <path id="Path_4380" data-name="Path 4380" d="M194.9,648.874a10.868,10.868,0,0,0-2.632,6.349,10.591,10.591,0,0,0,6.254-2.714,10.868,10.868,0,0,0,2.632-6.349A10.591,10.591,0,0,0,194.9,648.874Z" transform="translate(-156.92 -367.357)" opacity="0.1"/>
    <path id="Path_4381" data-name="Path 4381" d="M204.012,681.684a10.868,10.868,0,0,0-2.632,6.349,10.592,10.592,0,0,0,6.254-2.714,10.868,10.868,0,0,0,2.632-6.349A10.556,10.556,0,0,0,204.012,681.684Z" transform="translate(-161.235 -382.807)" fill="#4284fc"/>
    <path id="Path_4382" data-name="Path 4382" d="M193,668.885s5.543-8.783,13.329-8.995" transform="translate(-157.266 -373.822)" fill="none" stroke="#4284fc" stroke-miterlimit="10" stroke-width="1"/>
    <path id="Path_4383" data-name="Path 4383" d="M172.779,658.855s-5.543-8.783-13.329-8.995" transform="translate(-141.377 -369.099)" fill="none" stroke="#4284fc" stroke-miterlimit="10" stroke-width="1"/>
    <path id="Path_4384" data-name="Path 4384" d="M183.4,682.555s5.543-8.783,13.329-8.995" transform="translate(-152.72 -380.259)" fill="none" stroke="#4284fc" stroke-miterlimit="10" stroke-width="1"/>
    <ellipse id="Ellipse_678" data-name="Ellipse 678" cx="1.437" cy="1.444" rx="1.437" ry="1.444" transform="translate(47.357 284.576)" fill="#4284fc"/>
    <ellipse id="Ellipse_679" data-name="Ellipse 679" cx="1.437" cy="1.444" rx="1.437" ry="1.444" transform="translate(16.772 279.391)" fill="#4284fc"/>
    <path id="Path_4385" data-name="Path 4385" d="M179.159,687.995s-5.543-8.783-13.329-8.995" transform="translate(-144.399 -382.821)" fill="none" stroke="#4284fc" stroke-miterlimit="10" stroke-width="1"/>
    <ellipse id="Ellipse_680" data-name="Ellipse 680" cx="1.437" cy="1.444" rx="1.437" ry="1.444" transform="translate(20.131 294.819)" fill="#4284fc"/>
    <ellipse id="Ellipse_681" data-name="Ellipse 681" cx="1.437" cy="1.444" rx="1.437" ry="1.444" transform="translate(42.677 291.93)" fill="#4284fc"/>
    <path id="Path_4386" data-name="Path 4386" d="M202.182,725.408s-13.36-2.688-16.93-6.27-19.593-9.846-21.378-5.37-24.052,19.7-8.907,22.386,35.633,3.582,40.087,1.788S202.182,725.408,202.182,725.408Z" transform="translate(-136.769 -398.462)" fill="#a8a8a8"/>
    <path id="Path_4387" data-name="Path 4387" d="M154.974,746.145c15.145,2.688,35.633,3.582,40.087,1.788,3.39-1.365,5.748-7.936,6.68-10.963l.447.1s-2.674,10.746-7.128,12.535-24.942.894-40.087-1.788c-4.369-.778-5.622-2.6-5.148-4.9C150.194,744.393,151.72,745.568,154.974,746.145Z" transform="translate(-136.775 -410.119)" opacity="0.2"/>
    <path id="Path_4388" data-name="Path 4388" d="M1009.012,641.78s4.411,5.82-2.037,14.55-11.765,16.143-9.612,21.6c0,0,9.728-16.259,17.645-16.487S1017.724,651.552,1009.012,641.78Z" transform="translate(-537.969 -365.294)" fill="#4284fc"/>
    <path id="Path_4389" data-name="Path 4389" d="M1009.237,641.78a7.2,7.2,0,0,1,.9,1.82c7.728,9.122,11.839,17.635,4.417,17.852-6.917.2-15.214,12.63-17.2,15.773a6.79,6.79,0,0,0,.237.714s9.728-16.259,17.645-16.487S1017.949,651.552,1009.237,641.78Z" transform="translate(-538.193 -365.294)" opacity="0.1"/>
    <path id="Path_4390" data-name="Path 4390" d="M1034.563,654.586c0,2.042-.227,3.7-.526,3.7s-.526-1.656-.526-3.7.284-1.058.563-1.058S1034.563,652.548,1034.563,654.586Z" transform="translate(-555.318 -370.713)" fill="#ffd037"/>
    <path id="Path_4391" data-name="Path 4391" d="M1037.731,659.106c-1.785.979-3.337,1.587-3.469,1.317s1.2-1.243,2.985-2.217,1.079-.265,1.216,0S1039.51,658.128,1037.731,659.106Z" transform="translate(-555.67 -372.795)" fill="#ffd037"/>
    <path id="Path_4392" data-name="Path 4392" d="M966.763,641.78s-4.411,5.82,2.037,14.55,11.765,16.143,9.612,21.6c0,0-9.728-16.259-17.645-16.487S958.051,651.552,966.763,641.78Z" transform="translate(-519.019 -365.294)" fill="#4284fc"/>
    <path id="Path_4393" data-name="Path 4393" d="M966.763,641.78a7.19,7.19,0,0,0-.9,1.82c-7.728,9.122-11.839,17.635-4.417,17.852,6.917.2,15.214,12.63,17.2,15.773a6.761,6.761,0,0,1-.237.714s-9.728-16.259-17.645-16.487S958.051,651.552,966.763,641.78Z" transform="translate(-519.019 -365.294)" opacity="0.1"/>
    <path id="Path_4394" data-name="Path 4394" d="M960.09,654.586c0,2.042.226,3.7.526,3.7s.526-1.656.526-3.7-.284-1.058-.563-1.058S960.09,652.548,960.09,654.586Z" transform="translate(-520.547 -370.713)" fill="#ffd037"/>
    <path id="Path_4395" data-name="Path 4395" d="M953.761,659.106c1.784.979,3.337,1.587,3.469,1.317s-1.2-1.243-2.985-2.217-1.079-.265-1.216,0S951.977,658.128,953.761,659.106Z" transform="translate(-517.035 -372.795)" fill="#ffd037"/>
    <path id="Path_4396" data-name="Path 4396" d="M962.76,702.711s12.334-.381,16.05-3.042,18.951-5.82,19.893-1.587,18.535,21.222,4.611,21.333-32.354-2.18-36.065-4.45S962.76,702.711,962.76,702.711Z" transform="translate(-521.812 -390.833)" fill="#a8a8a8"/>
    <path id="Path_4397" data-name="Path 4397" d="M1003.563,723.9c-13.924.111-32.354-2.18-36.065-4.45-2.827-1.73-3.953-7.937-4.327-10.8h-.411s.779,10,4.49,12.27,22.141,4.566,36.065,4.45c4.022-.032,5.406-1.471,5.333-3.6C1008.09,723.068,1006.579,723.872,1003.563,723.9Z" transform="translate(-521.812 -396.783)" opacity="0.2"/>
    <path id="Path_4398" data-name="Path 4398" d="M272.7,189.738h-3.306a2.313,2.313,0,0,0,2.1-1.129,2.338,2.338,0,0,0,0-2.392,2.313,2.313,0,0,0-2.1-1.129H242.607a2.329,2.329,0,0,0,0,4.651h3.306a2.329,2.329,0,0,0,0,4.651h-4.627a2.329,2.329,0,0,0,0,4.651H268.07a2.313,2.313,0,0,0,2.1-1.129,2.338,2.338,0,0,0,0-2.392,2.313,2.313,0,0,0-2.1-1.129H272.7a2.329,2.329,0,0,0,0-4.651Z" transform="translate(-179.089 -150.237)" fill="#dee3f3" opacity="0.5"/>
  </g>
</svg>
