<?xml version="1.0" encoding="utf-8"?>
<!-- Generator: Adobe Illustrator 21.0.0, SVG Export Plug-In . SVG Version: 6.00 Build 0)  -->
<svg version="1.1" id="Layer_1" xmlns="http://www.w3.org/2000/svg" xmlns:xlink="http://www.w3.org/1999/xlink" x="0px" y="0px"
	 viewBox="0 0 43 36" style="enable-background:new 0 0 43 36;" xml:space="preserve">
<style type="text/css">
	.st0{fill:none;stroke:#657786;stroke-width:2;}
</style>
<g id="Group_8390" transform="translate(-18334.5 -18895.5)">
	<path id="Rectangle_3324" class="st0" d="M18337,18896.5h38c0.8,0,1.5,0.7,1.5,1.5v9c0,0.8-0.7,1.5-1.5,1.5h-38
		c-0.8,0-1.5-0.7-1.5-1.5v-9C18335.5,18897.2,18336.2,18896.5,18337,18896.5z"/>
	<path id="Rectangle_3325" class="st0" d="M18362,18919.5h13c0.8,0,1.5,0.7,1.5,1.5v8c0,0.8-0.7,1.5-1.5,1.5h-13
		c-0.8,0-1.5-0.7-1.5-1.5v-8C18360.5,18920.2,18361.2,18919.5,18362,18919.5z"/>
	<path id="Path_4187" class="st0" d="M18368.5,18919.4v-10.7"/>
	<path id="Rectangle_3326" class="st0" d="M18337,18919.5h13c0.8,0,1.5,0.7,1.5,1.5v8c0,0.8-0.7,1.5-1.5,1.5h-13
		c-0.8,0-1.5-0.7-1.5-1.5v-8C18335.5,18920.2,18336.2,18919.5,18337,18919.5z"/>
	<path id="Path_4188" class="st0" d="M18343.5,18919.4v-10.7"/>
</g>
</svg>
