<?xml version="1.0" encoding="utf-8"?>
<!-- Generator: Adobe Illustrator 19.0.0, SVG Export Plug-In . SVG Version: 6.00 Build 0)  -->
<svg version="1.1" id="Layer_1" xmlns="http://www.w3.org/2000/svg" xmlns:xlink="http://www.w3.org/1999/xlink" x="0px" y="0px"
	 viewBox="-30.5 -81.5 186 186" style="enable-background:new -30.5 -81.5 186 186;" xml:space="preserve">
<style type="text/css">
	.st0{fill:#F5F8FA;}
	.st1{fill:#DDE3E9;}
</style>
<circle class="st0" cx="62.5" cy="11.5" r="93"/>
<g>
	<g transform="matrix(1 0 0 1 -25 -25 )">
		<path class="st1" d="M150.8,36.5c0-35-28.4-63.3-63.3-63.3S24.2,1.5,24.2,36.5s28.4,63.3,63.3,63.3S150.8,71.5,150.8,36.5z
			 M141.8,36.5c0,13.6-5.1,26.6-14.3,36.6c-2.1-3.7-4.7-7.1-7.6-10.1C102,45.1,73,45.1,55.2,62.9l0,0c-3,3-5.6,6.4-7.6,10.1
			c-9.2-9.9-14.3-23-14.3-36.6c0-30,24.3-54.3,54.3-54.3S141.8,6.5,141.8,36.5z"/>
	</g>
	<g transform="matrix(1 0 0 1 -58 -48 )">
		<path class="st1" d="M100.5,43.5c0-11,9-20,20-20s20,9,20,20s-9,20-20,20S100.5,54.5,100.5,43.5z"/>
	</g>
</g>
</svg>
