<svg xmlns="http://www.w3.org/2000/svg" xmlns:xlink="http://www.w3.org/1999/xlink" width="307.057" height="229.268" viewBox="0 0 307.057 229.268">
  <defs>
    <linearGradient id="linear-gradient" x1="0.5" y1="0.626" x2="0.5" y2="0.981" gradientUnits="objectBoundingBox">
      <stop offset="0" stop-color="#534647"/>
      <stop offset="1" stop-color="#3b3132"/>
    </linearGradient>
    <linearGradient id="linear-gradient-2" x1="0.331" y1="1.026" x2="0.669" y2="0.208" gradientUnits="objectBoundingBox">
      <stop offset="0" stop-color="#332b2c"/>
      <stop offset="1" stop-color="#705f60"/>
    </linearGradient>
  </defs>
  <g id="Group_8386" data-name="Group 8386" transform="translate(-1174.943 -630)">
    <g id="img_02" transform="translate(1174.943 630)">
      <path id="Path_3566" data-name="Path 3566" d="M813.225,424.688h-256.1S675.237,465.89,813.225,424.688Z" transform="translate(-506.168 -213.732)" fill="#231f20" opacity="0.1"/>
      <g id="Group_6146" data-name="Group 6146" transform="translate(0)">
        <path id="Path_3567" data-name="Path 3567" d="M864.185,321.966c-1.7,4.386-8.72,20.979-25.183,27.173-23.568,8.867-53.806-8.075-61.533-33.022-6.956-22.456,4.851-49.708,21.939-56.547a25.054,25.054,0,0,1,5.99-1.562v3.125l-12.762,7.813q-5.859,16.278-11.719,32.555,9.767,16.928,19.532,33.857L833,340.566l12.5-26.825Z" transform="translate(-775.439 -213.733)" fill="#c9c9ad"/>
        <path id="Path_3568" data-name="Path 3568" d="M648.452,303.324a227.125,227.125,0,0,1,.387,52.608,236.351,236.351,0,0,1-20.263,72.923H603.054l8.873-37.5a87.866,87.866,0,0,1,6.318-51.046A92.138,92.138,0,0,1,648.452,303.324Z" transform="translate(-389.047 -213.733)" fill="#3d3334"/>
        <path id="Path_3569" data-name="Path 3569" d="M746.437,396.821c1.922,12.987,3.181,23.774,3.976,31.252l-22.677-.52c-2.91-11.83-5.641-24.254-8.1-37.243-4-21.154-6.77-41.194-8.641-59.9,13.077,6.862,19.861,15.035,23.381,20.315C738.352,356.682,741.593,364.1,746.437,396.821Z" transform="translate(-597.227 -213.733)" fill="#3d3334"/>
        <path id="Path_3570" data-name="Path 3570" d="M752.867,301.761A254.8,254.8,0,0,1,750,400.207l-14.324,8.334-7.813-8.334L712.5,407.759q-5.079-5.729-10.157-11.459l-11.2,8.6-7.813-11.2-9.9,11.719-8.855-11.459-12.24,9.376-6.251-10.157-10.157,8.594-7.813-9.636-9.636,10.157-9.115-10.157-5.73,6.511L584.1,359.318l-7.032,3.646q1.824-5.339,3.646-10.678l-5.729,3.907,1.3-10.157-6.25,3.385c-1.177-8.554-2.155-17.5-2.865-26.825a446.169,446.169,0,0,1-.261-64.067l79.173-17.189,14.845,16.668L687.5,268.946l22.658,13.8,25.783,7.814Z" transform="translate(-458.043 -213.733)" fill="url(#linear-gradient)"/>
        <path id="Path_3571" data-name="Path 3571" d="M567.219,322.6a446.169,446.169,0,0,1-.261-64.067l79.173-17.189,14.845,16.668,26.565,10.938,22.658,13.8,25.783,7.814,16.929,11.2a262.006,262.006,0,0,1,2.083,68.756l-8.855,12.24L736.5,367.392l-8.334,14.063q-6.381-7.942-12.761-15.887l-7.814,14.064-7.552-11.72q-4.428,7.163-8.855,14.324l-5.469-14.324-9.9,14.324-8.855-17.97-13.282,17.189-9.9-18.751-12.5,16.407L618,361.662l-8.855,17.97-10.938-17.71-8.085,9.433-5.979-12.037-7.032,3.646q1.824-5.339,3.646-10.678l-5.729,3.907,1.3-10.157-6.25,3.385C568.907,340.867,567.929,331.918,567.219,322.6Z" transform="translate(-458.086 -213.733)" fill="#695859" opacity="0.2"/>
        <path id="Path_3572" data-name="Path 3572" d="M567.178,322.6a446.169,446.169,0,0,1-.261-64.067L646.09,241.34l14.845,16.668L687.5,268.946l22.658,13.8,25.783,7.814,16.929,11.2A250.073,250.073,0,0,1,756,330.149c.362,6.893.418,13.421.26,19.533q-3.906-6.12-7.813-12.241l-7.032,10.418q-3.516-6.381-7.031-12.762l-5.73,14.324L719.014,336.4l-7.293,13.8Q707.294,342,702.867,333.8L694.533,350.2l-7.814-17.189-12.5,12.5q-3.906-8.075-7.813-16.147L655.466,342.91l-6.25-21.1L638.8,339l-13.022-18.752-11.2,25.784-9.9-11.72q-2.344,9.506-4.688,19.012l-11.459-5.99q-3.831,2.324-7.814,4.948-2.96,1.956-5.729,3.907l1.3-10.157-6.25,3.385C568.866,340.867,567.888,331.918,567.178,322.6Z" transform="translate(-458.046 -213.733)" fill="#695859" opacity="0.5"/>
        <path id="Path_3573" data-name="Path 3573" d="M616.24,258.008l26.565,10.938,22.658,13.8,25.783,7.814,16.929,11.2c.8,5.031,1.509,10.333,2.083,15.887.65,6.279,1.065,12.281,1.3,17.97l-8.334-19.012-8.855,12.5-4.687-23.439L677.7,322.6l-8.334-20.314-8.854,13.543-7.032-21.1-15.366,12.5-5.73-20.315-12.5,13.8q-3.124-12.372-6.25-24.742L599.572,294.99,592.8,278.062l-15.366,17.449-11.459-29.69q2.28-8.891,4.559-17.781l30.86-6.7Z" transform="translate(-413.351 -213.733)" fill="#695859"/>
        <path id="Path_3574" data-name="Path 3574" d="M730.833,370.517c-.5,4.856-1.177,9.991-2.083,15.366-.851,5.048-1.823,9.828-2.865,14.324l-14.324,8.334-7.813-8.334-15.366,7.552q-5.079-5.729-10.157-11.459l-11.2,8.6-7.813-11.2-9.9,11.719-8.855-11.459-12.24,9.376-6.251-10.157-10.157,8.594L604,392.133l-9.636,10.157-9.115-10.157-5.73,6.511q-6.12-12.24-12.241-24.481a180.856,180.856,0,0,0,163.555-3.646Z" transform="translate(-433.926 -213.733)" fill="#231f20" opacity="0.2"/>
        <path id="Path_3575" data-name="Path 3575" d="M666.1,330.149c7.125,4.121,19.62,12.819,26.825,28.388,4.164,9,4.98,16.752,5.814,25.523a135.931,135.931,0,0,1-3.747,46.357H674.436Z" transform="translate(-501.237 -213.733)" fill="#574a4b"/>
        <path id="Path_3576" data-name="Path 3576" d="M607.2,349.682a236.916,236.916,0,0,1-10.157,68.5q-2.77,5.859-5.542,11.72H565.976l3.2-8.074q1.711-14.715,3.421-29.429a48.847,48.847,0,0,1,34.6-42.712Z" transform="translate(-308.988 -213.733)" fill="#57494a"/>
        <path id="Path_3577" data-name="Path 3577" d="M789.812,249.153c-2.262.4-10.394,2.133-15.626,9.376-5.951,8.237-5.724,20.245.781,29.95Q782.389,268.816,789.812,249.153Z" transform="translate(-695.525 -213.733)" fill="#3b3132"/>
        <path id="Path_3578" data-name="Path 3578" d="M799.067,246.028q-5.989,27.867-11.98,55.733l-25,19.533q-.52,4.167-1.042,8.334-1.692-3.385-3.386-6.771-1.041,3.386-2.083,6.771l-3.125-7.032q-1.694,3.386-3.386,6.772l-1.3-7.553L699.58,308.793l26.3-57.036q3-10.157,5.99-20.314l-4.948-6.25,7.552,1.3q-2.212-3.646-4.427-7.292l7.032,2.6q-1.693-4.037-3.386-8.074A73.177,73.177,0,0,1,761.043,231.7Z" transform="translate(-634.462 -213.733)" fill="url(#linear-gradient-2)"/>
        <path id="Path_3579" data-name="Path 3579" d="M770.679,265.561,729.01,250.455c.118.694,2.722,14.427,15.886,19.533A25.581,25.581,0,0,0,770.679,265.561Z" transform="translate(-635.504 -213.733)" fill="#231f20" opacity="0.2"/>
        <path id="Path_3580" data-name="Path 3580" d="M830.06,312.96c.635,6.322,1.026,13.11,1.041,20.314a209.262,209.262,0,0,1-5.729,48.962c-1.573,1.377-12.29,10.462-26.3,8.074C785.5,388,774.46,375.9,772.5,360.36l10.418.26q1.041,5.73,2.083,11.459L804.537,370l6.771-12.5-6.771-48.7Z" transform="translate(-739.419 -213.733)" fill="#3d3334"/>
        <path id="Path_3581" data-name="Path 3581" d="M770.679,265.561,729.01,250.455l7.813-2.865q-1.824-2.343-3.646-4.688a16.731,16.731,0,0,1,5.729.521,17.079,17.079,0,0,1,7.813,4.688q-1.172-2.865-2.344-5.729a17.97,17.97,0,0,1,5.469,1.562A19.31,19.31,0,0,1,758.7,252.8l-1.041-5.99a30.97,30.97,0,0,1,5.99,5.209A31.8,31.8,0,0,1,770.679,265.561Z" transform="translate(-635.504 -213.733)" fill="#917a7b"/>
        <path id="Path_3582" data-name="Path 3582" d="M743.579,262.956c1.486.359,2.346,3.033,1.563,4.948-.518,1.268-1.965,2.715-3.386,2.344s-1.96-2.315-1.823-3.646C740.143,264.564,742.1,262.6,743.579,262.956Z" transform="translate(-621.165 -213.733)" fill="#231f20"/>
        <path id="Path_3583" data-name="Path 3583" d="M768.888,253.58c1.479.383,2.262,2.885,1.562,4.688-.5,1.287-1.947,2.719-3.385,2.344s-1.995-2.3-1.823-3.646C765.488,255.032,767.4,253.2,768.888,253.58Z" transform="translate(-671.735 -213.733)" fill="#231f20"/>
        <path id="Path_3584" data-name="Path 3584" d="M828.175,310.356c4.093,15.663-.212,32.047-11.459,42.451-1.59,1.471-15.966,14.326-34.638,9.9-17.845-4.234-25.074-20.8-26.565-24.221-9.478-21.727,2.778-43.418,5.47-48.181a61.908,61.908,0,0,1,8.594-11.72l2.865,3.126q-3,5.859-5.99,11.719l-5.73,39.326q10.807,10.289,21.616,20.575l24.742-8.334q1.563-13.413,3.125-26.825Z" transform="translate(-717.481 -213.733)" fill="#dedebf"/>
        <path id="Path_3585" data-name="Path 3585" d="M776.93,294.469a34.735,34.735,0,0,1-8.595,18.491c-10.1,11.05-23.939,11.21-26.3,11.2q1.822-19.4,3.646-38.805Z" transform="translate(-654.776 -213.733)" fill="#4c4142"/>
        <path id="Path_3586" data-name="Path 3586" d="M703.825,259.57q-5.079,21.617-10.157,43.233.383,5.6.764,11.2c2.468-1.351,12.922-7.433,16.945-20.314C717.058,275.5,704.672,260.558,703.825,259.57Z" transform="translate(-542.344 -213.733)" fill="#3b3132"/>
        <path id="Path_3587" data-name="Path 3587" d="M607.647,430.157q-.261-2.475-.521-4.948a5.081,5.081,0,0,0-2.344,1.041,5.232,5.232,0,0,0-1.823,3.126q-.391-2.214-.782-4.428a4.32,4.32,0,0,0-2.083.782,4.823,4.823,0,0,0-1.823,3.646q-.391-2.084-.781-4.167a5.107,5.107,0,0,0-1.824,1.3,5.431,5.431,0,0,0-1.3,3.646h13.283Z" transform="translate(-337.824 -213.732)" fill="#3b3132"/>
        <path id="Path_3588" data-name="Path 3588" d="M692.289,430.938q-.26-2.473-.52-4.948a5.076,5.076,0,0,0-2.344,1.042,5.23,5.23,0,0,0-1.823,3.125q-.391-2.214-.782-4.427a4.3,4.3,0,0,0-2.083.781,4.822,4.822,0,0,0-1.823,3.646q-.392-2.084-.782-4.167a5.127,5.127,0,0,0-1.823,1.3,5.431,5.431,0,0,0-1.3,3.646h13.282Z" transform="translate(-507.11 -213.732)" fill="#3b3132"/>
        <path id="Path_3589" data-name="Path 3589" d="M734.48,428.073q-.261-2.473-.521-4.948a5.084,5.084,0,0,0-2.344,1.042,5.23,5.23,0,0,0-1.823,3.125q-.392-2.214-.782-4.427a4.316,4.316,0,0,0-2.083.781,4.826,4.826,0,0,0-1.823,3.646q-.391-2.083-.781-4.167a5.132,5.132,0,0,0-1.824,1.3,5.431,5.431,0,0,0-1.3,3.646H734.48Z" transform="translate(-591.49 -213.732)" fill="#3b3132"/>
        <path id="Path_3590" data-name="Path 3590" d="M651.921,428.855q-.259-2.475-.521-4.949a5.1,5.1,0,0,0-2.344,1.042,5.241,5.241,0,0,0-1.823,3.125q-.39-2.213-.781-4.427a4.316,4.316,0,0,0-2.083.781,4.828,4.828,0,0,0-1.824,3.646q-.39-2.084-.781-4.167a5.131,5.131,0,0,0-1.823,1.3,5.429,5.429,0,0,0-1.3,3.646h13.282Z" transform="translate(-426.373 -213.732)" fill="#3b3132"/>
      </g>
    </g>
    <path id="Path_3591" data-name="Path 3591" d="M600.482,392.394c-.755,4.107-1.216,6.625-1.95,9.5-.535,2.1-1.05,3.84-1.436,5.08l-12.518,7.813-8.334-13.282-8.35,7.154,1.891-16.269a48.475,48.475,0,0,1,1.231-7.488l6.808-7.618,9.375,12.241,10.939-14.064,4.332,4.126C601.94,383.74,601.288,388.009,600.482,392.394Z" transform="translate(868.765 416.267)" fill="#231f20" opacity="0.2"/>
    <path id="Path_3592" data-name="Path 3592" d="M666.1,383.628l3.889-4.517,8.074,8.855,10.157-11.98,6.057,7.892.017.182a131.163,131.163,0,0,1,.073,23.82L689,401.769q-4.426,5.86-8.855,11.72L671.3,403.332l-3.228,3.919Q667.085,395.44,666.1,383.628Z" transform="translate(678.151 416.267)" fill="#231f20" opacity="0.2"/>
  </g>
</svg>
