<svg xmlns="http://www.w3.org/2000/svg" xmlns:xlink="http://www.w3.org/1999/xlink" width="104.272" height="107.487" viewBox="0 0 104.272 107.487">
  <defs>
    <linearGradient id="linear-gradient" x1="-2.6" y1="0.595" x2="-3.613" y2="0.448" gradientUnits="objectBoundingBox">
      <stop offset="0" stop-color="#c7ab8d"/>
      <stop offset="1" stop-color="#a67c66"/>
    </linearGradient>
  </defs>
  <g id="img_01" transform="translate(-1023.57 -380.252)">
    <g id="Group_6149" data-name="Group 6149">
      <path id="Path_3593" data-name="Path 3593" d="M1023.57,466.164h104.272S1079.753,511.18,1023.57,466.164Z" fill="#231f20" opacity="0.1"/>
      <path id="Path_3594" data-name="Path 3594" d="M1081.129,428.878a23.292,23.292,0,0,1,.1,22.8q.632,8.307,1.264,16.615l3.25-1.264-.18,3.431h-6.5l-5.139-24.539a16.711,16.711,0,0,1,7.2-17.04Z" fill="#8a6856"/>
      <path id="Path_3595" data-name="Path 3595" d="M1049.561,450.264a24.83,24.83,0,0,0-6.629-11.159,24.545,24.545,0,0,0-6.033-4.223l-6.828,3.935a40.249,40.249,0,0,0,8.453,33.087l9.2-.265Z" fill="#a77e68"/>
      <path id="Path_3596" data-name="Path 3596" d="M1088.007,391.63q-1.338,11.859-2.677,23.719l-34.148,13.137a30.928,30.928,0,0,0-11.783,15.033c-3.929,11.1.126,21.178,2.731,25.992h24.249l.243-14.208,32.7-18.976q2.289-19.053,4.577-38.105Z" fill="#b09278"/>
      <path id="Path_3597" data-name="Path 3597" d="M1041.148,467.683a33.987,33.987,0,0,0,4.267,7.314c.451.589,6.505,8.319,15.322,11.355,10.279,3.538,22.718.146,32.281-8.308l-1.9-2.167-7.856,5.418-11.784,3.115-11.377-1.083q-3.385-4.268-6.772-8.533.2-3.657.389-7.314Z" fill="#b09278"/>
      <path id="Path_3598" data-name="Path 3598" d="M1056.042,456.644a71.934,71.934,0,0,0,1.179,8.285c.326,1.612.693,3.14,1.085,4.582h8.073l.243-14.208,32.7-18.976-4.949-2.844Z" fill="#231f20" opacity="0.2"/>
      <path id="Path_3599" data-name="Path 3599" d="M1039.583,442.739q4.362.715,8.9,1.354,6.8.953,13.274,1.625a33.969,33.969,0,0,0-21.188-5.026Q1040.077,441.717,1039.583,442.739Z" fill="#524842"/>
      <path id="Path_3600" data-name="Path 3600" d="M1067.718,442.648a32.707,32.707,0,0,0-14.809-7.134,31.733,31.733,0,0,0-8.606-.451,8.638,8.638,0,0,0-.92.936,8.748,8.748,0,0,0-.991,1.441,69.72,69.72,0,0,1,25.326,5.208Z" fill="#524842"/>
      <path id="Path_3601" data-name="Path 3601" d="M1047.422,431.477l1.176-.974a27.31,27.31,0,0,1,7.562.469,28.341,28.341,0,0,1,13.246,6.8q-6.978-2.256-14.51-4.334Q1051.11,432.4,1047.422,431.477Z" fill="#524842"/>
      <path id="Path_3602" data-name="Path 3602" d="M1043.518,458.179l10.114.993a14.716,14.716,0,0,1-10.317,1.6,13.682,13.682,0,0,1-4.876-2.235q-.175-.732-.353-1.464Z" fill="#524842"/>
      <path id="Path_3603" data-name="Path 3603" d="M1044.563,452.367l11.236,1.387a19.162,19.162,0,0,1-11.4,1.4,18.44,18.44,0,0,1-6.04-2.343l-.258-2.155Z" fill="#524842"/>
      <path id="Path_3604" data-name="Path 3604" d="M1045.234,464.41l11.552-.583c-.972.813-5.512,4.434-11.4,3.562a12.983,12.983,0,0,1-4.606-1.625l-1.173-2.89Z" fill="#524842"/>
      <path id="Path_3605" data-name="Path 3605" d="M1046.86,446.711l12.549,2.665-.45.857a41.928,41.928,0,0,1-20.159-2.777c.161-.721.359-1.406.544-2.1Z" fill="#524842"/>
      <path id="Path_3606" data-name="Path 3606" d="M1067.108,423.324l6.5,1.626a4.543,4.543,0,0,0-1.828-1.829A5.194,5.194,0,0,0,1067.108,423.324Z" fill="#524842"/>
      <path id="Path_3607" data-name="Path 3607" d="M1061.013,425.434a10.662,10.662,0,0,1,7.9.361,10.143,10.143,0,0,1,3.883,3.3l-5.689-2.574Z" fill="#524842"/>
      <path id="Path_3608" data-name="Path 3608" d="M1053.629,427.881a17.586,17.586,0,0,1,16.938,4.44l-10.633-3.311Z" fill="#524842"/>
      <path id="Path_3609" data-name="Path 3609" d="M1043.761,470.279l4.786,1.174,3.883-1.626a4.6,4.6,0,0,1-2.925,3.583A4.866,4.866,0,0,1,1043.761,470.279Z" fill="#524842"/>
      <path id="Path_3610" data-name="Path 3610" d="M1047.983,476.216l4.334-1.558a2.454,2.454,0,0,1-.542,1.964A2.836,2.836,0,0,1,1047.983,476.216Z" fill="#524842"/>
      <path id="Path_3611" data-name="Path 3611" d="M1099.382,436.476c-.7,2.064-1.507,4.226-2.442,6.466-1.334,3.2-2.743,6.107-4.148,8.733q.633,8.307,1.264,16.615l3.251-1.264-.181,3.431h-6.5L1086.319,445q1.206-2.8,2.41-5.6a12.852,12.852,0,0,1-1.191-7.946c1.079-5.565,6.36-10.085,13.281-11.213a85.826,85.826,0,0,1-.431,9.2C1100.135,431.949,1099.786,434.3,1099.382,436.476Z" fill="#b8987d"/>
      <path id="Path_3612" data-name="Path 3612" d="M1075.755,467.3l-7.495.722q.393-2.437.784-4.876a38.472,38.472,0,0,0,7.523-14.718,37.3,37.3,0,0,0,1.084-6.682l-6.321-6.682c-1.944.865-13.589,6.274-17.636,19.324a30.851,30.851,0,0,0-.152,17.337q2.316.072,4.7.09c6.222.045,12.161-.208,17.789-.677Q1075.89,469.217,1075.755,467.3Z" fill="#b8987d"/>
      <path id="Path_3613" data-name="Path 3613" d="M1052.785,468.292a32.027,32.027,0,0,0,.757,3.432q2.316.072,4.7.09c6.222.045,12.161-.208,17.789-.677l-.2-2.845a33.728,33.728,0,0,1-23.04,0Z" fill="#231f20" opacity="0.05"/>
    </g>
    <g id="Group_6150" data-name="Group 6150">
      <path id="Path_3614" data-name="Path 3614" d="M1093.064,390.637q-1.4-4.29-2.8-8.579a9.893,9.893,0,0,0-2,3.19,10.275,10.275,0,0,0-.257,6.382Z" fill="#946f5b"/>
      <path id="Path_3615" data-name="Path 3615" d="M1091.98,389.824q-.96-2.879-1.919-5.757a6.087,6.087,0,0,0-1.219,2.371,6.377,6.377,0,0,0,.539,4.409Z" fill="#524842"/>
      <path id="Path_3616" data-name="Path 3616" d="M1105.344,387.883l-.406-7.631a8.564,8.564,0,0,1,2.663,2.213,8.9,8.9,0,0,1,1.874,5.372Z" fill="#946f5b"/>
      <path id="Path_3617" data-name="Path 3617" d="M1113.547,394.007l-1.92-6.2a32.035,32.035,0,0,0-23.62,3.826l1.761,7.991a9.739,9.739,0,0,0,2.527,5.16c.835.847,3.513,4.7,10.43,2.709l18.872-5.431q.069-2.641.136-5.282a8.78,8.78,0,0,1-3.836-.116A8.9,8.9,0,0,1,1113.547,394.007Z" fill="url(#linear-gradient)"/>
      <path id="Path_3618" data-name="Path 3618" d="M1121.6,402.059q.069-2.641.136-5.282a8.78,8.78,0,0,1-3.836-.116,8.538,8.538,0,0,1-1.062-.351l.293,3.447a9.511,9.511,0,0,0-6.231,3.047,8.672,8.672,0,0,0-1.627,2.8Z" fill="#dbc6b4"/>
      <path id="Path_3619" data-name="Path 3619" d="M1112.387,392.036l-15.979.885a10.256,10.256,0,0,0,10.561,3.495A9.773,9.773,0,0,0,1112.387,392.036Z" fill="#231f20" opacity="0.2"/>
      <path id="Path_3620" data-name="Path 3620" d="M1117.777,396.02q1.375,2.159,2.749,4.317a4.448,4.448,0,0,0,1.766-1.427,4.6,4.6,0,0,0,.813-3.161Z" fill="#0f0f0f"/>
      <path id="Path_3621" data-name="Path 3621" d="M1100.092,390.408c-.858.136-1.339,1.4-1.262,2.351.088,1.091.952,2.3,1.827,2.218.892-.081,1.563-1.479,1.372-2.614C1101.86,391.358,1100.966,390.269,1100.092,390.408Z" fill="#0f0f0f"/>
      <path id="Path_3622" data-name="Path 3622" d="M1109.083,390.081c-.858.136-1.338,1.4-1.261,2.351.088,1.091.951,2.3,1.827,2.219s1.562-1.479,1.371-2.615C1110.851,391.031,1109.957,389.943,1109.083,390.081Z" fill="#0f0f0f"/>
    </g>
  </g>
</svg>
