<svg id="undraw_confirm_89ui" xmlns="http://www.w3.org/2000/svg" width="351.752" height="288.706" viewBox="0 0 351.752 288.706">
  <path id="Path_4494" data-name="Path 4494" d="M262.628,131.314c98.708,103.678,181.254,207.113-131.314,131.314C60.849,245.537,0,203.84,0,131.314A131.31,131.31,0,0,1,131.314,0C203.84,0,212.648,78.789,262.628,131.314Z" fill="#4284fc" opacity="0.1"/>
  <path id="Path_4495" data-name="Path 4495" d="M263.708,286.183H156.636A3.621,3.621,0,0,1,153,282.547V111.636A3.621,3.621,0,0,1,156.636,108H263.708a3.621,3.621,0,0,1,3.636,3.636v14.142h2.424v8.485h-2.424v2.828h2.424v8.485h-2.424V282.547A3.621,3.621,0,0,1,263.708,286.183ZM156.636,108.808a2.811,2.811,0,0,0-2.828,2.828V282.547a2.811,2.811,0,0,0,2.828,2.828H263.708a2.811,2.811,0,0,0,2.828-2.828V144.768h2.424V137.9h-2.424v-4.444h2.424v-6.869h-2.424v-14.95a2.811,2.811,0,0,0-2.828-2.828Z" transform="translate(-91.181 -64.363)" fill="#4284fc"/>
  <path id="Path_4496" data-name="Path 4496" d="M272.238,290.5H178.5v-160h93.738Zm-92.93-.808H271.43V131.308H179.308Z" transform="translate(-106.378 -77.772)" fill="#4284fc"/>
  <rect id="Rectangle_3551" data-name="Rectangle 3551" width="20" height="1" transform="translate(109.018 48.353)" fill="#4284fc"/>
  <path id="Path_4497" data-name="Path 4497" d="M249,194" transform="translate(-148.393 -115.616)" fill="none" stroke="#4284fc" stroke-miterlimit="10" stroke-width="2"/>
  <rect id="Rectangle_3552" data-name="Rectangle 3552" width="37" height="5" transform="translate(100.018 90.353)" fill="#4284fc"/>
  <path id="Path_4498" data-name="Path 4498" d="M278.771,415.942a7.071,7.071,0,1,1,7.071-7.071h0A7.027,7.027,0,0,1,278.771,415.942Zm0-13.374a6.344,6.344,0,1,0,6.343,6.343,6.328,6.328,0,0,0-6.343-6.343Z" transform="translate(-161.921 -239.455)" fill="#d0cde1"/>
  <path id="Path_4499" data-name="Path 4499" d="M284.2,408.736l-3.6-3.636,1.051-1.051,2.343,2.384,6.586-9.333,1.212.848Z" transform="translate(-167.225 -236.654)" fill="#33ae84"/>
  <rect id="Rectangle_3553" data-name="Rectangle 3553" width="293.901" height="0.808" transform="translate(43.475 221.012)" fill="#4284fc"/>
  <circle id="Ellipse_707" data-name="Ellipse 707" cx="6" cy="6" r="6" transform="translate(38.018 215.353)" fill="#4284fc"/>
  <ellipse id="Ellipse_708" data-name="Ellipse 708" cx="5.5" cy="6" rx="5.5" ry="6" transform="translate(335.018 215.353)" fill="#4284fc"/>
  <path id="Path_4500" data-name="Path 4500" d="M761.619,494.864l-.525-.2c-.121-.04-11.313-4.323-16.566-14.061s-2.667-21.455-2.667-21.576l.121-.525.525.2c.121.04,11.313,4.323,16.566,14.061s2.667,21.455,2.667,21.576Zm-16.243-14.707c4.444,8.242,13.293,12.445,15.515,13.414.444-2.384,1.778-12.121-2.667-20.323S744.932,460.8,742.71,459.833C742.306,462.217,740.932,471.955,745.376,480.157Z" transform="translate(-441.737 -273.246)" fill="#4284fc"/>
  <path id="Path_4501" data-name="Path 4501" d="M728.291,498.938c9.414,5.657,13.051,16.929,13.051,16.929s-11.636,2.061-21.091-3.6S707.2,495.342,707.2,495.342,718.836,493.241,728.291,498.938Z" transform="translate(-421.46 -294.976)" fill="#d0cde1"/>
  <path id="Path_4502" data-name="Path 4502" d="M441.731,188.5l-1.616,10.505-7.273,28.283s-9.293,12.121-1.212,14.546,6.869-14.142,6.869-14.142l10.1-20.2V189.308Z" transform="translate(-255.264 -112.338)" fill="#a0616a"/>
  <path id="Path_4503" data-name="Path 4503" d="M521.581,467.5l3.636,6.869-8.485,4.445-3.232-6.465Z" transform="translate(-306.024 -278.609)" fill="#a0616a"/>
  <path id="Path_4504" data-name="Path 4504" d="M511.569,482.183s6.465-.808,7.677,0,2.02-3.636,4.04-2.828,7.677,7.677,6.465,8.485-6.465,10.505-6.465,10.505-5.657,13.737-10.505,11.313-1.212-14.95-1.212-14.95Z" transform="translate(-304.093 -285.616)" fill="#2f2e41"/>
  <path id="Path_4505" data-name="Path 4505" d="M538.217,522.308l-1.212,13.333L526.5,534.025l4.041-12.525Z" transform="translate(-313.771 -310.791)" fill="#a0616a"/>
  <path id="Path_4506" data-name="Path 4506" d="M525.308,539.716l2.424,1.212s3.636-6.061,6.465-2.828,3.636,2.828,3.636,2.828l5.253,11.717s7.273,11.717-2.424,11.717-10.909-4.445-10.909-4.445-5.253-3.636-5.253-5.657S525.308,539.716,525.308,539.716Z" transform="translate(-312.579 -320.118)" fill="#2f2e41"/>
  <path id="Path_4507" data-name="Path 4507" d="M503.291,254.5s2.02,10.505,1.616,16.97-3.232,48.485-3.232,48.485l-3.232,47.273L484.7,366.016l1.212-45.253-4.444-32.728L473.8,315.107l-16.566,1.212s-3.232-40,2.828-44.445S503.291,254.5,503.291,254.5Z" transform="translate(-271.976 -151.671)" fill="#2f2e41"/>
  <path id="Path_4508" data-name="Path 4508" d="M472.462,394.5l2.424,4.04s9.293,9.293,10.505,14.142,6.869,12.525,6.869,12.525l-12.121,6.465s-23.839-27.879-21.818-31.919Z" transform="translate(-273.067 -235.105)" fill="#2f2e41"/>
  <circle id="Ellipse_709" data-name="Ellipse 709" cx="11.313" cy="11.313" r="11.313" transform="translate(198.183 12.323)" fill="#a0616a"/>
  <path id="Path_4509" data-name="Path 4509" d="M505.8,72.136s-.4,8.485,5.657,10.1-9.7,9.7-9.7,9.7-12.121.4-11.313-5.657l2.828-2.424-.4-15.354Z" transform="translate(-292.26 -40.823)" fill="#a0616a"/>
  <path id="Path_4510" data-name="Path 4510" d="M486.59,98s-8.687,9.657-16.364,4.121c0,0-14.546,6.586-14.142,14.263s6.061,19.8,6.061,19.8l-1.212,26.667s-13.737,17.374-4.849,18.182,27.475-.4,37.172-12.929c0,0,9.293,2.424,9.293-1.616V140.627l3.232-35.556Z" transform="translate(-270.022 -58.404)" fill="#d0cde1"/>
  <path id="Path_4511" data-name="Path 4511" d="M463.157,131.5a5.545,5.545,0,0,0-4.445,4.081c-.808,3.6-1.212,22.182-1.212,22.182h9.7Z" transform="translate(-272.65 -78.368)" fill="#d0cde1"/>
  <path id="Path_4512" data-name="Path 4512" d="M577.152,173.5l2.424,18.99-12.525,25.859-1.616,6.869L562,214.51l6.667-23.233-3.636-15.354Z" transform="translate(-334.927 -103.398)" fill="#a0616a"/>
  <path id="Path_4513" data-name="Path 4513" d="M510.081,21.865l.727-1.657-1.293-.121.323-1.576-1.657,1.172a3.415,3.415,0,0,0-.566-3.273,6.546,6.546,0,0,0-2.788-1.98,12.54,12.54,0,0,0-12.808,2.222l-.121-.485a16.393,16.393,0,0,0-6.222,10.748c-.525,4.2,1.495,8.525,4.121,11.838-.283-1.778-.727-3.515.121-5.051a14.643,14.643,0,0,1,1.091-1.657l2.141-3.03c1.253-1.737,2.707-3.636,4.808-3.96a6.549,6.549,0,0,1,1.778,0,66.006,66.006,0,0,0,8,.606c2.141-.081,2.788-1.7,3.354-3.636C510.768,21.986,510.4,21.905,510.081,21.865Z" transform="translate(-289.392 -8.087)" fill="#2f2e41"/>
  <path id="Path_4514" data-name="Path 4514" d="M568.732,116.308l4.04-.808,8.889,25.051L565.5,144.187Z" transform="translate(-337.013 -68.833)" fill="#d0cde1"/>
  <rect id="Rectangle_3554" data-name="Rectangle 3554" width="62.223" height="3.152" transform="translate(87.678 107.193)" fill="#4284fc"/>
  <rect id="Rectangle_3555" data-name="Rectangle 3555" width="62.223" height="3.152" transform="translate(87.799 116.688)" fill="#4284fc"/>
  <rect id="Rectangle_3556" data-name="Rectangle 3556" width="62.223" height="3.152" transform="translate(87.92 126.223)" fill="#4284fc"/>
  <rect id="Rectangle_3557" data-name="Rectangle 3557" width="62.223" height="3.152" transform="translate(88.001 135.718)" fill="#4284fc"/>
  <rect id="Rectangle_3558" data-name="Rectangle 3558" width="62.223" height="3.152" transform="translate(88.122 145.213)" fill="#4284fc"/>
</svg>
