<svg xmlns="http://www.w3.org/2000/svg" xmlns:xlink="http://www.w3.org/1999/xlink" width="386.777" height="276.593" viewBox="0 0 386.777 276.593"><defs><style>.a,.f,.i{fill:#4284fc;}.a,.g,.h,.n,.o{opacity:0.1;}.b{fill:url(#a);}.c,.d{fill:#fff;}.d{opacity:0.04;}.e,.g{fill:#5a5773;}.f{opacity:0.2;}.j{fill:url(#b);}.k{fill:#c37098;}.l{fill:#3f3d56;}.m,.r{fill:none;}.n{stroke:#4284fc;}.n,.r{stroke-miterlimit:10;}.p{fill:#535461;}.q{fill:#9d9cb5;}.r{stroke:#535461;stroke-width:2px;}</style><linearGradient id="a" x1="0.5" y1="1" x2="0.5" gradientUnits="objectBoundingBox"><stop offset="0" stop-color="gray" stop-opacity="0.251"/><stop offset="0.54" stop-color="gray" stop-opacity="0.122"/><stop offset="1" stop-color="gray" stop-opacity="0.102"/></linearGradient><linearGradient id="b" x1="0.5" y1="1" x2="0.5" xlink:href="#a"/></defs><g transform="translate(0.029 -0.003)"><path class="a" d="M455.824,225.994c-8.963,18.49-27.163,30.854-46.024,39.007A174.96,174.96,0,0,1,328.867,278.5q-7.25-.482-14.455-1.542A182.316,182.316,0,0,1,266.08,262.88q-6.659-3-13.049-6.548a166.93,166.93,0,0,1-20.4-13.339q-2.439-1.862-4.811-3.819c-1.1-.9-2.183-1.828-3.286-2.726a41.465,41.465,0,0,0-7.395-5.037,26.416,26.416,0,0,0-2.476-1.093c-8.461-3.218-18.217-2-27.025.506-6.7,1.909-13.231,4.524-19.924,6.389a66.118,66.118,0,0,1-9.078,1.93,48.311,48.311,0,0,1-20.4-1.791l-.563-.175q-1.417-.445-2.81-.975l-.563-.216q-1.349-.52-2.641-1.117l-.563-.256q-1.349-.627-2.641-1.326c-.31-.162-.617-.337-.921-.5a55.214,55.214,0,0,1-13.21-10.286c-.111-.111-.216-.226-.337-.337-.536-.58-1.063-1.171-1.572-1.774-.189-.223-.378-.445-.563-.675q-.907-1.107-1.751-2.264c-.084-.111-.165-.226-.246-.337a48.777,48.777,0,0,1-5.688-10.286c-.047-.111-.091-.226-.132-.337q-.675-1.737-1.231-3.532c-.152-.5-.3-1.012-.425-1.511-.044-.148-.084-.3-.121-.449-1.862-7.331-2.075-14.951-2.075-22.528v-2.648c.054-12.256.243-24.721,2.051-36.808a1.537,1.537,0,0,1,.037-.25,114.956,114.956,0,0,1,2.466-12.084,89.143,89.143,0,0,1,4.153-12.246c4.159-9.783,10.208-18.686,16.925-26.937C142.74,66.733,164.927,49.3,190.9,42.778A95.765,95.765,0,0,1,272.55,60.455c6.882,5.479,13.065,11.966,20.794,16.166,6.747,3.657,14.644,5.172,21.87,2.294,5.971-2.378,9.857-3.559,16.564-3.2a138.838,138.838,0,0,1,40.6,8.5c.526.192,1.053.391,1.575.59,33.974,13,63.178,38.822,78.359,72.007q.6,1.316,1.171,2.652C462.537,180.611,465.81,205.389,455.824,225.994Z" transform="translate(-75.198 -40.04)"/><ellipse class="a" cx="29.781" cy="4.784" rx="29.781" ry="4.784" transform="translate(11.093 241.08)"/><ellipse class="a" cx="52.805" cy="5.128" rx="52.805" ry="5.128" transform="translate(255.234 266.34)"/><rect class="b" width="320.591" height="181.604" rx="12.49" transform="translate(39.471 36.351)"/><rect class="c" width="319.609" height="178.446" rx="12.49" transform="translate(39.98 38.905)"/><rect class="c" width="319.609" height="178.446" rx="12.49" transform="translate(39.98 38.905)"/><rect class="d" width="319.609" height="178.446" rx="12.49" transform="translate(39.98 38.905)"/><path class="e" d="M462.606,149.29H146.243a1.623,1.623,0,0,0-1.623,1.623v6.858h319.6v-6.858a1.623,1.623,0,0,0-1.609-1.623Z" transform="translate(-104.64 -112.433)"/><g transform="translate(44.17 38.905)"><circle class="c" cx="2.193" cy="2.193" r="2.193"/><circle class="c" cx="2.193" cy="2.193" r="2.193" transform="translate(5.904)"/><circle class="c" cx="2.193" cy="2.193" r="2.193" transform="translate(11.807)"/></g><rect class="f" width="85.77" height="7.28" transform="translate(66.304 61.288)"/><rect class="g" width="266.963" height="111.986" transform="translate(66.304 90.478)"/><path class="h" d="M581.4,276.107h-4.571v-8.879a18.256,18.256,0,1,0-36.511-.246v9.125h-4.561a7.631,7.631,0,0,0-7.607,7.607v36.508a7.631,7.631,0,0,0,7.607,7.607H581.4a7.627,7.627,0,0,0,7.6-7.607V283.714a7.628,7.628,0,0,0-7.6-7.607Zm-20.156,23.732v13.076a2.729,2.729,0,0,1-2.53,2.739,2.668,2.668,0,0,1-2.793-2.665V299.833a6.072,6.072,0,1,1,5.323,0Zm10.269-23.732H545.641v-9.125a12.931,12.931,0,0,1,25.861,0Z" transform="translate(-358.787 -178.325)"/><path class="i" d="M581.4,274.107h-4.571v-8.879a18.256,18.256,0,1,0-36.511-.246v9.125h-4.561a7.631,7.631,0,0,0-7.607,7.607v36.508a7.631,7.631,0,0,0,7.607,7.607H581.4a7.627,7.627,0,0,0,7.6-7.607V281.714A7.628,7.628,0,0,0,581.4,274.107Zm-20.156,23.732v13.076a2.729,2.729,0,0,1-2.53,2.739,2.668,2.668,0,0,1-2.793-2.665V297.833a6.072,6.072,0,1,1,5.323,0Zm10.269-23.732H545.641v-9.125a12.931,12.931,0,0,1,25.861,0Z" transform="translate(-358.787 -177)"/><rect class="g" width="27.021" height="6.379" transform="translate(306.245 79.7)"/><path class="j" d="M912.758,478.211a9.6,9.6,0,0,0-.9-2.567l-4.048-6.045h.024s-.638-3.036,0-4.527-2.274-5.158-2.274-5.158a2.175,2.175,0,0,1,.57-2.054c.924-1.133-.57-4.453-.57-4.453s-.708-6.932-.779-7.992-.641-6.929-.641-6.929l-1.349-12.445-2.4-32.982-.044-.617c.3-.145.455-.236.455-.236l-.479-18.237.415-.374c3.623-3.279,11.979-10.869,11.895-11.035s-1.012-12.674-1.12-15.8a18.837,18.837,0,0,0-1.437-6.47c-.209-.415-.813-3.151-1.063-4.308-.067-.317-.111-.516-.111-.516s-2.449-4.669-2.237-6.791.638-3.711-4.584-4.453c0,0-4.385-.654-7-2.439a19.9,19.9,0,0,0-5.013-2.51s-1.464-2.7-2.483-1.785a14.172,14.172,0,0,1-.961-3.006l-.03-.189a9.942,9.942,0,0,0,3.927-5.62c.034-.128.061-.26.091-.388a1.1,1.1,0,0,0,.314.057c.887,0,1.434-.988,2.264-1.3.337-.132.752-.152,1.012-.418a.988.988,0,0,0,.223-.746,1.518,1.518,0,0,0,0-.277c0-.033,0-.065,0-.1v.034c-.226-1.228-1.177-2.318-1.073-3.566.1-1.174,1.134-2.206,1.049-3.35a1.826,1.826,0,0,0-.024-.27v.04a2.888,2.888,0,0,0-.675-1.194,3.833,3.833,0,0,0-1.39-1.167c-.469-.206-1.012-.253-1.451-.5-1.289-.7-1.285-2.53-2.051-3.778a3.343,3.343,0,0,0-3.127-1.548c-.958.094-1.825.6-2.773.769a7.25,7.25,0,0,1-3.842-.675,10.578,10.578,0,0,0-3.792-1.012,3.22,3.22,0,0,0-3.144,1.919c-.213.675-.108,1.4-.27,2.085a4.54,4.54,0,0,1-2.446,2.672c-.675.374-1.478.8-1.687,1.511v-.054a1.3,1.3,0,0,0-.034.172,1.271,1.271,0,0,0,0,.226,4.253,4.253,0,0,0,.428,1.41,3.889,3.889,0,0,1-.02,2.719c-.25.641-.675,1.2-.918,1.842a3.624,3.624,0,0,0-.223.924v-.054a3.747,3.747,0,0,0,0,.432,3.036,3.036,0,0,0,.337,1.417,2.543,2.543,0,0,0,1.515,1.272c.675.155,1.1-.506,1.808-.337a2.844,2.844,0,0,1,.375.118c.024.152.047.3.074.452a9.915,9.915,0,0,0,3.421,5.792,2.175,2.175,0,0,0,.037.246h0a22.653,22.653,0,0,1,.28,4.068s-1.063-1.555-2.52,1.447A30.614,30.614,0,0,1,867.173,322c-1.312.25-5.971,1.872-5.971,1.872a4.109,4.109,0,0,1-2.415.779c-1.454,0-2.662,3.181-2.486,4.912s-.1,3.006-1.457,3.077-.614,2.813-.6,2.861l-.125.59c-.263,1.208-.837,3.8-1.039,4.2a18.893,18.893,0,0,0-1.44,6.47c-.1,3.131-1.012,15.592-1.117,15.8-.071.138,5.654,5.371,9.678,9.027l.584.526-1.852,17.3a4.618,4.618,0,0,0,1.9,3.373c0,.2,0,.408-.02.621a21.63,21.63,0,0,1-.567,5.114c-.567,1.133-.425,7.212-.425,7.212s-.57,12.374-1.279,13.72a9.36,9.36,0,0,0-.641,4.723c.213.553-.712,15.413-.712,15.413l-.708,6.649s.213,6.362-.428,6.5-1,4.527-1,4.527-2.27,3.11-1.279,4.24-.145,1.629-.25,1.909-2.166,1.349-.675,5.3a1.162,1.162,0,0,0,.047.115c-1.4,1.94-5.823,8.2-5.553,9.149a2.507,2.507,0,0,0,1.181,1.417c1.042.624,2.83.914,5.674,0,4.723-1.521,4.385-2.618,4.385-2.618a2,2,0,0,1,1.99-1.909,5.59,5.59,0,0,0,3.411-1.943l-.229-.854-.314-1.181c.037-.337.277-.928,1.349-1.255,1.636-.5,1.208-3.606,1.208-3.606s-.142-3.252.567-3.677.428-5.8.428-5.8a39.85,39.85,0,0,1,1.916-6.507c1.133-2.618,2.49-18.169,2.49-18.169s.921-7.638,1.774-9.83,1.636-8.343,1.636-8.343,5.259-10.184,5.327-12.448c0,0,.675-2.122,1.349.213s2.571,7.921,2.571,7.921l1.845,6.858,2.2,10.252,1.424,8.629s-.216,3.252.337,4.385,1.349,3.745.924,4.24.85,2.83,1.208,3.323,0,10.96,0,10.96,1.633,8.909,3.977,10.458a2.862,2.862,0,0,0,.52.27c-.034.965-.068,2.257-.024,2.932a1.125,1.125,0,0,0,.074.442,12.331,12.331,0,0,0,3.127,2.193c.5,0,2.27,1.238,2.345,1.839s5.192,3.144,5.917,3.218,4.24.705,4.723-.283a1.636,1.636,0,0,0,.1-.914ZM900.185,350.788l.364.314s.374,2.918.641,3.792a7.322,7.322,0,0,1-.054,2.574,5.921,5.921,0,0,0,.374,1.855c.317.638-.641,2.024-.641,2.024h-.854l-.266-10.923Zm-25.379-32.615v-.064a.211.211,0,0,0-.01.064ZM861.7,360.224a1.232,1.232,0,0,1-.054-.9,2.7,2.7,0,0,0,.179-.5,7.733,7.733,0,0,0,.2-1.349.092.092,0,0,0,0-.017,7.137,7.137,0,0,1-.051-2.557c.253-.83.638-3.792.638-3.792l.243-.206.563-.489a4.007,4.007,0,0,1,.04-.482,37.563,37.563,0,0,1,.061,5.539c-.283.28-1.316,3.036-1.066,3.144a12.9,12.9,0,0,1-.219,2.625,5.379,5.379,0,0,1-.53-1.015Z" transform="translate(-570.296 -205.198)"/><path class="k" d="M940.3,361.655v4.2l-8.609,4.328s-8.548-5.172-6.44-7.229c1.349-1.3,1.09-4.878.725-7.337h0c-.213-1.43-.459-2.48-.459-2.48s15.356-4.385,13.035-1.056a5.236,5.236,0,0,0-.577,3.981A18.081,18.081,0,0,0,940.3,361.655Z" transform="translate(-621.707 -245.984)"/><path class="l" d="M872.095,452.505l-1.11,13.669s-1.663-1.508-3.815-3.471c-3.991-3.64-9.658-8.845-9.591-8.984.1-.213,1.012-12.613,1.11-15.73a18.823,18.823,0,0,1,1.424-6.437,40.017,40.017,0,0,0,1.012-4.186c.081-.374.132-.617.132-.617l1.862-.749s7.759,8.656,7.759,8.815-.53,6.808-.53,6.808l-.55.479-.24.206s-.371,2.9-.634,3.775a6.777,6.777,0,0,0,.051,2.544h0a7.838,7.838,0,0,1-.192,1.349,2.822,2.822,0,0,1-.179.5,1.238,1.238,0,0,0,.054.9,5.424,5.424,0,0,0,.58,1.11Z" transform="translate(-577.084 -295.796)"/><path class="l" d="M1011.506,453.74c.081.165-8.194,7.719-11.78,10.981l-1.626,1.474L997,452.525h2.851s.951-1.373.634-2.007a5.867,5.867,0,0,1-.368-1.845,7.354,7.354,0,0,0,.051-2.56c-.263-.874-.634-3.775-.634-3.775l-.361-.31-.428-.374s-.53-6.649-.53-6.808,7.759-8.815,7.759-8.815l1.849.739s.041.2.108.516c.25,1.15.847,3.873,1.053,4.288a18.824,18.824,0,0,1,1.424,6.437C1010.494,441.126,1011.4,453.527,1011.506,453.74Z" transform="translate(-669.472 -295.816)"/><path class="l" d="M1008.536,829.507c-.5.985-3.977.337-4.7.283s-5.792-2.608-5.863-3.2-1.828-1.828-2.321-1.828a12.335,12.335,0,0,1-3.1-2.183,1.076,1.076,0,0,1-.071-.439c-.074-1.157.071-4.136.071-4.136l10.2.563,4.959,7.459a9.62,9.62,0,0,1,.9,2.554,1.687,1.687,0,0,1-.084.931Z" transform="translate(-666.469 -555.556)"/><path class="h" d="M1008.536,829.507c-.5.985-3.977.337-4.7.283s-5.792-2.608-5.863-3.2-1.828-1.828-2.321-1.828a12.335,12.335,0,0,1-3.1-2.183,1.076,1.076,0,0,1-.071-.439c-.074-1.157.071-4.136.071-4.136l10.2.563,4.959,7.459a9.62,9.62,0,0,1,.9,2.554,1.687,1.687,0,0,1-.084.931Z" transform="translate(-666.469 -555.556)"/><path class="h" d="M1008.575,837.631c-.5.985-3.977.337-4.7.283s-5.792-2.608-5.863-3.2-1.828-1.828-2.321-1.828a12.335,12.335,0,0,1-3.1-2.183,1.076,1.076,0,0,1-.071-.439l3.306,2.092a13.951,13.951,0,0,1,2.675,2.149c.563.8,5,2.463,5.371,2.5a25.282,25.282,0,0,1,4.78-.3A1.686,1.686,0,0,1,1008.575,837.631Z" transform="translate(-666.508 -563.68)"/><path class="l" d="M864.74,824.073a5.521,5.521,0,0,1-3.373,1.933,1.987,1.987,0,0,0-1.97,1.9s.337,1.093-4.328,2.608c-2.817.907-4.588.621-5.62,0a2.509,2.509,0,0,1-1.171-1.41c-.317-1.123,5.91-9.675,5.91-9.675l5.667-.337,4.048,1.828.621,2.318Z" transform="translate(-570.913 -556.278)"/><path class="h" d="M864.74,824.073a5.521,5.521,0,0,1-3.373,1.933,1.987,1.987,0,0,0-1.97,1.9s.337,1.093-4.328,2.608c-2.817.907-4.588.621-5.62,0a2.509,2.509,0,0,1-1.171-1.41c-.317-1.123,5.91-9.675,5.91-9.675l5.667-.337,4.048,1.828.621,2.318Z" transform="translate(-570.913 -556.278)"/><path class="m" d="M867.062,832.19a5.521,5.521,0,0,1-3.373,1.933,1.987,1.987,0,0,0-1.97,1.9s.337,1.093-4.328,2.608c-2.817.907-4.588.621-5.62,0,2.655-.277,8.521-1.953,9.108-2.533.705-.705,1.586-2.641,2.183-2.675a23.489,23.489,0,0,0,3.788-2.081Z" transform="translate(-573.235 -564.396)"/><path class="h" d="M867.062,832.19a5.521,5.521,0,0,1-3.373,1.933,1.987,1.987,0,0,0-1.97,1.9s.337,1.093-4.328,2.608c-2.817.907-4.588.621-5.62,0,2.655-.277,8.521-1.953,9.108-2.533.705-.705,1.586-2.641,2.183-2.675a23.489,23.489,0,0,0,3.788-2.081Z" transform="translate(-573.235 -564.396)"/><path class="l" d="M917.814,652.855c-.634,1.478,0,4.5,0,4.5s-9.446.493-11.753-1.056-3.94-10.417-3.94-10.417.337-10.414,0-10.906-1.619-2.813-1.2-3.306-.337-3.1-.914-4.224-.337-4.362-.337-4.362l-1.41-8.589-2.179-10.2-1.852-6.828s-1.9-5.56-2.544-7.88-1.326-.213-1.326-.213c-.068,2.253-5.276,12.387-5.276,12.387s-.776,6.123-1.619,8.3-1.761,9.783-1.761,9.783-1.349,15.481-2.463,18.085a39.9,39.9,0,0,0-1.879,6.474s.283,5.35-.422,5.772-.59,3.66-.59,3.66.422,3.093-1.2,3.589-1.349,1.548-1.349,1.548-9.007,1.478-10.485-2.466.563-4.993.675-5.276,1.235-.773.25-1.9,1.265-4.22,1.265-4.22.354-4.362.985-4.5.425-6.474.425-6.474l.7-6.615s.918-14.779.705-15.343a9.373,9.373,0,0,1,.634-4.723c.705-1.349,1.265-13.656,1.265-13.656s-.142-6.049.422-7.175a20.909,20.909,0,0,0,.56-5.091c.061-1.528.074-2.793.074-2.793l7.88-2.955,10.12-3.235,8.515,4.082,12.458,2.392.155,2.149L912.788,614l1.349,12.384s.563,5.839.634,6.9.773,7.955.773,7.955,1.478,3.306.563,4.433a2.137,2.137,0,0,0-.563,2.024S918.449,651.378,917.814,652.855Z" transform="translate(-580.534 -392.908)"/><path class="h" d="M939.755,352.08a5.237,5.237,0,0,0-.577,3.981,9.9,9.9,0,0,1-12-.449h0c-.213-1.43-.459-2.479-.459-2.479S942.076,348.754,939.755,352.08Z" transform="translate(-622.901 -245.986)"/><path class="k" d="M937.169,322.354a9.837,9.837,0,1,1-2.881-7A9.884,9.884,0,0,1,937.169,322.354Z" transform="translate(-616.725 -220.564)"/><path class="h" d="M907.366,350.069l-3.239,57.669-17.593-3.694-3.485-23.118L886.5,349.89l2.6.334,4.581.584,4.537.28,4.919-.547Z" transform="translate(-584.865 -231.854)"/><path class="i" d="M907.366,351.325l-3.239,57.669L886.535,405.3l-3.485-23.118L886.5,351.15l2.6.331,4.581.584,4.537.28,4.919-.547Z" transform="translate(-584.865 -232.689)"/><path class="l" d="M939.23,396.3l6.335.213-1.781,2.493s.125,5.037.972,6.48.6,23.749.6,23.749l-1.687,3.2-2.884-3.589.037-29.45Z" transform="translate(-631.191 -276.115)"/><path class="h" d="M939.23,396.3l6.335.213-1.781,2.493s.125,5.037.972,6.48.6,23.749.6,23.749l-1.687,3.2-2.884-3.589.037-29.45Z" transform="translate(-631.191 -276.115)"/><path class="h" d="M930.06,336.86l-5.91,6.545,3.377,3.518,5.6-5.455Z" transform="translate(-612.1 -223.219)"/><path class="i" d="M930.06,335.61l-5.91,6.545,3.377,3.519,5.6-5.455Z" transform="translate(-612.1 -222.391)"/><path class="h" d="M903.888,343.571,897.9,337.59l-.563,3.131,2.746,6.862Z" transform="translate(-594.334 -223.703)"/><path class="i" d="M904.515,342.321l-5.981-5.981-.563,3.131,2.746,6.862Z" transform="translate(-594.751 -222.875)"/><path class="h" d="M926.99,581.2a29.2,29.2,0,0,1-9.108,2.635c-5.806.739-9.6-6.649-9.6-6.649l-2.216,2.884c-.705,3.063-11.436,3.836-15.8,2.675a6.98,6.98,0,0,1-2.5-1.184c.061-1.528.074-2.793.074-2.793l7.88-2.955,10.12-3.235,8.515,4.082,12.458,2.392Z" transform="translate(-597.084 -392.927)"/><path class="h" d="M934.323,391.369l-3.235,57.666-17.6-3.694L910,422.226l3.448-31.036,2.6.337a31.547,31.547,0,0,1-.381,3.373c-.422,1.974,2.183,15.977,2.183,15.977s4.949,15.7,7.175,13.44,5.4-14.216,5.4-14.216c2.149-4.433.037-16.867-.121-17.117a5.024,5.024,0,0,1-.2-1.13Z" transform="translate(-611.821 -272.729)"/><path class="h" d="M999.574,511.125l.148,5.651-1.626,1.474L997,504.57h2.429Z" transform="translate(-669.472 -347.86)"/><path class="h" d="M890.868,493.1h0a7.844,7.844,0,0,1-.192,1.349c0-.125,0-.2-.027-.206C890.547,494.217,890.669,493.7,890.868,493.1Z" transform="translate(-598.974 -340.26)"/><path class="h" d="M890.935,502.39l-1.11,13.669s-1.663-1.508-3.815-3.471l.256-2.422s.907-5.951,1.238-8.886a5.425,5.425,0,0,0,.58,1.11Z" transform="translate(-595.924 -345.68)"/><path class="l" d="M888.512,375.442s-1.053-1.548-2.5,1.44a30.188,30.188,0,0,1-5.06,2.429c-1.3.246-5.9,1.866-5.9,1.866a4.075,4.075,0,0,1-2.392.773c-1.444,0-2.641,3.168-2.466,4.892s-.1,2.992-1.44,3.063-.6,2.847-.6,2.847l8.9,10.2s.563,9.4.283,9.678-1.3,3.036-1.056,3.131-1.349,10.485-1.349,10.485l-2.146,20.163s0,3.373,4.365,4.537,15.1.395,15.795-2.668l2.216-2.888s3.8,7.391,9.6,6.652a27.92,27.92,0,0,0,9.5-2.851l-.634-24.164-.422-17.417,9.064-14.894s-2.429-4.645-2.216-6.747.631-3.694-4.541-4.433c0,0-4.362-.651-6.932-2.429a19.815,19.815,0,0,0-4.959-2.5s-1.451-2.7-2.459-1.774a33.167,33.167,0,0,1,.928,4.385,14.512,14.512,0,0,0,.317,3.414c.159.267,2.27,12.684.121,17.117,0,0-3.154,11.952-5.4,14.216s-7.175-13.44-7.175-13.44-2.6-14.007-2.183-15.977S888.512,375.442,888.512,375.442Z" transform="translate(-583.958 -261.767)"/><circle class="l" cx="1.548" cy="1.548" r="1.548" transform="translate(310.536 156.71)"/><circle class="l" cx="1.548" cy="1.548" r="1.548" transform="translate(310.536 164.01)"/><circle class="h" cx="1.548" cy="1.548" r="1.548" transform="translate(310.536 156.71)"/><circle class="h" cx="1.548" cy="1.548" r="1.548" transform="translate(310.536 164.01)"/><path class="n" d="M992.47,804.34s6.356.492,6.986.985S992.47,804.34,992.47,804.34Z" transform="translate(-666.47 -546.504)"/><path class="n" d="M880.3,789.53s1.349,1.687.776,2.463S880.3,789.53,880.3,789.53Z" transform="translate(-592.14 -536.69)"/><path class="n" d="M885.1,805.768s2.463-1.619,3.448-.543S885.1,805.768,885.1,805.768Z" transform="translate(-595.321 -546.846)"/><path class="h" d="M937.181,322.361a9.838,9.838,0,0,1-.317,2.5,1.123,1.123,0,0,1-.654-1.1c.044-.4.31-.769.253-1.167-.084-.614-.827-.864-1.218-1.349a3.139,3.139,0,0,1-.337-2.2c.041-.759-.152-1.687-.864-1.946-.213-.078-.445-.084-.651-.172-.56-.236-.732-.931-1.107-1.41-.749-.965-2.237-.945-3.373-.486a16.044,16.044,0,0,1-1.518.634,1.984,1.984,0,0,1-1.589-.118c-.223-.142-.4-.337-.631-.479a2.178,2.178,0,0,0-2.422.59,8.373,8.373,0,0,1-2.024,1.744c-.374.169-.837.27-1.012.634a1.329,1.329,0,0,0-.108.631,18.858,18.858,0,0,1-.118,3.93c-.175.826-.756,1.764-1.6,1.663a1.576,1.576,0,0,1-.307-.078,9.884,9.884,0,1,1,19.6-1.828Z" transform="translate(-616.738 -220.571)"/><path class="l" d="M909.4,310.065c.253.057.493.189.752.223.84.1,1.42-.837,1.6-1.663a18.19,18.19,0,0,0,.121-3.93,1.285,1.285,0,0,1,.1-.631c.192-.364.654-.466,1.012-.634a8.738,8.738,0,0,0,2.024-1.744,2.155,2.155,0,0,1,2.419-.59c.226.135.408.337.631.479a2.024,2.024,0,0,0,1.592.118c.523-.155,1.012-.428,1.515-.634,1.127-.459,2.618-.476,3.373.482.374.482.547,1.174,1.107,1.41.206.088.439.1.651.175.712.267.894,1.187.864,1.946a3.271,3.271,0,0,0,.337,2.2c.391.479,1.133.729,1.218,1.349.054.4-.209.769-.253,1.167a1.12,1.12,0,0,0,1.056,1.194c.877,0,1.42-.982,2.24-1.3a2.662,2.662,0,0,0,1.012-.418,1.116,1.116,0,0,0,.209-.914c-.165-1.292-1.2-2.415-1.09-3.711.1-1.241,1.255-2.324,1.012-3.546a2.874,2.874,0,0,0-.675-1.2,3.9,3.9,0,0,0-1.376-1.164,14.16,14.16,0,0,1-1.44-.5c-1.275-.7-1.272-2.52-2.024-3.761a3.3,3.3,0,0,0-3.077-1.532c-.948.094-1.808.6-2.746.766a7.119,7.119,0,0,1-3.805-.675,10.407,10.407,0,0,0-3.755-1.012,3.2,3.2,0,0,0-3.117,1.909c-.209.675-.1,1.4-.266,2.075a4.529,4.529,0,0,1-2.422,2.658c-.739.412-1.626.884-1.714,1.724a3.553,3.553,0,0,0,.422,1.528,3.889,3.889,0,0,1-.02,2.7c-.246.638-.658,1.2-.907,1.832a3.289,3.289,0,0,0,.088,2.7,2.517,2.517,0,0,0,1.542,1.265C908.278,310.567,908.7,309.909,909.4,310.065Z" transform="translate(-608.996 -207.013)"/><g class="o" transform="translate(296.739 93.004)"><path d="M911.75,335.952c-.175.826-.759,1.764-1.6,1.663-.26-.034-.5-.165-.752-.223-.705-.155-1.123.506-1.788.337a2.523,2.523,0,0,1-1.545-1.265,2.921,2.921,0,0,1-.314-1.1,3.08,3.08,0,0,0,.314,1.737,2.523,2.523,0,0,0,1.545,1.265c.675.155,1.083-.506,1.788-.337a7.638,7.638,0,0,0,.752.219c.84.1,1.424-.833,1.6-1.66a9.753,9.753,0,0,0,.162-2.216A8.313,8.313,0,0,1,911.75,335.952Z" transform="translate(-905.733 -328.081)"/><path d="M908.59,318.705a3.882,3.882,0,0,0-.223-1.629,8.629,8.629,0,0,1-.388-1.066,1.541,1.541,0,0,0-.034.172,3.614,3.614,0,0,0,.422,1.528,3.869,3.869,0,0,1,.223,1Z" transform="translate(-907.194 -315.915)"/><path d="M984.254,318.73c-.159.958-.934,1.859-1.012,2.867a2.408,2.408,0,0,0,0,.52C983.411,320.94,984.453,319.9,984.254,318.73Z" transform="translate(-957.086 -317.717)"/><path d="M977.589,339.83a.793.793,0,0,1-.192.378c-.25.266-.675.287-1.012.418-.82.314-1.349,1.306-2.24,1.3a1.13,1.13,0,0,1-1.012-.783,1.764,1.764,0,0,0-.047.223,1.12,1.12,0,0,0,1.056,1.191c.88,0,1.42-.982,2.24-1.292.337-.132.749-.152,1.012-.418a1.117,1.117,0,0,0,.209-.914C977.6,339.887,977.592,339.86,977.589,339.83Z" transform="translate(-950.363 -331.699)"/><path d="M970.761,334.176c-.084-.614-.826-.864-1.218-1.349a1.849,1.849,0,0,1-.371-1.106,2.49,2.49,0,0,0,.371,1.741c.388.472.978.675,1.167,1.16A1.083,1.083,0,0,0,970.761,334.176Z" transform="translate(-947.765 -326.325)"/><path d="M939.164,320.046c.027-.759-.155-1.687-.867-1.947-.209-.078-.442-.088-.648-.172-.56-.236-.735-.931-1.106-1.41-.752-.961-2.24-.945-3.374-.486-.506.206-.988.479-1.515.634a1.983,1.983,0,0,1-1.589-.118c-.223-.142-.4-.337-.631-.479a2.176,2.176,0,0,0-2.422.59,8.384,8.384,0,0,1-2.024,1.744c-.378.169-.837.27-1.032.634a1.325,1.325,0,0,0-.1.631q0,.2,0,.395a.958.958,0,0,1,.1-.391c.2-.364.654-.466,1.032-.634a8.736,8.736,0,0,0,2.024-1.744,2.159,2.159,0,0,1,2.422-.59c.226.135.408.337.631.476a1.97,1.97,0,0,0,1.589.118,15.6,15.6,0,0,0,1.515-.631c1.13-.459,2.618-.479,3.373.482.371.479.546,1.174,1.107,1.41.206.088.439.1.648.175a1.619,1.619,0,0,1,.857,1.5Z" transform="translate(-917.737 -315.727)"/></g><g class="o" transform="translate(301.551 98.205)"><path d="M920,333.794a2.587,2.587,0,0,1,1.95-2.419,8.1,8.1,0,0,1,4.547.206c3.2,1.059-.4,4.871-.4,4.871s-2.4,2.361-4.635.712a3.505,3.505,0,0,1-1.306-2.024,5.165,5.165,0,0,1-.152-1.346Z" transform="translate(-919.997 -331.144)"/><path d="M956.8,333.795a2.587,2.587,0,0,0-1.953-2.419,8.1,8.1,0,0,0-4.544.206c-3.2,1.059.4,4.871.4,4.871s2.4,2.361,4.635.712a3.505,3.505,0,0,0,1.305-2.024A5.168,5.168,0,0,0,956.8,333.795Z" transform="translate(-939.204 -331.145)"/><path d="M910.5,291.42v.159h5.846v-.189Z" transform="translate(-904.606 -291.293)"/><path d="M942.682,334.705h.186v-.536a1.536,1.536,0,0,1,1.579,0v.479h.337v-.314h-.165s.068-.651-1.032-.547c0,0-.884-.084-.864.476h-.2Z" transform="translate(-934.922 -332.888)"/></g><path class="i" d="M920,333.147a2.587,2.587,0,0,1,1.95-2.419,8.14,8.14,0,0,1,4.547.206c3.2,1.063-.4,4.871-.4,4.871s-2.4,2.361-4.635.712a3.485,3.485,0,0,1-1.306-2.024A5.131,5.131,0,0,1,920,333.147Z" transform="translate(-618.446 -232.512)"/><path class="i" d="M956.8,333.147a2.587,2.587,0,0,0-1.953-2.419,8.127,8.127,0,0,0-4.544.206c-3.2,1.063.4,4.871.4,4.871s2.4,2.361,4.635.712a3.485,3.485,0,0,0,1.306-2.024A5.131,5.131,0,0,0,956.8,333.147Z" transform="translate(-637.653 -232.511)"/><path class="i" d="M910.5,290.79v.162h5.846v-.192Z" transform="translate(-603.054 -192.671)"/><path class="i" d="M942.682,334.076h.186v-.536a1.545,1.545,0,0,1,1.579,0v.482h.337v-.317h-.165s.068-.648-1.032-.546c0,0-.884-.081-.864.476h-.2Z" transform="translate(-633.371 -234.267)"/><rect class="p" width="1.916" height="43.147" transform="translate(39.916 154.233)"/><path class="l" d="M134.722,619.021l-.121,1.943-.169,2.743-.071,1.144-.169,2.746-.074,1.144-.169,2.743-1.933,31.194a5.283,5.283,0,0,1-5.273,4.959H116.7a5.279,5.279,0,0,1-5.269-4.959l-1.943-31.195-.169-2.743-.071-1.144-.165-2.753-.071-1.144-.169-2.743-.121-1.943a2.736,2.736,0,0,1,2.733-2.9h20.541a2.733,2.733,0,0,1,2.729,2.911Z" transform="translate(-80.847 -421.773)"/><path class="q" d="M107.873,590.46,107.7,593.2H82.279l-.169-2.743Z" transform="translate(-54.119 -391.268)"/><path class="q" d="M108.1,601.98l-.169,2.746H82.992l-.172-2.746Z" transform="translate(-54.589 -398.902)"/><path class="q" d="M108.338,613.51l-.169,2.743H83.712l-.172-2.743Z" transform="translate(-55.067 -406.543)"/><path class="i" d="M52.036,528.4c11.159,8.073,15.808,20.7,15.808,20.7s-13.45-.462-24.626-8.535-15.808-20.7-15.808-20.7S40.874,520.332,52.036,528.4Z" transform="translate(-26.97 -357.999)"/><path class="r" d="M27.46,519.87s13.959,7.759,18.436,14.169,21.982,15.073,21.982,15.073" transform="translate(-27.003 -357.999)"/><path class="i" d="M95.453,487.875a27.05,27.05,0,0,1,8.606,11.267,27.057,27.057,0,0,1-13.4-4.645,27.055,27.055,0,0,1-8.6-11.267A26.844,26.844,0,0,1,95.453,487.875Z" transform="translate(-63.184 -333.719)"/><path class="r" d="M82.06,483.18s7.6,4.217,10.033,7.708,11.966,8.2,11.966,8.2" transform="translate(-63.184 -333.686)"/><path class="i" d="M156.834,509.513c-6.98,7.668-8.454,17.687-8.454,17.687s9.837-2.412,16.813-10.08,8.454-17.69,8.454-17.69S163.81,501.842,156.834,509.513Z" transform="translate(-107.131 -344.454)"/><path class="r" d="M173.647,499.43s-9.088,7.86-11.4,13.278-13.868,14.506-13.868,14.506" transform="translate(-107.131 -344.454)"/></g></svg>