<svg id="logo-google_ads" data-name="logo-google ads" xmlns="http://www.w3.org/2000/svg" width="78.105" height="91.266" viewBox="0 0 78.105 91.266">
  <g id="Group_8774" data-name="Group 8774" transform="translate(0 0)">
    <rect id="Rectangle_3549" data-name="Rectangle 3549" width="23.325" height="69.444" rx="11.662" transform="translate(34.722 0.173) rotate(30)" fill="#fbbd04"/>
    <rect id="Rectangle_3550" data-name="Rectangle 3550" width="23.325" height="69.444" rx="11.662" transform="translate(23.183 11.662) rotate(-30)" fill="#438edc"/>
    <circle id="Ellipse_706" data-name="Ellipse 706" cx="11.824" cy="11.824" r="11.824" transform="translate(4.266 44.049)" fill="#34a952"/>
  </g>
  <g id="Group_8775" data-name="Group 8775" transform="translate(4.266 76.71)">
    <path id="path4243" d="M469.044,939.622a1.958,1.958,0,0,0,1.386-2.032,2.094,2.094,0,0,0-.517-1.495,1.849,1.849,0,0,0-3.149.857,1.656,1.656,0,0,0,.008,1.305,1.933,1.933,0,0,0,1.091,1.286,2.63,2.63,0,0,1,.4.124c.247.106.271.1.783-.045Zm-1.585,4.75a3.872,3.872,0,0,1-2.183-1.859c-.125-.245-.062-.3.76-.611.579-.223.764-.247.764-.1,0,.211.551.777.928.954a1.889,1.889,0,0,0,2.22-.476,2.792,2.792,0,0,0,.376-1.471l-.019-.227-.358.25a2.9,2.9,0,0,1-2.04.378,3.25,3.25,0,0,1-1.9-1,3.434,3.434,0,0,1-1.017-1.956,3.728,3.728,0,0,1,2.489-4.2,3.052,3.052,0,0,1,2.646.39l.2.189.029-.252.029-.253h1.594l.026,3.541c.027,3.721-.013,4.229-.4,5.021a3.4,3.4,0,0,1-2.034,1.693A4.012,4.012,0,0,1,467.458,944.373Z" transform="translate(-437.705 -929.967)" fill="#7f7f7f"/>
    <path id="path4239" d="M308.145,939.24a2.287,2.287,0,0,0,.778-2.4,2.091,2.091,0,0,0-1.784-1.434,1.979,1.979,0,0,0-2.026,2.056,2.059,2.059,0,0,0,1.36,2.026A2.432,2.432,0,0,0,308.145,939.24Zm-1.775,1.866a3.65,3.65,0,0,1-2.9-2.608,3.987,3.987,0,0,1,.158-2.474,3.663,3.663,0,0,1,3.424-2.21,3.7,3.7,0,0,1,3.237,5.558,3.877,3.877,0,0,1-2.369,1.707A3.128,3.128,0,0,1,306.37,941.106Z" transform="translate(-291.953 -929.866)" fill="#7f7f7f"/>
    <path id="path4235" d="M571.937,937.127c.327-.146.206-.106.264-.108a5.616,5.616,0,0,0,.742-.306,3.334,3.334,0,0,1,.715-.266c.077,0-.378.2-.378.157a6.154,6.154,0,0,1,1.006-.464c.474-.161.483-.17.332-.337a1.614,1.614,0,0,0-1.948-.212,2.108,2.108,0,0,0-.949,1.276C571.652,937.269,571.62,937.268,571.937,937.127Zm.931,3.957a3.659,3.659,0,0,1-2.782-2.68,5.024,5.024,0,0,1,.007-1.95,3.482,3.482,0,0,1,3.33-2.662,3.067,3.067,0,0,1,2.256.927,4.245,4.245,0,0,1,1.04,1.741c0,.2-.106.265-1.2.692-.876.344-1.3.517-1.992.816-.122.053-.3.128-.4.167s-.356.149-.576.242-.454.188-.522.209c-.213.065.519.749.921.86a2.041,2.041,0,0,0,2.033-.439,1.736,1.736,0,0,1,.467-.348,4.613,4.613,0,0,1,1.26.847c0,.189-.774.9-1.288,1.177a5.484,5.484,0,0,1-1.9.533c-.073-.005-.372-.066-.664-.134Z" transform="translate(-532.485 -929.846)" fill="#7f7f7f"/>
    <path id="path4233" d="M191.667,904.71a5.554,5.554,0,0,1-3.036-1.665,5.942,5.942,0,0,1-1.414-2.292,7.9,7.9,0,0,1,.008-3.254,6.007,6.007,0,0,1,4.043-3.864,8.526,8.526,0,0,1,3.143.042,6.591,6.591,0,0,1,2.167,1.252c.106.128.052.214-.445.716a5.7,5.7,0,0,1-.613.571,1.4,1.4,0,0,1-.3-.221,4.244,4.244,0,0,0-3.212-.76,3.927,3.927,0,0,0-2.793,2.132,2.576,2.576,0,0,0-.468,1.771,2.706,2.706,0,0,0,.419,1.707,4.844,4.844,0,0,0,.745,1.041,3.962,3.962,0,0,0,3.909,1.1,3.093,3.093,0,0,0,1.631-.87,2.747,2.747,0,0,0,.816-1.5l.059-.33-1.8-.024-1.8-.024V898.59l2.567.007,2.622.008a1.252,1.252,0,0,1,.15.475,5.336,5.336,0,0,1-.859,3.531,4.877,4.877,0,0,1-2.487,1.918,7.657,7.657,0,0,1-3.055.182Z" transform="translate(-187.052 -893.509)" fill="#7f7f7f"/>
    <path id="path4229" d="M388.316,939.453a2.14,2.14,0,0,0,1.167-1.1,2.187,2.187,0,0,0,.192-.92,2.063,2.063,0,0,0-.247-1.024,2.379,2.379,0,0,0-1.041-.883,1.884,1.884,0,0,0-2.033.422,2.141,2.141,0,0,0,.765,3.523A1.632,1.632,0,0,0,388.316,939.453Zm-1.527,1.605a3.74,3.74,0,0,1-2.368-1.8,3.694,3.694,0,0,1,.482-4.228,3.719,3.719,0,1,1,5.313,5.19,3.428,3.428,0,0,1-2.243.888,6.191,6.191,0,0,1-1.184-.047Z" transform="translate(-364.684 -929.855)" fill="#7f7f7f"/>
    <path id="path4213" d="M546.459,902.074v-5.407l.863.025.863.025V907.43l-.863.026-.863.025v-5.407Z" transform="translate(-511.256 -896.358)" fill="#7f7f7f"/>
    <path id="path4203" d="M679.432,903.045c-.032-.083-.4-1.089-.815-2.236s-.788-2.118-.826-2.158a10.971,10.971,0,0,0-.826,2.144.751.751,0,0,1-.079.233c-.083.133-.779,2-.779,2.09a9.421,9.421,0,0,0,1.692.077c1.555,0,1.687-.012,1.634-.151Zm-6.423,4.267c0-.048.363-1.044.806-2.213s.975-2.583,1.184-3.143c.564-1.517,1.45-3.865,1.692-4.486a4.175,4.175,0,0,0,.213-.642c0-.062.3-.1.832-.1.71,0,.84.023.892.155.234.6,3.221,8.523,3.414,9.052.133.365.306.818.385,1.007a3.611,3.611,0,0,1,.144.376,4.717,4.717,0,0,1-.79.034h-.791l-.191-.509c-.1-.28-.331-.917-.5-1.416l-.314-.908H675.59l-.141.377c-.078.206-.311.847-.518,1.424l-.377,1.048-.773.015C673.315,907.394,673.009,907.365,673.009,907.312Zm19.106.211a2.532,2.532,0,0,1-1.96-1.378c-.157-.3-.129-.352.275-.514a1.345,1.345,0,0,0,.433-.243c.035-.056.122-.013.222.109.75.92.919,1.014,1.729.955.491-.036.572-.071.8-.34.487-.583.138-.955-1.23-1.314-1.535-.4-2.15-.919-2.15-1.806a1.487,1.487,0,0,1,.959-1.495,2.269,2.269,0,0,1,1.427-.294,2.147,2.147,0,0,1,1.311.245c.486.256,1.1.973,1.021,1.188-.024.063-.076.1-.116.071a1.194,1.194,0,0,0-.5.139c-.286.122-.437.15-.46.084a1.7,1.7,0,0,0-.671-.593,1.758,1.758,0,0,0-1.45.122.656.656,0,0,0-.267.447c-.039.392.258.58,1.362.856,1.367.342,1.694.535,2.029,1.2a1.9,1.9,0,0,1-.168,1.732A2.641,2.641,0,0,1,692.115,907.523Zm-5.055-1.356a2.11,2.11,0,0,0,.6-.691,1.788,1.788,0,0,0,.246-1.081,1.958,1.958,0,0,0-.669-1.667,1.638,1.638,0,0,0-2.36.006,1.924,1.924,0,0,0-.644,1.51,2.066,2.066,0,0,0,1.122,2.066,1.879,1.879,0,0,0,1.7-.145Zm-1.653,1.348a2.9,2.9,0,0,1-2.117-1.742,2.472,2.472,0,0,1-.233-1.338,3.037,3.037,0,0,1,.855-2.4,2.446,2.446,0,0,1,2.022-.827,2.16,2.16,0,0,1,1.768.66l.224.24-.044-1.75-.044-1.75.609-.028c.352-.016.623.009.643.06s.023,2.035.011,4.415l-.023,4.326h-1.151l.031-.381.031-.382-.337.3a2.581,2.581,0,0,1-2.245.607Z" transform="translate(-625.41 -896.416)" fill="#7f7f7f"/>
  </g>
</svg>
