<svg id="google_analytics-official" xmlns="http://www.w3.org/2000/svg" xmlns:xlink="http://www.w3.org/1999/xlink" width="114.521" height="83.365" viewBox="0 0 114.521 83.365">
  <defs>
    <linearGradient id="linear-gradient" x1="0.003" y1="0.5" x2="1.001" y2="0.5" gradientUnits="objectBoundingBox">
      <stop offset="0" stop-color="#e96f0b"/>
      <stop offset="1" stop-color="#f37901"/>
    </linearGradient>
  </defs>
  <g id="Group_8776" data-name="Group 8776" transform="translate(0 67.067)">
    <path id="Path_4485" data-name="Path 4485" d="M152.053,125.873,154,130.984h-3.773l1.825-5.111Zm-.73-1.7-4.26,11.2h1.582l1.1-3.042h4.742l1.1,3.042h1.582l-4.26-11.2h-1.582Zm23,11.2h1.461v-11.2h-1.461Zm-14.969-6.576a3.105,3.105,0,0,1,2.434-1.339c1.947,0,2.921,1.339,2.921,3.286v4.742h-1.461v-4.5c0-1.582-.852-2.191-1.947-2.191a2.267,2.267,0,0,0-2.069,2.313v4.26h-1.461v-7.784h1.461l.122,1.217Zm6.576,4.259c0-1.7,1.582-2.677,3.407-2.677a3.321,3.321,0,0,1,2.069.487v-.243a1.818,1.818,0,0,0-1.947-1.825,1.781,1.781,0,0,0-1.825,1.1l-1.339-.608a3.5,3.5,0,0,1,6.572,1.461v4.625h-1.339v-1.1h-.122a2.931,2.931,0,0,1-2.556,1.339,2.666,2.666,0,0,1-2.921-2.556m5.476-.973a3.058,3.058,0,0,0-1.825-.487c-1.461,0-2.069.852-2.069,1.461,0,.852.852,1.217,1.582,1.217a2.373,2.373,0,0,0,2.313-2.191" transform="translate(-92.906 -122.718)" fill="#757575"/>
    <path id="Path_4486" data-name="Path 4486" d="M214.234,142.516l1.7-4.016-3.042-7.059h1.461l2.313,5.355,2.313-5.355h1.461L215.7,142.516h-1.461ZM235.653,134a2.31,2.31,0,0,0-2.069-1.582,2.706,2.706,0,0,0,0,5.355,2.375,2.375,0,0,0,2.069-1.461l1.217.73a3.574,3.574,0,0,1-3.286,2.191,3.96,3.96,0,0,1-3.773-4.138,3.884,3.884,0,0,1,3.773-4.138,3.574,3.574,0,0,1,3.286,2.191l-1.217.852Z" transform="translate(-129.286 -126.465)" fill="#757575" fill-rule="evenodd"/>
    <path id="Path_4487" data-name="Path 4487" d="M258.331,139.509c1.947,0,2.921-1.1,2.921-2.434,0-2.921-4.26-1.825-4.26-3.534,0-.608.487-.973,1.339-.973a2.439,2.439,0,0,1,2.069.973l.852-.852a4.521,4.521,0,0,0-3.042-1.461c-1.825,0-2.8,1.1-2.8,2.434,0,2.8,4.381,1.825,4.381,3.286,0,.73-.487,1.217-1.461,1.217a2.414,2.414,0,0,1-1.947-1.217l-1.1.852a4.791,4.791,0,0,0,3.042,1.7Zm-13.874-.244h1.461v-7.784h-1.461Z" transform="translate(-146.73 -126.617)" fill="#757575"/>
    <path id="Path_4488" data-name="Path 4488" d="M237.547,123.35a.973.973,0,0,1,0,1.947.973.973,0,1,1,0-1.947Zm-2.069,10.344.243,1.1h-1.461c-1.339,0-1.947-.973-1.947-2.434v-3.773h-1.461v-1.461h1.461v-2.313h1.461v2.313h1.7v1.461h-1.7V132.6c0,1.1.852,1.1,1.7,1.1Z" transform="translate(-139.212 -122.263)" fill="#757575" fill-rule="evenodd"/>
    <path id="Path_4489" data-name="Path 4489" d="M32.576,126.874V128.7h4.26a3.688,3.688,0,0,1-.973,2.191,4.371,4.371,0,0,1-3.286,1.339,4.649,4.649,0,0,1-4.625-4.742,4.652,4.652,0,0,1,7.789-3.525l1.217-1.217a6.328,6.328,0,0,0-4.381-1.825,6.452,6.452,0,1,0,0,12.9,5.824,5.824,0,0,0,6.085-5.963,3.021,3.021,0,0,0-.122-1.1H32.576Zm10.832-1.46a4.138,4.138,0,1,0,0,8.276,4.1,4.1,0,0,0,4.138-4.138A4.03,4.03,0,0,0,43.408,125.414Zm0,6.694a2.568,2.568,0,0,1,0-5.111,2.568,2.568,0,0,1,0,5.111Zm19.955-5.842a3.158,3.158,0,0,0-2.313-.973,4.146,4.146,0,0,0,0,8.276,2.868,2.868,0,0,0,2.191-.973h.122v.608c0,1.582-.852,2.434-2.191,2.434a2.33,2.33,0,0,1-2.069-1.461l-1.582.608a4.013,4.013,0,0,0,3.651,2.434c2.191,0,4.016-1.217,4.016-4.381V125.3h-1.7v.973Zm-2.069,5.841a2.586,2.586,0,1,1,2.191-2.556A2.359,2.359,0,0,1,61.294,132.107Zm-8.884-6.693a4.138,4.138,0,0,0,0,8.276,4.1,4.1,0,0,0,4.138-4.138A3.962,3.962,0,0,0,52.409,125.414Zm0,6.694a2.568,2.568,0,0,1,0-5.111,2.568,2.568,0,0,1,0,5.111Zm14.117-11.075h1.825V133.69H66.527Zm6.815,11.075a2.356,2.356,0,0,1-2.069-1.217l5.6-2.313-.243-.487a3.807,3.807,0,0,0-7.429,1.461,4.1,4.1,0,0,0,4.138,4.138,4.448,4.448,0,0,0,3.534-1.825l-1.461-.973a2.355,2.355,0,0,1-2.069,1.217ZM73.22,127a1.631,1.631,0,0,1,1.582.973l-3.773,1.582A2.284,2.284,0,0,1,73.22,127Z" transform="translate(-26 -120.92)" fill="#757575"/>
  </g>
  <g id="Group_8777" data-name="Group 8777" transform="translate(29.208 0)">
    <path id="Path_4490" data-name="Path 4490" d="M116.727,49.177H95.917a4.623,4.623,0,0,1-4.625-4.625v-9.98a4.623,4.623,0,0,1,4.625-4.625h13.144v-14.6a4.623,4.623,0,0,1,4.625-4.625h14.6V49.055H116.727Z" transform="translate(-91.292 7.049)" fill="#ffc517" fill-rule="evenodd"/>
    <path id="Path_4491" data-name="Path 4491" d="M188.6,27.226H174v-51.6A4.623,4.623,0,0,1,178.621-29H188.6a4.623,4.623,0,0,1,4.625,4.625V22.6a4.786,4.786,0,0,1-4.625,4.625Z" transform="translate(-136.998 29)" fill="#f57e02" fill-rule="evenodd"/>
    <path id="Path_4492" data-name="Path 4492" d="M299.986,82.617v14.6a4.625,4.625,0,0,1-4.625,4.625h-14.6V63.388Z" transform="translate(-243.881 -45.619)" fill-rule="evenodd" fill="url(#linear-gradient)"/>
  </g>
</svg>
