<svg id="google-maps-seeklogo.com" xmlns="http://www.w3.org/2000/svg" width="98.921" height="89.084" viewBox="0 0 98.921 89.084">
  <g id="Group_8778" data-name="Group 8778" transform="translate(0 70.891)">
    <path id="Path_4493" data-name="Path 4493" d="M50.186,1454.733l4.062-1.687a1.757,1.757,0,0,0-1.687-.961,2.488,2.488,0,0,0-2.374,2.649m4.768,1.633,1.55,1.03a4.519,4.519,0,0,1-3.787,2.016,4.393,4.393,0,0,1-4.444-4.542,4.266,4.266,0,0,1,4.223-4.542,4.219,4.219,0,0,1,3.89,2.889l.206.515-6.073,2.511a2.313,2.313,0,0,0,2.2,1.378,2.594,2.594,0,0,0,2.232-1.256m-9.845,2.772h2v-13.352h-2Zm-3.257-4.253a2.563,2.563,0,0,0-2.428-2.771,2.764,2.764,0,0,0,0,5.509A2.538,2.538,0,0,0,41.852,1454.885Zm1.756-4.282v8.157c0,3.355-1.977,4.734-4.317,4.734a4.335,4.335,0,0,1-4.027-2.683l1.736-.721a2.516,2.516,0,0,0,2.291,1.619c1.5,0,2.428-.927,2.428-2.668v-.652h-.074a3.1,3.1,0,0,1-2.394,1.035,4.549,4.549,0,0,1,0-9.089,3.146,3.146,0,0,1,2.394,1.016h.069v-.741S43.608,1450.6,43.608,1450.6Zm-21.784,4.267a2.526,2.526,0,1,0-2.516,2.752,2.6,2.6,0,0,0,2.516-2.752m1.962,0a4.479,4.479,0,1,1-4.478-4.542,4.448,4.448,0,0,1,4.478,4.542m8.074,0a2.526,2.526,0,1,0-2.516,2.752,2.6,2.6,0,0,0,2.516-2.752m1.962,0a4.479,4.479,0,1,1-4.478-4.542,4.448,4.448,0,0,1,4.478,4.542m-26.665,4.542a7.057,7.057,0,1,1,0-14.112,6.713,6.713,0,0,1,4.837,1.947l-1.359,1.359a4.907,4.907,0,0,0-3.478-1.378,5.126,5.126,0,0,0,0,10.252,4.721,4.721,0,0,0,3.561-1.413,4.03,4.03,0,0,0,1.05-2.428H7.157v-1.928h6.485a6.272,6.272,0,0,1,.1,1.2,6.26,6.26,0,0,1-6.588,6.5" transform="translate(0 -1445.3)" fill="#5f6368" fill-rule="evenodd"/>
    <g id="flowRoot2998" transform="translate(61.296 1.851)">
      <path id="path3911" d="M1633.639,3005.74v-11.859h1.531l4.119,7.223h.062l4.118-7.223H1645v11.859h-1.531V2998.7l.062-1.986h-.062l-3.7,6.5h-.89l-3.7-6.5h-.062l.062,1.986v7.037Z" transform="translate(-1633.639 -2993.881)" fill="#63666a"/>
      <path id="path3913" d="M1902.043,3074.215a3.167,3.167,0,0,1-2.152-.745,2.472,2.472,0,0,1-.869-1.966,2.415,2.415,0,0,1,1.035-2.069,4.191,4.191,0,0,1,2.525-.745,4.3,4.3,0,0,1,2.194.5v-.227a1.776,1.776,0,0,0-.621-1.428,2.248,2.248,0,0,0-1.511-.538,2.357,2.357,0,0,0-1.2.31,1.7,1.7,0,0,0-.745.869l-1.386-.6a3.164,3.164,0,0,1,1.117-1.345,3.582,3.582,0,0,1,2.194-.621,3.793,3.793,0,0,1,2.587.911,3.26,3.26,0,0,1,1.035,2.566v4.9H1904.8v-1.117h-.062A3.127,3.127,0,0,1,1902.043,3074.215Zm.248-1.407a2.481,2.481,0,0,0,1.718-.7,2.157,2.157,0,0,0,.766-1.655,3.028,3.028,0,0,0-1.945-.538,2.571,2.571,0,0,0-1.676.476,1.441,1.441,0,0,0-.559,1.118,1.1,1.1,0,0,0,.517.952A1.981,1.981,0,0,0,1902.291,3072.808Z" transform="translate(-1886.004 -3062.087)" fill="#63666a"/>
      <path id="path3915" d="M2084.305,3073.412a3.321,3.321,0,0,1-1.656-.393,3.022,3.022,0,0,1-1.1-.993h-.083l.062,1.118v3.58h-1.511v-11.693h1.449v1.117h.062a2.862,2.862,0,0,1,1.1-.993,3.432,3.432,0,0,1,1.656-.393A3.555,3.555,0,0,1,2087,3066a4.745,4.745,0,0,1,0,6.167A3.514,3.514,0,0,1,2084.305,3073.412Zm-.248-1.407a2.438,2.438,0,0,0,1.821-.807,3.35,3.35,0,0,0,0-4.263,2.48,2.48,0,0,0-3.642-.021,3.006,3.006,0,0,0-.745,2.132,2.972,2.972,0,0,0,.745,2.131A2.261,2.261,0,0,0,2084.057,3072.005Z" transform="translate(-2058.125 -3061.285)" fill="#63666a"/>
      <path id="path3917" d="M2267.091,3074.616a3.627,3.627,0,0,1-2.235-.662,3.916,3.916,0,0,1-1.3-1.656l1.366-.559a2.25,2.25,0,0,0,2.194,1.532,1.97,1.97,0,0,0,1.159-.311.934.934,0,0,0,.455-.828c0-.538-.372-.89-1.118-1.076l-1.635-.393a3.955,3.955,0,0,1-1.469-.745,1.817,1.817,0,0,1-.7-1.49,2,2,0,0,1,.952-1.739,3.769,3.769,0,0,1,2.256-.662,3.7,3.7,0,0,1,1.925.5,2.675,2.675,0,0,1,1.2,1.407l-1.324.538a1.782,1.782,0,0,0-1.863-1.076,2.159,2.159,0,0,0-1.138.29.839.839,0,0,0-.456.766c0,.455.352.787,1.076.952l1.614.372a3.107,3.107,0,0,1,1.7.911,2.137,2.137,0,0,1,.538,1.448,2.234,2.234,0,0,1-.89,1.821A3.875,3.875,0,0,1,2267.091,3074.616Z" transform="translate(-2232.654 -3062.489)" fill="#63666a"/>
    </g>
  </g>
  <g id="g842" transform="translate(29.198 0)">
    <path id="path835" d="M1414.2,210.431a58.516,58.516,0,0,1,4.743,7,36.812,36.812,0,0,1,2.6,6.6c.525,1.521,1.025,1.982,2.075,1.982,1.148,0,1.673-.775,2.075-1.982a37.3,37.3,0,0,1,2.511-6.48,72.605,72.605,0,0,1,7.039-9.953c.682-.868,5.023-5.984,6.975-10.046a24.452,24.452,0,0,0,2.389-10.635,21.129,21.129,0,0,0-2.355-9.825l-6.818,1.83-4.155,10.914-1.025,1.486-.216.28-.28.343-.466.559-.682.682-3.689,3.007-9.207,5.332Z" transform="translate(-1402.638 -165.823)" fill="#34a853"/>
    <path id="path833" d="M1220.2,285.257c2.261,5.146,6.573,9.644,9.516,13.612l15.594-18.478a8.189,8.189,0,0,1-6.171,2.884,7.984,7.984,0,0,1-8.03-8,8.537,8.537,0,0,1,1.83-5.175l-10.571,2.82Z" transform="translate(-1218.154 -254.261)" fill="#fbbc04"/>
    <path id="path831" d="M1492.458-33.3a20.813,20.813,0,0,1,12.278,10.355L1492.271-8.1a8.661,8.661,0,0,0,1.83-5.175,8.08,8.08,0,0,0-8-8,8.392,8.392,0,0,0-6.2,2.85v-9.359Z" transform="translate(-1465.116 34.257)" fill="#4285f4"/>
    <path id="path829" d="M1278.3-45.3a20.83,20.83,0,0,1,16.026-7.5,21.445,21.445,0,0,1,6.386.961l-12.523,14.882h-8.869Z" transform="translate(-1273.405 52.8)" fill="#1a73e8"/>
    <path id="path827" d="M1180.546,124.167a24,24,0,0,1-2.046-9.918,20.87,20.87,0,0,1,4.93-13.548l9.889,8.339Z" transform="translate(-1178.5 -93.17)" fill="#ea4335"/>
  </g>
</svg>
