<?xml version="1.0" encoding="utf-8"?>
<svg version="1.1" xmlns:xlink="http://www.w3.org/1999/xlink" width="55px" height="55px" xmlns="http://www.w3.org/2000/svg">
  <g transform="matrix(1 0 0 1 -538 -526 )">
    <path d="M 0 50.4166689419512  C 0 52.9479733990335  2.05202870010704 55  4.58333315849303 55  C 4.58333315849303 55  50.4166689395907 55  50.4166689395907 55  C 52.9479733979767 55  55 52.9479733990335  55 50.4166689419512  C 55 50.4166689419512  55 22.9166700051559  55 22.9166700051559  C 55 20.3853655480736  52.9479733979767 18.3333389471071  50.4166689395907 18.3333389471071  C 50.4166689395907 18.3333389471071  50.4166689395907 13.7500036928908  50.4166689395907 13.7500036928908  C 50.4166689395907 11.218695039641  48.3646339452325 9.16666843867449  45.8333378791814 9.16666843867449  C 45.8333378791814 9.16666843867449  45.7302128673797 9.16666843867449  45.7302128673797 9.16666843867449  C 45.7302128673797 9.16666843867449  45.8333378791814 4.65208319229061  45.8333378791814 4.65208319229061  C 45.8517422697154 3.42463916664972  45.3770046665579 2.24111013166862  44.5154559534595 1.36664141937307  C 43.653915632696 0.492172707077535  42.4775788281531 -0.000136347117134525  41.2500026226047 0  C 41.2500026226047 0  13.7500036716465 0  13.7500036716465 0  C 11.2186950170931 0  9.16666841506978 2.05202872737588  9.16666841506978 4.58333318445821  C 9.16666841506978 4.58333318445821  9.16666841506978 9.16666843867449  9.16666841506978 9.16666843867449  C 6.6353639566838 9.16666843867449  4.58333315849303 11.2186992358084  4.58333315849303 13.7500036928908  C 4.58333315849303 13.7500036928908  4.58333315849303 18.3333389471071  4.58333315849303 18.3333389471071  C 2.05202870010704 18.3333389471071  0 20.385369744241  0 22.9166700051559  C 0 22.9166700051559  0 50.4166689419512  0 50.4166689419512  Z M 13.7500036716465 9  L 13.7500036716465 5  L 41.2500026226047 5  L 41.1812526147369 9  L 13.7500036716465 9  Z M 9.16666841506978 19  L 9.16666841506978 14  L 45.8333378791814 14  L 45.8333378791814 19  L 9.16666841506978 19  Z M 5 50  L 5 23  L 50 23  L 50 50  L 5 50  Z M 24.1999990768432 29.6999988800646  C 24.1999990768432 28.48497359745  23.2150244440068 27.499998965121  21.9999991607665 27.499998965121  C 21.9999991607665 27.499998965121  10.9999995803833 27.499998965121  10.9999995803833 27.499998965121  C 9.78497429714295 27.499998965121  8.7999996643066 28.48497359745  8.7999996643066 29.6999988800646  C 8.7999996643066 29.6999988800646  8.7999996643066 40.6999984547827  8.7999996643066 40.6999984547827  C 8.7999996643066 41.9150237373973  9.78497429714295 42.8999983697263  10.9999995803833 42.8999983697263  C 10.9999995803833 42.8999983697263  21.9999991607665 42.8999983697263  21.9999991607665 42.8999983697263  C 23.2150244440068 42.8999983697263  24.1999990768432 41.9150237373973  24.1999990768432 40.6999984547827  C 24.1999990768432 40.6999984547827  24.1999990768432 29.6999988800646  24.1999990768432 29.6999988800646  Z M 19.7999992446899 31.8999987950082  L 19.7999992446899 38.4999985398391  L 13.1999994964599 38.4999985398391  L 13.1999994964599 31.8999987950082  L 19.7999992446899 31.8999987950082  Z M 46.1999982376097 29.6999988800646  C 46.1999982376097 28.48497359745  45.2150236047733 27.499998965121  43.999998321533 27.499998965121  C 43.999998321533 27.499998965121  32.9999987411498 27.499998965121  32.9999987411498 27.499998965121  C 31.7849734579095 27.499998965121  30.7999988250731 28.48497359745  30.7999988250731 29.6999988800646  C 30.7999988250731 30.9150241626791  31.7849734579095 31.8999987950082  32.9999987411498 31.8999987950082  C 32.9999987411498 31.8999987950082  43.999998321533 31.8999987950082  43.999998321533 31.8999987950082  C 45.2150236047733 31.8999987950082  46.1999982376097 30.9150241626791  46.1999982376097 29.6999988800646  Z M 46.1999982376097 38.4999985398391  C 46.1999982376097 37.2849732572245  45.2150236047733 36.2999986248955  43.999998321533 36.2999986248955  C 43.999998321533 36.2999986248955  32.9999987411498 36.2999986248955  32.9999987411498 36.2999986248955  C 31.7849734579095 36.2999986248955  30.7999988250731 37.2849732572245  30.7999988250731 38.4999985398391  C 30.7999988250731 39.7150238224536  31.7849734579095 40.6999984547827  32.9999987411498 40.6999984547827  C 32.9999987411498 40.6999984547827  43.999998321533 40.6999984547827  43.999998321533 40.6999984547827  C 45.2150236047733 40.6999984547827  46.1999982376097 39.7150238224536  46.1999982376097 38.4999985398391  Z " fill-rule="nonzero" fill="#4284fc" stroke="none" transform="matrix(1 0 0 1 538 525 )" />
  </g>
</svg>