<svg xmlns="http://www.w3.org/2000/svg" width="223" height="28" viewBox="0 0 223 28">
  <g id="Logo_-_Yellow_White_-_Ds" data-name="Logo - Yellow &amp; White - Ds" transform="translate(0 0)">
    <path id="Path_172" data-name="Path 172" d="M111.746,38.657c0,9.625-7.863,13.507-21.708,13.507H74.023a1.321,1.321,0,0,1-1.036-.354,1.214,1.214,0,0,1-.376-.994V26.5a1.213,1.213,0,0,1,.376-.994,1.321,1.321,0,0,1,1.036-.354H90.037C103.883,25.15,111.746,29.129,111.746,38.657Zm-7.429,0c0-3.861-2.224-6.748-14.279-6.748h-10.2V45.416h10.2C102.148,45.416,104.317,42.518,104.317,38.657Z" transform="translate(-19.385 -24.678)" fill="#fff"/>
    <path id="Path_173" data-name="Path 173" d="M151.108,34.337c0,4.438-3.492,9.187-12.033,9.187H118.813v7.294a1.214,1.214,0,0,1-.376.994,1.321,1.321,0,0,1-1.036.354h-4.448a1.32,1.32,0,0,1-1.029-.358,1.213,1.213,0,0,1-.373-.989V26.5a1.213,1.213,0,0,1,.373-.989,1.32,1.32,0,0,1,1.029-.358h26.123C147.638,25.15,151.108,29.9,151.108,34.337Zm-7.218,0c0-2.043-.923-2.513-4.815-2.513H118.813v5.347h20.263c3.892-.021,4.815-.717,4.815-2.834Z" transform="translate(-15.019 -24.678)" fill="#fff"/>
    <path id="Path_174" data-name="Path 174" d="M190.438,34.337c0,4.438-3.492,9.187-12.044,9.187H158.131v7.294a1.213,1.213,0,0,1-.373.989,1.32,1.32,0,0,1-1.029.358h-4.448a1.32,1.32,0,0,1-1.029-.358,1.213,1.213,0,0,1-.373-.989V26.5a1.213,1.213,0,0,1,.373-.989,1.32,1.32,0,0,1,1.029-.358h26.079C186.946,25.15,190.438,29.9,190.438,34.337Zm-7.229,0c0-2.043-.923-2.513-4.815-2.513H158.131v5.347h20.263c3.892-.021,4.871-.717,4.871-2.834Z" transform="translate(-10.61 -24.678)" fill="#fff"/>
    <path id="Path_175" data-name="Path 175" d="M209.951,35.714c8.83.813,19.306,1.551,19.306,8.256,0,6.3-7.785,8.684-18.539,8.684h-.478c-12,0-17.86-1.968-19.829-3.123a1.129,1.129,0,0,1-.7-.895,1.1,1.1,0,0,1,.452-1.03l2.858-2.823a1.52,1.52,0,0,1,1.924-.31c1.724.7,5.983,1.861,15.292,1.861h.478c8.663,0,11.121-1.2,11.121-2.246,0-1.775-4.059-1.658-12.166-2.353-13.078-1.2-19.74-2.043-19.74-8.609,0-5.9,6.862-8.406,18.817-8.406h1c9.842,0,15.77,1.968,17.7,3.123a1.158,1.158,0,0,1,.669.906,1.134,1.134,0,0,1-.436,1.029l-2.8,2.727a1.624,1.624,0,0,1-1.968.31,41.057,41.057,0,0,0-13.167-1.807h-1c-9.831,0-11.4,1.465-11.4,2.353C197.351,34.944,201.087,34.826,209.951,35.714Z" transform="translate(-6.257 -24.707)" fill="#fff"/>
    <path id="Path_176" data-name="Path 176" d="M32.59,52.655l.534-.631c.1-.118.222-.225.323-.342,1.112-1.176,2.224-2.353,3.27-3.551,1.479-1.636,2.925-3.283,4.448-4.909s2.98-3.23,4.471-4.941c1.891-2.085,3.759-4.192,5.65-6.288a7.828,7.828,0,0,1,.856-.845.674.674,0,0,1,.661-.159.64.64,0,0,1,.451.49,2.458,2.458,0,0,1,0,.642v4.941a1.894,1.894,0,0,1-.423,1.422c-.9.941-1.768,1.9-2.636,2.877-1.446,1.615-2.88,3.208-4.337,4.845s-3.17,3.412-4.738,5.123c-.4.438-.79.877-1.179,1.326H47.1l4.1-4.5c1.512-1.647,3.025-3.283,4.526-4.941l5.638-6.288Q63.818,34.2,66.3,31.49a1.8,1.8,0,0,1,.5-.406.771.771,0,0,1,.69-.034.721.721,0,0,1,.422.526,2.932,2.932,0,0,1,0,.545V36.87a2.382,2.382,0,0,1-.623,1.679c-.512.577-1.045,1.144-1.568,1.722-1,1.069-2.013,2.139-3.014,3.283-1.446,1.615-2.88,3.208-4.326,4.845l-3.87,4.278h6.506c1.112-1.273,2.313-2.567,3.47-3.861.612-.684,1.234-1.38,1.868-2.053.256-.278.545-.567.979-.417a.978.978,0,0,1,.578,1.069v5.294h5.839V27.63a2.678,2.678,0,0,0-.8-2.091A2.907,2.907,0,0,0,70.8,24.71h-4.66a1.98,1.98,0,0,0-1.512.663L61.45,28.881c-.867.973-1.724,1.946-2.6,2.909a.492.492,0,0,1-.334.086.53.53,0,0,1-.111-.225V26.646a1.7,1.7,0,0,0-.5-1.382,1.852,1.852,0,0,0-1.416-.532H51.552a2.933,2.933,0,0,0-2.28.963c-1.112,1.283-2.358,2.545-3.525,3.818l-3.425,3.8c-1.112,1.166-2.146,2.321-3.2,3.486-1.579,1.743-3.147,3.5-4.738,5.24-1.012,1.069-2.046,2.235-3.069,3.358S29,47.971,27.831,49.254L24.75,52.612h0Z" transform="translate(-24.75 -24.708)" fill="#fff"/>
  </g>
</svg>
