<svg xmlns="http://www.w3.org/2000/svg" viewBox="0 0 220 28" width="220" height="28">
	<style>
		tspan { white-space:pre }
		.shp0 { fill: #e1e8ed } 
		.shp1 { fill: #657786 } 
	</style>
	<g id="Logo_-_Blue_Black">
		<path id="Path_172" fill-rule="evenodd" class="shp0" d="M91.12 13.98C91.12 23.6 83.36 27.49 69.7 27.49L53.9 27.49C53.81 27.5 53.71 27.49 53.62 27.48C53.53 27.47 53.44 27.45 53.35 27.42C53.26 27.39 53.18 27.35 53.1 27.3C53.02 27.25 52.94 27.2 52.88 27.13C52.81 27.07 52.75 27 52.7 26.92C52.65 26.84 52.61 26.76 52.58 26.68C52.55 26.59 52.52 26.5 52.51 26.41C52.5 26.32 52.5 26.23 52.51 26.14L52.51 1.82C52.5 1.73 52.5 1.64 52.51 1.55C52.52 1.46 52.55 1.37 52.58 1.28C52.61 1.2 52.65 1.12 52.7 1.04C52.75 0.96 52.81 0.89 52.88 0.83C52.94 0.76 53.02 0.71 53.1 0.66C53.18 0.61 53.26 0.57 53.35 0.54C53.44 0.51 53.53 0.49 53.62 0.48C53.71 0.46 53.81 0.46 53.9 0.47L69.7 0.47C83.36 0.47 91.12 4.45 91.12 13.98ZM83.79 13.98C83.79 10.12 81.59 7.23 69.7 7.23L59.64 7.23L59.64 20.74L69.7 20.74C81.65 20.74 83.79 17.84 83.79 13.98Z" />
		<path id="Path_173" fill-rule="evenodd" class="shp0" d="M134.26 9.66C134.26 14.1 130.81 18.85 122.39 18.85L102.4 18.85L102.4 26.14C102.41 26.23 102.4 26.32 102.39 26.41C102.38 26.5 102.36 26.59 102.32 26.68C102.29 26.77 102.25 26.85 102.2 26.92C102.15 27 102.09 27.07 102.03 27.13C101.96 27.2 101.88 27.26 101.81 27.3C101.73 27.35 101.64 27.39 101.55 27.42C101.47 27.45 101.37 27.47 101.28 27.49C101.19 27.5 101.1 27.5 101 27.49L96.61 27.49C96.52 27.5 96.43 27.49 96.34 27.48C96.25 27.47 96.16 27.45 96.07 27.42C95.98 27.39 95.9 27.35 95.82 27.3C95.74 27.25 95.67 27.19 95.6 27.13C95.53 27.07 95.48 27 95.43 26.92C95.38 26.84 95.34 26.76 95.3 26.68C95.27 26.59 95.25 26.5 95.24 26.41C95.23 26.32 95.22 26.23 95.23 26.14L95.23 1.82C95.22 1.73 95.23 1.64 95.24 1.55C95.25 1.46 95.27 1.37 95.3 1.29C95.34 1.2 95.38 1.12 95.43 1.04C95.48 0.97 95.53 0.9 95.6 0.83C95.67 0.77 95.74 0.71 95.82 0.66C95.9 0.61 95.98 0.57 96.07 0.54C96.16 0.51 96.25 0.49 96.34 0.48C96.43 0.47 96.52 0.47 96.61 0.47L122.38 0.47C130.83 0.47 134.26 5.22 134.26 9.66ZM127.14 9.66C127.14 7.62 126.23 7.15 122.39 7.15L102.4 7.15L102.4 12.49L122.38 12.49C126.22 12.47 127.13 11.78 127.13 9.66L127.14 9.66Z" />
		<path id="Path_174" fill-rule="evenodd" class="shp0" d="M177.41 9.66C177.41 14.1 173.96 18.85 165.53 18.85L145.54 18.85L145.54 26.14C145.55 26.23 145.54 26.32 145.53 26.41C145.52 26.5 145.5 26.59 145.47 26.68C145.43 26.76 145.39 26.84 145.34 26.92C145.29 27 145.23 27.07 145.17 27.13C145.1 27.19 145.03 27.25 144.95 27.3C144.87 27.35 144.79 27.39 144.7 27.42C144.61 27.45 144.52 27.47 144.43 27.48C144.34 27.49 144.25 27.5 144.15 27.49L139.76 27.49C139.67 27.5 139.58 27.49 139.49 27.48C139.4 27.47 139.31 27.45 139.22 27.42C139.13 27.39 139.05 27.35 138.97 27.3C138.89 27.25 138.82 27.19 138.75 27.13C138.68 27.07 138.63 27 138.58 26.92C138.53 26.84 138.49 26.76 138.45 26.68C138.42 26.59 138.4 26.5 138.39 26.41C138.38 26.32 138.37 26.23 138.38 26.14L138.38 1.82C138.37 1.73 138.38 1.64 138.39 1.55C138.4 1.46 138.42 1.37 138.45 1.29C138.49 1.2 138.53 1.12 138.58 1.04C138.63 0.97 138.68 0.9 138.75 0.83C138.82 0.77 138.89 0.71 138.97 0.66C139.05 0.61 139.13 0.57 139.22 0.54C139.31 0.51 139.4 0.49 139.49 0.48C139.58 0.47 139.67 0.47 139.76 0.47L165.49 0.47C173.96 0.47 177.41 5.22 177.41 9.66ZM170.28 9.66C170.28 7.62 169.37 7.15 165.53 7.15L145.54 7.15L145.54 12.49L165.53 12.49C169.37 12.47 170.33 11.78 170.33 9.66L170.28 9.66Z" />
		<path id="Path_175" class="shp0" d="M200.95 11.01C209.67 11.82 220 12.56 220 19.26C220 25.56 212.32 27.95 201.71 27.95L201.24 27.95C189.4 27.95 183.62 25.98 181.68 24.82C181.59 24.79 181.5 24.74 181.42 24.68C181.34 24.62 181.27 24.55 181.21 24.47C181.15 24.39 181.1 24.3 181.07 24.21C181.03 24.12 181 24.03 180.99 23.93C180.98 23.83 180.98 23.73 180.99 23.64C181.01 23.54 181.03 23.44 181.07 23.35C181.11 23.26 181.16 23.18 181.22 23.1C181.29 23.03 181.36 22.96 181.44 22.9L184.26 20.08C184.37 19.94 184.51 19.83 184.66 19.74C184.81 19.66 184.98 19.6 185.15 19.57C185.32 19.54 185.5 19.55 185.67 19.58C185.84 19.61 186.01 19.68 186.16 19.77C187.86 20.47 192.06 21.63 201.24 21.63L201.71 21.63C210.26 21.63 212.68 20.43 212.68 19.38C212.68 17.61 208.68 17.72 200.68 17.03C187.78 15.83 181.21 14.98 181.21 8.42C181.21 2.52 187.98 0.01 199.77 0.01L200.76 0.01C210.47 0.01 216.32 1.98 218.23 3.14C218.32 3.18 218.4 3.23 218.48 3.29C218.55 3.35 218.62 3.42 218.68 3.5C218.73 3.58 218.78 3.67 218.82 3.76C218.85 3.85 218.88 3.95 218.89 4.04C218.9 4.14 218.9 4.24 218.89 4.33C218.87 4.43 218.85 4.52 218.81 4.61C218.77 4.7 218.72 4.79 218.66 4.86C218.6 4.94 218.54 5.01 218.46 5.07L215.69 7.8C215.57 7.93 215.43 8.04 215.28 8.12C215.12 8.21 214.95 8.26 214.78 8.29C214.6 8.32 214.42 8.32 214.25 8.29C214.07 8.25 213.91 8.19 213.75 8.11C212.7 7.78 211.64 7.5 210.57 7.26C209.5 7.02 208.42 6.82 207.33 6.67C206.24 6.52 205.15 6.41 204.05 6.35C202.96 6.29 201.86 6.27 200.76 6.3L199.77 6.3C190.07 6.3 188.53 7.77 188.53 8.65C188.52 10.24 192.21 10.12 200.95 11.01Z" />
		<path id="Path_176" class="shp1" d="M7.73 27.95L8.26 27.32C8.36 27.2 8.48 27.09 8.58 26.97C9.68 25.8 10.77 24.62 11.81 23.42C13.27 21.79 14.69 20.14 16.2 18.51C17.7 16.89 19.13 15.28 20.61 13.57C22.47 11.49 24.31 9.38 26.18 7.29C26.24 7.21 26.31 7.13 26.38 7.06C26.45 6.99 26.52 6.92 26.59 6.85C26.66 6.78 26.73 6.71 26.8 6.64C26.87 6.57 26.95 6.5 27.02 6.44C27.07 6.4 27.11 6.36 27.17 6.34C27.22 6.31 27.27 6.29 27.33 6.27C27.39 6.26 27.45 6.25 27.5 6.25C27.56 6.25 27.62 6.26 27.68 6.28C27.73 6.3 27.79 6.32 27.84 6.35C27.88 6.38 27.93 6.42 27.97 6.46C28.01 6.51 28.04 6.55 28.07 6.61C28.09 6.66 28.11 6.71 28.12 6.77C28.13 6.82 28.13 6.88 28.14 6.93C28.14 6.98 28.14 7.04 28.14 7.09C28.14 7.15 28.14 7.2 28.14 7.25C28.13 7.31 28.13 7.36 28.12 7.41L28.12 12.35C28.14 12.48 28.14 12.61 28.13 12.73C28.12 12.86 28.09 12.99 28.06 13.11C28.02 13.23 27.97 13.35 27.91 13.46C27.86 13.57 27.79 13.68 27.7 13.78C26.82 14.72 25.96 15.68 25.1 16.65C23.68 18.27 22.26 19.86 20.83 21.5C19.39 23.14 17.7 24.91 16.15 26.62C15.76 27.06 15.37 27.5 14.99 27.95L22.05 27.95L26.1 23.45C27.59 21.8 29.08 20.16 30.56 18.51L36.13 12.22C37.74 10.4 39.36 8.59 40.99 6.79C41.02 6.74 41.06 6.7 41.1 6.67C41.13 6.63 41.17 6.59 41.21 6.56C41.26 6.53 41.3 6.49 41.34 6.46C41.39 6.43 41.43 6.41 41.48 6.38C41.53 6.35 41.59 6.33 41.64 6.31C41.7 6.29 41.76 6.28 41.82 6.28C41.88 6.28 41.93 6.28 41.99 6.29C42.05 6.3 42.11 6.32 42.16 6.35C42.21 6.37 42.26 6.4 42.31 6.43C42.36 6.47 42.4 6.51 42.43 6.56C42.47 6.6 42.5 6.65 42.53 6.7C42.55 6.76 42.57 6.81 42.58 6.87C42.58 6.92 42.59 6.96 42.59 7.01C42.59 7.05 42.59 7.1 42.59 7.14C42.59 7.19 42.59 7.23 42.59 7.28C42.59 7.33 42.58 7.37 42.58 7.42L42.58 12.16C42.58 12.31 42.57 12.47 42.55 12.62C42.52 12.77 42.49 12.92 42.43 13.06C42.38 13.2 42.31 13.34 42.24 13.47C42.16 13.6 42.07 13.73 41.96 13.84C41.46 14.42 40.93 14.98 40.42 15.56C39.43 16.63 38.43 17.7 37.44 18.85C36.02 20.46 34.6 22.05 33.18 23.69L29.36 27.97L35.78 27.97C36.88 26.7 38.06 25.4 39.2 24.11C39.8 23.42 40.42 22.73 41.04 22.05C41.3 21.78 41.58 21.49 42.01 21.64C42.11 21.68 42.2 21.74 42.28 21.82C42.36 21.89 42.43 21.98 42.48 22.07C42.53 22.17 42.57 22.27 42.58 22.38C42.6 22.49 42.6 22.6 42.58 22.71L42.58 28L48.34 28L48.34 2.92C48.35 2.73 48.35 2.54 48.32 2.35C48.29 2.16 48.24 1.97 48.17 1.79C48.11 1.61 48.02 1.44 47.91 1.28C47.81 1.12 47.69 0.97 47.55 0.83C47.41 0.69 47.26 0.57 47.1 0.46C46.94 0.36 46.76 0.27 46.58 0.2C46.4 0.12 46.21 0.07 46.02 0.04C45.82 0.01 45.63 -0.01 45.43 0L40.83 0C40.69 0 40.55 0.01 40.41 0.04C40.28 0.07 40.14 0.11 40.01 0.17C39.89 0.23 39.76 0.3 39.65 0.38C39.54 0.46 39.43 0.56 39.34 0.67L36.2 4.17C35.35 5.15 34.5 6.12 33.64 7.08C33.61 7.1 33.59 7.11 33.56 7.13C33.53 7.14 33.51 7.15 33.48 7.16C33.45 7.16 33.42 7.17 33.39 7.17C33.36 7.17 33.34 7.17 33.31 7.17C33.29 7.15 33.28 7.13 33.27 7.12C33.26 7.1 33.25 7.08 33.24 7.06C33.23 7.04 33.22 7.02 33.21 7C33.21 6.98 33.2 6.96 33.2 6.94L33.2 1.94C33.21 1.81 33.21 1.69 33.19 1.56C33.18 1.43 33.15 1.31 33.11 1.19C33.06 1.07 33.01 0.96 32.94 0.85C32.87 0.74 32.8 0.65 32.71 0.56C32.62 0.46 32.52 0.38 32.41 0.31C32.3 0.24 32.18 0.18 32.06 0.14C31.94 0.09 31.82 0.06 31.69 0.04C31.56 0.02 31.44 0.02 31.31 0.02L26.44 0.02C26.23 0.02 26.02 0.03 25.81 0.07C25.61 0.11 25.4 0.17 25.21 0.25C25.02 0.34 24.83 0.44 24.66 0.56C24.49 0.69 24.33 0.83 24.19 0.99C23.09 2.27 21.87 3.53 20.71 4.81L17.34 8.61C16.23 9.77 15.22 10.93 14.17 12.09C12.62 13.83 11.07 15.59 9.5 17.33C8.5 18.4 7.48 19.57 6.47 20.69C5.46 21.81 4.19 23.27 3.04 24.55L0 27.9L0 27.9L7.73 27.95Z" />
	</g>
</svg>