<?xml version="1.0" encoding="utf-8"?>
<!-- Generator: Adobe Illustrator 19.0.0, SVG Export Plug-In . SVG Version: 6.00 Build 0)  -->
<svg version="1.1" id="Layer_1" xmlns="http://www.w3.org/2000/svg" xmlns:xlink="http://www.w3.org/1999/xlink" x="0px" y="0px"
	 viewBox="-255 266.7 49 28.3" style="enable-background:new -255 266.7 49 28.3;" xml:space="preserve">
<style type="text/css">
	.st0{fill:#1E3E75;}
</style>
<g id="logo-mark" transform="translate(0 0)">
	<path id="Path_176" class="st0" d="M-247.2,294.9l0.5-0.6c0.1-0.1,0.2-0.2,0.3-0.3c1.1-1.2,2.2-2.4,3.3-3.6c1.5-1.7,2.9-3.3,4.4-5
		s3-3.3,4.5-5c1.9-2.1,3.8-4.2,5.6-6.4c0.3-0.3,0.5-0.6,0.9-0.9c0.2-0.2,0.4-0.2,0.7-0.2c0.2,0.1,0.4,0.3,0.5,0.5c0,0.2,0,0.4,0,0.6
		v5c0.1,0.5-0.1,1-0.4,1.4c-0.9,1-1.8,1.9-2.6,2.9c-1.4,1.6-2.9,3.2-4.3,4.9c-1.5,1.7-3.2,3.4-4.7,5.2c-0.4,0.4-0.8,0.9-1.2,1.3h7.2
		l4.1-4.6c1.5-1.7,3-3.3,4.5-5l5.6-6.4c1.6-1.8,3.3-3.7,4.9-5.5c0.1-0.2,0.3-0.3,0.5-0.4c0.2-0.1,0.5-0.1,0.7,0
		c0.2,0.1,0.4,0.3,0.4,0.5c0,0.2,0,0.4,0,0.6v4.8c0,0.6-0.2,1.2-0.6,1.7c-0.5,0.6-1,1.2-1.6,1.7c-1,1.1-2,2.2-3,3.3
		c-1.4,1.6-2.9,3.2-4.3,4.9l-3.9,4.3h6.5c1.1-1.3,2.3-2.6,3.5-3.9c0.6-0.7,1.2-1.4,1.9-2.1c0.3-0.3,0.5-0.6,1-0.4
		c0.4,0.2,0.7,0.6,0.6,1.1v5.4h5.8v-25.3c0.1-0.8-0.2-1.6-0.8-2.1c-0.6-0.6-1.3-0.9-2.1-0.8h-4.7c-0.6,0-1.1,0.2-1.5,0.7l-3.2,3.5
		c-0.9,1-1.7,2-2.6,2.9c-0.1,0.1-0.2,0.1-0.3,0.1c-0.1-0.1-0.1-0.1-0.1-0.2v-5.1c0.1-0.5-0.1-1-0.5-1.4c-0.4-0.4-0.9-0.6-1.4-0.5
		h-4.9c-0.9,0-1.7,0.3-2.3,1c-1.1,1.3-2.4,2.6-3.5,3.9l-3.4,3.8c-1.1,1.2-2.1,2.3-3.2,3.5c-1.6,1.8-3.1,3.5-4.7,5.3
		c-1,1.1-2,2.3-3.1,3.4s-2.3,2.6-3.5,3.9l-3.1,3.4l0,0L-247.2,294.9z"/>
</g>
</svg>
