<svg id="logo-salesforce" xmlns="http://www.w3.org/2000/svg" width="95.114" height="66.574" viewBox="0 0 95.114 66.574">
  <path id="Path_4442" data-name="Path 4442" d="M299.6,217.723a16.688,16.688,0,0,1,26.735,3.521,20.256,20.256,0,0,1,8.294-1.764,20.685,20.685,0,1,1-4.04,40.968,14.987,14.987,0,0,1-19.64,6.167,17.1,17.1,0,0,1-31.791-.773,15.771,15.771,0,0,1-3.263.34,16.074,16.074,0,0,1-7.937-29.935A18.472,18.472,0,0,1,299.6,217.723Z" transform="translate(-260.018 -210.462)" fill="#1797c0"/>
  <g id="Group_8762" data-name="Group 8762" transform="translate(13.754 23.244)">
    <g id="Group_8761" data-name="Group 8761">
      <path id="Path_4443" data-name="Path 4443" d="M274.567,246.49c-.06.156.022.188.041.217a6.043,6.043,0,0,0,.543.328A5.8,5.8,0,0,0,278,247.7c1.951,0,3.163-1.038,3.163-2.708v-.033c0-1.545-1.368-2.107-2.651-2.511l-.167-.054c-.968-.314-1.8-.586-1.8-1.223v-.032c0-.545.488-.947,1.243-.947a5.625,5.625,0,0,1,2.48.634s.189.122.258-.061c.038-.1.363-.973.4-1.068a.18.18,0,0,0-.094-.22,5.528,5.528,0,0,0-2.8-.751h-.2c-1.786,0-3.032,1.079-3.032,2.624v.033c0,1.629,1.376,2.159,2.664,2.527l.206.063c.938.289,1.749.537,1.749,1.2v.033c0,.6-.526,1.053-1.375,1.053a4.6,4.6,0,0,1-2.513-.722c-.137-.08-.216-.138-.322-.2a.156.156,0,0,0-.257.088Z" transform="translate(-274.545 -235.211)" fill="#fff"/>
      <path id="Path_4444" data-name="Path 4444" d="M304.736,246.49c-.06.156.022.188.042.217a5.719,5.719,0,0,0,3.386.992c1.951,0,3.164-1.038,3.164-2.708v-.033c0-1.545-1.368-2.107-2.651-2.511l-.167-.054c-.968-.314-1.8-.586-1.8-1.223v-.032c0-.545.489-.947,1.245-.947a5.617,5.617,0,0,1,2.478.634s.19.122.258-.061c.037-.1.363-.973.4-1.068a.181.181,0,0,0-.095-.22,5.524,5.524,0,0,0-2.795-.751H308c-1.786,0-3.032,1.079-3.032,2.624v.033c0,1.629,1.375,2.159,2.663,2.527l.207.063c.938.289,1.749.537,1.749,1.2v.033c0,.6-.526,1.053-1.375,1.053a4.6,4.6,0,0,1-2.513-.722c-.137-.08-.218-.135-.322-.2a.166.166,0,0,0-.257.088Z" transform="translate(-276.151 -235.211)" fill="#fff"/>
      <path id="Path_4445" data-name="Path 4445" d="M326.619,241.47a3.917,3.917,0,0,0-.741-1.415,3.574,3.574,0,0,0-1.251-.951,4.528,4.528,0,0,0-3.493,0,3.57,3.57,0,0,0-1.25.951,3.906,3.906,0,0,0-.741,1.414,6.509,6.509,0,0,0,0,3.5,3.926,3.926,0,0,0,.741,1.415,3.5,3.5,0,0,0,1.251.943,4.627,4.627,0,0,0,3.491,0,3.5,3.5,0,0,0,1.252-.943,3.917,3.917,0,0,0,.741-1.415,6.51,6.51,0,0,0,0-3.5m-1.629,1.75a4.024,4.024,0,0,1-.522,2.214,1.754,1.754,0,0,1-1.587.774,1.728,1.728,0,0,1-1.577-.774,5,5,0,0,1,0-4.42,1.737,1.737,0,0,1,1.578-.765,1.758,1.758,0,0,1,1.587.766,3.971,3.971,0,0,1,.522,2.2" transform="translate(-276.907 -235.212)" fill="#fff"/>
      <path id="Path_4446" data-name="Path 4446" d="M340.826,245.955a.155.155,0,0,0-.208-.1,3.69,3.69,0,0,1-.757.216,5.8,5.8,0,0,1-.893.064,2.481,2.481,0,0,1-1.862-.7,3.116,3.116,0,0,1-.7-2.227,3.463,3.463,0,0,1,.625-2.144,2.128,2.128,0,0,1,1.807-.8,5.452,5.452,0,0,1,1.722.246s.127.056.188-.113c.142-.4.248-.677.4-1.112a.146.146,0,0,0-.1-.191,6.315,6.315,0,0,0-1.086-.275,8.17,8.17,0,0,0-1.221-.082,4.448,4.448,0,0,0-1.816.349,3.774,3.774,0,0,0-1.311.95,4.019,4.019,0,0,0-.792,1.415,5.6,5.6,0,0,0-.265,1.753,4.691,4.691,0,0,0,1.083,3.242,4.123,4.123,0,0,0,3.215,1.21,6.618,6.618,0,0,0,2.306-.412.148.148,0,0,0,.066-.193Z" transform="translate(-277.74 -235.212)" fill="#fff" fill-rule="evenodd"/>
      <path id="Path_4447" data-name="Path 4447" d="M349.562,241.163a3.436,3.436,0,0,0-.7-1.29,3.2,3.2,0,0,0-1.047-.8,4.015,4.015,0,0,0-1.579-.321,4.32,4.32,0,0,0-1.821.354,3.626,3.626,0,0,0-1.269.969,3.988,3.988,0,0,0-.747,1.432,6.221,6.221,0,0,0-.241,1.759,5.927,5.927,0,0,0,.25,1.76,3.535,3.535,0,0,0,2.186,2.32,5.5,5.5,0,0,0,2,.324,5.759,5.759,0,0,0,2.776-.551c.062-.034.119-.094.047-.264l-.361-1.009a.159.159,0,0,0-.207-.1,5.328,5.328,0,0,1-2.264.408,2.256,2.256,0,0,1-2.527-2.482l5.512,0a.161.161,0,0,0,.16-.143A5.864,5.864,0,0,0,349.562,241.163Zm-5.482,1.152a3.2,3.2,0,0,1,.445-1.3,1.758,1.758,0,0,1,1.576-.8,1.712,1.712,0,0,1,1.545.8,2.723,2.723,0,0,1,.365,1.3Z" transform="translate(-278.145 -235.212)" fill="#fff" fill-rule="evenodd"/>
      <path id="Path_4448" data-name="Path 4448" d="M302.928,241.163a3.436,3.436,0,0,0-.705-1.29,3.2,3.2,0,0,0-1.047-.8,4.013,4.013,0,0,0-1.578-.321,4.32,4.32,0,0,0-1.821.354,3.63,3.63,0,0,0-1.27.969,4.017,4.017,0,0,0-.747,1.432,6.22,6.22,0,0,0-.241,1.759,5.9,5.9,0,0,0,.25,1.76,3.531,3.531,0,0,0,2.185,2.32,5.5,5.5,0,0,0,2,.324,5.765,5.765,0,0,0,2.777-.551c.061-.034.119-.094.046-.264l-.36-1.009a.16.16,0,0,0-.208-.1,5.32,5.32,0,0,1-2.264.408,2.256,2.256,0,0,1-2.527-2.482l5.512,0a.162.162,0,0,0,.161-.143A5.9,5.9,0,0,0,302.928,241.163Zm-5.483,1.152a3.214,3.214,0,0,1,.445-1.3,1.758,1.758,0,0,1,1.576-.8,1.71,1.71,0,0,1,1.545.8,2.723,2.723,0,0,1,.365,1.3Z" transform="translate(-275.662 -235.212)" fill="#fff" fill-rule="evenodd"/>
      <path id="Path_4449" data-name="Path 4449" d="M287.034,242.05c-.224-.016-.514-.025-.862-.025a5.227,5.227,0,0,0-1.358.174,3.577,3.577,0,0,0-1.15.534,2.575,2.575,0,0,0-1.1,2.179,2.878,2.878,0,0,0,.253,1.258,2.293,2.293,0,0,0,.719.863,3.051,3.051,0,0,0,1.124.487,6.625,6.625,0,0,0,1.46.149,10.1,10.1,0,0,0,1.674-.139c.542-.093,1.2-.227,1.389-.27s.386-.1.386-.1a.173.173,0,0,0,.126-.18l0-5.042a3.092,3.092,0,0,0-.876-2.434,3.756,3.756,0,0,0-2.533-.762,9.135,9.135,0,0,0-1.478.136,5.286,5.286,0,0,0-1.7.622.172.172,0,0,0-.05.219l.391,1.048a.139.139,0,0,0,.181.09.668.668,0,0,0,.091-.045,5.6,5.6,0,0,1,2.4-.56,2.229,2.229,0,0,1,1.362.356c.3.231.453.579.453,1.314v.233C287.468,242.09,287.034,242.05,287.034,242.05Zm-2.195,3.874a1.088,1.088,0,0,1-.318-.327,1.326,1.326,0,0,1-.165-.718,1.209,1.209,0,0,1,.492-1.067,2.473,2.473,0,0,1,1.6-.4,11.1,11.1,0,0,1,1.5.127v2.506h0a11.183,11.183,0,0,1-1.489.2A2.479,2.479,0,0,1,284.839,245.924Z" transform="translate(-274.972 -235.212)" fill="#fff"/>
      <path id="Path_4450" data-name="Path 4450" d="M333.964,239.216a.149.149,0,0,0-.082-.2,4.871,4.871,0,0,0-.925-.157,2.734,2.734,0,0,0-1.421.228,2.489,2.489,0,0,0-.932.687V239.1a.16.16,0,0,0-.159-.167h-1.413a.16.16,0,0,0-.158.167v8.224a.167.167,0,0,0,.167.168h1.45a.167.167,0,0,0,.167-.168v-4.108a4.87,4.87,0,0,1,.182-1.447,2.047,2.047,0,0,1,.484-.81,1.673,1.673,0,0,1,.681-.41,2.661,2.661,0,0,1,.739-.1,3.119,3.119,0,0,1,.6.074.187.187,0,0,0,.2-.149C333.644,240.122,333.913,239.366,333.964,239.216Z" transform="translate(-277.438 -235.217)" fill="#fff" fill-rule="evenodd"/>
      <path id="Path_4451" data-name="Path 4451" d="M319.355,235.2a4.707,4.707,0,0,0-.544-.13,4.341,4.341,0,0,0-.75-.058,3.158,3.158,0,0,0-2.335.838,4.554,4.554,0,0,0-1.108,2.5l-.067.374H313.3a.185.185,0,0,0-.186.16l-.205,1.147c-.014.11.033.178.181.177h1.218l-1.236,6.9a8.594,8.594,0,0,1-.329,1.359,2.764,2.764,0,0,1-.385.784,1.016,1.016,0,0,1-.5.39,2.064,2.064,0,0,1-.648.093,2.489,2.489,0,0,1-.443-.048,1.289,1.289,0,0,1-.3-.1.152.152,0,0,0-.2.089c-.046.117-.37,1.01-.409,1.12a.165.165,0,0,0,.085.221,4.175,4.175,0,0,0,.5.147,3.3,3.3,0,0,0,.808.077,4.032,4.032,0,0,0,1.353-.209,2.526,2.526,0,0,0,1.019-.711,3.656,3.656,0,0,0,.716-1.234,10.351,10.351,0,0,0,.485-1.852l1.242-7.028h1.816a.185.185,0,0,0,.185-.16l.205-1.147c.015-.11-.032-.178-.18-.177H316.33a7.341,7.341,0,0,1,.292-1.244,1.582,1.582,0,0,1,.386-.588,1.131,1.131,0,0,1,.461-.287,1.921,1.921,0,0,1,.592-.085,2.336,2.336,0,0,1,.454.045c.17.036.237.056.281.069.18.054.2,0,.24-.085l.421-1.158A.147.147,0,0,0,319.355,235.2Z" transform="translate(-276.424 -235.013)" fill="#fff" fill-rule="evenodd"/>
      <path id="Path_4452" data-name="Path 4452" d="M293.776,247.133a.159.159,0,0,1-.157.168h-1.463a.16.16,0,0,1-.158-.168V235.368a.16.16,0,0,1,.158-.167h1.463a.159.159,0,0,1,.157.167Z" transform="translate(-275.474 -235.023)" fill="#fff" fill-rule="evenodd"/>
    </g>
  </g>
</svg>
