<svg id="woocommerce_logo" xmlns="http://www.w3.org/2000/svg" width="173.334" height="34.95" viewBox="0 0 173.334 34.95">
  <path id="Path_4480" data-name="Path 4480" d="M143.448,331.2h47.792a5.471,5.471,0,0,1,5.473,5.473v18.243a5.471,5.471,0,0,1-5.473,5.473H174.1l2.352,5.761-10.346-5.761H143.472A5.471,5.471,0,0,1,138,354.916V336.673A5.45,5.45,0,0,1,143.448,331.2Z" transform="translate(-137.999 -331.2)" fill="#9b5c8f" fill-rule="evenodd"/>
  <path id="Path_4481" data-name="Path 4481" d="M148.92,346.327a1.932,1.932,0,0,1,1.512-.744,1.753,1.753,0,0,1,2.088,1.728q1.116,7.525,2.424,12.746l5.257-10.01a2.279,2.279,0,0,1,1.8-1.44c1.056-.072,1.7.6,1.968,2.016a44.838,44.838,0,0,0,2.28,8.209q.936-9.146,3.169-13.2A1.844,1.844,0,0,1,171,344.575a2.086,2.086,0,0,1,1.512.48,1.88,1.88,0,0,1,.744,1.368,2.083,2.083,0,0,1-.24,1.152c-.936,1.728-1.7,4.633-2.328,8.665a44.7,44.7,0,0,0-.672,9.146,2.849,2.849,0,0,1-.288,1.584,1.547,1.547,0,0,1-1.272.864,2.413,2.413,0,0,1-1.9-.888q-3.349-3.421-5.3-10.226-2.34,4.609-3.457,6.913c-1.416,2.712-2.616,4.1-3.625,4.177-.648.048-1.2-.5-1.68-1.656q-1.836-4.717-3.961-18.219A2.144,2.144,0,0,1,148.92,346.327Z" transform="translate(-145.992 -341.358)" fill="#fff"/>
  <path id="Path_4482" data-name="Path 4482" d="M325.15,358.329a5.528,5.528,0,0,0-3.841-2.785,6.3,6.3,0,0,0-1.3-.144c-2.3,0-4.177,1.2-5.641,3.6a12.719,12.719,0,0,0-1.872,6.769,9.294,9.294,0,0,0,1.152,4.753,5.528,5.528,0,0,0,3.841,2.784,6.3,6.3,0,0,0,1.3.144c2.328,0,4.2-1.2,5.641-3.6a12.863,12.863,0,0,0,1.872-6.793,9.082,9.082,0,0,0-1.152-4.729Zm-3.025,6.649a6.35,6.35,0,0,1-1.824,3.553,2.308,2.308,0,0,1-1.944.768c-.576-.12-1.056-.624-1.416-1.56a6.093,6.093,0,0,1-.432-2.184,8.347,8.347,0,0,1,.168-1.752,7.762,7.762,0,0,1,1.272-2.857c.792-1.176,1.632-1.656,2.5-1.488.576.12,1.056.624,1.416,1.56a6.092,6.092,0,0,1,.432,2.184,10.379,10.379,0,0,1-.168,1.776Z" transform="translate(-270.613 -349.591)" fill="#fff"/>
  <path id="Path_4483" data-name="Path 4483" d="M262.45,358.329a5.578,5.578,0,0,0-3.841-2.785,6.3,6.3,0,0,0-1.3-.144c-2.3,0-4.177,1.2-5.641,3.6a12.719,12.719,0,0,0-1.872,6.769,9.294,9.294,0,0,0,1.152,4.753,5.528,5.528,0,0,0,3.841,2.784,6.3,6.3,0,0,0,1.3.144c2.328,0,4.2-1.2,5.641-3.6a12.863,12.863,0,0,0,1.872-6.793,9.082,9.082,0,0,0-1.152-4.729Zm-3.025,6.649a6.35,6.35,0,0,1-1.824,3.553,2.308,2.308,0,0,1-1.944.768c-.576-.12-1.056-.624-1.416-1.56a6.093,6.093,0,0,1-.432-2.184,8.349,8.349,0,0,1,.168-1.752,7.762,7.762,0,0,1,1.272-2.857c.792-1.176,1.632-1.656,2.5-1.488.576.12,1.056.624,1.416,1.56a6.092,6.092,0,0,1,.432,2.184,8.426,8.426,0,0,1-.168,1.776Z" transform="translate(-222.963 -349.591)" fill="#fff"/>
  <g id="Group_8773" data-name="Group 8773" transform="translate(62.387 6.145)">
    <g id="Group_8772" data-name="Group 8772" transform="translate(0 0)">
      <path id="Path_4484" data-name="Path 4484" d="M400.3,359.176a8.12,8.12,0,0,0-2.4,6.049,8.7,8.7,0,0,0,2.376,6.361,8.335,8.335,0,0,0,6.217,2.424,9.044,9.044,0,0,0,2.5-.384v-3.889a8.079,8.079,0,0,1-2.184.36,3.93,3.93,0,0,1-3.049-1.272,5.7,5.7,0,0,1-.024-6.841,3.593,3.593,0,0,1,2.856-1.32,8.965,8.965,0,0,1,2.4.36v-3.889a10.027,10.027,0,0,0-2.616-.312A8.175,8.175,0,0,0,400.3,359.176Zm16.659-2.376a6.457,6.457,0,0,0-5.185,2.208,9.236,9.236,0,0,0-1.848,6.169c0,2.856.624,5.041,1.848,6.553a6.53,6.53,0,0,0,5.377,2.28,6.381,6.381,0,0,0,5.257-2.28,9.916,9.916,0,0,0,1.848-6.385,9.6,9.6,0,0,0-1.872-6.337A6.8,6.8,0,0,0,416.959,356.8Zm1.9,12.482a2.132,2.132,0,0,1-1.9,1.008,1.93,1.93,0,0,1-1.752-1.008,8.888,8.888,0,0,1-.6-4.057c0-3.145.792-4.7,2.4-4.7,1.68,0,2.544,1.584,2.544,4.777A8.417,8.417,0,0,1,418.856,369.282Zm17.259-12.026-.864,3.673c-.216.936-.432,1.9-.624,2.88l-.48,2.544c-.456-2.544-1.08-5.569-1.872-9.1h-5.569L424.617,373.6h4.177l1.128-11.258,2.857,11.258h2.977l2.736-11.234,1.176,11.234h4.369l-2.208-16.347Zm20,0-.864,3.673c-.216.936-.432,1.9-.624,2.88l-.48,2.544c-.456-2.544-1.08-5.569-1.872-9.1H446.7L444.612,373.6h4.177l1.128-11.258,2.857,11.258h2.977l2.712-11.234,1.176,11.234h4.369L461.8,357.256Zm13.586,9.89h3.913v-3.385H469.7v-3h4.513V357.28h-8.93v16.347h8.953v-3.481H469.7Zm16.971-2.592a4.37,4.37,0,0,0,.7-2.3,4.3,4.3,0,0,0-1.8-3.649,8.142,8.142,0,0,0-4.921-1.344h-5.137V373.6h4.417v-7.441h.072l3.577,7.441h4.657l-3.529-7.369A4.364,4.364,0,0,0,486.667,364.553Zm-6.769-.264V360.4a4.037,4.037,0,0,1,2.256.528,1.867,1.867,0,0,1,.672,1.632C482.827,363.689,481.843,364.265,479.9,364.289Zm10.058-5.113a8.12,8.12,0,0,0-2.4,6.049,8.7,8.7,0,0,0,2.376,6.361,8.335,8.335,0,0,0,6.217,2.424,9.044,9.044,0,0,0,2.5-.384v-3.889a8.079,8.079,0,0,1-2.184.36,3.93,3.93,0,0,1-3.049-1.272,5.7,5.7,0,0,1-.024-6.841,3.594,3.594,0,0,1,2.857-1.32,8.965,8.965,0,0,1,2.4.36v-3.889a10.027,10.027,0,0,0-2.616-.312A8.212,8.212,0,0,0,489.956,359.176Zm14.33,10.922v-2.977H508.2v-3.385h-3.913v-3h4.537v-3.481h-8.93V373.6h8.953v-3.481h-4.561Z" transform="translate(-397.9 -356.8)"/>
    </g>
  </g>
</svg>
