<svg id="shopify_logo_whitebg" xmlns="http://www.w3.org/2000/svg" width="159.37" height="45.391" viewBox="0 0 159.37 45.391">
  <g id="Group_8770" data-name="Group 8770" transform="translate(0 0)">
    <path id="Path_4477" data-name="Path 4477" d="M34.233,8.906a.4.4,0,0,0-.382-.351c-.159,0-3.315-.064-3.315-.064s-2.646-2.55-2.9-2.837a1.06,1.06,0,0,0-.956-.127s-.51.159-1.339.414A9.5,9.5,0,0,0,24.7,4.38a4.473,4.473,0,0,0-3.984-2.741h0a1.307,1.307,0,0,0-.351.032c-.064-.064-.1-.127-.159-.159A3.541,3.541,0,0,0,17.435.4C15.3.46,13.164,2.022,11.411,4.763A17.966,17.966,0,0,0,8.988,11.01c-2.454.765-4.176,1.307-4.239,1.307-1.243.382-1.275.414-1.434,1.594C3.251,14.8,0,39.952,0,39.952l27.284,4.717L39.11,41.737C39.078,41.737,34.265,9.13,34.233,8.906ZM23.969,6.388q-.956.287-2.1.669a11.793,11.793,0,0,0-.637-3.889C22.854,3.424,23.651,5.273,23.969,6.388ZM20.431,7.472c-1.434.446-3,.924-4.558,1.4a10.994,10.994,0,0,1,2.295-4.462A4.636,4.636,0,0,1,19.7,3.3,9.354,9.354,0,0,1,20.431,7.472ZM17.5,1.83a2.072,2.072,0,0,1,1.275.351,5.648,5.648,0,0,0-1.657,1.307A12.424,12.424,0,0,0,14.28,9.416c-1.307.414-2.582.8-3.729,1.147C11.315,7.09,14.216,1.926,17.5,1.83Z" transform="translate(0 -0.394)" fill="#95bf47"/>
    <g id="Group_8769" data-name="Group 8769" transform="translate(7.267 5.102)">
      <path id="Path_4478" data-name="Path 4478" d="M92.166,19.46c-.159,0-3.315-.064-3.315-.064s-2.646-2.55-2.9-2.837A.512.512,0,0,0,85.6,16.4V55.573l11.825-2.932s-4.813-32.607-4.845-32.83A.463.463,0,0,0,92.166,19.46Z" transform="translate(-65.583 -16.4)" fill="#5e8e3e"/>
      <path id="Path_4479" data-name="Path 4479" d="M36.251,44.089,34.88,49.221a7.637,7.637,0,0,0-3.347-.574c-2.677.159-2.677,1.849-2.677,2.263.159,2.295,6.184,2.8,6.534,8.192.255,4.239-2.231,7.14-5.865,7.363A8.938,8.938,0,0,1,22.8,64.138l.924-3.921s2.422,1.817,4.335,1.689a1.691,1.691,0,0,0,1.657-1.817c-.191-3-5.1-2.8-5.419-7.745-.255-4.144,2.454-8.319,8.447-8.7A7.179,7.179,0,0,1,36.251,44.089Z" transform="translate(-22.8 -34.941)" fill="#fff"/>
    </g>
  </g>
  <g id="Group_8771" data-name="Group 8771" transform="translate(45.325 8.735)">
    <path id="s_4_" d="M151.985,62.3c-1.371-.733-2.072-1.371-2.072-2.231,0-1.084.988-1.785,2.518-1.785a9.114,9.114,0,0,1,3.379.733l1.243-3.825s-1.147-.892-4.526-.892c-4.717,0-8,2.709-8,6.5,0,2.167,1.53,3.793,3.57,4.972,1.657.924,2.231,1.594,2.231,2.582,0,1.02-.829,1.849-2.359,1.849a10.637,10.637,0,0,1-4.43-1.179L142.2,72.851a10.109,10.109,0,0,0,5.323,1.339c4.845,0,8.351-2.391,8.351-6.694C155.842,65.169,154.089,63.512,151.985,62.3Z" transform="translate(-142.2 -45.853)"/>
    <path id="h_4_" d="M202.843,37a7.278,7.278,0,0,0-5.705,2.869l-.064-.032L199.146,29h-5.387L188.5,56.6h5.387l1.785-9.435c.7-3.57,2.55-5.769,4.271-5.769,1.211,0,1.689.829,1.689,2.008a12.139,12.139,0,0,1-.223,2.391L199.369,56.6h5.387l2.1-11.156a21.317,21.317,0,0,0,.382-3.538C207.274,38.849,205.68,37,202.843,37Z" transform="translate(-173.742 -28.618)"/>
    <path id="o_4_" d="M262.605,54.1c-6.5,0-10.805,5.865-10.805,12.4,0,4.176,2.582,7.554,7.427,7.554,6.375,0,10.678-5.705,10.678-12.4C269.936,57.8,267.673,54.1,262.605,54.1ZM259.96,69.941c-1.849,0-2.614-1.562-2.614-3.538,0-3.092,1.594-8.128,4.526-8.128,1.912,0,2.55,1.657,2.55,3.251C264.422,64.842,262.8,69.941,259.96,69.941Z" transform="translate(-216.866 -45.717)"/>
    <path id="p_4_" d="M319.776,54.1a7.39,7.39,0,0,0-5.705,3.219h-.064l.319-2.9h-4.781c-.223,1.944-.669,4.94-1.084,7.172L304.7,81.352h5.387l1.5-8h.127a6.318,6.318,0,0,0,3.156.7c6.343,0,10.487-6.5,10.487-13.068C325.354,57.351,323.729,54.1,319.776,54.1Zm-5.164,15.905a3.4,3.4,0,0,1-2.231-.8l.892-5.036c.637-3.379,2.391-5.61,4.271-5.61,1.657,0,2.167,1.53,2.167,2.964C319.713,65.033,317.641,70.005,314.613,70.005Z" transform="translate(-252.905 -45.717)"/>
    <path id="dot_4_" d="M387.092,29.8A3.082,3.082,0,0,0,384,32.924a2.5,2.5,0,0,0,2.55,2.709h.064a3.036,3.036,0,0,0,3.156-3.124A2.568,2.568,0,0,0,387.092,29.8Z" transform="translate(-306.928 -29.163)"/>
    <path id="i_4_" d="M370,74.624h5.387L379.052,55.5h-5.419Z" transform="translate(-297.391 -46.671)"/>
    <path id="f_4_" d="M414.25,36.6h-3.761l.191-.892c.319-1.849,1.4-3.474,3.219-3.474a5.436,5.436,0,0,1,1.721.287l1.052-4.239a6.928,6.928,0,0,0-2.932-.478,8.119,8.119,0,0,0-5.291,1.785,10.072,10.072,0,0,0-3.124,6.12l-.159.892h-2.518l-.8,4.08h2.518L401.5,55.785h5.387l2.869-15.108h3.729Z" transform="translate(-318.851 -27.8)"/>
    <path id="y_4_" d="M450.621,55.5s-3.379,8.51-4.877,13.164h-.064c-.1-1.5-1.339-13.164-1.339-13.164h-5.674l3.251,17.563a1.172,1.172,0,0,1-.128.892,9.457,9.457,0,0,1-2.932,3.251,12.447,12.447,0,0,1-3.06,1.53l1.5,4.59a12.416,12.416,0,0,0,5.291-2.932c2.454-2.295,4.749-5.865,7.076-10.71l6.6-14.184Z" transform="translate(-342.218 -46.671)"/>
  </g>
</svg>
