<svg xmlns="http://www.w3.org/2000/svg" xmlns:xlink="http://www.w3.org/1999/xlink" width="168" height="37.879" viewBox="0 0 168 37.879">
  <defs>
    <filter id="Path_172" x="36.136" y="0.393" width="44.591" height="37.169" filterUnits="userSpaceOnUse">
      <feOffset dy="3" input="SourceAlpha"/>
      <feGaussianBlur stdDeviation="3" result="blur"/>
      <feFlood flood-opacity="0.149"/>
      <feComposite operator="in" in2="blur"/>
      <feComposite in="SourceGraphic"/>
    </filter>
    <filter id="Path_173" x="64.773" y="0.394" width="44.591" height="37.169" filterUnits="userSpaceOnUse">
      <feOffset dy="3" input="SourceAlpha"/>
      <feGaussianBlur stdDeviation="3" result="blur-2"/>
      <feFlood flood-opacity="0.149"/>
      <feComposite operator="in" in2="blur-2"/>
      <feComposite in="SourceGraphic"/>
    </filter>
    <filter id="Path_174" x="94.091" y="0.394" width="44.591" height="37.169" filterUnits="userSpaceOnUse">
      <feOffset dy="3" input="SourceAlpha"/>
      <feGaussianBlur stdDeviation="3" result="blur-3"/>
      <feFlood flood-opacity="0.149"/>
      <feComposite operator="in" in2="blur-3"/>
      <feComposite in="SourceGraphic"/>
    </filter>
    <filter id="Path_175" x="123.409" y="0" width="44.591" height="37.879" filterUnits="userSpaceOnUse">
      <feOffset dy="3" input="SourceAlpha"/>
      <feGaussianBlur stdDeviation="3" result="blur-4"/>
      <feFlood flood-opacity="0.149"/>
      <feComposite operator="in" in2="blur-4"/>
      <feComposite in="SourceGraphic"/>
    </filter>
    <filter id="Path_176" x="0" y="0" width="50.727" height="37.879" filterUnits="userSpaceOnUse">
      <feOffset dy="3" input="SourceAlpha"/>
      <feGaussianBlur stdDeviation="3" result="blur-5"/>
      <feFlood flood-opacity="0.149"/>
      <feComposite operator="in" in2="blur-5"/>
      <feComposite in="SourceGraphic"/>
    </filter>
  </defs>
  <g id="logo" transform="translate(9 6)">
    <g transform="matrix(1, 0, 0, 1, -9, -6)" filter="url(#Path_172)">
      <path id="Path_172-2" data-name="Path 172" d="M99.2,34.729c0,6.827-5.342,9.58-14.748,9.58H73.568a.878.878,0,0,1-.96-.956V26.1a.878.878,0,0,1,.96-.956h10.88C93.854,25.149,99.2,27.97,99.2,34.729Zm-5.047,0c0-2.738-1.511-4.786-9.7-4.786H77.52v9.58h6.928C92.676,39.523,94.149,37.467,94.149,34.729Z" transform="translate(-27.47 -18.75)" fill="#fff"/>
    </g>
    <g transform="matrix(1, 0, 0, 1, -9, -6)" filter="url(#Path_173)">
      <path id="Path_173-2" data-name="Path 173" d="M138.136,31.665c0,3.148-2.347,6.516-8.088,6.516H116.43v5.173a.888.888,0,0,1-.253.7.86.86,0,0,1-.7.251h-2.99a.86.86,0,0,1-.691-.254.887.887,0,0,1-.25-.7V26.1a.888.888,0,0,1,.25-.7.86.86,0,0,1,.691-.254h17.558C135.8,25.149,138.136,28.517,138.136,31.665Zm-4.851,0c0-1.449-.62-1.783-3.237-1.783H116.43v3.793h13.619C132.665,33.66,133.285,33.167,133.285,31.665Z" transform="translate(-37.77 -18.75)" fill="#fff"/>
    </g>
    <g transform="matrix(1, 0, 0, 1, -9, -6)" filter="url(#Path_174)">
      <path id="Path_174-2" data-name="Path 174" d="M177.466,31.665c0,3.148-2.347,6.516-8.1,6.516H155.752v5.174a.888.888,0,0,1-.25.7.86.86,0,0,1-.691.254h-2.99a.86.86,0,0,1-.691-.254.888.888,0,0,1-.25-.7V26.1a.888.888,0,0,1,.25-.7.86.86,0,0,1,.691-.254h17.528C175.119,25.149,177.466,28.517,177.466,31.665Zm-4.859,0c0-1.449-.62-1.783-3.237-1.783H155.752v3.793h13.619c2.616-.015,3.274-.508,3.274-2.01Z" transform="translate(-47.78 -18.75)" fill="#fff"/>
    </g>
    <g transform="matrix(1, 0, 0, 1, -9, -6)" filter="url(#Path_175)">
      <path id="Path_175-2" data-name="Path 175" d="M203.317,32.544c5.937.578,12.98,1.1,12.98,5.875,0,4.483-5.234,6.18-12.464,6.18h-.321c-8.068,0-12.008-1.4-13.331-2.222a.806.806,0,0,1-.164-1.37L191.937,39a.983.983,0,0,1,1.293-.221c1.159.495,4.023,1.324,10.281,1.324h.321c5.824,0,7.477-.852,7.477-1.6,0-1.263-2.729-1.18-8.18-1.674-8.793-.852-13.271-1.454-13.271-6.127,0-4.2,4.613-5.982,12.651-5.982h.673c6.617,0,10.6,1.4,11.9,2.222a.829.829,0,0,1,.157,1.378l-1.884,1.941a1.049,1.049,0,0,1-1.323.221,26.184,26.184,0,0,0-8.853-1.286h-.673c-6.61,0-7.664,1.043-7.664,1.674C194.845,32,197.358,31.912,203.317,32.544Z" transform="translate(-57.3 -18.72)" fill="#fff"/>
    </g>
    <g transform="matrix(1, 0, 0, 1, -9, -6)" filter="url(#Path_176)">
      <path id="Path_176-2" data-name="Path 176" d="M29.986,44.549l.356-.448c.067-.084.149-.159.215-.243.743-.835,1.485-1.67,2.184-2.521.988-1.162,1.953-2.331,2.971-3.485s1.99-2.293,2.986-3.508c1.263-1.481,2.51-2.976,3.773-4.464a5.4,5.4,0,0,1,.572-.6.432.432,0,0,1,.441-.113.445.445,0,0,1,.3.348,1.854,1.854,0,0,1,0,.456v3.508a1.4,1.4,0,0,1-.282,1.01c-.6.668-1.181,1.351-1.76,2.042-.965,1.146-1.924,2.278-2.9,3.439s-2.117,2.422-3.164,3.637c-.267.311-.527.623-.787.941h4.783l2.741-3.2c1.01-1.169,2.02-2.331,3.023-3.508l3.765-4.464q1.634-1.936,3.29-3.857a1.218,1.218,0,0,1,.334-.289.488.488,0,0,1,.461-.024.507.507,0,0,1,.282.373,2.211,2.211,0,0,1,0,.387v3.371a1.755,1.755,0,0,1-.416,1.192c-.342.41-.7.812-1.047,1.222-.668.759-1.344,1.519-2.013,2.331-.965,1.146-1.924,2.278-2.889,3.439l-2.585,3.037h4.345c.743-.9,1.545-1.822,2.317-2.741.408-.486.824-.979,1.248-1.458.171-.2.364-.4.654-.3a.7.7,0,0,1,.386.759v3.758h3.9v-17.8A1.969,1.969,0,0,0,56.94,25.3,1.88,1.88,0,0,0,55.5,24.71H52.393a1.288,1.288,0,0,0-1.01.471l-2.124,2.49c-.579.691-1.151,1.382-1.738,2.065a.314.314,0,0,1-.223.061.385.385,0,0,1-.074-.159V26.084a1.255,1.255,0,0,0-.332-.981,1.2,1.2,0,0,0-.946-.378h-3.3a1.9,1.9,0,0,0-1.523.683c-.743.911-1.575,1.807-2.354,2.711l-2.288,2.7c-.743.828-1.433,1.648-2.139,2.475-1.055,1.238-2.1,2.483-3.164,3.72-.676.759-1.367,1.587-2.05,2.384s-1.545,1.83-2.325,2.741L24.75,44.519h0Z" transform="translate(-15.75 -18.71)" fill="#fff"/>
    </g>
  </g>
</svg>
