<svg xmlns="http://www.w3.org/2000/svg" xmlns:xlink="http://www.w3.org/1999/xlink" width="50.727" height="37.879" viewBox="0 0 50.727 37.879">
  <defs>
    <filter id="Path_176" x="0" y="0" width="50.727" height="37.879" filterUnits="userSpaceOnUse">
      <feOffset dy="3" input="SourceAlpha"/>
      <feGaussianBlur stdDeviation="3" result="blur"/>
      <feFlood flood-opacity="0.149"/>
      <feComposite operator="in" in2="blur"/>
      <feComposite in="SourceGraphic"/>
    </filter>
  </defs>
  <g transform="matrix(1, 0, 0, 1, 0, 0)" filter="url(#Path_176)">
    <path id="Path_176-2" data-name="Path 176" d="M29.986,44.549l.356-.448c.067-.084.149-.159.215-.243.743-.835,1.485-1.67,2.184-2.521.988-1.162,1.953-2.331,2.971-3.485s1.99-2.293,2.986-3.508c1.263-1.481,2.51-2.976,3.773-4.464a5.4,5.4,0,0,1,.572-.6.432.432,0,0,1,.441-.113.445.445,0,0,1,.3.348,1.854,1.854,0,0,1,0,.456v3.508a1.4,1.4,0,0,1-.282,1.01c-.6.668-1.181,1.351-1.76,2.042-.965,1.146-1.924,2.278-2.9,3.439s-2.117,2.422-3.164,3.637c-.267.311-.527.623-.787.941h4.783l2.741-3.2c1.01-1.169,2.02-2.331,3.023-3.508l3.765-4.464q1.634-1.936,3.29-3.857a1.218,1.218,0,0,1,.334-.289.488.488,0,0,1,.461-.024.507.507,0,0,1,.282.373,2.211,2.211,0,0,1,0,.387v3.371a1.755,1.755,0,0,1-.416,1.192c-.342.41-.7.812-1.047,1.222-.668.759-1.344,1.519-2.013,2.331-.965,1.146-1.924,2.278-2.889,3.439l-2.585,3.037h4.345c.743-.9,1.545-1.822,2.317-2.741.408-.486.824-.979,1.248-1.458.171-.2.364-.4.654-.3a.7.7,0,0,1,.386.759v3.758h3.9v-17.8A1.969,1.969,0,0,0,56.94,25.3,1.88,1.88,0,0,0,55.5,24.71H52.393a1.288,1.288,0,0,0-1.01.471l-2.124,2.49c-.579.691-1.151,1.382-1.738,2.065a.314.314,0,0,1-.223.061.385.385,0,0,1-.074-.159V26.084a1.255,1.255,0,0,0-.332-.981,1.2,1.2,0,0,0-.946-.378h-3.3a1.9,1.9,0,0,0-1.523.683c-.743.911-1.575,1.807-2.354,2.711l-2.288,2.7c-.743.828-1.433,1.648-2.139,2.475-1.055,1.238-2.1,2.483-3.164,3.72-.676.759-1.367,1.587-2.05,2.384s-1.545,1.83-2.325,2.741L24.75,44.519h0Z" transform="translate(-15.75 -18.71)" fill="#fff"/>
  </g>
</svg>
