<?xml version="1.0" encoding="utf-8"?>
<svg version="1.1" xmlns:xlink="http://www.w3.org/1999/xlink" width="32px" height="19px" xmlns="http://www.w3.org/2000/svg">
  <g transform="matrix(1 0 0 1 -19 -21 )">
    <path d="M 0 18.9346833238181  L 5.11962144425782 18.9637023666306  C 5.11962144425782 18.9637023666306  5.46819523805801 18.5355542422658  5.46819523805801 18.5355542422658  C 5.53354216258876 18.4557185127362  5.61342326211957 18.3831537482103  5.67878155924423 18.3033294570104  C 6.40497475165691 17.5050522300228  7.13116036234032 16.7067826285884  7.81377377494064 15.8940130376893  C 8.77960647508111 14.7837019853529  9.72364549445077 13.6661314063427  10.7185237994036 12.5630836934568  C 11.713405895221 11.4600092911346  12.664708211226 10.3714730060432  13.637792835408 9.21036433087275  C 14.8723182298179 7.79526372875506  16.0923094492276 6.36564788606621  17.3268272619082 4.94328013172139  C 17.4982274153909 4.73813368598172  17.6851663230011 4.54646540557408  17.8859911677593 4.36997960164511  C 17.998416840158 4.25643130129062  18.1647486076273 4.21486059786344  18.3174256806912 4.26216190454212  C 18.4701065446198 4.30945177289095  18.5837339211069 4.43775933151993  18.6121767784427 4.59494486022662  C 18.6304828637518 4.73950628556292  18.6304828637518 4.88579871148218  18.6121767784427 5.0303639495951  C 18.6121767784427 6.14793452860535  18.6121767784427 7.26550892039223  18.6121767784427 8.38307568662588  C 18.6508852972026 8.72854756288322  18.5517314418814 9.075350098179  18.3362283692672 9.34824195880396  C 17.7480150677392 9.98686679061535  17.1815878652528 10.6399877991148  16.6151682444956 11.3003683342882  C 15.6711254342613 12.39616795883  14.7343421297978 13.4774523428007  13.7830360229281 14.5877710206903  C 12.831733706923 15.6980706346969  11.713405895221 16.9027402826873  10.6894819854559 18.0638527706344  C 10.4280450060926 18.3613751681886  10.1738864868233 18.6589166296259  9.91971659496009 18.9637023666306  C 9.91971659496009 18.9637023666306  14.5963660297777 18.9637023666306  14.5963660297777 18.9637023666306  C 14.5963660297777 18.9637023666306  17.2759917671897 15.9085320910371  17.2759917671897 15.9085320910371  C 18.2635991937779 14.7909576992502  19.2512217838245 13.6806466469138  20.2315697046419 12.5558279795595  C 20.2315697046419 12.5558279795595  23.913348416236 8.2887323420783  23.913348416236 8.2887323420783  C 24.9784145798549 7.05505508960527  26.0507478309739 5.82621243787934  27.1303481695929 4.60220057412389  C 27.2216132356143 4.49122208520753  27.3323519732517 4.39777474316435  27.4571358643515 4.32644150548488  C 27.5944637265194 4.24551913462011  27.7627629527329 4.23696707667394  27.9075967268727 4.3035457819152  C 28.0524267101479 4.37012448715647  28.1554434565293 4.50339246816081  28.1833176841703 4.66026534918512  C 28.1943907997611 4.78337990606522  28.1943907997611 4.90724176716176  28.1833290567642 5.0303639495951  C 28.1833290567642 6.10439261966851  28.1833290567642 7.20744795810762  28.1833290567642 8.25244995981534  C 28.1965212656844 8.66991468410644  28.0512553329765 9.07692096214415  27.7766488898808 9.39178768051741  C 27.44261685281 9.78367248650227  27.0940468498744 10.1682863274834  26.752732561845 10.5601596951384  C 26.0991685449216 11.2858492809404  25.4383336496336 12.0115464922957  24.7847696327102 12.7880337009318  C 23.8407230316113 13.8838447638035  22.9039397271478 14.9651291477742  21.9598969169135 16.0754363873339  C 21.9598969169135 16.0754363873339  19.4327700819277 18.9782176072017  19.4327700819277 18.9782176072017  C 19.4327700819277 18.9782176072017  23.6809646234143 18.9782176072017  23.6809646234143 18.9782176072017  C 24.4071502340977 18.1146503934685  25.191434636135 17.2365488752811  25.9466696424954 16.3584702337533  C 26.3460637675556 15.8940130376893  26.752732561845 15.4223191916111  27.1666646527698 14.9651291477742  C 27.3336863576022 14.7764386459024  27.5224903706115 14.5805153067931  27.805705867287 14.6821143652379  C 28.0889175730979 14.7837019853529  28.1978442774411 15.0739801073397  28.1833290567642 15.4078039510399  C 28.1833290567642 15.5384258650739  28.1833290567642 15.6617882524339  28.1833290567642 15.785169703677  C 28.1833290567642 16.8374236065054  28.1833290567642 17.8969370360077  28.1833290567642 18.9492023771659  C 28.1833290567642 18.9492023771659  28.1833290567642 19  28.1833290567642 19  L 31.9958016174198 19  C 31.9958016174198 19  31.9958016174198 6.01731261457143  31.9958016174198 6.01731261457143  C 31.9958016174198 4.67477296420304  31.9958016174198 3.33223712661128  31.9958016174198 1.98244938789885  C 32.0311552209802 1.45716315372815  31.8418280686516 0.941565184934713  31.4748951174374 0.563802903529732  C 31.1079507936294 0.186044434901354  30.5978596304428 -0.0183966471646452  30.0713995137742 0.00130396960213321  C 29.0547389006445 0.00130396960213321  28.0380820783794 0.00130396960213321  27.0286809710205 0.00130396960213321  C 26.6487226089299 -0.00382040216766739  26.2863993491085 0.161238510247837  26.041077335297 0.451234486765154  C 26.041077335297 0.451234486765154  23.964168747496 2.83151279939076  23.964168747496 2.83151279939076  C 23.3977491267388 3.49189714734074  22.838592802617 4.15227768251411  22.2648947217659 4.80539869101359  C 22.2020535587571 4.85119013815295  22.1243635789837 4.87189732794594  22.0470413130797 4.86345584052159  C 22.0470413130797 4.86345584052159  21.9744273010489 4.76911249597401  21.9744273010489 4.71106297201923  C 21.9744273010489 4.65300582251124  21.9744273010489 4.38449484221627  21.9744273010489 4.21759435869599  C 21.9744273010489 3.24515330873758  21.9744273010489 2.27272369710901  21.9744273010489 1.3148093260516  C 22.0091175032986 0.969817859647676  21.8905847479774 0.626992050360759  21.6501832764585 0.376973036645804  C 21.409778014075 0.126957835707456  21.0717200787647 -0.00506336734396609  20.7253828950975 0.0158153973966763  C 19.6506159088847 0.0158153973966763  18.546818481318 0.0158153973966763  17.501112263376 0.0158153973966763  C 16.9314931528692 -0.00311885127060426  16.3840013192209 0.237074637108956  16.0124321405615 0.668940218672776  C 15.2862389481488 1.5397745846331  14.4729089412992 2.39609371002228  13.7104106383034 3.25967236208534  C 13.7104106383034 3.25967236208534  11.4737550148993 5.83588926492677  11.4737550148993 5.83588926492677  C 10.7475656133512 6.62689552691068  10.0722154973863 7.41063844944408  9.38233499728599 8.20165233698122  C 8.35114779088548 9.38453196662014  7.32722767198501 10.5746787484862  6.28878475067839 11.7575583781251  C 5.62794985539036 12.4832479639271  4.95259594856081 13.274254225911  4.28450533836665 14.0362414450825  C 3.61641093730786 14.7982134131474  2.77403532564593 15.785169703677  2.01153702265018 16.6560002568607  C 2.01153702265018 16.6560002568607  0 18.9346833238181  0 18.9346833238181  Z " fill-rule="nonzero" fill="#ffffff" stroke="none" transform="matrix(1 0 0 1 19 21 )" />
  </g>
</svg>