<svg xmlns="http://www.w3.org/2000/svg" width="220" height="28" viewBox="0 0 220 28">
  <g id="logo" transform="translate(0 0)">
    <path id="Path_172" data-name="Path 172" d="M111.605,38.644c0,9.616-7.834,13.494-21.63,13.494H74.018a1.314,1.314,0,0,1-1.033-.353,1.214,1.214,0,0,1-.375-.993V26.5a1.214,1.214,0,0,1,.375-.993,1.314,1.314,0,0,1,1.033-.353H89.975C103.771,25.15,111.605,29.125,111.605,38.644Zm-7.4,0c0-3.857-2.216-6.742-14.228-6.742H79.813V45.4H89.975C102.042,45.4,104.2,42.5,104.2,38.644Z" transform="translate(-19.605 -24.591)" fill="#14171a"/>
    <path id="Path_173" data-name="Path 173" d="M150.545,34.328c0,4.434-3.442,9.178-11.862,9.178H118.709v7.287a1.221,1.221,0,0,1-.371.993,1.291,1.291,0,0,1-1.022.353h-4.385a1.291,1.291,0,0,1-1.014-.358,1.221,1.221,0,0,1-.367-.988V26.5a1.221,1.221,0,0,1,.367-.988,1.291,1.291,0,0,1,1.014-.358h25.752C147.125,25.15,150.545,29.894,150.545,34.328Zm-7.115,0c0-2.041-.91-2.511-4.747-2.511H118.709V37.16h19.974c3.837-.021,4.747-.716,4.747-2.831Z" transform="translate(-16.545 -24.591)" fill="#14171a"/>
    <path id="Path_174" data-name="Path 174" d="M189.875,34.329c0,4.434-3.442,9.178-11.873,9.178H158.028v7.287a1.221,1.221,0,0,1-.367.988,1.291,1.291,0,0,1-1.014.358h-4.385a1.291,1.291,0,0,1-1.014-.358,1.221,1.221,0,0,1-.367-.988V26.5a1.221,1.221,0,0,1,.367-.988,1.291,1.291,0,0,1,1.014-.358H177.97C186.433,25.15,189.875,29.894,189.875,34.329Zm-7.126,0c0-2.041-.91-2.511-4.747-2.511H158.028V37.16H178c3.837-.021,4.8-.716,4.8-2.831Z" transform="translate(-12.875 -24.591)" fill="#14171a"/>
    <path id="Path_175" data-name="Path 175" d="M209.669,35.74c8.707.815,19.037,1.554,19.037,8.276,0,6.314-7.676,8.7-18.28,8.7h-.471c-11.832,0-17.611-1.972-19.552-3.13a1.129,1.129,0,0,1-.687-.9,1.114,1.114,0,0,1,.446-1.032l2.818-2.83a1.481,1.481,0,0,1,1.9-.311c1.7.7,5.9,1.865,15.078,1.865h.471c8.543,0,10.966-1.2,10.966-2.251,0-1.779-4-1.662-12-2.358-12.9-1.2-19.465-2.047-19.465-8.629,0-5.917,6.766-8.426,18.555-8.426h.987c9.7,0,15.55,1.972,17.458,3.13a1.159,1.159,0,0,1,.66.908,1.145,1.145,0,0,1-.43,1.032L224.4,32.524a1.583,1.583,0,0,1-1.941.311,39.871,39.871,0,0,0-12.984-1.812h-.987c-9.694,0-11.24,1.469-11.24,2.358C197.244,34.968,200.929,34.85,209.669,35.74Z" transform="translate(-8.706 -24.72)" fill="#14171a"/>
    <path id="Path_176" data-name="Path 176" d="M32.429,52.655l.523-.631c.1-.118.218-.225.316-.342,1.089-1.176,2.179-2.353,3.2-3.551,1.449-1.636,2.865-3.283,4.357-4.909s2.919-3.23,4.379-4.941c1.852-2.085,3.682-4.192,5.534-6.288a7.746,7.746,0,0,1,.839-.845.651.651,0,0,1,.647-.159.635.635,0,0,1,.442.49,2.509,2.509,0,0,1,0,.642v4.941a1.921,1.921,0,0,1-.414,1.422c-.882.941-1.732,1.9-2.582,2.877-1.416,1.615-2.821,3.208-4.248,4.845s-3.1,3.412-4.64,5.123c-.392.438-.773.877-1.155,1.326h7.015l4.019-4.5c1.481-1.647,2.963-3.283,4.433-4.941l5.523-6.288q2.4-2.727,4.825-5.433a1.768,1.768,0,0,1,.49-.406.742.742,0,0,1,.676-.034.719.719,0,0,1,.414.526,2.992,2.992,0,0,1,0,.545V36.87a2.411,2.411,0,0,1-.61,1.679c-.5.577-1.024,1.144-1.536,1.722-.98,1.069-1.972,2.139-2.952,3.283-1.416,1.615-2.821,3.208-4.237,4.845L53.9,52.676h6.372c1.089-1.273,2.266-2.567,3.4-3.861.6-.684,1.209-1.38,1.83-2.053.251-.278.534-.567.959-.417a.982.982,0,0,1,.566,1.069v5.294h5.719V27.63a2.709,2.709,0,0,0-.781-2.091,2.816,2.816,0,0,0-2.105-.829H65.293a1.921,1.921,0,0,0-1.481.663L60.7,28.881c-.85.973-1.688,1.946-2.549,2.909a.475.475,0,0,1-.327.086.534.534,0,0,1-.109-.225V26.646a1.724,1.724,0,0,0-.486-1.382,1.793,1.793,0,0,0-1.387-.532H51a2.845,2.845,0,0,0-2.233.963c-1.089,1.283-2.309,2.545-3.453,3.818l-3.355,3.8c-1.089,1.166-2.1,2.321-3.137,3.486-1.547,1.743-3.083,3.5-4.64,5.24-.991,1.069-2,2.235-3.006,3.358s-2.266,2.577-3.409,3.861L24.75,52.612h0Z" transform="translate(-24.75 -24.708)" fill="#4284fc"/>
  </g>
</svg>
