<svg id="logo" xmlns="http://www.w3.org/2000/svg" width="223" height="33.775" viewBox="0 0 223 33.775">
  <path id="Path_172" data-name="Path 172" d="M111.746,41.445c0,11.61-7.863,16.293-21.708,16.293H74.023a1.191,1.191,0,0,1-1.036-.427,1.641,1.641,0,0,1-.376-1.2V26.777a1.641,1.641,0,0,1,.376-1.2,1.191,1.191,0,0,1,1.036-.427H90.037C103.883,25.152,111.746,29.951,111.746,41.445Zm-7.429,0c0-4.657-2.224-8.14-14.279-8.14h-10.2V49.6h10.2C102.148,49.6,104.317,46.1,104.317,41.445Z" transform="translate(-19.385 -24.582)" fill="#1d1d1f"/>
  <path id="Path_173" data-name="Path 173" d="M151.108,36.233c0,5.354-3.492,11.081-12.033,11.081H118.813v8.8a1.641,1.641,0,0,1-.376,1.2,1.191,1.191,0,0,1-1.036.427h-4.448a1.193,1.193,0,0,1-1.029-.432,1.642,1.642,0,0,1-.373-1.193V26.777a1.642,1.642,0,0,1,.373-1.193,1.193,1.193,0,0,1,1.029-.432h26.123C147.638,25.151,151.108,30.879,151.108,36.233Zm-7.218,0c0-2.464-.923-3.032-4.815-3.032H118.813v6.45h20.263c3.892-.026,4.815-.864,4.815-3.419Z" transform="translate(-15.019 -24.582)" fill="#1d1d1f"/>
  <path id="Path_174" data-name="Path 174" d="M190.438,36.233c0,5.354-3.492,11.081-12.044,11.081H158.131v8.8a1.642,1.642,0,0,1-.373,1.193,1.193,1.193,0,0,1-1.029.432h-4.448a1.193,1.193,0,0,1-1.029-.432,1.642,1.642,0,0,1-.373-1.193V26.777a1.642,1.642,0,0,1,.373-1.193,1.193,1.193,0,0,1,1.029-.432h26.079C186.946,25.151,190.438,30.879,190.438,36.233Zm-7.229,0c0-2.464-.923-3.032-4.815-3.032H158.131v6.45h20.263c3.892-.026,4.871-.864,4.871-3.419Z" transform="translate(-10.61 -24.582)" fill="#1d1d1f"/>
  <path id="Path_175" data-name="Path 175" d="M209.951,37.981c8.83.98,19.306,1.871,19.306,9.959,0,7.6-7.785,10.475-18.539,10.475h-.478c-12,0-17.86-2.374-19.829-3.767a1.349,1.349,0,0,1-.7-1.08,1.46,1.46,0,0,1,.452-1.242l2.858-3.406a1.344,1.344,0,0,1,1.924-.374c1.724.839,5.983,2.245,15.292,2.245h.478c8.663,0,11.121-1.445,11.121-2.709,0-2.141-4.059-2-12.166-2.838-13.078-1.445-19.74-2.464-19.74-10.385,0-7.121,6.862-10.14,18.817-10.14h1c9.842,0,15.77,2.374,17.7,3.767a1.4,1.4,0,0,1,.669,1.093,1.509,1.509,0,0,1-.436,1.242l-2.8,3.29a1.429,1.429,0,0,1-1.968.374,34.564,34.564,0,0,0-13.167-2.18h-1c-9.831,0-11.4,1.767-11.4,2.838C197.351,37.053,201.087,36.911,209.951,37.981Z" transform="translate(-6.257 -24.705)" fill="#1d1d1f"/>
  <path id="Path_176" data-name="Path 176" d="M32.59,58.419l.534-.761c.1-.142.222-.271.323-.413,1.112-1.419,2.224-2.838,3.27-4.283,1.479-1.974,2.925-3.96,4.448-5.921s2.98-3.9,4.471-5.96c1.891-2.516,3.759-5.057,5.65-7.585a8.793,8.793,0,0,1,.856-1.019.6.6,0,0,1,.661-.192.734.734,0,0,1,.451.592,3.572,3.572,0,0,1,0,.774v5.96a2.622,2.622,0,0,1-.423,1.716c-.9,1.135-1.768,2.3-2.636,3.47-1.446,1.948-2.88,3.87-4.337,5.844s-3.17,4.115-4.738,6.179c-.4.529-.79,1.058-1.179,1.6H47.1l4.1-5.431c1.512-1.987,3.025-3.96,4.526-5.96l5.638-7.585q2.447-3.29,4.927-6.553a1.912,1.912,0,0,1,.5-.49.656.656,0,0,1,.69-.041.857.857,0,0,1,.422.634,4.263,4.263,0,0,1,0,.658v5.728a3.24,3.24,0,0,1-.623,2.025c-.512.7-1.045,1.38-1.568,2.077-1,1.29-2.013,2.58-3.014,3.96-1.446,1.948-2.88,3.87-4.326,5.844l-3.87,5.16h6.506c1.112-1.535,2.313-3.1,3.47-4.657.612-.826,1.234-1.664,1.868-2.477.256-.335.545-.684.979-.5a1.239,1.239,0,0,1,.578,1.29v6.386h5.839V28.232a3.623,3.623,0,0,0-.8-2.522,2.657,2.657,0,0,0-2.149-1h-4.66a1.846,1.846,0,0,0-1.512.8L61.45,29.742c-.867,1.174-1.724,2.348-2.6,3.509a.431.431,0,0,1-.334.1.694.694,0,0,1-.111-.271V27.045a2.316,2.316,0,0,0-.5-1.667,1.688,1.688,0,0,0-1.416-.642H51.552a2.72,2.72,0,0,0-2.28,1.161c-1.112,1.548-2.358,3.07-3.525,4.605l-3.425,4.58c-1.112,1.406-2.146,2.8-3.2,4.205-1.579,2.1-3.147,4.218-4.738,6.321-1.012,1.29-2.046,2.7-3.069,4.051S29,52.768,27.831,54.317L24.75,58.367h0Z" transform="translate(-24.75 -24.708)" fill="#4284fc"/>
</svg>
