<?xml version="1.0" encoding="utf-8"?>
<!-- Generator: Adobe Illustrator 19.0.0, SVG Export Plug-In . SVG Version: 6.00 Build 0)  -->
<svg version="1.1" id="Layer_1" xmlns="http://www.w3.org/2000/svg" xmlns:xlink="http://www.w3.org/1999/xlink" x="0px" y="0px"
	 viewBox="-848 524.2 49 33.8" style="enable-background:new -848 524.2 49 33.8;" xml:space="preserve">
<style type="text/css">
	.st0{fill:#FFFFFF;}
</style>
<g>
	<path class="st0" d="M-840.2,557.9l0.5-0.8c0.1-0.1,0.2-0.3,0.3-0.4c1.1-1.4,2.2-2.8,3.3-4.3c1.5-2,2.9-4,4.4-5.9
		c1.5-2,3-3.9,4.5-6c1.9-2.5,3.8-5.1,5.7-7.6c0.3-0.4,0.5-0.7,0.9-1c0.2-0.2,0.4-0.3,0.7-0.2c0.2,0.1,0.4,0.3,0.5,0.6
		c0,0.3,0,0.5,0,0.8v6c0.1,0.6-0.1,1.2-0.4,1.7c-0.9,1.1-1.8,2.3-2.6,3.5c-1.4,1.9-2.9,3.9-4.3,5.8c-1.5,2-3.2,4.1-4.7,6.2
		c-0.4,0.5-0.8,1.1-1.2,1.6h7.2l4.1-5.4c1.5-2,3-4,4.5-6l5.6-7.6c1.6-2.2,3.3-4.4,4.9-6.6c0.1-0.2,0.3-0.4,0.5-0.5
		c0.2-0.1,0.5-0.2,0.7,0c0.2,0.1,0.4,0.4,0.4,0.6c0,0.2,0,0.4,0,0.7v5.7c0,0.7-0.2,1.4-0.6,2c-0.5,0.7-1,1.4-1.6,2.1
		c-1,1.3-2,2.6-3,4c-1.4,1.9-2.9,3.9-4.3,5.8l-3.9,5.2h6.5c1.1-1.5,2.3-3.1,3.5-4.7c0.6-0.8,1.2-1.7,1.9-2.5c0.3-0.3,0.5-0.7,1-0.5
		c0.4,0.3,0.7,0.8,0.6,1.3v6.4h5.8v-30.3c0.1-0.9-0.2-1.8-0.8-2.5c-0.5-0.7-1.3-1-2.1-1h-4.7c-0.6,0-1.2,0.3-1.5,0.8l-3.2,4.2
		c-0.9,1.2-1.7,2.3-2.6,3.5c-0.1,0.1-0.2,0.1-0.3,0.1c-0.1-0.1-0.1-0.2-0.1-0.3v-6c0.1-0.6-0.1-1.2-0.5-1.7
		c-0.3-0.4-0.9-0.7-1.4-0.6h-4.9c-0.9,0-1.8,0.4-2.3,1.2c-1.1,1.5-2.4,3.1-3.5,4.6l-3.4,4.6c-1.1,1.4-2.1,2.8-3.2,4.2
		c-1.6,2.1-3.1,4.2-4.7,6.3c-1,1.3-2,2.7-3.1,4.1s-2.3,3.1-3.5,4.7l-3.1,4l0,0L-840.2,557.9z"/>
</g>
</svg>
