<svg id="logo-mailchimp" xmlns="http://www.w3.org/2000/svg" width="68.194" height="87.211" viewBox="0 0 68.194 87.211">
  <g id="Group_8766" data-name="Group 8766">
    <g id="Group_8765" data-name="Group 8765">
      <g id="Group_8764" data-name="Group 8764">
        <path id="Path_4462" data-name="Path 4462" d="M539.766,156.541a5.372,5.372,0,0,1,1.383,0,4.721,4.721,0,0,0,.067-2.619c-.331-1.588-.781-2.549-1.709-2.4s-.962,1.3-.63,2.888A5.372,5.372,0,0,0,539.766,156.541Z" transform="translate(-492.471 -125.008)"/>
        <path id="Path_4463" data-name="Path 4463" d="M525.771,159.819c.664.292,1.072.485,1.232.316.1-.105.071-.307-.087-.565a3.9,3.9,0,0,0-1.717-1.382,4.68,4.68,0,0,0-4.552.547c-.444.325-.865.776-.8,1.05.019.089.086.155.241.178a28.34,28.34,0,0,1,3.121-.7A5.441,5.441,0,0,1,525.771,159.819Z" transform="translate(-486.443 -127.03)"/>
        <path id="Path_4464" data-name="Path 4464" d="M525.625,161.865a3.133,3.133,0,0,0-1.648.686,1.057,1.057,0,0,0-.421.658.2.2,0,0,0,.066.158.208.208,0,0,0,.142.054,2.636,2.636,0,0,0,.633-.175,5.5,5.5,0,0,1,2.785-.289c.435.048.64.076.735-.073a.245.245,0,0,0-.024-.276A2.516,2.516,0,0,0,525.625,161.865Z" transform="translate(-487.633 -128.313)"/>
        <path id="Path_4465" data-name="Path 4465" d="M535.967,165.185a.907.907,0,1,0-.682-1.3A1.064,1.064,0,0,0,535.967,165.185Z" transform="translate(-491.362 -128.835)"/>
        <path id="Path_4466" data-name="Path 4466" d="M541.453,161.139c-.477-.008-.873.516-.884,1.17s.367,1.191.843,1.2.873-.516.884-1.17S541.931,161.147,541.453,161.139Z" transform="translate(-493.074 -128.088)"/>
        <path id="Path_4467" data-name="Path 4467" d="M491.179,174.925c-.119-.148-.314-.1-.5-.059a1.8,1.8,0,0,1-.445.063.965.965,0,0,1-.815-.413,1.512,1.512,0,0,1,.035-1.4c.032-.076.07-.162.112-.255a4.138,4.138,0,0,0,.3-3.663,3.246,3.246,0,0,0-2.485-1.807,3.194,3.194,0,0,0-2.736.987,3.934,3.934,0,0,0-1.016,3.308c.075.2.192.261.277.273.179.024.445-.106.611-.554.012-.032.028-.082.048-.146a4.4,4.4,0,0,1,.438-1.03,1.874,1.874,0,0,1,1.2-.826,1.914,1.914,0,0,1,1.46.272,1.872,1.872,0,0,1,.709,2.254,5.254,5.254,0,0,0-.37,2,1.989,1.989,0,0,0,1.778,2.053,1.518,1.518,0,0,0,1.432-.713A.308.308,0,0,0,491.179,174.925Z" transform="translate(-474.839 -130.079)"/>
        <path id="Path_4468" data-name="Path 4468" d="M531.157,154.794c-.029-.1-.218-.8-.478-1.63a13.209,13.209,0,0,0-.53-1.421,5.152,5.152,0,0,0,.924-3.751,4.747,4.747,0,0,0-1.38-2.681,11.214,11.214,0,0,0-4.873-2.414c-.271-.075-1.163-.32-1.241-.344-.006-.052-.065-2.927-.119-4.161a14.246,14.246,0,0,0-.548-3.658,9.8,9.8,0,0,0-2.533-4.522c3.092-3.205,5.022-6.735,5.017-9.764-.009-5.824-7.162-7.587-15.977-3.936l-1.868.792c-.008-.008-3.376-3.312-3.427-3.357-10.05-8.766-41.473,26.161-31.427,34.644l2.2,1.86a10.793,10.793,0,0,0-.61,4.984,9.816,9.816,0,0,0,3.391,6.3,10.311,10.311,0,0,0,6.653,2.679c3.91,9.009,12.842,14.536,23.316,14.847,11.234.334,20.666-4.938,24.618-14.408a19.868,19.868,0,0,0,1.356-6.3C533.616,155.895,532.114,154.794,531.157,154.794Zm-45.967,7.091a5.472,5.472,0,0,1-1.041.073,8.1,8.1,0,0,1-7.423-6.769c-.4-4,1.643-7.086,5.266-7.817a6.151,6.151,0,0,1,1.521-.109c2.03.112,5.021,1.67,5.7,6.092C489.823,157.272,488.862,161.259,485.19,161.885ZM481.4,144.977a8.636,8.636,0,0,0-5.458,3.482,14.837,14.837,0,0,1-2.319-2.236c-1.941-3.685,2.118-10.849,4.953-14.895,7.007-10,17.98-17.567,23.06-16.194.826.234,3.561,3.4,3.561,3.4a71.569,71.569,0,0,0-9.787,6.745A44.434,44.434,0,0,0,481.4,144.977Zm35.618,15.411a.2.2,0,0,0,.116-.2.187.187,0,0,0-.2-.167,23.767,23.767,0,0,1-10.337-1.051c.547-1.778,2-1.136,4.2-.958a30.7,30.7,0,0,0,10.138-1.1,23.216,23.216,0,0,0,7.581-3.77,15.257,15.257,0,0,1,1.059,3.61,1.763,1.763,0,0,1,1.112.2c.478.295.829.906.59,2.488a13.779,13.779,0,0,1-3.856,7.562,15.9,15.9,0,0,1-4.631,3.461,19.559,19.559,0,0,1-3.024,1.277c-7.96,2.6-16.108-.258-18.735-6.4a9.883,9.883,0,0,1-.527-1.449,12.728,12.728,0,0,1,2.8-11.952h0a1.082,1.082,0,0,0,.37-.712,1.258,1.258,0,0,0-.286-.675c-1.039-1.507-4.639-4.076-3.916-9.047.519-3.571,3.642-6.086,6.554-5.937.246.013.492.028.737.042,1.262.075,2.363.237,3.4.28a6.8,6.8,0,0,0,5.154-1.721,3.991,3.991,0,0,1,1.972-1.115,2.406,2.406,0,0,1,.754-.074,2.492,2.492,0,0,1,1.269.406c1.484.988,1.7,3.38,1.772,5.13.044,1,.165,3.417.205,4.11.095,1.586.512,1.81,1.356,2.088.474.156.915.272,1.564.454a8.828,8.828,0,0,1,3.865,1.83,2.433,2.433,0,0,1,.7,1.382c.231,1.69-1.313,3.778-5.4,5.675a27.44,27.44,0,0,1-13.633,2.182l-1.312-.148c-3-.4-4.7,3.468-2.907,6.12,1.159,1.709,4.315,2.822,7.473,2.823,7.24,0,12.806-3.091,14.875-5.761a2.749,2.749,0,0,0,.165-.236c.1-.154.018-.238-.109-.152-1.691,1.158-9.2,5.752-17.239,4.369a10.71,10.71,0,0,1-1.868-.507,3.35,3.35,0,0,1-2.37-2.478C512.936,162.283,517.019,160.387,517.019,160.387Zm-10.272-1.213v0Zm-12.406-27.887a29.6,29.6,0,0,1,8.3-6.786.108.108,0,0,1,.145.148,8,8,0,0,0-.771,1.882.112.112,0,0,0,.172.118,16.168,16.168,0,0,1,7.289-2.573.115.115,0,0,1,.077.2,6.188,6.188,0,0,0-1.147,1.151.111.111,0,0,0,.087.178,14.284,14.284,0,0,1,6.094,1.6c.114.064.033.284-.095.255a24.806,24.806,0,0,0-11.04.03,25.366,25.366,0,0,0-8.965,3.962A.113.113,0,0,1,494.341,131.287Z" transform="translate(-470.741 -112.548)"/>
      </g>
    </g>
  </g>
  <g id="Group_8767" data-name="Group 8767" transform="translate(0.16 74.905)">
    <path id="Path_4469" data-name="Path 4469" d="M480.042,225.974a2.377,2.377,0,0,0-2.129,1.6c-.157.35-.2.628-.328.628-.179,0-.05-.241-.2-.775a1.936,1.936,0,0,0-2.01-1.453,2.385,2.385,0,0,0-2.119,1.7c-.18.412-.181.528-.32.528-.2,0-.034-.328.056-.713a3.2,3.2,0,0,0,.042-1.337h-2.06V233.9h2.811v-3.853c0-.76.318-1.725.863-1.725.63,0,.756.484.756,1.379v4.2h2.823v-3.855c0-.677.276-1.725.867-1.725.639,0,.752.68.752,1.379v4.2h2.772v-4.554C482.62,227.321,481.907,225.974,480.042,225.974Z" transform="translate(-470.977 -223.729)"/>
    <path id="Path_4470" data-name="Path 4470" d="M550.193,225.974a2.377,2.377,0,0,0-2.129,1.6c-.157.35-.2.628-.328.628-.18,0-.06-.306-.2-.775a1.9,1.9,0,0,0-2.01-1.453,2.385,2.385,0,0,0-2.119,1.7c-.18.412-.181.528-.32.528-.2,0-.034-.328.056-.713a3.2,3.2,0,0,0,.042-1.337h-2.06V233.9h2.812v-3.853c0-.76.318-1.725.862-1.725.63,0,.756.484.756,1.379v4.2h2.823v-3.855c0-.677.276-1.725.867-1.725.639,0,.752.68.752,1.379v4.2h2.772v-4.554C552.771,227.321,552.058,225.974,550.193,225.974Z" transform="translate(-493.413 -223.729)"/>
    <path id="Path_4471" data-name="Path 4471" d="M493.2,225.976a8.856,8.856,0,0,0-3.7.792v2.327a7.686,7.686,0,0,1,3.091-.981c1.105,0,1.241.6,1.19,1.09a6.036,6.036,0,0,0-1.291-.084c-2.291,0-3.448,1.041-3.448,2.711a2.238,2.238,0,0,0,2.395,2.246,2.635,2.635,0,0,0,2.517-1.583c.15-.354.177-.592.312-.592.154,0,.1.171.095.523a5.663,5.663,0,0,0,.114,1.474h2.119v-3.812C496.59,227.708,495.748,225.976,493.2,225.976Zm-.684,6.111c-.672.155-1.021-.052-1.021-.5,0-.61.631-.855,1.532-.855.4,0,.771.035.771.035A2,2,0,0,1,492.512,232.087Z" transform="translate(-476.754 -223.73)"/>
    <rect id="Rectangle_3548" data-name="Rectangle 3548" width="2.811" height="10.09" transform="translate(24.467 0.078)"/>
    <path id="Path_4472" data-name="Path 4472" d="M514.528,230.026c0-.7.647-1.33,1.834-1.33a5.148,5.148,0,0,1,2.568.765v-2.693a4.208,4.208,0,0,0-2.843-.792,3.639,3.639,0,0,0-3.9,3.93c0,2.683,1.61,4.171,3.9,4.171a4.451,4.451,0,0,0,2.853-.982v-2.558a4.924,4.924,0,0,1-2.56.841C515.017,231.377,514.528,230.752,514.528,230.026Z" transform="translate(-484.156 -223.73)"/>
    <path id="Path_4473" data-name="Path 4473" d="M528.228,224.957a2.7,2.7,0,0,0-2.372,1.81c-.125.268-.186.422-.289.418-.178-.005-.054-.329.016-.537a9.126,9.126,0,0,0,.408-2.706,3.577,3.577,0,0,0-.117-1.153h-2.427v10.09h2.812v-3.853c0-.628.25-1.724.958-1.724.586,0,.77.435.77,1.31v4.267H530.8v-4.1C530.8,226.792,530.469,224.957,528.228,224.957Z" transform="translate(-487.758 -222.711)"/>
    <path id="Path_4474" data-name="Path 4474" d="M535.6,226.251v7.736h2.811v-7.736a2.972,2.972,0,0,1-1.4.277A3.009,3.009,0,0,1,535.6,226.251Z" transform="translate(-491.645 -223.818)"/>
    <ellipse id="Ellipse_704" data-name="Ellipse 704" cx="1.721" cy="1.123" rx="1.721" ry="1.123" transform="translate(43.631)"/>
    <path id="Path_4475" data-name="Path 4475" d="M501.478,226.251v7.736h2.811v-7.736a2.972,2.972,0,0,1-1.4.277A3.009,3.009,0,0,1,501.478,226.251Z" transform="translate(-480.732 -223.818)"/>
    <ellipse id="Ellipse_705" data-name="Ellipse 705" cx="1.721" cy="1.123" rx="1.721" ry="1.123" transform="translate(20.422)"/>
    <path id="Path_4476" data-name="Path 4476" d="M564.259,225.974a2.626,2.626,0,0,0-2.4,1.7c-.19.408-.181.528-.32.528-.2,0-.034-.328.056-.713a3.21,3.21,0,0,0,.043-1.337h-2.06v9.883h2.811V232.9a2.2,2.2,0,0,0,1.9,1.167c2.033,0,3.056-1.72,3.056-4.044C567.349,227.391,566.124,225.974,564.259,225.974Zm-.772,6.26c-.645,0-1.119-.818-1.119-1.957,0-1.106.487-1.956,1.1-1.956.783,0,1.116.718,1.116,1.956C564.58,231.566,564.273,232.234,563.487,232.234Z" transform="translate(-499.315 -223.729)"/>
  </g>
</svg>
