<?xml version="1.0" encoding="utf-8"?>
<svg version="1.1" xmlns:xlink="http://www.w3.org/1999/xlink" width="550px" height="50px" xmlns="http://www.w3.org/2000/svg">
  <g>
    <path d="M 1 3  A 2 2 0 0 1 3 1 L 547 1  A 2 2 0 0 1 549 3 L 549 47  A 2 2 0 0 1 547 49 L 3 49  A 2 2 0 0 1 1 47 L 1 3  Z " fill-rule="nonzero" fill="#ffffff" stroke="none" />
    <path d="M 0.5 3  A 2.5 2.5 0 0 1 3 0.5 L 547 0.5  A 2.5 2.5 0 0 1 549.5 3 L 549.5 47  A 2.5 2.5 0 0 1 547 49.5 L 3 49.5  A 2.5 2.5 0 0 1 0.5 47 L 0.5 3  Z " stroke-width="1" stroke-dasharray="9,4" stroke="#b6d0fd" fill="none" stroke-dashoffset="0.5" />
  </g>
</svg>