<?xml version="1.0" encoding="utf-8"?>
<svg version="1.1" xmlns:xlink="http://www.w3.org/1999/xlink" width="48px" height="28px" xmlns="http://www.w3.org/2000/svg">
  <g>
    <path d="M 0 27.9037437504534  L 7.67943091354075 27.9465217626761  C 7.67943091354075 27.9465217626761  8.20228903975497 27.3155518044368  8.20228903975497 27.3155518044368  C 8.30032067765702 27.1979065487789  8.42014091132673 27.0909653329192  8.51818012391877 26.9733238919582  C 9.60745463115757 25.7969361852281  10.6967442877764 24.6205446638009  11.7206605824021 23.4227641362623  C 13.1694109400301 21.7865185201837  14.585468935644 20.1395688643068  16.0777851227723 18.5140196586323  C 17.5701013099006 16.8884590088668  18.9970592844159 15.2842873652126  20.4566906842202 13.5731783203957  C 22.3084713597026 11.4877559465847  24.1384672267624 9.38095601075336  25.9902365402099 7.28484104123518  C 26.2473404553304 6.98251867413393  26.5277516915624 6.70006515638725  26.8289895379329 6.43997339248839  C 26.9976286486138 6.27264361567881  27.2471200002904 6.21137958176615  27.4761369649133 6.28108172545557  C 27.7051577168811 6.35078196179649  27.8756109658156 6.53985932623596  27.9182678325167 6.7715048945628  C 27.9457260837448 6.98454046354699  27.9457260837448 7.20012997217655  27.9182678325167 7.41317507790327  C 27.9182678325167 9.06012091908312  27.9182678325167 10.70707057496  27.9182678325167 12.3540049720488  C 27.9763316186655 12.8631335079238  27.8276025806338 13.3742113539688  27.5043413231058 13.776368156408  C 26.6220224958824 14.7174882400044  25.7723846686381 15.6799858856211  24.9227468413937 16.6531761269449  C 23.5066850584348 18.2680441810033  22.1015118923422 19.8615155995563  20.6745501304819 21.497765030332  C 19.2475921559666 23.1340068317136  17.5701050972456 24.9093019683496  16.034215505927 26.6204110131665  C 15.6420738049388 27.0588761017066  15.260828295507 27.4973488196408  14.8795752113851 27.9465217626761  C 14.8795752113851 27.9465217626761  21.8945448502918 27.9465217626761  21.8945448502918 27.9465217626761  C 21.8945448502918 27.9465217626761  25.9139897107305 23.4441607717677  25.9139897107305 23.4441607717677  C 27.3954097063024 21.7972073011938  28.8768372765644 20.1609616851152  30.34735350589 18.5033232482281  C 30.34735350589 18.5033232482281  35.8700183197034 12.2149859690676  35.8700183197034 12.2149859690676  C 37.4676226977479 10.3969242642999  39.0761194800038 8.58599985763006  40.6955276031961 6.78220130496697  C 40.8324249754572 6.61864426349611  40.9985227776451 6.48093560893634  41.1857009420863 6.37581972559386  C 41.3916946364725 6.25655894575398  41.6441439045917 6.24395327949842  41.861393588309 6.34207110118381  C 42.0786508467162 6.44019273756622  42.2331669479033 6.63658478351424  42.2749792366701 6.86775732941237  C 42.2915829571369 7.04919767044629  42.2915829571369 7.23172901482384  42.2749868113601 7.41317507790327  C 42.2749868113601 8.99595390074907  42.2749868113601 10.6215069211206  42.2749868113601 12.1615115464407  C 42.2947870510043 12.7767115472581  42.0768859439476 13.3765116162633  41.6649894514552 13.8405428041361  C 41.1639237083536 14.4180421544455  40.6410655821394 14.9848489090477  40.1290998601365 15.5623482593572  C 39.1487456076661 16.6317909355306  38.1575027383293 17.701237426401  37.1771522732039 18.8455397166157  C 35.7610867029 20.460407770674  34.3559097494624 22.053879189227  32.9398517538485 23.6901248053057  C 32.9398517538485 23.6901248053057  29.1491549565378 27.9679183981815  29.1491549565378 27.9679183981815  C 29.1491549565378 27.9679183981815  35.5214462355605 27.9679183981815  35.5214462355605 27.9679183981815  C 36.6107207427993 26.6952744419047  37.7871572077988 25.4012338501226  38.919997544538 24.1072161465225  C 39.5191025002316 23.4227641362623  40.1290998601365 22.727627159689  40.7499896242528 22.053879189227  C 41.0005300704935 21.7758221097795  41.2837401546783 21.4870762493218  41.7085590683005 21.6367916627072  C 42.1333779819227 21.7865185201837  42.2967716197828 22.2142986424106  42.2749868113601 22.7062381535777  C 42.2749868113601 22.8987392085798  42.2749868113601 23.0805476678748  42.2749868113601 23.2623561271697  C 42.2749868113601 24.813053348197  42.2749868113601 26.3744393502345  42.2749868113601 27.9251365712618  C 42.2749868113601 27.9251365712618  42.2749868113601 28  42.2749868113601 28  L 47.9937035389425 28  C 47.9937035389425 28  47.9937035389425 8.86761604938398  47.9937035389425 8.86761604938398  C 47.9937035389425 6.88914442817522  47.9937035389425 4.91067280696645  47.9937035389425 2.92150859005052  C 48.0467339435903 2.14740738545776  47.7627436663362 1.38757505501508  47.2123363926139 0.830875340129628  C 46.6619291188916 0.27417562524417  45.89678695853 -0.0271091442714966  45.107102802588 0.00192069994240133  C 43.5821131901706 0.00192069994240133  42.0571235777533 0.00192069994240133  40.5430263695473 0.00192069994240133  C 39.9730839703306 -0.00562858543201273  39.4296075379527 0.237623198534884  39.0616063739754 0.664979889394219  C 39.0616063739754 0.664979889394219  35.9462613618377 4.17275591082192  35.9462613618377 4.17275591082192  C 35.0966197472484 5.1459518741913  34.2578781115604 6.11914974490916  33.3973440927597 7.08164739052586  C 33.3030732884396 7.14913319525493  33.1865404702273 7.17963741986156  33.0705606043845 7.16720532231975  C 33.0705606043845 7.16720532231975  32.9616365622711 7.02817487524749  32.9616365622711 6.94262075815059  C 32.9616365622711 6.85706473370519  32.9616365622711 6.46136812064525  32.9616365622711 6.21539836506174  C 32.9616365622711 4.78233877029836  32.9616365622711 3.34928299023199  32.9616365622711 1.93761812362547  C 33.0136708951848 1.42921056548456  32.8358739843011 0.923988279343453  32.4752770797929 0.555545769041217  C 32.1146726005946 0.187101351390471  31.6075774042579 -0.00745773264628271  31.088071078366 0.0233116134022532  C 29.475934657568 0.0233116134022532  27.8202286199246 0.0233116134022532  26.251665603317 0.0233116134022532  C 25.3972329973064 -0.00459480254345278  24.5760078322295 0.349380469364403  24.0186507804377 0.985814981064454  C 22.9293649111639 2.26914581100288  21.709370191354 3.53109335687546  20.5656223010236 4.80372968375822  C 20.5656223010236 4.80372968375822  17.2106368215465 8.60026300973462  17.2106368215465 8.60026300973462  C 16.1213509522727 9.76595430606064  15.1083232745132 10.9209568213765  14.0735032136411 12.0866557470965  C 12.5267287928011 13.8298463937319  10.9908429888275 15.5837334507715  9.43316858908617 17.3269393561949  C 8.44192193240441 18.3963782176714  7.42889425464497 19.5620733286944  6.4267533000794 20.6849866127977  C 5.4246142391863 21.807903711598  4.16105179620359 23.2623561271697  3.01730579954561 24.5456888644567  C 3.01730579954561 24.5456888644567  0 27.9037437504534  0 27.9037437504534  Z " fill-rule="nonzero" fill="#4284fc" stroke="none" />
  </g>
</svg>