<?xml version="1.0" encoding="utf-8"?>
<!-- Generator: Adobe Illustrator 19.0.0, SVG Export Plug-In . SVG Version: 6.00 Build 0)  -->
<svg version="1.1" id="Capa_1" xmlns="http://www.w3.org/2000/svg" xmlns:xlink="http://www.w3.org/1999/xlink" x="0px" y="0px"
	 viewBox="415 -31.7 128 85.3" style="enable-background:new 415 -31.7 128 85.3;" xml:space="preserve">
<style type="text/css">
	.st0{clip-path:url(#SVGID_2_);}
	.st1{fill:#F0F0F0;}
	.st2{fill:#D80027;}
	.st3{fill:#2E52B2;}
</style>
<g>
	<defs>
		<path id="SVGID_1_" d="M531.1,53.7H426.9c-6.6,0-11.9-5.3-11.9-11.9v-61.5c0-6.6,5.3-11.9,11.9-11.9h104.2
			c6.6,0,11.9,5.3,11.9,11.9v61.5C543,48.3,537.7,53.7,531.1,53.7z"/>
	</defs>
	<clipPath id="SVGID_2_">
		<use xlink:href="#SVGID_1_"  style="overflow:visible;"/>
	</clipPath>
	<g class="st0">
		<rect x="415" y="-31.7" class="st1" width="128" height="85.3"/>
		<g>
			<rect x="415" y="-21" class="st2" width="128" height="10.7"/>
			<rect x="415" y="0.3" class="st2" width="128" height="10.7"/>
			<rect x="415" y="21.7" class="st2" width="128" height="10.7"/>
			<rect x="415" y="43" class="st2" width="128" height="10.7"/>
		</g>
		<rect x="415" y="-31.7" class="st3" width="64" height="45.9"/>
		<g>
			<polygon class="st1" points="440,-12.8 438.9,-9.7 435.6,-9.7 438.3,-7.7 437.3,-4.5 440,-6.5 442.7,-4.5 441.6,-7.7 444.3,-9.7 
				441,-9.7 			"/>
			<polygon class="st1" points="441,1.8 440,-1.4 438.9,1.8 435.6,1.8 438.3,3.7 437.3,6.9 440,4.9 442.7,6.9 441.6,3.7 444.3,1.8 
							"/>
			<polygon class="st1" points="426.9,1.8 425.9,-1.4 424.8,1.8 421.5,1.8 424.2,3.7 423.2,6.9 425.9,4.9 428.6,6.9 427.5,3.7 
				430.2,1.8 			"/>
			<polygon class="st1" points="425.9,-12.8 424.8,-9.7 421.5,-9.7 424.2,-7.7 423.2,-4.5 425.9,-6.5 428.6,-4.5 427.5,-7.7 
				430.2,-9.7 426.9,-9.7 			"/>
			<polygon class="st1" points="440,-24.3 438.9,-21.1 435.6,-21.1 438.3,-19.2 437.3,-16 440,-17.9 442.7,-16 441.6,-19.2 
				444.3,-21.1 441,-21.1 			"/>
			<polygon class="st1" points="425.9,-24.3 424.8,-21.1 421.5,-21.1 424.2,-19.2 423.2,-16 425.9,-17.9 428.6,-16 427.5,-19.2 
				430.2,-21.1 426.9,-21.1 			"/>
			<polygon class="st1" points="454,-12.8 453,-9.7 449.7,-9.7 452.4,-7.7 451.3,-4.5 454,-6.5 456.7,-4.5 455.7,-7.7 458.4,-9.7 
				455.1,-9.7 			"/>
			<polygon class="st1" points="455.1,1.8 454,-1.4 453,1.8 449.7,1.8 452.4,3.7 451.3,6.9 454,4.9 456.7,6.9 455.7,3.7 458.4,1.8 
							"/>
			<polygon class="st1" points="469.2,1.8 468.1,-1.4 467.1,1.8 463.8,1.8 466.5,3.7 465.4,6.9 468.1,4.9 470.8,6.9 469.8,3.7 
				472.5,1.8 			"/>
			<polygon class="st1" points="468.1,-12.8 467.1,-9.7 463.8,-9.7 466.5,-7.7 465.4,-4.5 468.1,-6.5 470.8,-4.5 469.8,-7.7 
				472.5,-9.7 469.2,-9.7 			"/>
			<polygon class="st1" points="454,-24.3 453,-21.1 449.7,-21.1 452.4,-19.2 451.3,-16 454,-17.9 456.7,-16 455.7,-19.2 
				458.4,-21.1 455.1,-21.1 			"/>
			<polygon class="st1" points="468.1,-24.3 467.1,-21.1 463.8,-21.1 466.5,-19.2 465.4,-16 468.1,-17.9 470.8,-16 469.8,-19.2 
				472.5,-21.1 469.2,-21.1 			"/>
		</g>
	</g>
</g>
</svg>
