<?xml version="1.0" encoding="utf-8"?>
<!-- Generator: Adobe Illustrator 19.0.0, SVG Export Plug-In . SVG Version: 6.00 Build 0)  -->
<svg version="1.1" id="Layer" xmlns="http://www.w3.org/2000/svg" xmlns:xlink="http://www.w3.org/1999/xlink" x="0px" y="0px"
	 viewBox="492 0 20 20" style="enable-background:new 492 0 20 20;" xml:space="preserve">
<style type="text/css">
	.st0{fill:#1E3E75;}
</style>
<path class="st0" d="M511.2,9.2h-16.6l6.4-6.1c0.3-0.3,0.3-0.8,0-1.2c-0.3-0.3-0.8-0.3-1.2,0l-7.3,6.9c-0.3,0.3-0.5,0.7-0.5,1.2
	c0,0.4,0.2,0.9,0.5,1.2l7.3,6.9c0.2,0.2,0.4,0.2,0.6,0.2c0.2,0,0.4-0.1,0.6-0.3c0.3-0.3,0.3-0.9,0-1.2l-6.4-6.1h16.7
	c0.5,0,0.8-0.4,0.8-0.8S511.6,9.2,511.2,9.2L511.2,9.2z"/>
</svg>
