<?xml version="1.0" encoding="utf-8"?>
<!-- Generator: Adobe Illustrator 19.0.0, SVG Export Plug-In . SVG Version: 6.00 Build 0)  -->
<svg version="1.1" id="Layer_1" xmlns="http://www.w3.org/2000/svg" xmlns:xlink="http://www.w3.org/1999/xlink" x="0px" y="0px"
	 viewBox="-78 256 50 50" style="enable-background:new -78 256 50 50;" xml:space="preserve">
<style type="text/css">
	.st0{fill:#4284FC;}
</style>
<g>
	<path class="st0" d="M-53,281c0,0.5-0.1,1-0.4,1.4l-12.5,18.7c-0.4,0.7-1.2,1.1-2.1,1.1h-7.5c-1.4,0-2.5-1.1-2.5-2.5
		c0-0.5,0.2-1,0.4-1.4L-66,281l-11.6-17.4c-0.3-0.4-0.4-0.9-0.4-1.4c0-1.4,1.1-2.5,2.5-2.5h7.5c0.9,0,1.6,0.4,2.1,1.1l12.5,18.7
		C-53.1,280-53,280.5-53,281z"/>
	<path class="st0" d="M-28,281c0,0.5-0.2,1-0.4,1.4l-12.5,18.7c-0.4,0.7-1.2,1.1-2.1,1.1h-7.5c-1.4,0-2.5-1.1-2.5-2.5
		c0-0.5,0.2-1,0.4-1.4L-41,281l-11.6-17.4c-0.3-0.4-0.4-0.9-0.4-1.4c0-1.4,1.1-2.5,2.5-2.5h7.5c0.9,0,1.6,0.4,2.1,1.1l12.5,18.7
		C-28.2,280-28,280.5-28,281z"/>
</g>
</svg>
