<?xml version="1.0" encoding="utf-8"?>
<svg version="1.1" xmlns:xlink="http://www.w3.org/1999/xlink" width="50px" height="50px" xmlns="http://www.w3.org/2000/svg">
  <g transform="matrix(1 0 0 1 -830 -525 )">
    <path d="M 48.0989845117093 38.9200674835514  C 48.0989845117093 38.9200674835514  35.8015259866492 26.6226070202364  35.8015259866492 26.6226070202364  C 39.6093553066133 18.3675068058045  36.9514900674378 8.5702153336557  29.4937828788958 3.37128412076605  C 22.0360756903538 -1.8276432774246  11.9242111506416 -0.932409713322321  5.49590446222196 5.49589599421508  C -0.932404133547445 11.9241940723545  -1.82764927835039 22.0360570691179  3.3712789131341 29.4937631197036  C 8.5702051972688 36.9514691702892  18.3675019790662 39.6093378186056  26.6226110825263 35.8015243384663  C 26.6226110825263 35.8015243384663  38.9200696075864 48.0989809870824  38.9200696075864 48.0989809870824  C 41.4547543821743 50.6336730043059  45.5643073665206 50.6336653749079  48.0989845117093 48.0989809870824  C 50.6336769156964 45.5642889698588  50.6336769156964 41.4547518713769  48.0989845117093 38.9200674835514  Z M 4.26263878640063 18.8158560100659  C 4.26264260110022 10.7783500419693  10.7783364278176 4.26265911681783  18.8158550664399 4.26265911681783  C 26.8533698903625 4.26265911681783  33.3690637170799 10.7783500419693  33.3690637170799 18.8158636394639  C 33.3690637170799 26.8533772369586  26.8533698903625 33.3690700694596  18.8158550664399 33.3690700694596  C 10.7783364278176 33.3690738841586  4.26264260110022 26.8533772369586  4.26264641579981 18.8158598247649  Z M 43.514730309894 45.8432350204018  C 42.8939413567757 45.8461647092429  42.2981386859977 45.5988501429063  41.8619125286331 45.1571461443235  C 41.8619125286331 45.1571461443235  30.250516281443 33.5769635362077  30.250516281443 33.5769635362077  C 31.4878980181262 32.6046272756778  32.6046322507521 31.4878893987531  33.5769686596488 30.2505116655785  C 33.5769686596488 30.2505116655785  45.157156849461 41.8618946969122  45.157156849461 41.8618946969122  C 45.8271096509458 42.5267204406984  46.0294718350048 43.5302075333592  45.6695320401197 44.4027207501468  C 45.3095998746337 45.2752263375365  44.4585632834249 45.8441581775626  43.5147226804948 45.8432350204018  Z " fill-rule="nonzero" fill="#4284fc" stroke="none" transform="matrix(1 0 0 1 830 525 )" />
  </g>
</svg>