<svg xmlns="http://www.w3.org/2000/svg" width="120" height="50" viewBox="0 0 120 50">
  <g id="FASSRIDE_-_Logo" data-name="FASSRIDE - Logo" transform="translate(-40.3 108.135)">
    <g id="Group_7025" data-name="Group 7025" transform="translate(40.3 -108.135)">
      <path id="Path_4129" data-name="Path 4129" d="M198.485,106.532a3.485,3.485,0,0,0-.452-1.665,1.988,1.988,0,0,0-.678-2.763l-.011-.011a4.291,4.291,0,0,0-2.306-.668,4.42,4.42,0,0,0-1.006.113,4.231,4.231,0,0,0-1.989,1.031,2.99,2.99,0,0,0-1.153-.227,4.411,4.411,0,0,0-.757.079,3.985,3.985,0,0,0-1.176.464,3.365,3.365,0,0,0-1.243.068,3.582,3.582,0,0,0-.972.362l-.215.034-1.221.272a1.855,1.855,0,0,0-.927.5,3.809,3.809,0,0,0-1.017-.147,3.978,3.978,0,0,0-.882.1,4.441,4.441,0,0,0-1.21.453,1.963,1.963,0,0,0-.52-.623,2,2,0,0,0-1.65-.374l-.283.068a11.06,11.06,0,0,0,3.063-5.379,6.4,6.4,0,0,0-1.108-5.572,5.522,5.522,0,0,0-1.1-1.031l-.034-.023a6.745,6.745,0,0,0-1.006-.566.227.227,0,0,0-.045-.091l8.421-10.8-6.3,1.382,3.368-4.315-22.359,4.9a18.394,18.394,0,0,0-1.865.521l.1-.136-22.359,4.9a13.072,13.072,0,0,0-8.76,5.878,11.1,11.1,0,0,0-1.582,4.36,7.621,7.621,0,0,0-.136,1.857L126.006,97.3a4.975,4.975,0,0,0-2.114-2.152c-.17-.091-.35-.17-.531-.249l-.283-.544a5,5,0,0,0-5.539-2.616,6.323,6.323,0,0,0-.836.249l.079-.1L86.308,98.57,81.3,123.712l3.674-.8-.746,3.749,10.241-2.242,1.458-.238,11.032-2.424h0l10.06-2.208.136,5.73a1.968,1.968,0,0,0,.757,1.506,1.992,1.992,0,0,0,1.221.419,1.911,1.911,0,0,0,.43-.045l2.238-.5a.041.041,0,0,0,.034-.011,5.746,5.746,0,0,0,2.216-1.019,1.934,1.934,0,0,0,.995.272,1.912,1.912,0,0,0,.43-.045l1.221-.272a1.925,1.925,0,0,0,.961-.532,3.5,3.5,0,0,0,1.085.159,4.36,4.36,0,0,0,.916-.1,4.557,4.557,0,0,0,2.08-1.087,4.019,4.019,0,0,0,1.232.193,4.518,4.518,0,0,0,1.017-.113,4.58,4.58,0,0,0,2.2-1.144,3.6,3.6,0,0,0,1.447.294,4.359,4.359,0,0,0,.916-.1,4.649,4.649,0,0,0,1.82-.861,1.917,1.917,0,0,0,.61.1,1.847,1.847,0,0,0,.43-.045l1.243-.272a1.977,1.977,0,0,0,1.447-1.28,1.554,1.554,0,0,0,.2.181,1.992,1.992,0,0,0,1.221.419,1.847,1.847,0,0,0,.43-.045l1.424-.317a1.969,1.969,0,0,0,1.549-1.982V118.9a1.473,1.473,0,0,0,.113.17,2.837,2.837,0,0,0,2.317,1.144,3.855,3.855,0,0,0,.791-.091,4.076,4.076,0,0,0,.995-.374l.226-.034,1.243-.272a1.926,1.926,0,0,0,.961-.532,3.5,3.5,0,0,0,1.085.159,4.36,4.36,0,0,0,.916-.1,4.65,4.65,0,0,0,1.82-.861,1.949,1.949,0,0,0,1.04.057l1.243-.272a1.985,1.985,0,0,0,1.549-1.812,4.147,4.147,0,0,0,2.656.917,5.84,5.84,0,0,0,1.221-.136,6.247,6.247,0,0,0,1.04-.317,1.947,1.947,0,0,0,.6.793,1.992,1.992,0,0,0,1.221.419,1.912,1.912,0,0,0,.43-.045l.893-.193c.023,0,.034-.011.057-.011a3.179,3.179,0,0,0,2.069-1.45c0-.011.011-.011.011-.023a4.536,4.536,0,0,0,.52-1.189,3.93,3.93,0,0,0,1.085.147,4.518,4.518,0,0,0,1.017-.113,4.766,4.766,0,0,0,2.17-1.1,2.865,2.865,0,0,0,1.1.2,3.959,3.959,0,0,0,.961-.125,5.625,5.625,0,0,0,.961-.317,2.108,2.108,0,0,0,.441-.249,3.9,3.9,0,0,0,.882.1,4.36,4.36,0,0,0,.916-.1,4.531,4.531,0,0,0,1.809-.861,1.866,1.866,0,0,0,.61.1,1.912,1.912,0,0,0,.43-.045l1.221-.272a1.783,1.783,0,0,0,.588-.238,1.986,1.986,0,0,0,.633-.034l1.221-.272a1.785,1.785,0,0,0,.588-.238,1.97,1.97,0,0,0,.633-.034l1.221-.272a1.89,1.89,0,0,0,.814-.4,3.8,3.8,0,0,0,.746.068,4.519,4.519,0,0,0,1.017-.113,4.221,4.221,0,0,0,3.482-4.156" transform="translate(-81.3 -77.2)"/>
      <path id="Path_4130" data-name="Path 4130" d="M1091.69,290.9a2.857,2.857,0,0,1-2.826-2.378,3.223,3.223,0,0,1,2.532-3.851,2.907,2.907,0,0,1,.622-.068,2.849,2.849,0,0,1,2.826,2.378,3.223,3.223,0,0,1-2.543,3.85A2.8,2.8,0,0,1,1091.69,290.9Z" transform="translate(-974.912 -261.112)"/>
      <g id="Group_7022" data-name="Group 7022" transform="translate(2.611 3.216)">
        <path id="Path_4131" data-name="Path 4131" d="M123.6,247.046l.543-.725,1.673-2.231-12.965,2.843.475-2.412,14.378-3.16,4.6-6.161-23.772,5.221-2.069,10.385-.079.408-1.989,9.955,5.867-1.291,1.526-7.588,9.427-2.072Z" transform="translate(-104.4 -220.523)" fill="#d13138"/>
        <path id="Path_4132" data-name="Path 4132" d="M282.69,163a3.943,3.943,0,0,0-.7-.668,4.941,4.941,0,0,0-2.17-.793,9.435,9.435,0,0,0-3.21.2l-10.185,2.231c-1.017.226-.961-2.05,1.1-2.5l13.033-2.854L285.4,152.4l-16.8,3.692c-8.2,1.8-8.749,8.528-8.749,8.528a4.451,4.451,0,0,0,.158,2.684,2.716,2.716,0,0,0,.35.578,3.358,3.358,0,0,0,.882.8,6.7,6.7,0,0,0,5.03.442l8.308-1.823a4.141,4.141,0,0,1,1.594-.079c.576.136.814.453.712.974,0,0-.181.838-3.041,1.461l-12.208,2.673-2.724,3.477-3.041-5.912-1.289-2.492L251.8,161.97a2.951,2.951,0,0,0-1.255-1.268,2.849,2.849,0,0,0-2.023-.272,6.274,6.274,0,0,0-2.329,1.223,10.446,10.446,0,0,0-1.922,1.959l-3.391,4.53-4.5,6.025L228.5,184.744l7.257-1.6,8.184-10.612,3.515-4.564,1.786,3.4,1.729,3.284-6.816,1.495-4.612,6.161,17.249-3.783h0l16.956-3.715c8.6-1.891,9.608-7.939,9.608-7.939A4.436,4.436,0,0,0,282.69,163Z" transform="translate(-214.472 -147.1)" fill="#d13138"/>
        <path id="Path_4133" data-name="Path 4133" d="M717.4,115.532a4.941,4.941,0,0,0-2.17-.793,9.436,9.436,0,0,0-3.21.2l-10.185,2.231c-1.017.227-.961-2.05,1.1-2.5l13.022-2.854L720.8,105.6,704,109.281c-8.2,1.8-8.749,8.528-8.749,8.528a4.451,4.451,0,0,0,.158,2.684,3.03,3.03,0,0,0,.35.578,3.356,3.356,0,0,0,.882.8,6.7,6.7,0,0,0,5.03.442l8.308-1.823a4.142,4.142,0,0,1,1.594-.079c.577.136.814.453.712.974,0,0-.181.838-3.041,1.461l-12.208,2.673L692.2,131.7l16.955-3.715c8.6-1.891,9.608-7.939,9.608-7.939a4.481,4.481,0,0,0-.678-3.873A3.165,3.165,0,0,0,717.4,115.532Z" transform="translate(-625.757 -105.6)" fill="#d13138"/>
      </g>
      <path id="Path_4134" data-name="Path 4134" d="M149.852,177.936l-3.12.679h0L129.483,182.4l4.612-6.161,6.816-1.495-1.718-3.284-1.786-3.4-3.515,4.564-8.184,10.612-7.257,1.586,7.89-10.544,4.5-6.025,3.391-4.53a9.8,9.8,0,0,1,1.922-1.959,5.919,5.919,0,0,1,2.317-1.223,2.849,2.849,0,0,1,2.023.272,3.014,3.014,0,0,1,1.255,1.268l2.792,5.425,1.289,2.5,3.041,5.912,2.724-3.477,12.208-2.673c2.849-.623,3.029-1.461,3.029-1.461.1-.521-.136-.838-.712-.974a4.109,4.109,0,0,0-1.594.068l-8.308,1.823a6.7,6.7,0,0,1-5.03-.442,3.357,3.357,0,0,1-.882-.8,3.026,3.026,0,0,1-.35-.578,4.451,4.451,0,0,1-.158-2.684s.554-6.738,8.749-8.528l16.8-3.692-4.861,6.206-13.022,2.854c-2.057.453-2.114,2.729-1.1,2.5l10.185-2.231a9.421,9.421,0,0,1,3.21-.2,4.855,4.855,0,0,1,2.17.793,3.942,3.942,0,0,1,.7.668,4.481,4.481,0,0,1,.678,3.873s-1.006,6.059-9.608,7.939Zm-45.452,9.9,1.978-9.955.079-.408,2.069-10.385,23.772-5.21-4.6,6.161-14.378,3.148-.475,2.412,12.965-2.843-1.673,2.231-.543.725-2.385,3.182-9.427,2.061-1.526,7.588Z" transform="translate(-101.789 -143.972)" fill="none"/>
      <g id="Group_7023" data-name="Group 7023" transform="translate(1.673 2.072)">
        <path id="Path_4135" data-name="Path 4135" d="M120.233,233.99l-13.8,3.024.17-.838,14.175-3.114,5.934-7.961-26.168,5.742L96.1,253.152l7.426-1.631,1.526-7.588,9.224-2.027Zm-15.8,9.343-1.526,7.588-5.867,1.291,1.978-9.955.079-.408,2.069-10.385,23.772-5.21-4.6,6.161-14.378,3.148-.475,2.412,12.965-2.843-1.673,2.231-.543.725-2.385,3.182Z" transform="translate(-96.1 -210.423)" fill="#fff"/>
        <path id="Path_4136" data-name="Path 4136" d="M292.693,105.976a5.71,5.71,0,0,0-2.487-.917,10.265,10.265,0,0,0-3.459.215l-9.925,2.174a1.015,1.015,0,0,1,.1-.294,1.512,1.512,0,0,1,1.051-.713l13.282-2.911,6.262-8.029-18.787,4.122a11.744,11.744,0,0,0-7.913,5.277,10.056,10.056,0,0,0-1.4,3.862,5.237,5.237,0,0,0,.215,3.092,4.105,4.105,0,0,0,1.515,1.71,5.89,5.89,0,0,0,3.176.815,11.079,11.079,0,0,0,2.4-.283l8.308-1.823a3.177,3.177,0,0,1,1.277-.068.6.6,0,0,1,.124.034,5.326,5.326,0,0,1-2.453.963l-12.468,2.741-1.876,2.39a7.423,7.423,0,0,0,.61-1.778,5.2,5.2,0,0,0-.837-4.473,4.369,4.369,0,0,0-.848-.8,5.71,5.71,0,0,0-2.487-.917,10.28,10.28,0,0,0-3.459.215l-9.936,2.174a1.014,1.014,0,0,1,.1-.294,1.512,1.512,0,0,1,1.051-.713l13.282-2.911,6.262-8.029-18.787,4.122a11.744,11.744,0,0,0-7.913,5.277,10.018,10.018,0,0,0-1.4,3.873,5.237,5.237,0,0,0,.215,3.092,3.8,3.8,0,0,0,.43.725,4.059,4.059,0,0,0,1.074.985,5.89,5.89,0,0,0,3.176.815,11.079,11.079,0,0,0,2.4-.283l8.308-1.823a3.177,3.177,0,0,1,1.277-.068.49.49,0,0,1,.124.045c-.034.034-.079.068-.136.113a6.607,6.607,0,0,1-2.317.849l-12.434,2.707-2.182,2.786-6.59-12.82a3.7,3.7,0,0,0-1.56-1.586,3.6,3.6,0,0,0-2.521-.34,6.743,6.743,0,0,0-2.622,1.37,10.877,10.877,0,0,0-2.057,2.1L212.9,135.421l9.439-2.072,11.168-14.485,2.532,4.824-6.149,1.348L223.932,133l17.193-3.771,18.945-4.156a15.4,15.4,0,0,0,6.726-3.114l-1.549,1.982,18.945-4.156c8.873-1.948,10.105-8.109,10.185-8.528a5.187,5.187,0,0,0-.836-4.473A3.8,3.8,0,0,0,292.693,105.976Zm-32.781,18.381L225.7,131.865l4.612-6.161,6.816-1.495-1.718-3.284-1.786-3.4-3.515,4.564L221.92,132.7l-7.257,1.586,7.89-10.544,4.5-6.025,3.391-4.53a9.8,9.8,0,0,1,1.922-1.959,5.919,5.919,0,0,1,2.317-1.223,2.849,2.849,0,0,1,2.023.272,3.013,3.013,0,0,1,1.255,1.268l2.792,5.425,1.289,2.5,3.041,5.912,2.724-3.477,12.208-2.673c2.848-.623,3.029-1.461,3.029-1.461.1-.521-.136-.838-.712-.974a4.11,4.11,0,0,0-1.594.068l-8.308,1.823a6.7,6.7,0,0,1-5.03-.442,3.359,3.359,0,0,1-.882-.8,3.027,3.027,0,0,1-.35-.578,4.451,4.451,0,0,1-.158-2.684s.554-6.738,8.749-8.528l16.8-3.692-4.838,6.195-13.022,2.854c-2.057.453-2.114,2.729-1.1,2.5l10.185-2.231a9.421,9.421,0,0,1,3.21-.2,4.855,4.855,0,0,1,2.17.793,3.939,3.939,0,0,1,.7.668,4.48,4.48,0,0,1,.678,3.873C269.531,116.417,268.514,122.476,259.912,124.356Zm33.741-13.239s-1.006,6.059-9.608,7.939l-16.955,3.726,4.838-6.183,12.208-2.673c2.849-.623,3.029-1.461,3.029-1.461.1-.521-.136-.838-.712-.974a3.929,3.929,0,0,0-1.594.079l-8.308,1.823a6.7,6.7,0,0,1-5.03-.442,3.358,3.358,0,0,1-.882-.8,3.028,3.028,0,0,1-.35-.578,4.451,4.451,0,0,1-.158-2.684s.554-6.738,8.749-8.528l16.8-3.681-4.838,6.206-13.022,2.854c-2.057.453-2.114,2.729-1.1,2.5l10.185-2.231a9.421,9.421,0,0,1,3.21-.2,4.993,4.993,0,0,1,2.17.793,3.578,3.578,0,0,1,.7.668A4.415,4.415,0,0,1,293.653,111.117Z" transform="translate(-199.697 -95.5)" fill="#fff"/>
      </g>
      <path id="Path_4137" data-name="Path 4137" d="M417.9,302.4" transform="translate(-379.852 -276.896)" fill="#fff"/>
      <path id="Path_4138" data-name="Path 4138" d="M414.5,437.475l1.82-.4a2.956,2.956,0,0,1,2.487.249,3.111,3.111,0,0,1,.882,2.344,5.713,5.713,0,0,1-.113,1.336,3.274,3.274,0,0,1-2.656,2.729l-2.238.5Zm1.47,1.1.1,3.964.441-.091c.757-.181,1.809-.464,1.752-2.4a2.271,2.271,0,0,0-.328-1.291c-.407-.532-.95-.4-1.39-.306Z" transform="translate(-376.836 -396.184)" fill="#fff"/>
      <path id="Path_4139" data-name="Path 4139" d="M466.8,428.072l1.221-.272.023,1.133-1.221.272Zm.034,1.755,1.221-.272.124,4.994-1.221.272Z" transform="translate(-423.224 -388.094)" fill="#fff"/>
      <path id="Path_4140" data-name="Path 4140" d="M490.137,439.221a5.526,5.526,0,0,1-.486.861,2.7,2.7,0,0,1-1.571,1.053c-1.255.272-2.148-.476-2.193-2.118a2.973,2.973,0,0,1,2.091-3.228,1.621,1.621,0,0,1,1.537.385,3.3,3.3,0,0,1,.656,2.106l-3.007.657c.011.623.316,1.178.995,1.031a1.494,1.494,0,0,0,1.04-1.11Zm-1.289-1.574a1.157,1.157,0,0,0-.249-.657.693.693,0,0,0-.61-.147,1.04,1.04,0,0,0-.622.464,1.656,1.656,0,0,0-.237.713Z" transform="translate(-440.152 -395.133)" fill="#fff"/>
      <path id="Path_4141" data-name="Path 4141" d="M526.069,430.951a1.405,1.405,0,0,0,1.243.419c.294-.068.746-.283.735-.657a.235.235,0,0,0-.17-.249,2.143,2.143,0,0,0-.723-.034,3.162,3.162,0,0,1-.565-.034,1.31,1.31,0,0,1-.712-.272,1.259,1.259,0,0,1-.339-.872,2.11,2.11,0,0,1,1.729-2.061,2.44,2.44,0,0,1,1.9.328l-.746,1.008a1.377,1.377,0,0,0-1.074-.26c-.486.1-.588.362-.588.51.011.283.271.283.678.283.848,0,1.843.045,1.876,1.234a2.3,2.3,0,0,1-1.944,2.186,2.176,2.176,0,0,1-2.069-.521Z" transform="translate(-475.112 -387.497)" fill="#fff"/>
      <path id="Path_4142" data-name="Path 4142" d="M568.837,421.922a5.528,5.528,0,0,1-.486.861,2.7,2.7,0,0,1-1.571,1.053c-1.255.272-2.148-.476-2.193-2.118a2.973,2.973,0,0,1,2.091-3.228,1.621,1.621,0,0,1,1.537.385,3.3,3.3,0,0,1,.655,2.106l-3.007.657c.011.623.316,1.178.995,1.031a1.494,1.494,0,0,0,1.04-1.11Zm-1.277-1.574a1.157,1.157,0,0,0-.249-.657.694.694,0,0,0-.61-.147,1.041,1.041,0,0,0-.622.464,1.657,1.657,0,0,0-.237.713Z" transform="translate(-509.956 -379.792)" fill="#fff"/>
      <path id="Path_4143" data-name="Path 4143" d="M609.043,396.9l.17,6.75-1.243.272-.169-6.75Z" transform="translate(-548.286 -360.694)" fill="#fff"/>
      <path id="Path_4144" data-name="Path 4144" d="M652.275,382l.034,1.3-2.961.646.034,1.416,2.724-.6.034,1.314-2.724.6.068,2.729-1.413.306-.17-6.75Z" transform="translate(-583.853 -347.481)" fill="#fff"/>
      <path id="Path_4145" data-name="Path 4145" d="M693.843,389.572l1.243-.272.124,4.994-1.243.272-.011-.476a1.584,1.584,0,0,1-.407.487,2.037,2.037,0,0,1-.791.408,1.012,1.012,0,0,1-1.085-.294c-.226-.317-.271-.6-.294-1.416l-.079-3.137,1.255-.272.079,3.092a.96.96,0,0,0,.113.566.473.473,0,0,0,.5.136.952.952,0,0,0,.43-.215.913.913,0,0,0,.26-.77Z" transform="translate(-622.348 -353.955)" fill="#fff"/>
      <path id="Path_4146" data-name="Path 4146" d="M736.937,385.021a5.517,5.517,0,0,1-.486.861,2.7,2.7,0,0,1-1.571,1.053c-1.255.272-2.148-.476-2.193-2.118a2.973,2.973,0,0,1,2.091-3.228,1.621,1.621,0,0,1,1.537.385,3.3,3.3,0,0,1,.656,2.106l-3.007.657c.011.623.317,1.178.995,1.031a1.493,1.493,0,0,0,1.04-1.11Zm-1.289-1.574a1.156,1.156,0,0,0-.249-.657.693.693,0,0,0-.61-.147,1.041,1.041,0,0,0-.622.464,1.659,1.659,0,0,0-.237.713Z" transform="translate(-659.055 -347.071)" fill="#fff"/>
      <path id="Path_4147" data-name="Path 4147" d="M777.043,360l.17,6.75-1.243.272-.17-6.75Z" transform="translate(-697.296 -327.973)" fill="#fff"/>
      <path id="Path_4148" data-name="Path 4148" d="M814.151,352.518a1.431,1.431,0,0,0,.565.408,1.8,1.8,0,0,0,1.108.079c.565-.125,1.04-.544,1.029-1.019-.011-.532-.588-.5-1.006-.476a8.766,8.766,0,0,1-.938.034,1.435,1.435,0,0,1-1.582-1.495,2.7,2.7,0,0,1,2.238-2.763,2.672,2.672,0,0,1,2.543.725l-1.029,1.121a2.094,2.094,0,0,0-.576-.419,1.622,1.622,0,0,0-.938-.091.969.969,0,0,0-.825.895c.011.521.5.487.746.476a8.649,8.649,0,0,1,1.752.023,1.349,1.349,0,0,1,1.029,1.438,2.871,2.871,0,0,1-.418,1.529,3.175,3.175,0,0,1-2.114,1.382,2.4,2.4,0,0,1-2.634-.793Z" transform="translate(-730.38 -316.629)" fill="#fff"/>
      <path id="Path_4149" data-name="Path 4149" d="M864.636,351.6l-1.357,5.719a3.333,3.333,0,0,1-.373,1,1.233,1.233,0,0,1-.882.6l-.893.193-.034-1.166.441-.091c.2-.057.52-.125.509-.476a1.07,1.07,0,0,0-.068-.34l-1.379-4.541,1.323-.294.78,3.42.61-3.726Z" transform="translate(-772.511 -320.524)" fill="#fff"/>
      <path id="Path_4150" data-name="Path 4150" d="M897.769,349.351a1.406,1.406,0,0,0,1.243.419c.294-.068.746-.283.735-.657a.235.235,0,0,0-.169-.249,2.485,2.485,0,0,0-.724-.034,3.159,3.159,0,0,1-.565-.034,1.309,1.309,0,0,1-.712-.272,1.258,1.258,0,0,1-.339-.872,2.11,2.11,0,0,1,1.729-2.061,2.44,2.44,0,0,1,1.9.328l-.746,1.008a1.377,1.377,0,0,0-1.074-.26c-.486.1-.588.362-.588.51.011.283.271.283.678.283.848,0,1.842.045,1.876,1.234a2.3,2.3,0,0,1-1.944,2.186,2.176,2.176,0,0,1-2.069-.521Z" transform="translate(-804.796 -315.138)" fill="#fff"/>
      <path id="Path_4151" data-name="Path 4151" d="M934.777,327.172l1.232-.272.034,1.563.814-.181.023.895-.825.181.056,2.242c0,.306.011.566.339.5l.441-.113.034,1.144a3.662,3.662,0,0,1-.655.215c-.43.091-.893.17-1.176-.227a1.988,1.988,0,0,1-.2-1.087l-.056-2.412-.61.136-.023-.895.61-.136Z" transform="translate(-837.791 -298.621)" fill="#fff"/>
      <path id="Path_4152" data-name="Path 4152" d="M965.837,334.722a5.521,5.521,0,0,1-.486.861,2.7,2.7,0,0,1-1.571,1.053c-1.255.272-2.148-.476-2.193-2.118a2.973,2.973,0,0,1,2.091-3.228,1.621,1.621,0,0,1,1.537.385,3.3,3.3,0,0,1,.656,2.106l-3.007.657c.011.623.317,1.178.995,1.031a1.494,1.494,0,0,0,1.04-1.11Zm-1.277-1.574a1.156,1.156,0,0,0-.249-.657.693.693,0,0,0-.61-.147,1.041,1.041,0,0,0-.622.464,1.658,1.658,0,0,0-.237.713Z" transform="translate(-862.081 -302.468)" fill="#fff"/>
      <path id="Path_4153" data-name="Path 4153" d="M1006.421,318.264a1.79,1.79,0,0,1,1.176-.917,1.1,1.1,0,0,1,1.187.328,2.088,2.088,0,0,1,1.232-.861,1.007,1.007,0,0,1,1.2.453,3.076,3.076,0,0,1,.136,1.121l.079,3.25-1.221.272-.068-2.616a4.4,4.4,0,0,0-.068-.838.441.441,0,0,0-.554-.328.706.706,0,0,0-.4.238c-.226.272-.226.555-.2,1.1l.068,2.718-1.221.272-.068-2.956a1.359,1.359,0,0,0-.136-.679.467.467,0,0,0-.486-.147.7.7,0,0,0-.339.193,1.35,1.35,0,0,0-.26,1.031l.068,2.843-1.221.272-.124-4.983,1.221-.272Z" transform="translate(-900.766 -289.646)" fill="#fff"/>
      <path id="Path_4154" data-name="Path 4154" d="M1065.669,312.451a1.406,1.406,0,0,0,1.244.419c.294-.068.746-.283.734-.657a.235.235,0,0,0-.169-.249,2.146,2.146,0,0,0-.723-.034,3.163,3.163,0,0,1-.565-.034,1.31,1.31,0,0,1-.712-.272,1.259,1.259,0,0,1-.339-.872,2.11,2.11,0,0,1,1.73-2.061,2.439,2.439,0,0,1,1.9.328l-.746,1.008a1.377,1.377,0,0,0-1.074-.26c-.486.1-.588.362-.588.51.011.283.271.283.678.283.848,0,1.842.045,1.876,1.234a2.3,2.3,0,0,1-1.944,2.186,2.175,2.175,0,0,1-2.068-.521Z" transform="translate(-953.718 -282.417)" fill="#fff"/>
      <g id="Group_7024" data-name="Group 7024" transform="translate(37.664 26.209)">
        <path id="Path_4155" data-name="Path 4155" d="M414.5,437.475l1.82-.4a2.956,2.956,0,0,1,2.487.249,3.111,3.111,0,0,1,.882,2.344,5.713,5.713,0,0,1-.113,1.336,3.274,3.274,0,0,1-2.656,2.729l-2.238.5Zm1.47,1.1.1,3.964.441-.091c.757-.181,1.809-.464,1.752-2.4a2.271,2.271,0,0,0-.328-1.291c-.407-.532-.95-.4-1.39-.306Z" transform="translate(-414.5 -422.393)" fill="#fff"/>
        <path id="Path_4156" data-name="Path 4156" d="M466.8,428.072l1.221-.272.023,1.133-1.221.272Zm.034,1.755,1.221-.272.124,4.994-1.221.272Z" transform="translate(-460.888 -414.303)" fill="#fff"/>
        <path id="Path_4157" data-name="Path 4157" d="M490.137,439.221a5.526,5.526,0,0,1-.486.861,2.7,2.7,0,0,1-1.571,1.053c-1.255.272-2.148-.476-2.193-2.118a2.973,2.973,0,0,1,2.091-3.228,1.621,1.621,0,0,1,1.537.385,3.3,3.3,0,0,1,.656,2.106l-3.007.657c.011.623.316,1.178.995,1.031a1.494,1.494,0,0,0,1.04-1.11Zm-1.289-1.574a1.157,1.157,0,0,0-.249-.657.693.693,0,0,0-.61-.147,1.04,1.04,0,0,0-.622.464,1.656,1.656,0,0,0-.237.713Z" transform="translate(-477.816 -421.342)" fill="#fff"/>
        <path id="Path_4158" data-name="Path 4158" d="M526.069,430.951a1.405,1.405,0,0,0,1.243.419c.294-.068.746-.283.735-.657a.235.235,0,0,0-.17-.249,2.143,2.143,0,0,0-.723-.034,3.162,3.162,0,0,1-.565-.034,1.31,1.31,0,0,1-.712-.272,1.259,1.259,0,0,1-.339-.872,2.11,2.11,0,0,1,1.729-2.061,2.44,2.44,0,0,1,1.9.328l-.746,1.008a1.377,1.377,0,0,0-1.074-.26c-.486.1-.588.362-.588.51.011.283.271.283.678.283.848,0,1.843.045,1.876,1.234a2.3,2.3,0,0,1-1.944,2.186,2.176,2.176,0,0,1-2.069-.521Z" transform="translate(-512.776 -413.706)" fill="#fff"/>
        <path id="Path_4159" data-name="Path 4159" d="M568.837,421.922a5.528,5.528,0,0,1-.486.861,2.7,2.7,0,0,1-1.571,1.053c-1.255.272-2.148-.476-2.193-2.118a2.973,2.973,0,0,1,2.091-3.228,1.621,1.621,0,0,1,1.537.385,3.3,3.3,0,0,1,.655,2.106l-3.007.657c.011.623.316,1.178.995,1.031a1.494,1.494,0,0,0,1.04-1.11Zm-1.277-1.574a1.157,1.157,0,0,0-.249-.657.694.694,0,0,0-.61-.147,1.041,1.041,0,0,0-.622.464,1.657,1.657,0,0,0-.237.713Z" transform="translate(-547.62 -406.002)" fill="#fff"/>
        <path id="Path_4160" data-name="Path 4160" d="M609.043,396.9l.17,6.75-1.243.272-.169-6.75Z" transform="translate(-585.95 -386.903)" fill="#fff"/>
        <path id="Path_4161" data-name="Path 4161" d="M652.275,382l.034,1.3-2.961.646.034,1.416,2.724-.6.034,1.314-2.724.6.068,2.729-1.413.306-.17-6.75Z" transform="translate(-621.517 -373.69)" fill="#fff"/>
        <path id="Path_4162" data-name="Path 4162" d="M693.843,389.572l1.243-.272.124,4.994-1.243.272-.011-.476a1.584,1.584,0,0,1-.407.487,2.037,2.037,0,0,1-.791.408,1.012,1.012,0,0,1-1.085-.294c-.226-.317-.271-.6-.294-1.416l-.079-3.137,1.255-.272.079,3.092a.96.96,0,0,0,.113.566.473.473,0,0,0,.5.136.952.952,0,0,0,.43-.215.913.913,0,0,0,.26-.77Z" transform="translate(-660.012 -380.164)" fill="#fff"/>
        <path id="Path_4163" data-name="Path 4163" d="M736.937,385.021a5.517,5.517,0,0,1-.486.861,2.7,2.7,0,0,1-1.571,1.053c-1.255.272-2.148-.476-2.193-2.118a2.973,2.973,0,0,1,2.091-3.228,1.621,1.621,0,0,1,1.537.385,3.3,3.3,0,0,1,.656,2.106l-3.007.657c.011.623.317,1.178.995,1.031a1.493,1.493,0,0,0,1.04-1.11Zm-1.289-1.574a1.156,1.156,0,0,0-.249-.657.693.693,0,0,0-.61-.147,1.041,1.041,0,0,0-.622.464,1.659,1.659,0,0,0-.237.713Z" transform="translate(-696.718 -373.28)" fill="#fff"/>
        <path id="Path_4164" data-name="Path 4164" d="M777.043,360l.17,6.75-1.243.272-.17-6.75Z" transform="translate(-734.96 -354.182)" fill="#fff"/>
        <path id="Path_4165" data-name="Path 4165" d="M814.151,352.518a1.431,1.431,0,0,0,.565.408,1.8,1.8,0,0,0,1.108.079c.565-.125,1.04-.544,1.029-1.019-.011-.532-.588-.5-1.006-.476a8.766,8.766,0,0,1-.938.034,1.435,1.435,0,0,1-1.582-1.495,2.7,2.7,0,0,1,2.238-2.763,2.672,2.672,0,0,1,2.543.725l-1.029,1.121a2.094,2.094,0,0,0-.576-.419,1.622,1.622,0,0,0-.938-.091.969.969,0,0,0-.825.895c.011.521.5.487.746.476a8.649,8.649,0,0,1,1.752.023,1.349,1.349,0,0,1,1.029,1.438,2.871,2.871,0,0,1-.418,1.529,3.175,3.175,0,0,1-2.114,1.382,2.4,2.4,0,0,1-2.634-.793Z" transform="translate(-768.044 -342.839)" fill="#fff"/>
        <path id="Path_4166" data-name="Path 4166" d="M864.636,351.6l-1.357,5.719a3.333,3.333,0,0,1-.373,1,1.233,1.233,0,0,1-.882.6l-.893.193-.034-1.166.441-.091c.2-.057.52-.125.509-.476a1.07,1.07,0,0,0-.068-.34l-1.379-4.541,1.323-.294.78,3.42.61-3.726Z" transform="translate(-810.175 -346.733)" fill="#fff"/>
        <path id="Path_4167" data-name="Path 4167" d="M897.769,349.351a1.406,1.406,0,0,0,1.243.419c.294-.068.746-.283.735-.657a.235.235,0,0,0-.169-.249,2.485,2.485,0,0,0-.724-.034,3.159,3.159,0,0,1-.565-.034,1.309,1.309,0,0,1-.712-.272,1.258,1.258,0,0,1-.339-.872,2.11,2.11,0,0,1,1.729-2.061,2.44,2.44,0,0,1,1.9.328l-.746,1.008a1.377,1.377,0,0,0-1.074-.26c-.486.1-.588.362-.588.51.011.283.271.283.678.283.848,0,1.842.045,1.876,1.234a2.3,2.3,0,0,1-1.944,2.186,2.176,2.176,0,0,1-2.069-.521Z" transform="translate(-842.46 -341.347)" fill="#fff"/>
        <path id="Path_4168" data-name="Path 4168" d="M934.777,327.172l1.232-.272.034,1.563.814-.181.023.895-.825.181.056,2.242c0,.306.011.566.339.5l.441-.113.034,1.144a3.662,3.662,0,0,1-.655.215c-.43.091-.893.17-1.176-.227a1.988,1.988,0,0,1-.2-1.087l-.056-2.412-.61.136-.023-.895.61-.136Z" transform="translate(-875.455 -324.83)" fill="#fff"/>
        <path id="Path_4169" data-name="Path 4169" d="M965.837,334.722a5.521,5.521,0,0,1-.486.861,2.7,2.7,0,0,1-1.571,1.053c-1.255.272-2.148-.476-2.193-2.118a2.973,2.973,0,0,1,2.091-3.228,1.621,1.621,0,0,1,1.537.385,3.3,3.3,0,0,1,.656,2.106l-3.007.657c.011.623.317,1.178.995,1.031a1.494,1.494,0,0,0,1.04-1.11Zm-1.277-1.574a1.156,1.156,0,0,0-.249-.657.693.693,0,0,0-.61-.147,1.041,1.041,0,0,0-.622.464,1.658,1.658,0,0,0-.237.713Z" transform="translate(-899.745 -328.677)" fill="#fff"/>
        <path id="Path_4170" data-name="Path 4170" d="M1006.421,318.264a1.79,1.79,0,0,1,1.176-.917,1.1,1.1,0,0,1,1.187.328,2.088,2.088,0,0,1,1.232-.861,1.007,1.007,0,0,1,1.2.453,3.076,3.076,0,0,1,.136,1.121l.079,3.25-1.221.272-.068-2.616a4.4,4.4,0,0,0-.068-.838.441.441,0,0,0-.554-.328.706.706,0,0,0-.4.238c-.226.272-.226.555-.2,1.1l.068,2.718-1.221.272-.068-2.956a1.359,1.359,0,0,0-.136-.679.467.467,0,0,0-.486-.147.7.7,0,0,0-.339.193,1.35,1.35,0,0,0-.26,1.031l.068,2.843-1.221.272-.124-4.983,1.221-.272Z" transform="translate(-938.429 -315.855)" fill="#fff"/>
        <path id="Path_4171" data-name="Path 4171" d="M1065.669,312.451a1.406,1.406,0,0,0,1.244.419c.294-.068.746-.283.734-.657a.235.235,0,0,0-.169-.249,2.146,2.146,0,0,0-.723-.034,3.163,3.163,0,0,1-.565-.034,1.31,1.31,0,0,1-.712-.272,1.259,1.259,0,0,1-.339-.872,2.11,2.11,0,0,1,1.73-2.061,2.439,2.439,0,0,1,1.9.328l-.746,1.008a1.377,1.377,0,0,0-1.074-.26c-.486.1-.588.362-.588.51.011.283.271.283.678.283.848,0,1.842.045,1.876,1.234a2.3,2.3,0,0,1-1.944,2.186,2.175,2.175,0,0,1-2.068-.521Z" transform="translate(-991.381 -308.626)" fill="#fff"/>
      </g>
      <path id="Path_4172" data-name="Path 4172" d="M1106.965,303.913a.958.958,0,0,1-1.176-.815,1.318,1.318,0,0,1,1.029-1.585.962.962,0,0,1,1.187.8,1.315,1.315,0,0,1-1.04,1.6m-.124-2.163a1.056,1.056,0,0,0-.825,1.291.767.767,0,0,0,.938.657,1.073,1.073,0,0,0,.837-1.291.766.766,0,0,0-.949-.657m.056.43c.249-.045.418.045.464.249a.393.393,0,0,1-.158.4l.215.249v.057l-.271.057-.2-.238-.214.045.011.272-.26.057-.068-1.042Zm-.192.294.011.272.215-.045a.169.169,0,0,0,.159-.193c-.012-.079-.068-.1-.17-.091Z" transform="translate(-989.961 -276.087)" fill="#fff"/>
    </g>
  </g>
</svg>
