<svg xmlns="http://www.w3.org/2000/svg" xmlns:xlink="http://www.w3.org/1999/xlink" width="143" height="50" viewBox="0 0 143 50">
  <defs>
    <linearGradient id="linear-gradient" x1="0.5" y1="1" x2="0.5" gradientUnits="objectBoundingBox">
      <stop offset="0" stop-color="#fff" stop-opacity="0"/>
      <stop offset="1"/>
    </linearGradient>
  </defs>
  <g id="TTS-Black-RedYellowWhite-Cursive" transform="translate(-150 -377)">
    <path id="Path_4173" data-name="Path 4173" d="M274.368,401.027H300.8l-2.125,5.831H275.337a5.374,5.374,0,0,0-2.268.3c-.564.327-.554.882-.789,1.394a.274.274,0,0,0,.092.35,1.455,1.455,0,0,0,.666.226,11.139,11.139,0,0,0,1.512.073h14.03a17.3,17.3,0,0,1,4.233.425,5.65,5.65,0,0,1,2.48,1.22,2.841,2.841,0,0,1,.938,1.868,5.785,5.785,0,0,1-.394,2.417l-.6,1.795a8.774,8.774,0,0,1-4.053,4.784,16.089,16.089,0,0,1-7.559,1.5H257.194l2.114-5.929h23.767a4.335,4.335,0,0,0,1.816-.276,1.94,1.94,0,0,0,.848-.813v-.406a.478.478,0,0,0-.151-.35,1.445,1.445,0,0,0-.576-.274,4.5,4.5,0,0,0-1.209-.124H269.345q-4.6,0-6.351-1.72t-.725-4.559l.425-1.445a11.428,11.428,0,0,1,1.389-2.567,7.386,7.386,0,0,1,2.208-1.994,11.222,11.222,0,0,1,3.361-1.27,21.759,21.759,0,0,1,4.717-.449m-23.021,5.831h8.541l.055-.189.033-.083a13.694,13.694,0,0,1,1.657-3.049,9.891,9.891,0,0,1,2.684-2.508H231.6l-2.027,5.831h11.914L235.805,423.2h9.857Zm-33.732,0h9.011l1.967-5.831H197.872l-2.027,5.831h11.914L202.074,423.2h9.867Zm-23.652,23.411c.392-.791,3.452-3.152,3.242-4.415.409-.043,10.946-1.108,9.914.679C206.366,427.829,196.672,430.041,193.964,430.269Zm37.025-1c.78-1.313,4.122-3.518,6.092-4.2.776-.268,1.021-.037.533.435a27.062,27.062,0,0,1-6.163,4.14c-.556.211-.727.061-.466-.38Zm-4.494,6.232c-.527-.437.3-.978.693-1.248a14.829,14.829,0,0,1,4.118-1.829c-.325.594-3.43,3.807-4.8,3.077Zm-21.09-3.461c-.558.1-.466-.094-.351-.39.47-1.234,3.581-2.612,5.081-3.049C209.814,429.267,206.8,431.8,205.4,432.041Zm6.214-4.856c-.584-.726-8.633,2.543-7.746,5.388.184.583.637.742,1.275.646,1.189-.2,2.353-1.449,3.224-2.106a1.027,1.027,0,0,0,.253,1.177c.976.646,2.229-.679,2.5-.915.574,3.742,6.27-.461,6.968-.789-.123.648-.272,1.311.492,1.687,1.352.465,2.6-.919,3.185-1.441-.08.529-.2.919.317,1.154.842.329,1.573-1.4,1.979-1.935a6.8,6.8,0,0,1,2.4-1.614c-.3.406-2.566,2.032-1.783,3.065.666.681,3.867-1.272,4.4-1.563.737,2.825,3.881-.1,4.9-.64a7.72,7.72,0,0,1-1.926,1.876c-2.147,1.053-5.657,1.843-7.081,3.659-.85,1.083.449,2.087,2.153,1.9s4.523-3.563,5.528-4.675c2.94-3.226,19.276-5.913,29.564-7.817-7.783.88-20.894,2.575-27.227,5.419.494-.813,3.941-2.845,4.306-4.7.184-.937-.2-1.252-1.354-1.112-3.011.362-8.235,4.228-8.519,5.254-1.142.468-2.351,1.374-3.45,1.561.076-.557,1.054-1.494,1.416-1.85.409-.406,1.338-.813,1.3-1.626-.014-.325-.127-.445-.613-.352a6.666,6.666,0,0,0-2.214.963.918.918,0,0,0,.266-.362c.076-.3-.292-.313-.539-.291-1.612.15-3.064,2.392-3.724,2.925-.343.274-1.512,1.423-2.186.854-.88-1.219,8.318-9.146,7.15-9.835-.817-.478-3.211,2.033-3.677,2.368-.864.61-4.21,5.768-5.3,6.358-.987.535-3.269,1.992-4.835,2-.686,0-.774-.217-.7-.732.2-1.484,3.224-3.154,4.737-3.228,0,.524-.925.917-.1,1.423.519.313.674.043.972-.256a3.183,3.183,0,0,0,.862-1.5c.174-.852-.1-1.037-1.15-.964-2.043.142-4.572,1.8-5.655,2.75a12.624,12.624,0,0,1-2.374,2.3c-.3.165-.39.213-.321-.165.192-1.016,2.135-1.7,1.822-3.23C211.532,427.994,212.1,427.9,211.618,427.185Zm18.617-9.482c.484-1.079-2.57-1.106-2.547,1.138,0,.38.106.8.664.671Zm-38.518,12.415c-.5.148-3.745.3-4.97.368l-1.177.063c-1.912.12-.178,1.38.043,1.478.693.309,2.656.022,4.462.136-.529,1.047-4.19,3-3.718,4.472l1.965.085c.95,0,1.175-.244,1.653-1.449a12.025,12.025,0,0,1,1.8-2.671c.349-.443.306-.352,1.25-.352a25.443,25.443,0,0,1,9.99,1.795c1.265.459,3.851,1.693,5.015,2.1.6.2.631-.455.033-.732-.223-.1-.492-.2-.8-.346a34.626,34.626,0,0,0-9.916-3.213,37.447,37.447,0,0,0-4.9-.276,47.5,47.5,0,0,0,6.084-1.071c2.674-.6,8.911-1.715,10.067-3.6,1.265-2.063-2.672-2.52-4.819-2.545-6.649-.077-11.293,1.36-16.849,2.925-1.532.431-4.686.953-4.564,2.128.268.943,3.162.752,3.064.138-.174-.874-.239-.833.652-1.063,2.392-.61,8.1-2.291,9.765-2.39a22.432,22.432,0,0,1-1.865,2.144A7,7,0,0,1,191.716,430.118Zm11.236-34.388H309.43l-12.341,34.2c-1.622,4.492-7.373,8.179-12.833,8.179H177.78l12.341-34.2C191.743,399.415,197.494,395.73,202.952,395.73Z" transform="translate(-22.105 -14.923)" fill="#d70302" fill-rule="evenodd"/>
    <g id="Group_7026" data-name="Group 7026" transform="translate(161.236 396.618)" opacity="0.22">
      <path id="Path_4174" data-name="Path 4174" d="M205,489.333H309.145c4.862,0,9.887-3.5,11.236-7.417l2.006-5.827q-1.649-.155-3.3-.3a8.673,8.673,0,0,1-.394,1.551l-.613,1.872v.024a10.419,10.419,0,0,1-4.717,5.673,17.663,17.663,0,0,1-8.451,1.766h-28.6l3.083-8.9h6.946a7.185,7.185,0,0,1-3.3-1.781,4.989,4.989,0,0,1-1.336-2.313q-4.517-.114-9.038-.161l-4.439,13.156H254.954l4.433-13.14q-10.316.128-20.633.61l-4.227,12.528H221.249l3.975-11.738q-7.875.549-15.73,1.3Z" transform="translate(-205 -473.52)" fill-rule="evenodd" fill="url(#linear-gradient)"/>
    </g>
    <path id="Path_4175" data-name="Path 4175" d="M289.958,379.112l-12.835,36.943c-1.691,4.848-7.669,8.833-13.336,8.833H153.042l12.835-36.943c1.691-4.848,7.667-8.833,13.336-8.833H289.958M293,377H179.213a17.3,17.3,0,0,0-9.409,2.97,15.022,15.022,0,0,0-6.01,7.307l-12.827,36.941L150,427H263.787a17.313,17.313,0,0,0,9.411-2.969,15.015,15.015,0,0,0,6.01-7.3l12.835-36.943Z" transform="translate(0 0)" fill="#394044"/>
  </g>
</svg>
