<svg xmlns="http://www.w3.org/2000/svg" width="29.782" height="26.226" viewBox="0 0 29.782 26.226">
  <g id="Group_6827" data-name="Group 6827" transform="translate(-159.609 -753.774)">
    <g id="Polygon_61" data-name="Polygon 61" transform="translate(162 756)" fill="#fcb842">
      <path d="M 21.39150047302246 22 L 3.608500003814697 22 C 2.155080080032349 22 0.8144999742507935 21.21030044555664 0.1099300011992455 19.93907928466797 C -0.5946499705314636 18.66785049438477 -0.5538100004196167 17.11251068115234 0.216499999165535 15.88000011444092 L 9.107999801635742 1.653590202331543 C 9.843759536743164 0.4763901829719543 11.11180019378662 -0.2264098078012466 12.5 -0.2264098078012466 C 13.88819980621338 -0.2264098078012466 15.15624046325684 0.4763901829719543 15.89198970794678 1.653580188751221 L 24.78350067138672 15.88000011444092 C 25.55381011962891 17.11251068115234 25.59465026855469 18.66785049438477 24.89006996154785 19.93907928466797 C 24.18549919128418 21.21030044555664 22.84491920471191 22 21.39150047302246 22 Z" stroke="none"/>
      <path d="M 12.5 1.773591995239258 C 11.84783458709717 1.773591995239258 11.19567012786865 2.086925506591797 10.80399990081787 2.713590621948242 L 1.912500381469727 16.94000053405762 C 1.079940795898438 18.2721004486084 2.037620544433594 20 3.608499526977539 20 L 21.39150047302246 20 C 22.96237945556641 20 23.92005920410156 18.2721004486084 23.08749961853027 16.94000053405762 L 14.19600009918213 2.713590621948242 C 13.80432987213135 2.086925506591797 13.15216541290283 1.773591995239258 12.5 1.773591995239258 M 12.5 -2.226409912109375 C 14.58230972290039 -2.226409912109375 16.48437118530273 -1.172199249267578 17.58798980712891 0.5935897827148438 L 26.47949028015137 14.8200101852417 C 27.63496017456055 16.66876029968262 27.69622039794922 19.00177955627441 26.63936042785645 20.90862083435059 C 25.58250045776367 22.81545066833496 23.57164001464844 24 21.39150047302246 24 L 3.608499526977539 24 C 1.428359985351563 24 -0.5825004577636719 22.81545066833496 -1.639360427856445 20.90862083435059 C -2.696220397949219 19.00177955627441 -2.634960174560547 16.66876029968262 -1.479499816894531 14.8200101852417 L 7.412010192871094 0.5935993194580078 C 8.515630722045898 -1.172199249267578 10.41769027709961 -2.226409912109375 12.5 -2.226409912109375 Z" stroke="none" fill="#f5f8fa"/>
    </g>
    <g id="Group_6821" data-name="Group 6821" transform="translate(172.938 763.5)">
      <ellipse id="Ellipse_561" data-name="Ellipse 561" cx="1.5" cy="1.271" rx="1.5" ry="1.271" fill="#fff"/>
      <path id="Path_3181" data-name="Path 3181" d="M201.5,194.177v4.189a1.265,1.265,0,0,1-2.5,0v-4.189a1.265,1.265,0,0,1,2.5,0Z" transform="translate(-198.749 -189.423)" fill="#fff"/>
    </g>
  </g>
</svg>
