<svg xmlns="http://www.w3.org/2000/svg" width="500" height="360.26" viewBox="0 0 500 360.26"><line x2="80.426" transform="translate(0 359.76)" fill="none" stroke="#3f3d56" stroke-miterlimit="10" stroke-width="1"/><rect width="357.074" height="242.185" rx="19.398" transform="translate(117.733 62.004)" fill="#f2f2f2"/><rect width="357.074" height="242.185" rx="19.398" transform="translate(106.831 46.715)" fill="none" stroke="#3f3d56" stroke-miterlimit="10" stroke-width="1"/><line x2="357.074" transform="translate(106.831 69.934)" fill="none" stroke="#3f3d56" stroke-miterlimit="10" stroke-width="1"/><rect width="97.384" height="15.046" rx="7.093" transform="translate(320.252 124.37)" fill="#4284fc" opacity="0.3"/><rect width="134.69" height="12.134" rx="6.067" transform="translate(301.599 166.109)" fill="#4284fc" opacity="0.3"/><rect width="134.69" height="12.134" rx="6.067" transform="translate(301.599 199.112)" fill="#4284fc" opacity="0.3"/><rect width="134.69" height="12.134" rx="6.067" transform="translate(301.599 232.116)" fill="#4284fc" opacity="0.3"/><rect width="97.384" height="15.046" rx="7.093" transform="translate(325.097 119.517)" fill="none" stroke="#3f3d56" stroke-miterlimit="10" stroke-width="1"/><rect width="134.69" height="12.134" rx="6.067" transform="translate(306.444 161.256)" fill="none" stroke="#3f3d56" stroke-miterlimit="10" stroke-width="1"/><rect width="134.69" height="12.134" rx="6.067" transform="translate(306.444 194.259)" fill="none" stroke="#3f3d56" stroke-miterlimit="10" stroke-width="1"/><rect width="134.69" height="12.134" rx="6.067" transform="translate(306.444 227.262)" fill="none" stroke="#3f3d56" stroke-miterlimit="10" stroke-width="1"/><ellipse cx="7.267" cy="7.28" rx="7.267" ry="7.28" transform="translate(126.696 53.996)" fill="#4284fc" opacity="0.3"/><ellipse cx="7.267" cy="7.28" rx="7.267" ry="7.28" transform="translate(147.045 53.996)" fill="#4284fc" opacity="0.3"/><ellipse cx="7.267" cy="7.28" rx="7.267" ry="7.28" transform="translate(167.393 53.996)" fill="#4284fc" opacity="0.3"/><ellipse cx="7.267" cy="7.28" rx="7.267" ry="7.28" transform="translate(129.603 51.084)" fill="none" stroke="#3f3d56" stroke-miterlimit="10" stroke-width="1"/><ellipse cx="7.267" cy="7.28" rx="7.267" ry="7.28" transform="translate(149.952 51.084)" fill="none" stroke="#3f3d56" stroke-miterlimit="10" stroke-width="1"/><ellipse cx="7.267" cy="7.28" rx="7.267" ry="7.28" transform="translate(170.3 51.084)" fill="none" stroke="#3f3d56" stroke-miterlimit="10" stroke-width="1"/><path d="M518.088,602.247a72.5,72.5,0,0,1-1.13-18.618s-6.152-27.075-10.993-29.6h0c-.074.1-2.423,3.181-2.721,12.728a39.307,39.307,0,0,1-3.73,16.063s1.109,12.089.475,19.427Z" transform="translate(-298.44 -323.539)" fill="#4284fc"/><path d="M499.172,298.379H387.517A11.527,11.527,0,0,0,376,309.917V459.137a11.527,11.527,0,0,0,11.517,11.537h39.174c-1.308-5.435-2.935-13.925-1.287-19.827v0c.077-.275.159-.547.25-.811a30.869,30.869,0,0,0,1.11-11.82,24.6,24.6,0,0,0,0-10.3c-1.21-5.657-2.057-11.214-2.057-11.214a72.6,72.6,0,0,1-.085-12.058c.013-.1.028-.2.042-.294l-.321-.074s1.715-7.779,2.32-12.729c.143-1.169.331-2.65.534-4.23a10.129,10.129,0,0,1-1.644-.418c-5.446-1.919-7.16-19.3-7.16-19.3v-5.506s-1.815-8.436,4.538-12.174a73.854,73.854,0,0,1,8.734-4.653c.047-.033.092-.064.14-.1a5.368,5.368,0,0,0,1.594-2.055q.013-.208.006-.414c-.1-1.974-1.475-3.769-2.776-5.335l-3.33-4.008a3.918,3.918,0,0,1-.858-1.39,3.21,3.21,0,0,1-.091-.876q0-.164,0-.327.027-1.494.081-2.987c.031-.87.25-1.967,1.1-2.146.442-.093,1.028.069,1.261-.318a.761.761,0,0,0,.057-.515c0,.013,0,.026-.007.039,0-.016-.006-.033-.009-.048a10.907,10.907,0,0,1-.315-2.129,2.84,2.84,0,0,1,.137-.956c.493-1.444,2.189-2.036,3.688-2.309s3.181-.507,4.122-1.707a13.084,13.084,0,0,1,.818-1.152,3.21,3.21,0,0,1,1.534-.775,8.464,8.464,0,0,1,5.575.5,4.907,4.907,0,0,0,2.249.727c.826-.052,1.532-.635,2.347-.777a3.339,3.339,0,0,1,3.226,1.931,4.788,4.788,0,0,1,.6,2.438,3.358,3.358,0,0,1-.855,2.3c-.567.6-1.413,1.016-1.648,1.81-.1.323-.074.671-.158,1-.011.041-.028.079-.042.118.016.02.033.039.048.06a10.311,10.311,0,0,1-5.006,16.026c0,.1-.008.2-.007.307a4.456,4.456,0,0,0,1.376,3.429l8.986,3.691s5.41-.657,7.362,7.43a14.011,14.011,0,0,1,.334,4.1,12.263,12.263,0,0,0,1.481,6.144c2.219,4.445,1.714,14.649-2.824,15.659-4.3.957-5.971.555-6.136.51l-.01.179c.071,1.915.751,18.428,3.221,20.426.683.553.552.926-.008,1.177v0s0,.106.015.3c.074,1.208.455,5.807,2.109,8.424,1.917,3.031,1.716,20.509,1.716,20.509l1.31,10.3s-.806,6.365,0,7.475c.458.63,1.013,10.388,1.407,18.719h33.687a11.527,11.527,0,0,0,11.517-11.537V309.917a11.527,11.527,0,0,0-11.518-11.537Z" transform="translate(-234.769 -191.967)" fill="#4284fc"/><rect width="134.69" height="172.296" rx="23.772" transform="translate(129.603 93.308)" fill="none" stroke="#3f3d56" stroke-miterlimit="10" stroke-width="1"/><path d="M179.232,400.162s-4.517-1.338-5.486.118,1.321,12.011,1.321,12.011l9.954.606-3.474-8.788Z" transform="translate(-130.383 -244.062)" fill="#2f2e41"/><path d="M105.358,579.347s9.058,19.919,2.082,19.294-9.682-19.294-9.682-19.294Z" transform="translate(-91.334 -336.57)" fill="#a0616a"/><path d="M234.452,573.116s-3.974,21.524,2.643,19.225,4.731-21.068,4.731-21.068Z" transform="translate(-161.191 -332.414)" fill="#a0616a"/><path d="M160.522,386.6s-.1,10.012,3.748,10.533-2.186,5.84-2.186,5.84l-6.871,1.356-9.891-.73-4.373-5.632s7.7-3.65,4.373-15.018Z" transform="translate(-113.6 -235.49)" fill="#a0616a"/><path d="M160.522,386.6s-.1,10.012,3.748,10.533-2.186,5.84-2.186,5.84l-6.871,1.356-9.891-.73-4.373-5.632s7.7-3.65,4.373-15.018Z" transform="translate(-113.6 -235.49)" opacity="0.1"/><path d="M170.317,564.93s4.893,10.533,1.041,43.593c0,0,1.145,11.681.208,13.871s-8.641,31.913-8.641,31.913-9.89,2.19-11.244-4.38c0,0,1.353-9.386,1.249-10.846s2.186-17.417,2.186-17.417l-4.685-30.87-3.54,27.846s0,8.03-1.145,9.8,0,37.44,0,37.44,3.227,5.423-1.666,5.527-9.266-.1-9.682-3.546-.625-6.883-1.666-8.969-2.395-25.968-2.082-34.312-6.871-51.207-4.581-55.691S170.317,564.93,170.317,564.93Z" transform="translate(-105.697 -329.14)" fill="#2f2e41"/><ellipse cx="12.493" cy="12.515" rx="12.493" ry="12.515" transform="translate(29.119 129.831)" fill="#a0616a"/><path d="M137.734,410.557s7.6,5.632,18.636,1.147c0,0,3.644-1.773,3.331-4.484s7.6,21.8,7.6,21.8l8.016,42.655-.416,17.417s-3.54-1.773-14.575,2.19-29.046-4.484-29.046-4.484l.625-44.741.625-26.073,1.666-5.736S135.027,408.68,137.734,410.557Z" transform="translate(-108.615 -247.875)" fill="#f2f2f2"/><path d="M182.063,399.883s1.839-.3,3.609,2.517,5.934,4.589,5.934,4.589,10.1.626,11.556,6.049,5.1,12.828,6.871,26.49,5.31,35.459,5.83,37.232-.729,7.2.729,8.865-10.307,1.669-10.307,1.669-1.041-8.552-1.77-8.552-.521,5.736.208,9.908-5.31,0-5.31,0-4.685-19.085-9.162-36.293-7.079-26.7-6.246-30.557,3.123-14.914,1.458-15.956S182.063,399.883,182.063,399.883Z" transform="translate(-134.794 -244.202)" fill="#2f2e41"/><path d="M119.362,399.874a113.385,113.385,0,0,0-9.591,6.384c-6.871,4.9-11.556,8.656-11.556,8.656s-2.707,2.086-4.373,14.5-5.414,44.532-3.956,48.6,1.978,6.466,1.458,8.865,10.931,2.294,11.14,1.773-.312-10.012.208-10.221,3.331,5.632,3.852,10.533,6.559,8.76,7.912,8.76,8.329-28.263,8.433-47.556-2.29-35.563-4.06-37.858S119.362,399.874,119.362,399.874Z" transform="translate(-87.107 -244.202)" fill="#2f2e41"/><path d="M179.012,738.6s.833-2.294,3.748-1.564,4.893-1.877,4.893-1.877,1.562-.208.521,1.773-1.874,3.337-1.874,3.337,6.247,14.288,2.186,17.729a8.693,8.693,0,0,1-8.745,1.356s-4.581-3.233-4.373-11.785c0,0-.208-2.712-2.707-7.092s-4.373-11.055-1.353-12.306a16.332,16.332,0,0,1,3.8-1.3s-1.413,6.473,2.237,8.735Z" transform="translate(-128.447 -412.496)" fill="#3f3d56"/><path d="M145.671,778.413s-2.5-4.693,1.666-5.215,8.641-.834,8.433,1.356-.729,5.527-.729,5.527l.729,2.4s.208,5.945.937,6.675,4.685,6.987-3.748,6.987-10.931-.939-10.2-2.92.937-11.785.937-11.785Z" transform="translate(-114.469 -436.142)" fill="#3f3d56"/><path d="M144.018,341.773s5.83,1.564,8.849,2.19,2.707-1.147,2.707-1.147,3.956.521,3.748.1,1.666-2.607-.521-5.11-1.562-4.38-1.562-4.38h-1.874l-.521-.73H151.93s-2.186-.834-7.912,0-13.534,1.043-14.159,4.485-3.852,7.717-2.707,9.7,7.7,10.116,8.329,13.558,3.541,4.206,3.436,2.051-3.02-9.664-.521-9.977S145.163,345.841,144.018,341.773Z" transform="translate(-106.362 -209.44)" fill="#2f2e41"/><path d="M1008.281,86.584a11.136,11.136,0,0,0-9.6,6.722c-2.4,5.811.69,12.638,5.329,16.875s10.6,6.66,16.012,9.844c7.272,4.276,13.807,10.213,17.445,17.833s4.026,17.06-.251,24.34c-3.97,6.757-11.188,10.8-18.073,14.531" transform="translate(-555.335 -82.964)" fill="none" stroke="#3f3d56" stroke-miterlimit="10" stroke-width="1"/><ellipse cx="8.479" cy="4.125" rx="8.479" ry="4.125" transform="translate(450.581)" fill="#4284fc"/><ellipse cx="8.479" cy="4.125" rx="8.479" ry="4.125" transform="translate(457.364 27.179)" fill="#4284fc"/><ellipse cx="8.479" cy="4.125" rx="8.479" ry="4.125" transform="translate(441.86 31.547)" fill="#4284fc"/><ellipse cx="8.479" cy="4.125" rx="8.479" ry="4.125" transform="translate(466.085 54.358)" fill="#4284fc"/><ellipse cx="8.479" cy="4.125" rx="8.479" ry="4.125" transform="translate(483.043 54.358)" fill="#4284fc"/></svg>