<svg xmlns="http://www.w3.org/2000/svg" width="20" height="18.4" viewBox="0 0 20 18.4"><defs><style>.a{fill:#b6d0fd;}</style></defs><path class="a" d="M43.326,39.8a7.752,7.752,0,0,0,.062-.936,7.523,7.523,0,0,0-4.244-6.768,3.45,3.45,0,0,0,.091-.752,3.322,3.322,0,1,0-6.644,0,3.45,3.45,0,0,0,.091.752,7.523,7.523,0,0,0-4.244,6.768,7.753,7.753,0,0,0,.062.936,3.338,3.338,0,1,0,3.322,5.352,7.392,7.392,0,0,0,8.173,0,3.31,3.31,0,0,0,3.814,1.016,3.348,3.348,0,0,0-.492-6.368ZM35.914,29.671a1.671,1.671,0,1,1-1.661,1.671A1.666,1.666,0,0,1,35.914,29.671ZM29.269,44.71a1.671,1.671,0,1,1,1.661-1.671A1.666,1.666,0,0,1,29.269,44.71Zm6.644,0a5.749,5.749,0,0,1-3.38-1.1,3.26,3.26,0,0,0,.058-.572,3.339,3.339,0,0,0-2.4-3.2,5.811,5.811,0,0,1,3.268-6.266,3.268,3.268,0,0,0,4.917,0,5.851,5.851,0,0,1,3.355,5.285,5.463,5.463,0,0,1-.087.982,3.339,3.339,0,0,0-2.4,3.2,3.261,3.261,0,0,0,.058.572,5.749,5.749,0,0,1-3.38,1.1Zm6.644,0a1.671,1.671,0,1,1,1.661-1.671A1.666,1.666,0,0,1,42.558,44.71Z" transform="translate(-25.91 -28)"/></svg>