<svg xmlns="http://www.w3.org/2000/svg" width="20" height="20" viewBox="0 0 20 20"><defs><style>.a{fill:#b6d0fd;}</style></defs><path class="a" d="M44.333,39.333H43.5V37.667a2.5,2.5,0,0,0-2.5-2.5H36.833v-2.5h.833A1.667,1.667,0,0,0,39.333,31V27.667A1.667,1.667,0,0,0,37.667,26H34.333a1.667,1.667,0,0,0-1.667,1.667V31a1.667,1.667,0,0,0,1.667,1.667h.833v2.5H31a2.5,2.5,0,0,0-2.5,2.5v1.667h-.833A1.667,1.667,0,0,0,26,41v3.333A1.667,1.667,0,0,0,27.667,46H31a1.667,1.667,0,0,0,1.667-1.667V41A1.667,1.667,0,0,0,31,39.333h-.833V37.667A.833.833,0,0,1,31,36.833H41a.833.833,0,0,1,.833.833v1.667H41A1.667,1.667,0,0,0,39.333,41v3.333A1.667,1.667,0,0,0,41,46h3.333A1.667,1.667,0,0,0,46,44.333V41A1.667,1.667,0,0,0,44.333,39.333Zm-10-11.667h3.333V31H34.333ZM31,44.333H27.667V41H31Zm13.333,0H41V41h3.333Z" transform="translate(-26 -26)"/></svg>