<svg xmlns="http://www.w3.org/2000/svg" width="20" height="20" viewBox="0 0 20 20"><defs><style>.a{fill:#b6d0fd;}</style></defs><path class="a" d="M42.667,26H29.333A3.333,3.333,0,0,0,26,29.333V42.667A3.333,3.333,0,0,0,29.333,46H42.667A3.333,3.333,0,0,0,46,42.667V29.333A3.333,3.333,0,0,0,42.667,26Zm-15,3.333a1.667,1.667,0,0,1,1.667-1.667H42.667a1.667,1.667,0,0,1,1.667,1.667v3.333H27.667Zm15,15H29.333a1.667,1.667,0,0,1-1.667-1.667V34.333H44.333v8.333A1.667,1.667,0,0,1,42.667,44.333Z" transform="translate(-26 -26)"/><circle class="a" cx="0.8" cy="0.8" r="0.8" transform="translate(3.346 3.345)"/><circle class="a" cx="0.8" cy="0.8" r="0.8" transform="translate(6.691 3.345)"/><circle class="a" cx="0.8" cy="0.8" r="0.8" transform="translate(10.035 3.345)"/><path class="a" d="M47.143,52H36.857a.8.8,0,1,0,0,1.6H47.143a.8.8,0,1,0,0-1.6Z" transform="translate(-32 -41.127)"/><path class="a" d="M47.143,60H36.857a.8.8,0,1,0,0,1.6H47.143a.8.8,0,1,0,0-1.6Z" transform="translate(-32 -45.782)"/></svg>