<svg xmlns="http://www.w3.org/2000/svg" width="20" height="19.997" viewBox="0 0 20 19.997"><defs><style>.a{fill:#b6d0fd;}</style></defs><path class="a" d="M17947.664-44h-16a.665.665,0,0,1-.666-.667.664.664,0,0,1,.666-.664h2V-52.36a11.5,11.5,0,0,1-1.576-.669,1.619,1.619,0,0,1-.846-1.926l2.422-8.557a.66.66,0,0,1,.664-.487h13.332a.662.662,0,0,1,.666.487l2.455,8.563a1.644,1.644,0,0,1-.855,1.92,10.8,10.8,0,0,1-1.6.675v7.02h2a.667.667,0,0,1,.668.664.668.668,0,0,1-.668.667Zm-.664-1.331v-7c-.262-.074-.521-.154-.777-.239a12.04,12.04,0,0,1-1.8-.7,14.237,14.237,0,0,1-3.424,1.04,13.921,13.921,0,0,1-3.5-1.04,11.191,11.191,0,0,1-1.766.707c-.244.083-.492.161-.74.233v7h3.336V-50a.664.664,0,0,1,.662-.667h4a.665.665,0,0,1,.664.667v4.666Zm-4.668,0v-4h-2.668v4Zm-9.807-9.245a.3.3,0,0,0,.154.352,5.587,5.587,0,0,0,1.629.662h.023a12.265,12.265,0,0,0,2.881-1.04.654.654,0,0,1,.541,0,15.369,15.369,0,0,0,3.246,1.04,16.505,16.505,0,0,0,3.184-1.049.675.675,0,0,1,.529,0,13.146,13.146,0,0,0,2.951,1.049,6.071,6.071,0,0,0,1.648-.667.307.307,0,0,0,.16-.355l-2.309-8.077h-12.332Zm2.561-2.866a.666.666,0,0,1-.664-.667.665.665,0,0,1,.664-.667h11.816a.665.665,0,0,1,.668.667.667.667,0,0,1-.668.667Zm.58-2.554a.668.668,0,0,1-.668-.667.67.67,0,0,1,.668-.667h10.666a.67.67,0,0,1,.668.667.668.668,0,0,1-.668.667Z" transform="translate(-17931 64)"/></svg>