<svg xmlns="http://www.w3.org/2000/svg" width="20.079" height="20" viewBox="0 0 20.079 20"><defs><style>.a{fill:#b6d0fd;}</style></defs><g transform="translate(0 0)"><path class="a" d="M31.008,22.021l-9.134-9.134a2.923,2.923,0,0,0-2.4-.842l-4.5.422a3,3,0,0,0-2.685,2.685l-.448,4.475a2.893,2.893,0,0,0,.842,2.4l9.187,9.134a3,3,0,0,0,2.132.869h0a3.053,3.053,0,0,0,2.133-.869l4.9-4.922A3,3,0,0,0,31.9,24.1,3.121,3.121,0,0,0,31.008,22.021Zm-.658,2.133a1.454,1.454,0,0,1-.422,1.026l-4.9,4.9a1.479,1.479,0,0,1-1.027.448,1.375,1.375,0,0,1-1.026-.448l-9.161-9.134a1.6,1.6,0,0,1-.447-1.026v-.158l.447-4.475a1.485,1.485,0,0,1,1.316-1.316l4.475-.447h.158a1.453,1.453,0,0,1,1.026.421l9.161,9.134A1.813,1.813,0,0,1,30.351,24.154Z" transform="translate(-11.824 -12.024)"/><path class="a" d="M22.412,17.972a3.423,3.423,0,0,0-2.271-.921,3.188,3.188,0,0,0-3.192,3.159,3.27,3.27,0,0,0,.922,2.27,3.162,3.162,0,0,0,2.27.954,3.27,3.27,0,0,0,2.271-.921,3.162,3.162,0,0,0,.954-2.27A3.108,3.108,0,0,0,22.412,17.972Zm-2.3,3.967a1.7,1.7,0,1,1,1.7-1.7A1.7,1.7,0,0,1,20.108,21.939Z" transform="translate(-13.201 -13.374)"/></g></svg>