<svg xmlns="http://www.w3.org/2000/svg" width="20" height="20" viewBox="0 0 20 20"><defs><style>.a{fill:#b6d0fd;}</style></defs><g transform="translate(-5)"><path class="a" d="M26.833,46H45.167A.833.833,0,0,0,46,45.167V43.442A3.333,3.333,0,0,0,43.767,40.3l-4.434-1.554v-.713A6.1,6.1,0,0,0,41,33.862V30.133C40.9,27.892,38.617,26,36,26s-4.9,1.892-5,4.167v3.7a6.1,6.1,0,0,0,1.667,4.167v.713L28.233,40.3A3.333,3.333,0,0,0,26,43.442v1.725A.833.833,0,0,0,26.833,46Zm.833-2.558a1.667,1.667,0,0,1,1.117-1.575l5-1.746a.833.833,0,0,0,.55-.788V37.667a.833.833,0,0,0-.262-.608,4.417,4.417,0,0,1-1.4-3.2V30.2c.054-1.35,1.613-2.533,3.333-2.533s3.279,1.183,3.333,2.5v3.7a4.417,4.417,0,0,1-1.4,3.213.833.833,0,0,0-.263.592v1.667a.833.833,0,0,0,.558.788l5,1.746a1.667,1.667,0,0,1,1.108,1.575v.892H27.667Z" transform="translate(-21 -26)"/></g></svg>