<svg xmlns="http://www.w3.org/2000/svg" width="20" height="29.066" viewBox="0 0 20 29.066"><defs><style>.a{fill:#b6d0fd;}</style></defs><path class="a" d="M38.077,16.091a.894.894,0,0,0-.2-.552.854.854,0,0,0-.429-.306.9.9,0,0,0-1.021.388L25.513,31.944a1.283,1.283,0,0,0-.163.47.917.917,0,0,0,.449.817,1.123,1.123,0,0,0,.47.1h6.353v10.01a.956.956,0,0,0,.184.552.813.813,0,0,0,.449.306.826.826,0,0,0,.572,0,1.054,1.054,0,0,0,.449-.347L45.187,27.511a1.488,1.488,0,0,0,.163-.49.832.832,0,0,0-.143-.449.635.635,0,0,0-.306-.347,1.007,1.007,0,0,0-.49-.123H38.077V16.091M36.259,27a.906.906,0,0,0,.9.919h5.577L34.441,40.34V32.434a.865.865,0,0,0-.266-.633.879.879,0,0,0-.633-.286H27.965l8.294-12.421Z" transform="translate(-25.35 -15.186)"/></svg>