<svg xmlns="http://www.w3.org/2000/svg" width="19.999" height="23.999" viewBox="0 0 19.999 23.999"><defs><style>.a{fill:#b6d0fd;}</style></defs><g transform="translate(24086 7931)"><path class="a" d="M30,31V47a3,3,0,0,0,3,3H47a3,3,0,0,0,3-3V31a3,3,0,0,0-3-3H46V27a1,1,0,0,0-2,0v1H41V27a1,1,0,1,0-2,0v1H36V27a1,1,0,0,0-2,0v1H33A3,3,0,0,0,30,31Zm5,1a1,1,0,0,0,1-1V30h3v1a1,1,0,1,0,2,0V30h3v1a1,1,0,0,0,2,0V30h1a1,1,0,0,1,1,1V47a1,1,0,0,1-1,1H33a1,1,0,0,1-1-1V31a1,1,0,0,1,1-1h1v1A1,1,0,0,0,35,32Z" transform="translate(-24116 -7957)"/><path class="a" d="M49,52H39a1,1,0,0,0,0,2H49a1,1,0,0,0,0-2Z" transform="translate(-24120.16 -7970)"/><path class="a" d="M49,60H39a1,1,0,0,0,0,2H49a1,1,0,0,0,0-2Z" transform="translate(-24120.16 -7974)"/><path class="a" d="M39,46H49a1,1,0,0,0,0-2H39a1,1,0,0,0,0,2Z" transform="translate(-24120.16 -7966)"/></g></svg>