<svg xmlns="http://www.w3.org/2000/svg" width="50" height="50" viewBox="0 0 50 50">
  <g id="addUser" transform="translate(-937 -1369)">
    <path id="Path_3372" data-name="Path 3372" d="M55.823,53.688a2.083,2.083,0,0,0-.656,1.479v4.167a2.083,2.083,0,0,0,4.167,0v-3.26A15.24,15.24,0,0,0,63.5,45.656V36.333C63.26,30.729,57.542,26,51,26S38.74,30.729,38.5,36.417v9.24a15.24,15.24,0,0,0,4.167,10.417v1.781L31.583,61.74A8.333,8.333,0,0,0,26,69.6v4.313A2.083,2.083,0,0,0,28.083,76H57.25a2.083,2.083,0,1,0,0-4.167H30.167V69.6a4.167,4.167,0,0,1,2.792-3.937l12.5-4.365a2.083,2.083,0,0,0,1.375-1.969V55.167a2.083,2.083,0,0,0-.656-1.521,11.042,11.042,0,0,1-3.51-7.99V36.5C42.8,33.125,46.7,30.167,51,30.167s8.2,2.958,8.333,6.25v9.24a11.042,11.042,0,0,1-3.51,8.031Z" transform="translate(911 1343)" fill="#3b3f45"/>
    <path id="Path_3373" data-name="Path 3373" d="M72.583,64.25H68.417V60.083a2.083,2.083,0,1,0-4.167,0V64.25H60.083a2.083,2.083,0,1,0,0,4.167H64.25v4.167a2.083,2.083,0,0,0,4.167,0V68.417h4.167a2.083,2.083,0,0,0,0-4.167Z" transform="translate(912.333 1344.333)" fill="#3b3f45"/>
  </g>
</svg>
