<svg xmlns="http://www.w3.org/2000/svg" width="50" height="55" viewBox="0 0 50 55">
  <g id="arrowDoc" transform="translate(-1693 -50)">
    <g id="Group_3568" data-name="Group 3568" transform="translate(85 -1)">
      <path id="Path_3170" data-name="Path 3170" d="M28,51.442a2.282,2.282,0,0,0,2.273,2.292h28.6l-5.2,5.259a2.3,2.3,0,0,0,.947,3.969,2.262,2.262,0,0,0,2.258-.737l9.091-9.167a2.305,2.305,0,0,0,0-3.231L56.875,40.66a2.259,2.259,0,0,0-3.085.12,2.306,2.306,0,0,0-.119,3.111l5.2,5.259h-28.6A2.282,2.282,0,0,0,28,51.442Z" transform="translate(1580 27.058)" fill="#3b3f45"/>
      <path id="Path_3171" data-name="Path 3171" d="M76.636,32.875A6.847,6.847,0,0,0,69.818,26h-25A6.847,6.847,0,0,0,38,32.875v9.167a2.273,2.273,0,1,0,4.545,0V32.875a2.282,2.282,0,0,1,2.273-2.292h25a2.282,2.282,0,0,1,2.273,2.292v41.25a2.282,2.282,0,0,1-2.273,2.292h-25a2.282,2.282,0,0,1-2.273-2.292V64.958a2.273,2.273,0,1,0-4.545,0v9.167A6.847,6.847,0,0,0,44.818,81h25a6.847,6.847,0,0,0,6.818-6.875Z" transform="translate(1581.364 25)" fill="#3b3f45"/>
    </g>
  </g>
</svg>
