<svg xmlns="http://www.w3.org/2000/svg" width="50" height="45.862" viewBox="0 0 50 45.862">
  <g id="binoculars" transform="translate(-357.996 -1988)">
    <path id="Path_3389" data-name="Path 3389" d="M31.718,73.825H43.705a5.478,5.478,0,0,0,4.1-1.2,4.031,4.031,0,0,0,1.1-2.968V61.327a1.1,1.1,0,0,0,0-.2,1.041,1.041,0,0,0,0-.177l-.344-1.708h4.853l-.344,1.708a1.041,1.041,0,0,0,0,.177,1.1,1.1,0,0,0,0,.2v8.332a4.031,4.031,0,0,0,1.1,2.968c1.239,1.2,2.958,1.2,4.614,1.2H70.784a5.478,5.478,0,0,0,4.1-1.2,4.03,4.03,0,0,0,1.1-2.968V61.327a1.1,1.1,0,0,0,0-.2,1.042,1.042,0,0,0,0-.177L71.825,38.227V32.166A4.166,4.166,0,0,0,67.659,28H61.41a4.166,4.166,0,0,0-4.166,4.166v6.061l-.417,2.27H53.079V36.332a2.083,2.083,0,1,0-4.166,0V40.5H45.163l-.417-2.27V32.166A4.166,4.166,0,0,0,40.581,28H34.332a4.166,4.166,0,0,0-4.166,4.166v6.061L26,60.952a1.041,1.041,0,0,0,0,.177,1.1,1.1,0,0,0,0,.2v8.332a4.031,4.031,0,0,0,1.1,2.968C28.344,73.825,30.062,73.825,31.718,73.825Zm13.029-4.166a14.256,14.256,0,0,1-1.521,0H31.687a14.184,14.184,0,0,1-1.521,0V63.41H44.747ZM33.988,40.5h6.936L44.33,59.244H30.583Zm37.42,18.747H57.661L61.067,40.5H68Zm.417,10.415a14.256,14.256,0,0,1-1.521,0H58.765a14.256,14.256,0,0,1-1.521,0V63.41H71.825ZM61.41,32.166h6.249v4.166H61.41Zm-5.332,12.5-1.9,10.415H47.809l-1.9-10.415Zm-21.746-12.5h6.249v4.166H34.332Z" transform="translate(332 1960)" fill="#3b3f45"/>
  </g>
</svg>
