<svg xmlns="http://www.w3.org/2000/svg" width="50" height="45.837" viewBox="0 0 50 45.837">
  <path id="bookOpen" d="M74.708,30.219C61.323,24.771,54.125,30.583,51,34.542c-2.844-3.6-9.073-8.75-20.292-5.521a35.561,35.561,0,0,0-3.417,1.2h0a2.521,2.521,0,0,0-.625.417,2.292,2.292,0,0,0-.292.4,2.021,2.021,0,0,0-.219.354,2.167,2.167,0,0,0-.156.781h0V65.5h0a2.375,2.375,0,0,0,.115.615s0,.1,0,.156h0a2.083,2.083,0,0,0,1.969,1.312,1.937,1.937,0,0,0,.844-.2c14.948-6.052,19.885,4.552,20.146,5.146,0,.062.073.115.1.167a2.084,2.084,0,0,0,.292.438,1.489,1.489,0,0,0,.24.208,1.948,1.948,0,0,0,.3.208l.323.146a1.969,1.969,0,0,0,.417.083,1.232,1.232,0,0,0,.5.052,2.675,2.675,0,0,0,.417-.083l.323-.146a1.947,1.947,0,0,0,.3-.208,2.383,2.383,0,0,0,.24-.219,1.75,1.75,0,0,0,.292-.417l.1-.177c.229-.531,5.042-11.281,20.208-5.115A2.083,2.083,0,0,0,76,65.5V32.167a2.083,2.083,0,0,0-1.292-1.948ZM30.167,62.541V33.615c.427-.156.885-.333,1.3-.458s.552-.146.833-.219c.531-.135,1.042-.281,1.562-.375.312-.062.6-.094.906-.135s.865-.135,1.271-.167h2a3.262,3.262,0,0,1,.823.063c.271.063.656.073.969.125l.76.146c.292.063.583.146.865.229l.677.208.771.313.583.271c.24.125.469.25.687.385s.354.187.51.292.427.3.625.448.281.2.406.3.417.365.615.542a2.384,2.384,0,0,1,.26.24c.271.26.51.521.729.771l.188.229.417.521c.073.094.125.188.188.271l.281.406.146.24.2.323a1.572,1.572,0,0,1,.094.187,1.041,1.041,0,0,1,.083.146V65.656C45.448,62.51,39.479,59.666,30.167,62.541Zm41.666,0c-9.312-2.875-15.271,0-18.75,3.125V38.875c.917-1.792,5.885-9.885,18.75-5.292Z" transform="translate(-26 -28)" fill="#3b3f45"/>
</svg>
