<svg xmlns="http://www.w3.org/2000/svg" width="48" height="48.005" viewBox="0 0 48 48.005">
  <g id="building" transform="translate(-371 -2061)">
    <circle id="Ellipse_571" data-name="Ellipse 571" cx="2" cy="2" r="2" transform="translate(393 2071.005)" fill="#3b3f45"/>
    <path id="Path_3396" data-name="Path 3396" d="M28,74H72a2,2,0,0,0,2-2V64a2,2,0,0,0-2-2H68V48h4a2,2,0,0,0,2-2V40a2,2,0,0,0-1-1.76l-22-12a2,2,0,0,0-1.92,0l-22,12A2,2,0,0,0,26,40v6a2,2,0,0,0,2,2h4V62H28a2,2,0,0,0-2,2v8A2,2,0,0,0,28,74ZM64,62H60V48h4ZM52,62V48h4V62Zm-8,0V48h4V62ZM30,41.19,50,30.28,70,41.19V44H30ZM36,48h4V62H36ZM30,66H70v4H30Z" transform="translate(345 2035.005)" fill="#3b3f45"/>
  </g>
</svg>
