<svg xmlns="http://www.w3.org/2000/svg" width="50" height="66.682" viewBox="0 0 50 66.682">
  <g id="bulb" transform="translate(-1676 -1060)">
    <path id="Path_4227" data-name="Path 4227" d="M76.889,66.129A24.722,24.722,0,0,0,82,51,25,25,0,1,0,36.958,65.935a31.458,31.458,0,0,1,5.556,10.681l.764,2.875a2.778,2.778,0,0,0,2.611,2.069H68.111a2.778,2.778,0,0,0,2.681-2.069l.778-2.889a30.292,30.292,0,0,1,5.319-10.472ZM66.194,75.171,65.972,76H59.778V60.49l7.514-7.528a2.778,2.778,0,0,0-3.917-3.931L57,55.407l-6.375-6.375a2.778,2.778,0,0,0-3.917,3.931l7.514,7.528V76H48.028l-.222-.819a36.778,36.778,0,0,0-6.389-12.5,19.444,19.444,0,1,1,31.055.139,36.111,36.111,0,0,0-6.278,12.347Z" transform="translate(1644 1034.011)" fill="#0f203c"/>
    <path id="Path_4228" data-name="Path 4228" d="M65,70H42.778a2.778,2.778,0,1,0,0,5.556H65A2.778,2.778,0,1,0,65,70Z" transform="translate(1647.111 1051.126)" fill="#0f203c"/>
  </g>
</svg>
