<svg xmlns="http://www.w3.org/2000/svg" width="15" height="15" viewBox="0 0 40 40">
  <g id="check-cir" transform="translate(-1374 -651)">
    <path id="Path_4193" data-name="Path 4193" d="M20,0A20,20,0,1,1,0,20,20,20,0,0,1,20,0Z" transform="translate(1374 651)" fill="#3ff257"/>
    <g id="Group_8088" data-name="Group 8088" transform="translate(-237.109 18.89)">
      <path id="Path_3178" data-name="Path 3178" d="M61.88,52.878,51.441,63.4l-4.1-4.125a3.147,3.147,0,0,0-4.3.168,3.22,3.22,0,0,0-.166,4.341l6.336,6.4a3.147,3.147,0,0,0,4.467,0L66.347,57.387a3.22,3.22,0,0,0-.166-4.341,3.147,3.147,0,0,0-4.3-.168Z" transform="translate(1577 591)" fill="#fff"/>
    </g>
  </g>
</svg>
