<svg xmlns="http://www.w3.org/2000/svg" width="50" height="50.002" viewBox="0 0 50 50.002">
  <g id="checkCir" transform="translate(-377 -2447)">
    <path id="Path_3413" d="M75.678,32.669a2.273,2.273,0,0,0-3.2,0L51.349,53.783,43.86,46.306a2.273,2.273,0,0,0-3.2,3.2L49.746,58.6a2.273,2.273,0,0,0,3.2,0L75.678,35.874a2.273,2.273,0,0,0,0-3.2Z" transform="translate(350.651 2419.579)" fill="#3b3f45"/>
    <path id="Path_3414" d="M77.5,47.992a2.273,2.273,0,1,0-4.454.909,20.454,20.454,0,1,1-10.057-13.75,2.285,2.285,0,1,0,2.273-3.966A25,25,0,1,0,78,53a25.5,25.5,0,0,0-.5-5.011Z" transform="translate(349 2419.028)" fill="#3b3f45"/>
  </g>
</svg>
