<svg xmlns="http://www.w3.org/2000/svg" width="15" height="15" viewBox="0 0 15 15">
  <path
    id="close-red"
    d="M7.5 0a7.5 7.5 0 100 15 7.5 7.5 0 000-15zm4.419 3.1a6.25 6.25 0 11-8.84 8.837 6.25 6.25 0 018.84-8.837zm-.641 7.607L8.22 7.65l3.043-3.057a.394.394 0 000-.57.394.394 0 00-.57 0L7.65 7.078 4.593 4.022a.394.394 0 00-.57 0 .394.394 0 000 .57L7.065 7.65l-3.044 3.057a.394.394 0 000 .57c.082.082.19.123.286.123.095 0 .203-.04.285-.122L7.65 8.22l3.057 3.057c.082.081.19.122.285.122.095 0 .204-.04.286-.122a.394.394 0 000-.57z"
    fill="#d9001b"
  />
</svg>
