<svg xmlns="http://www.w3.org/2000/svg" width="50" height="50" viewBox="0 0 50 50">
  <g id="connect2" transform="translate(-1136 -1467)">
    <circle id="Ellipse_570" data-name="Ellipse 570" cx="2.083" cy="2.083" r="2.083" transform="translate(1158.917 1489.917)" fill="#3b3f45"/>
    <path id="Path_3374" data-name="Path 3374" d="M65.2,39.635a7.156,7.156,0,0,0,3.51.948,7.292,7.292,0,1,0-7.292-7.292,7.156,7.156,0,0,0,.948,3.51,1.885,1.885,0,0,0-.333.229L56.74,42.323a10.333,10.333,0,0,0-11.458,0L39.99,37.031a1.885,1.885,0,0,0-.333-.229,7.156,7.156,0,0,0,.927-3.51,7.292,7.292,0,1,0-7.292,7.292,7.156,7.156,0,0,0,3.51-.948,1.885,1.885,0,0,0,.229.333l5.292,5.292a10.333,10.333,0,0,0,0,11.458L37.031,62.01a1.886,1.886,0,0,0-.229.333,7.156,7.156,0,0,0-3.51-.927,7.292,7.292,0,1,0,7.292,7.292,7.156,7.156,0,0,0-.948-3.51,1.885,1.885,0,0,0,.333-.229l5.292-5.292a10.333,10.333,0,0,0,11.458,0l5.292,5.292a1.886,1.886,0,0,0,.333.229,7.156,7.156,0,0,0-.927,3.51,7.292,7.292,0,1,0,7.292-7.292,7.156,7.156,0,0,0-3.51.948,1.885,1.885,0,0,0-.229-.333L59.677,56.74a10.333,10.333,0,0,0,0-11.458l5.292-5.292A1.885,1.885,0,0,0,65.2,39.635ZM33.292,36.417a3.125,3.125,0,1,1,3.125-3.125A3.125,3.125,0,0,1,33.292,36.417Zm0,35.417a3.125,3.125,0,1,1,3.125-3.125A3.125,3.125,0,0,1,33.292,71.833Zm35.417-6.25a3.125,3.125,0,1,1-3.125,3.125A3.125,3.125,0,0,1,68.708,65.583ZM44.75,51A6.25,6.25,0,1,1,51,57.25,6.25,6.25,0,0,1,44.75,51ZM68.708,30.167a3.125,3.125,0,1,1-3.125,3.125A3.125,3.125,0,0,1,68.708,30.167Z" transform="translate(1110 1441)" fill="#3b3f45"/>
  </g>
</svg>
