<svg xmlns="http://www.w3.org/2000/svg" width="50" height="57.192" viewBox="0 0 50 57.192">
  <path id="connect" d="M36.143,64.431a9.524,9.524,0,1,0,11.9,9.19A9.416,9.416,0,0,0,47.5,70.55L63.13,61.621A9.428,9.428,0,0,0,69.475,64.1a9.524,9.524,0,0,0,0-19.047,9.428,9.428,0,0,0-6.345,2.476L47.5,38.6a9.416,9.416,0,0,0,.548-3.071,9.524,9.524,0,1,0-11.9,9.2,3.046,3.046,0,0,0,0,.321Zm8.726-21.857L60.5,51.5a8.893,8.893,0,0,0,0,6.143L44.869,66.574A9.524,9.524,0,0,0,40.9,64.431V45.05a3.048,3.048,0,0,0,0-.321,9.369,9.369,0,0,0,3.964-2.155ZM38.524,78.383a4.762,4.762,0,1,1,4.762-4.762A4.762,4.762,0,0,1,38.524,78.383ZM69.475,49.812a4.762,4.762,0,1,1-4.762,4.762A4.762,4.762,0,0,1,69.475,49.812ZM33.762,35.527a4.762,4.762,0,1,1,4.762,4.762A4.762,4.762,0,0,1,33.762,35.527Z" transform="translate(-28.999 -25.984)" fill="#3b3f45"/>
</svg>
