<svg xmlns="http://www.w3.org/2000/svg" width="50" height="50" viewBox="0 0 50 50">
  <g id="contact" transform="translate(-1191 -1478)">
    <path id="Path_3380" data-name="Path 3380" d="M71.833,26H38.5a8.333,8.333,0,0,0-8.333,8.333v2.083H28.083a2.083,2.083,0,1,0,0,4.167h2.083v8.333H28.083a2.083,2.083,0,1,0,0,4.167h2.083v8.333H28.083a2.083,2.083,0,1,0,0,4.167h2.083v2.083A8.333,8.333,0,0,0,38.5,76H71.833A4.167,4.167,0,0,0,76,71.833V30.167A4.167,4.167,0,0,0,71.833,26Zm0,45.833H38.5a4.167,4.167,0,0,1-4.167-4.167V65.583h2.083a2.083,2.083,0,1,0,0-4.167H34.333V53.083h2.083a2.083,2.083,0,0,0,0-4.167H34.333V40.583h2.083a2.083,2.083,0,0,0,0-4.167H34.333V34.333A4.167,4.167,0,0,1,38.5,30.167H71.833Z" transform="translate(1165 1452)" fill="#3b3f45"/>
    <path id="Path_3381" data-name="Path 3381" d="M44.083,65.168a2.083,2.083,0,0,0,2.083-2.083V61a8.333,8.333,0,0,1,16.667,0v2.083a2.083,2.083,0,1,0,4.167,0V61a12.5,12.5,0,0,0-6.468-10.948,8.333,8.333,0,1,0-12.063,0A12.5,12.5,0,0,0,42,61v2.083A2.083,2.083,0,0,0,44.083,65.168Zm6.25-20.833A4.167,4.167,0,1,1,54.5,48.5,4.167,4.167,0,0,1,50.333,44.335Z" transform="translate(1165.667 1452.415)" fill="#3b3f45"/>
  </g>
</svg>
