<?xml version="1.0" encoding="utf-8"?>
<svg version="1.1" xmlns:xlink="http://www.w3.org/1999/xlink" width="10px" height="10px" xmlns="http://www.w3.org/2000/svg">
  <g>
    <path d="M 9.83695681198779 9.07608788117125  C 9.83695681198779 9.07608788117125  5.76086871934987 5.00000114440927  5.76086871934987 5.00000114440927  C 5.76086871934987 5.00000114440927  9.81884005449828 0.923913263238012  9.81884005449828 0.923913263238012  C 10.0362319891003 0.706521660348637  10.0362319891003 0.362318829522615  9.81884005449828 0.163043606799592  C 9.6014496457749 -0.0543479960897831  9.25724651226097 -0.0543479960897831  9.05797133514842 0.163043606799592  C 9.05797133514842 0.163043606799592  4.99999923706066 4.23913148797085  4.99999923706066 4.23913148797085  C 4.99999923706066 4.23913148797085  0.923913433240749 0.163043606799592  0.923913433240749 0.163043606799592  C 0.706521880108355 -0.0543479960897831  0.362319128064097 -0.0543479960897831  0.163043569481878 0.163043606799592  C -0.0543476021808475 0.38043482821921  -0.0543476021808475 0.724637659045231  0.163043569481878 0.923913263238012  C 0.163043569481878 0.923913263238012  4.22101452316063 5.00000114440927  4.22101452316063 5.00000114440927  C 4.22101452316063 5.00000114440927  0.163043950951546 9.07608788117125  0.163043950951546 9.07608788117125  C -0.0543472207111778 9.29347833965136  -0.0543472207111778 9.63768155194714  0.163043950951546 9.83695677467016  C 0.271739918252575 9.94565276684973  0.416667111714613 10  0.543479073565815 10  C 0.67029065394735 10  0.815217847409387 9.94565276684973  0.923913814710416 9.83695677467016  C 0.923913814710416 9.83695677467016  5 5.76087003790818  5 5.76087003790818  C 5 5.76087003790818  9.07608656675925 9.83695677467016  9.07608656675925 9.83695677467016  C 9.18478253406028 9.94565276684973  9.32971049046166 10  9.45652168937352 10  C 9.58333288828539 10  9.72826084468676 9.94565276684973  9.83695681198779 9.83695677467016  C 10.0543472207112 9.61956631619006  10.0543472207112 9.27536310389428  9.83695681198779 9.07608788117125  Z " fill-rule="nonzero" fill="#3b3f45" stroke="none" />
  </g>
</svg>