<svg xmlns="http://www.w3.org/2000/svg" width="50" height="50" viewBox="0 0 50 50">
  <g id="disk" transform="translate(-1403 -1081)">
    <g id="Group_8091" data-name="Group 8091" transform="translate(1403 1081)">
      <path id="Path_4195" data-name="Path 4195" d="M14.375,10A4.407,4.407,0,0,0,10,14.375v41.25A4.407,4.407,0,0,0,14.375,60h41.25A4.407,4.407,0,0,0,60,55.625V21.875a1.875,1.875,0,0,0-.547-1.328l-10-10A1.875,1.875,0,0,0,48.125,10Zm0,3.75h5V29.375A1.875,1.875,0,0,0,21.25,31.25h25a1.875,1.875,0,0,0,1.875-1.875V14.531l8.125,8.125V55.625a.587.587,0,0,1-.625.625H14.375a.587.587,0,0,1-.625-.625V14.375A.587.587,0,0,1,14.375,13.75Zm8.75,0h21.25V27.5H23.125ZM35,35.625a8.125,8.125,0,1,0,8.125,8.125A8.154,8.154,0,0,0,35,35.625Zm0,3.75a4.375,4.375,0,1,1-4.375,4.375A4.347,4.347,0,0,1,35,39.375Z" transform="translate(-10 -10)" fill="#0f203c"/>
    </g>
  </g>
</svg>
