<svg xmlns="http://www.w3.org/2000/svg" width="39.063" height="50" viewBox="0 0 39.063 50">
  <g id="doc" transform="translate(-532 -1036)">
    <g id="Group_7329" data-name="Group 7329" transform="translate(532 1036)">
      <g id="Group_7328" data-name="Group 7328">
        <g id="Group_7324" data-name="Group 7324" transform="translate(17.986 21.834)">
          <path id="Path_4111" data-name="Path 4111" d="M32.31,34.279c1.437,0,2.259-1.366,2.259-3.194,0-1.687-.809-3.138-2.273-3.138-1.437,0-2.273,1.366-2.273,3.194S30.888,34.279,32.31,34.279Z" transform="translate(-30.022 -27.948)" fill="#0f203c"/>
        </g>
        <g id="Group_7326" data-name="Group 7326">
          <g id="Group_7325" data-name="Group 7325">
            <path id="Path_4112" data-name="Path 4112" d="M12.765,50H40.3a5.765,5.765,0,0,0,5.765-5.765V5.765A5.765,5.765,0,0,0,40.3,0H12.765A5.765,5.765,0,0,0,7,5.765v38.47A5.765,5.765,0,0,0,12.765,50ZM37.738,20.147a5.544,5.544,0,0,1,2.316.419l-.433,1.688a4.573,4.573,0,0,0-1.785-.348,2.827,2.827,0,0,0-3,3.109,2.807,2.807,0,0,0,3.013,3.068,5.308,5.308,0,0,0,1.77-.307l.321,1.659a6.06,6.06,0,0,1-2.413.4c-3.248,0-4.923-2.023-4.923-4.7A4.792,4.792,0,0,1,37.738,20.147Zm-10.422,0c2.887,0,4.463,2.162,4.463,4.755,0,3.082-1.869,4.951-4.616,4.951-2.789,0-4.42-2.105-4.42-4.784C22.741,22.253,24.54,20.147,27.316,20.147ZM13.6,20.426a18.927,18.927,0,0,1,2.873-.2,6.043,6.043,0,0,1,3.848,1,4.156,4.156,0,0,1,1.59,3.541,4.769,4.769,0,0,1-1.562,3.808A6.75,6.75,0,0,1,16.013,29.8a18.26,18.26,0,0,1-2.412-.14V20.426Z" transform="translate(-7)" fill="#0f203c"/>
          </g>
        </g>
        <g id="Group_7327" data-name="Group 7327" transform="translate(8.735 21.862)">
          <path id="Path_4113" data-name="Path 4113" d="M22.1,30.967a2.7,2.7,0,0,0-2.957-2.984,4.431,4.431,0,0,0-.962.084v6.15a3.87,3.87,0,0,0,.739.042C20.844,34.273,22.1,33.213,22.1,30.967Z" transform="translate(-18.181 -27.983)" fill="#0f203c"/>
        </g>
      </g>
    </g>
  </g>
</svg>
