<svg xmlns="http://www.w3.org/2000/svg" width="50" height="50" viewBox="0 0 50 50">
  <g id="External_Link" data-name="External Link" transform="translate(14002.393 4148)">
    <g id="Group_8490" data-name="Group 8490" transform="translate(-14002.393 -4148)">
      <g id="Group_8485" data-name="Group 8485" transform="translate(29.597 0.012)">
        <g id="Group_8484" data-name="Group 8484">
          <path id="Path_4236" data-name="Path 4236" d="M593.585,85.438h15.759l-2.318-2.319V98.881a2.318,2.318,0,1,0,4.637,0V83.119a2.352,2.352,0,0,0-2.318-2.319H593.585a2.319,2.319,0,0,0,0,4.638Z" transform="translate(-591.264 -80.8)"/>
        </g>
      </g>
      <g id="Group_8487" data-name="Group 8487" transform="translate(19.218 0.015)">
        <g id="Group_8486" data-name="Group 8486">
          <path id="Path_4237" data-name="Path 4237" d="M416.132,110.971l2.6-2.6,6.248-6.249,7.558-7.559,6.532-6.533c1.061-1.061,2.133-2.1,3.176-3.177l.046-.046a2.32,2.32,0,1,0-3.28-3.281l-2.6,2.6-6.248,6.249q-3.782,3.783-7.558,7.565l-6.532,6.533c-1.061,1.061-2.133,2.1-3.176,3.177l-.046.046a2.318,2.318,0,1,0,3.28,3.275Z" transform="translate(-412.184 -80.859)"/>
        </g>
      </g>
      <g id="Group_8489" data-name="Group 8489" transform="translate(0 0)">
        <g id="Group_8488" data-name="Group 8488">
          <path id="Path_4238" data-name="Path 4238" d="M125.971,109.133v13.478a16.53,16.53,0,0,1-.041,2.209c.029-.2.058-.412.081-.614a4.413,4.413,0,0,1-.267.974c.075-.186.156-.371.232-.557a4.435,4.435,0,0,1-.533.922l.365-.47a4.562,4.562,0,0,1-.748.748l.469-.365a4.289,4.289,0,0,1-.922.533c.185-.075.371-.157.556-.232a4.326,4.326,0,0,1-.974.267c.2-.029.411-.058.614-.081a10.97,10.97,0,0,1-1.449.041H91.4c-1.472,0-2.944.012-4.411,0a4.052,4.052,0,0,1-.591-.041c.2.029.412.058.614.081a4.411,4.411,0,0,1-.974-.267c.185.075.371.157.556.232a4.434,4.434,0,0,1-.922-.533l.469.365a4.562,4.562,0,0,1-.748-.748l.365.47a4.29,4.29,0,0,1-.533-.922c.075.186.156.371.232.557a4.328,4.328,0,0,1-.267-.974c.029.2.058.412.081.614a10.978,10.978,0,0,1-.041-1.449V91.406c0-1.472-.012-2.945,0-4.412a4.055,4.055,0,0,1,.041-.591c-.029.2-.058.412-.081.614a4.413,4.413,0,0,1,.267-.974c-.075.186-.156.371-.232.557a4.434,4.434,0,0,1,.533-.922l-.365.47a4.562,4.562,0,0,1,.748-.748l-.469.365a4.289,4.289,0,0,1,.922-.533c-.185.075-.371.157-.556.232a4.325,4.325,0,0,1,.974-.267c-.2.029-.411.058-.614.081a14.331,14.331,0,0,1,1.866-.041H102.08a2.319,2.319,0,0,0,0-4.638h-14.9a6.368,6.368,0,0,0-6.567,6.452v35.177a19.934,19.934,0,0,0,.133,3.275,6.14,6.14,0,0,0,1.785,3.287A6.069,6.069,0,0,0,84.09,129.9a7.059,7.059,0,0,0,2.394.667,9.32,9.32,0,0,0,.985.029h36.7a6.429,6.429,0,0,0,4.677-1.971,6.171,6.171,0,0,0,1.078-1.536,7.163,7.163,0,0,0,.655-2.359,6.453,6.453,0,0,0,.029-.748V109.127a2.318,2.318,0,1,0-4.637.006Z" transform="translate(-80.607 -80.6)"/>
        </g>
      </g>
    </g>
  </g>
</svg>
