<svg xmlns="http://www.w3.org/2000/svg" width="50" height="37.505" viewBox="0 0 50 37.505">
  <g id="eye" transform="translate(-895.004 -1427)">
    <path id="Path_3192" data-name="Path 3192" d="M26.135,51.482c.271.74,6.959,18.023,24.868,18.023S75.6,52.222,75.872,51.482a2.084,2.084,0,0,0,0-1.459C75.6,49.284,68.912,32,51,32s-24.6,17.284-24.868,18.023A2.084,2.084,0,0,0,26.135,51.482ZM51,36.167c13.241,0,19.274,11.46,20.659,14.585C70.277,53.784,64.141,65.338,51,65.338S31.73,53.878,30.344,50.753C31.73,47.721,37.866,36.167,51,36.167Z" transform="translate(869 1395)" fill="#3b3f45"/>
    <path id="Path_3193" data-name="Path 3193" d="M43.77,59.161a9.442,9.442,0,0,0,8.55,2.054,10.3,10.3,0,0,0,7.41-7.957,11.47,11.47,0,0,0-1.92-9.2A9.7,9.7,0,0,0,50,40a2.079,2.079,0,0,0-2,2.151v4.3A2.079,2.079,0,0,1,46,48.6H42a2.079,2.079,0,0,0-2,2.151,11.005,11.005,0,0,0,3.77,8.409ZM46,52.9a6.238,6.238,0,0,0,6-6.452V44.667A6.552,6.552,0,0,1,55.83,52.3a6.148,6.148,0,0,1-4.39,4.72,5.935,5.935,0,0,1-7.1-4.118Z" transform="translate(870.003 1395)" fill="#3b3f45"/>
  </g>
</svg>
