<svg id="filter" xmlns="http://www.w3.org/2000/svg" width="50" height="50" viewBox="0 0 50 50">
  <g id="Group_7162" data-name="Group 7162" transform="translate(0 0)">
    <path id="Path_4102" data-name="Path 4102" d="M125.6,84.851c0,.064-.006.133-.012.2.029-.2.058-.412.081-.615a2.1,2.1,0,0,1-.122.464c.075-.186.156-.371.232-.557a2.6,2.6,0,0,1-.168.307l.365-.47c-.359.452-.712.9-1.071,1.357-.909,1.154-1.818,2.314-2.727,3.468q-1.832,2.331-3.671,4.662l-3.879,4.929-3.4,4.332c-.735.934-1.465,1.867-2.2,2.8-.139.18-.284.36-.423.539-.006.006-.012.017-.023.023l-.365.47a2.187,2.187,0,0,0-.272.864c-.232,1.734-.035.2-.041.313v.029c-.006.122,0,.238,0,.36v14.532a2.666,2.666,0,0,1-.023.429c.029-.2.058-.412.081-.615a2.023,2.023,0,0,1-.116.406c.075-.186.156-.371.232-.557a2.232,2.232,0,0,1-.208.36l.365-.47a1.993,1.993,0,0,1-.289.3l.469-.365a8.367,8.367,0,0,1-.863.5c-.5.29-1.007.586-1.511.876-1.227.707-2.449,1.421-3.677,2.128-.29.168-.573.348-.868.493.185-.075.371-.157.556-.232a2.074,2.074,0,0,1-.492.139c.2-.029.411-.058.614-.081a2.357,2.357,0,0,1-.452-.006c.2.029.411.058.614.081a1.665,1.665,0,0,1-.44-.128c.185.075.371.157.556.232a1.817,1.817,0,0,1-.382-.232l.469.365a2.271,2.271,0,0,1-.266-.261l.365.47a1.981,1.981,0,0,1-.232-.383c.075.186.156.371.232.557a2.389,2.389,0,0,1-.127-.441c.029.2.058.412.081.615a8.69,8.69,0,0,1-.017-.951V111.364c0-1.131.029-2.267,0-3.4a2.567,2.567,0,0,0-.2-.934,3.311,3.311,0,0,0-.5-.771c-.052-.064-.1-.133-.156-.2-.255-.325-.515-.649-.77-.98-.978-1.241-1.951-2.482-2.93-3.723Q96,98.8,93.994,96.252,91.9,93.6,89.814,90.94q-1.728-2.192-3.451-4.39l-1.789-2.279c-.029-.035-.052-.07-.081-.1l.365.47a2.684,2.684,0,0,1-.168-.307c.075.186.156.371.232.557a2.1,2.1,0,0,1-.122-.464c.029.2.058.412.081.615a2.184,2.184,0,0,1,.006-.435c-.029.2-.058.412-.081.615a1.672,1.672,0,0,1,.127-.441c-.075.186-.156.371-.232.557a1.981,1.981,0,0,1,.232-.383l-.365.47a1.848,1.848,0,0,1,.261-.261l-.469.365a1.977,1.977,0,0,1,.382-.232c-.185.075-.371.157-.556.232a2.381,2.381,0,0,1,.44-.128c-.2.029-.411.058-.614.081a11.029,11.029,0,0,1,1.314-.017h39.238c.533,0,1.065-.006,1.6,0a2.52,2.52,0,0,1,.3.017c-.2-.029-.411-.058-.614-.081a1.666,1.666,0,0,1,.44.128c-.185-.075-.371-.157-.556-.232a1.977,1.977,0,0,1,.382.232l-.469-.365a2.215,2.215,0,0,1,.261.261l-.365-.47a1.982,1.982,0,0,1,.232.383c-.075-.186-.156-.371-.232-.557a2.389,2.389,0,0,1,.127.441c-.029-.2-.058-.412-.081-.615a2.009,2.009,0,0,1,.017.249,2.411,2.411,0,0,0,.677,1.641,2.317,2.317,0,0,0,3.954-1.641,4.075,4.075,0,0,0-4.018-4.019H87.764c-1.17,0-2.339-.023-3.5,0a3.929,3.929,0,0,0-2.235.69,4.184,4.184,0,0,0-1.262,1.345,4.24,4.24,0,0,0-.521,1.908,4.036,4.036,0,0,0,.984,2.7c.023.035.052.064.075.1l1.239,1.572Q85.26,92.6,87.984,96.06l6.473,8.223q1.989,2.523,3.972,5.051l.191.244c-.226-.545-.452-1.1-.677-1.641v18.841a4.141,4.141,0,0,0,1.152,2.836,4.017,4.017,0,0,0,4.093,1.009,5.477,5.477,0,0,0,.984-.464l4.823-2.8c.44-.255.874-.528,1.32-.765a4.13,4.13,0,0,0,2.218-3.758V107.931c-.226.545-.452,1.1-.677,1.641.6-.771,1.21-1.537,1.812-2.308q2.145-2.723,4.29-5.451,2.579-3.279,5.159-6.553,2.154-2.74,4.313-5.48c.608-.771,1.222-1.543,1.824-2.32a4.111,4.111,0,0,0,.533-.777,4.409,4.409,0,0,0,.452-1.832,2.34,2.34,0,0,0-2.316-2.32A2.364,2.364,0,0,0,125.6,84.851Z" transform="translate(-80.239 -80.822)" fill="#0f203c"/>
  </g>
</svg>
