<svg xmlns="http://www.w3.org/2000/svg" width="50" height="50" viewBox="0 0 50 50">
  <g id="flag" transform="translate(-2028 -1084)">
    <path id="Path_4230" data-name="Path 4230" d="M27,73.929a2.13,2.13,0,0,0,2.174,2.084H50.913a2.13,2.13,0,0,0,2.174-2.084V69.761a8.521,8.521,0,0,0-8.7-8.336H42.217v-7a16.943,16.943,0,0,1,13.772.3l.478.229.467.219a21.453,21.453,0,0,0,18.391,0,1.18,1.18,0,0,0,.185-.135A2.1,2.1,0,0,0,77,53.09V30.167a2.066,2.066,0,0,0-1.029-1.77,2.256,2.256,0,0,0-2.112-.095l-.478.219a16.937,16.937,0,0,1-14.5,0L58.4,28.3l-.467-.219a21.453,21.453,0,0,0-18.391,0l-.467.229a2.177,2.177,0,0,0-.543.365l-.087.1a1.892,1.892,0,0,0-.337.49,1.33,1.33,0,0,0-.087.177,2.009,2.009,0,0,0-.152.719V61.425H35.7A8.521,8.521,0,0,0,27,69.761ZM55.989,31.8l.478.229.467.219a21.466,21.466,0,0,0,15.717,1.042V51.746a16.875,16.875,0,0,1-13.772-.3l-.478-.219-.467-.219a21.467,21.467,0,0,0-15.717-1.042V31.47a16.943,16.943,0,0,1,13.772.333ZM31.348,69.761A4.261,4.261,0,0,1,35.7,65.593h8.7a4.261,4.261,0,0,1,4.348,4.168v2.084H31.348Z" transform="translate(2001 1057.987)" fill="#0f203c"/>
  </g>
</svg>
