<svg xmlns="http://www.w3.org/2000/svg" width="50" height="45.833" viewBox="0 0 50 45.833">
  <path id="folder" d="M32.25,73.833h37.5A6.25,6.25,0,0,0,76,67.583V38.417a6.25,6.25,0,0,0-6.25-6.25H48.125l-1.51-3.01a1.469,1.469,0,0,0-.187-.24,2.6,2.6,0,0,0-.948-.771,2.083,2.083,0,0,0-.438-.083A1.458,1.458,0,0,0,44.75,28H32.25A6.25,6.25,0,0,0,26,34.25V67.583A6.25,6.25,0,0,0,32.25,73.833Zm37.5-37.5a2.083,2.083,0,0,1,2.083,2.083V40.5H52.292l-2.083-4.167ZM30.167,34.25a2.083,2.083,0,0,1,2.083-2.083H43.458L49.135,43.51a2.146,2.146,0,0,0,.375.521l.094.073a1.854,1.854,0,0,0,.5.344l.177.073a2.083,2.083,0,0,0,.719.146H71.833V67.583a2.083,2.083,0,0,1-2.083,2.083H32.25a2.083,2.083,0,0,1-2.083-2.083Z" transform="translate(-26 -28)" fill="#3b3f45"/>
</svg>
