<svg xmlns="http://www.w3.org/2000/svg" width="50" height="50" viewBox="0 0 50 50">
  <g id="grid" transform="translate(-561 -468)">
    <g id="nav-quick-apps" transform="translate(-583 221)">
      <g id="Group_3561" data-name="Group 3561" transform="translate(413 -545)">
        <path id="Path_396" data-name="Path 396" d="M36.417,26H28.083A2.083,2.083,0,0,0,26,28.083v8.333A2.083,2.083,0,0,0,28.083,38.5h8.333A2.083,2.083,0,0,0,38.5,36.417V28.083A2.083,2.083,0,0,0,36.417,26Zm-2.083,8.333H30.167V30.167h4.167Z" transform="translate(705 766)" fill="#3b3f45"/>
        <path id="Path_397" data-name="Path 397" d="M46.083,38.5h8.333A2.083,2.083,0,0,0,56.5,36.417V28.083A2.083,2.083,0,0,0,54.417,26H46.083A2.083,2.083,0,0,0,44,28.083v8.333A2.083,2.083,0,0,0,46.083,38.5Zm2.083-8.333h4.167v4.167H48.167Z" transform="translate(705.75 766)" fill="#3b3f45"/>
        <path id="Path_398" data-name="Path 398" d="M72.417,26H64.083A2.083,2.083,0,0,0,62,28.083v8.333A2.083,2.083,0,0,0,64.083,38.5h8.333A2.083,2.083,0,0,0,74.5,36.417V28.083A2.083,2.083,0,0,0,72.417,26Zm-2.083,8.333H66.167V30.167h4.167Z" transform="translate(706.5 766)" fill="#3b3f45"/>
        <path id="Path_399" data-name="Path 399" d="M28.083,56.5h8.333A2.083,2.083,0,0,0,38.5,54.417V46.083A2.083,2.083,0,0,0,36.417,44H28.083A2.083,2.083,0,0,0,26,46.083v8.333A2.083,2.083,0,0,0,28.083,56.5Zm2.083-8.333h4.167v4.167H30.167Z" transform="translate(705 766.75)" fill="#3b3f45"/>
        <path id="Path_400" data-name="Path 400" d="M44,54.417A2.083,2.083,0,0,0,46.083,56.5h8.333A2.083,2.083,0,0,0,56.5,54.417V46.083A2.083,2.083,0,0,0,54.417,44H46.083A2.083,2.083,0,0,0,44,46.083Zm4.167-6.25h4.167v4.167H48.167Z" transform="translate(705.75 766.75)" fill="#3b3f45"/>
        <path id="Path_401" data-name="Path 401" d="M72.417,44H64.083A2.083,2.083,0,0,0,62,46.083v8.333A2.083,2.083,0,0,0,64.083,56.5h8.333A2.083,2.083,0,0,0,74.5,54.417V46.083A2.083,2.083,0,0,0,72.417,44Zm-2.083,8.333H66.167V48.167h4.167Z" transform="translate(706.5 766.75)" fill="#3b3f45"/>
        <path id="Path_402" data-name="Path 402" d="M26,72.417A2.083,2.083,0,0,0,28.083,74.5h8.333A2.083,2.083,0,0,0,38.5,72.417V64.083A2.083,2.083,0,0,0,36.417,62H28.083A2.083,2.083,0,0,0,26,64.083Zm4.167-6.25h4.167v4.167H30.167Z" transform="translate(705 767.5)" fill="#3b3f45"/>
        <path id="Path_403" data-name="Path 403" d="M44,72.417A2.083,2.083,0,0,0,46.083,74.5h8.333A2.083,2.083,0,0,0,56.5,72.417V64.083A2.083,2.083,0,0,0,54.417,62H46.083A2.083,2.083,0,0,0,44,64.083Zm4.167-6.25h4.167v4.167H48.167Z" transform="translate(705.75 767.5)" fill="#3b3f45"/>
        <path id="Path_404" data-name="Path 404" d="M72.417,62H64.083A2.083,2.083,0,0,0,62,64.083v8.333A2.083,2.083,0,0,0,64.083,74.5h8.333A2.083,2.083,0,0,0,74.5,72.417V64.083A2.083,2.083,0,0,0,72.417,62Zm-2.083,8.333H66.167V66.167h4.167Z" transform="translate(706.5 767.5)" fill="#3b3f45"/>
      </g>
    </g>
  </g>
</svg>
