<svg xmlns="http://www.w3.org/2000/svg" width="44.257" height="42.29" viewBox="0 0 44.257 42.29">
  <g id="Group_7612" data-name="Group 7612" transform="translate(0 0)">
    <path id="Path_4184" data-name="Path 4184" d="M76.767,52.019l-1.194.856a1.04,1.04,0,0,0,1.22,1.685l1.194-.856a1.04,1.04,0,1,0-1.22-1.685Z" transform="translate(-40.649 -29.781)" fill="#98a0ac"/>
    <path id="Path_4185" data-name="Path 4185" d="M45.441,20.265h-.023l-11.276.009L30.765,9.655a3.815,3.815,0,0,0-7.269,0L20.12,20.274H9.712l-.7-.009a3.792,3.792,0,0,0-3.3,1.59A3.779,3.779,0,0,0,6.6,27.138l9.162,6.523L12.2,44.3a3.732,3.732,0,0,0,.554,3.458,3.819,3.819,0,0,0,5.321.79l9.06-6.66,9.055,6.656A3.8,3.8,0,0,0,42.067,44.3L38.258,32.93l-.006-.013L34.813,22.349h9.646l.974-.009h.01a1.71,1.71,0,0,1,1,3.106l-2.542,1.806,1.212,1.691,2.538-1.806a3.782,3.782,0,0,0-2.214-6.872ZM39.009,47.127a1.753,1.753,0,0,1-1.582-.254L27.75,39.758a1.049,1.049,0,0,0-1.239,0l-9.683,7.119a1.678,1.678,0,0,1-1.274.316,1.714,1.714,0,0,1-1.135-.681,1.672,1.672,0,0,1-.245-1.553l3.811-11.366a1.037,1.037,0,0,0-.383-1.175L7.81,25.446a1.705,1.705,0,0,1-.4-2.387,1.757,1.757,0,0,1,1.539-.718l8.606.006.025,0h8.836a1.038,1.038,0,1,0,0-2.076h-4.1l3.177-9.992a1.726,1.726,0,0,1,3.29,0l3.608,11.341s0,.005,0,.008l3.888,11.95,0,0a.014.014,0,0,1,0,.006l3.809,11.364A1.717,1.717,0,0,1,39.009,47.127Z" transform="translate(-5 -7)" fill="#98a0ac"/>
    <path id="Path_4186" data-name="Path 4186" d="M43.894,44.121a5.764,5.764,0,0,0-2.1.4,1.039,1.039,0,1,0,.771,1.931,3.633,3.633,0,0,1,1.326-.258,3.543,3.543,0,1,1-3.555,3.545,3.8,3.8,0,0,1,.036-.5,1.043,1.043,0,0,0-2.067-.279,5.733,5.733,0,0,0-.056.78,5.646,5.646,0,1,0,5.642-5.622Z" transform="translate(-21.9 -25.867)" fill="#98a0ac"/>
  </g>
</svg>
