<?xml version="1.0" encoding="utf-8"?>
<svg version="1.1" xmlns:xlink="http://www.w3.org/1999/xlink" width="4px" height="6px" xmlns="http://www.w3.org/2000/svg">
  <g transform="matrix(1 0 0 1 -1604 -33 )">
    <path d="M 0.130931134322417 0.715055640025662  C 0.233587666193738 0.829118436499142  2.93777458212159 3.0082793420197  2.93777458212159 3.0082793420197  C 2.74015035277048 3.15429312482505  0.304154602707891 5.00991767807635  0.0885526673386094 5.30720037023923  C -0.12705033800484 5.60448306240211  0.0877501867104928 5.9309088187478  0.340718830047443 5.98341064579692  C 0.593688543358563 6.03591247284603  0.859416628682584 5.96164306933265  1.02865658323008 5.79113710089591  C 1.02865658323008 5.79113710089591  3.79862872110267 3.40124745168705  3.79862872110267 3.40124745168705  C 4.06712375963244 3.16821188597016  4.06712375963244 2.791846863415  3.79862872110267 2.55881221322539  C 3.79862872110267 2.55881221322539  1.02865658323008 0.168921648489255  1.02865658323008 0.168921648489255  C 0.753901125826823 -0.0340864536982381  0.375819332721307 -0.0684196419967916  0.157412995050299 0.144740742130986  C -0.0609922726465383 0.357902041786038  0.028273532476926 0.600992843552182  0.130931134322417 0.715055640025662  Z " fill-rule="nonzero" fill="#3469c7" stroke="none" transform="matrix(1 0 0 1 1604 33 )" />
  </g>
</svg>