<svg xmlns="http://www.w3.org/2000/svg" width="50" height="45.449" viewBox="0 0 50 45.449">
  <g id="heart" transform="translate(-1461.999 -945)">
    <path id="Path_4095" data-name="Path 4095" d="M48.738,72.4l2.739,2.466a2.273,2.273,0,0,0,3.045,0L57.4,72.271C68.453,62.283,78,53.67,78,44.772A14.613,14.613,0,0,0,63.226,30C57.885,30,55.113,32.841,53,35.466,50.886,32.841,48.113,30,42.772,30A14.613,14.613,0,0,0,28,44.772C28,53.7,37.613,62.363,48.738,72.4ZM42.772,34.545c3.716,0,5.307,2.023,7.329,4.545.386.489.773.977,1.136,1.443a2.341,2.341,0,0,0,3.409,0c.4-.466.784-.955,1.136-1.443,2.023-2.557,3.614-4.545,7.329-4.545A10.113,10.113,0,0,1,73.34,44.772c0,6.818-9.284,15.249-19.1,24.124L53,70.112l-1.216-1.136c-9.9-8.875-19.238-17.295-19.238-24.2A10.113,10.113,0,0,1,42.772,34.545Z" transform="translate(1434 915.001)" fill="#0f203c"/>
  </g>
</svg>
