<?xml version="1.0" encoding="utf-8"?>
<svg version="1.1" xmlns:xlink="http://www.w3.org/1999/xlink" width="21px" height="18px" xmlns="http://www.w3.org/2000/svg">
  <g transform="matrix(1 0 0 1 -30 -156 )">
    <path d="M 12.44140625 16.1049107142857  C 12.60546875 15.984375  12.6875 15.8125  12.6875 15.5892857142857  L 12.6875 14.8392857142857  L 12.6875 8.57142857142857  L 12.6875 6  L 8.3125 6  L 8.3125 8.57142857142857  L 8.3125 14.8392857142857  L 8.3125 15.5892857142857  C 8.3125 15.8125  8.39453125 15.984375  8.55859375 16.1049107142857  C 8.72265625 16.2254464285714  8.93229166666667 16.2857142857143  9.1875 16.2857142857143  L 11.8125 16.2857142857143  C 12.0677083333333 16.2857142857143  12.27734375 16.2254464285714  12.44140625 16.1049107142857  Z M 5.5234375 3.91071428571429  C 5.77864583333333 4.16071428571428  6.08854166666667 4.28571428571429  6.453125 4.28571428571429  L 9.119140625 4.28571428571429  L 7.396484375 2.12946428571429  C 7.15950520833333 1.85267857142857  6.84505208333333 1.71428571428571  6.453125 1.71428571428571  C 6.08854166666667 1.71428571428571  5.77864583333333 1.83928571428571  5.5234375 2.08928571428571  C 5.26822916666667 2.33928571428571  5.140625 2.64285714285714  5.140625 3  C 5.140625 3.35714285714286  5.26822916666667 3.66071428571428  5.5234375 3.91071428571429  Z M 15.4765625 3.91071428571429  C 15.7317708333333 3.66071428571428  15.859375 3.35714285714286  15.859375 3  C 15.859375 2.64285714285714  15.7317708333333 2.33928571428571  15.4765625 2.08928571428571  C 15.2213541666667 1.83928571428571  14.9114583333333 1.71428571428571  14.546875 1.71428571428571  C 14.1549479166667 1.71428571428571  13.8404947916667 1.85267857142857  13.603515625 2.12946428571429  L 11.89453125 4.28571428571429  L 14.546875 4.28571428571429  C 14.9114583333333 4.28571428571429  15.2213541666667 4.16071428571428  15.4765625 3.91071428571429  Z M 20.876953125 6.12053571428571  C 20.958984375 6.20089285714286  21 6.30357142857143  21 6.42857142857143  L 21 10.7142857142857  C 21 10.8392857142857  20.958984375 10.9419642857143  20.876953125 11.0223214285714  C 20.794921875 11.1026785714286  20.6901041666667 11.1428571428571  20.5625 11.1428571428571  L 19.25 11.1428571428571  L 19.25 16.7142857142857  C 19.25 17.0714285714286  19.1223958333333 17.375  18.8671875 17.625  C 18.6119791666667 17.875  18.3020833333333 18  17.9375 18  L 3.0625 18  C 2.69791666666667 18  2.38802083333333 17.875  2.1328125 17.625  C 1.87760416666667 17.375  1.75 17.0714285714286  1.75 16.7142857142857  L 1.75 11.1428571428571  L 0.4375 11.1428571428571  C 0.309895833333333 11.1428571428571  0.205078125 11.1026785714286  0.123046875 11.0223214285714  C 0.041015625 10.9419642857143  0 10.8392857142857  0 10.7142857142857  L 0 6.42857142857143  C 0 6.30357142857143  0.041015625 6.20089285714286  0.123046875 6.12053571428571  C 0.205078125 6.04017857142857  0.309895833333333 6  0.4375 6  L 6.453125 6  C 5.60546875 6  4.88313802083333 5.70758928571428  4.2861328125 5.12276785714286  C 3.68912760416667 4.53794642857143  3.390625 3.83035714285714  3.390625 3  C 3.390625 2.16964285714286  3.68912760416667 1.46205357142857  4.2861328125 0.877232142857143  C 4.88313802083333 0.292410714285714  5.60546875 0  6.453125 0  C 7.42838541666667 0  8.19401041666667 0.343749999999998  8.75 1.03125  L 10.5 3.24107142857143  L 12.25 1.03125  C 12.8059895833333 0.343749999999998  13.5716145833333 0  14.546875 0  C 15.39453125 0  16.1168619791667 0.292410714285714  16.7138671875 0.877232142857143  C 17.3108723958333 1.46205357142857  17.609375 2.16964285714286  17.609375 3  C 17.609375 3.83035714285714  17.3108723958333 4.53794642857143  16.7138671875 5.12276785714286  C 16.1168619791667 5.70758928571428  15.39453125 6  14.546875 6  L 20.5625 6  C 20.6901041666667 6  20.794921875 6.04017857142857  20.876953125 6.12053571428571  Z " fill-rule="nonzero" fill="#98a0ac" stroke="none" transform="matrix(1 0 0 1 30 156 )" />
  </g>
</svg>