<svg xmlns="http://www.w3.org/2000/svg" width="50" height="41.667" viewBox="0 0 50 41.667">
  <g id="icon-email" transform="translate(-1151 -999)">
    <path id="Path_3198" data-name="Path 3198" d="M34.333,71.667H67.667A8.333,8.333,0,0,0,76,63.333v-25A8.333,8.333,0,0,0,67.667,30H34.333A8.333,8.333,0,0,0,26,38.333v25A8.333,8.333,0,0,0,34.333,71.667ZM41.9,50.927,30.271,64.219a4.166,4.166,0,0,1-.1-.885V39.2ZM34.333,67.5a3.937,3.937,0,0,1-1.219-.208l11.74-13.406.99,1.042a7.292,7.292,0,0,0,10.313,0l.99-1.042,11.74,13.406a3.937,3.937,0,0,1-1.219.208Zm37.5-28.3V63.333a4.168,4.168,0,0,1-.1.885L60.1,50.927Zm-4.167-5.031A4.073,4.073,0,0,1,70.136,35L53.208,51.927a3.208,3.208,0,0,1-4.417,0L31.865,35a4.073,4.073,0,0,1,2.469-.833Z" transform="translate(1125 969)" fill="#3b3f45"/>
  </g>
</svg>
