<svg xmlns="http://www.w3.org/2000/svg" width="50" height="60" viewBox="0 0 50 60">
  <g id="img" transform="translate(-1304 -1062)">
    <path id="Path_4194" data-name="Path 4194" d="M61.038,26.237l-.238-.075a2.863,2.863,0,0,0-.65-.138L60,26H37.5A7.5,7.5,0,0,0,30,33.5v45A7.5,7.5,0,0,0,37.5,86h35A7.5,7.5,0,0,0,80,78.5V45.837a2.913,2.913,0,0,0-.137-.637l-.075-.237a2.35,2.35,0,0,0-.5-.725l-17.5-17.5a2.35,2.35,0,0,0-.75-.5Zm5.95,12.775L71.462,43.5H65A2.5,2.5,0,0,1,62.5,41V34.538ZM37.5,31h20V41A7.5,7.5,0,0,0,65,48.5H75V67.462l-8.238-8.225a2.5,2.5,0,0,0-3.525,0L57.5,64.962l-8.187-8.187a2.5,2.5,0,0,0-3.537,0L35,67.537V33.5A2.5,2.5,0,0,1,37.5,31Zm35,50h-35A2.5,2.5,0,0,1,35,78.5V74.613l12.5-12.5L55.7,70.3a2.5,2.5,0,0,0,3.525,0L65,64.538l10,10V78.5A2.5,2.5,0,0,1,72.5,81Z" transform="translate(1274 1036)" fill="#0f203c"/>
    <circle id="Ellipse_664" data-name="Ellipse 664" cx="3" cy="3" r="3" transform="translate(1316.941 1080)" fill="#0f203c"/>
  </g>
</svg>
