<svg xmlns="http://www.w3.org/2000/svg" width="50" height="45.833" viewBox="0 0 50 45.833">
  <g id="inbox" transform="translate(-1439 -1391)">
    <path id="Path_3203" data-name="Path 3203" d="M67.562,29.427A2.083,2.083,0,0,0,65.583,28H36.417a2.083,2.083,0,0,0-1.979,1.427l-8.333,25a2.01,2.01,0,0,0-.1.656v12.5a6.25,6.25,0,0,0,6.25,6.25h37.5A6.25,6.25,0,0,0,76,67.583v-12.5a2.011,2.011,0,0,0-.1-.656Zm-29.646,2.74H64.083L71.031,53h-11.7a2.083,2.083,0,0,0-1.979,1.427l-1.6,4.823h-9.5l-1.6-4.823A2.083,2.083,0,0,0,42.667,53h-11.7Zm31.833,37.5H32.25a2.083,2.083,0,0,1-2.083-2.083V57.167h11l1.6,4.823a2.083,2.083,0,0,0,1.979,1.427h12.5a2.083,2.083,0,0,0,1.979-1.427l1.6-4.823h11V67.583A2.083,2.083,0,0,1,69.75,69.666Z" transform="translate(1413 1363)" fill="#3b3f45"/>
    <path id="Path_3204" data-name="Path 3204" d="M38.143,48H63.857a2,2,0,1,0,0-4H38.143a2,2,0,1,0,0,4Z" transform="translate(1413 1363.733)" fill="#3b3f45"/>
    <path id="Path_3205" data-name="Path 3205" d="M42,40H58a2,2,0,0,0,0-4H42a2,2,0,0,0,0,4Z" transform="translate(1414 1363.367)" fill="#3b3f45"/>
  </g>
</svg>
