<svg xmlns="http://www.w3.org/2000/svg" width="50" height="50.007" viewBox="0 0 50 50.007">
  <g id="key" transform="translate(-1125 -468)">
    <g id="Group_3930" data-name="Group 3930" transform="translate(146 -959)">
      <path id="Path_3194" data-name="Path 3194" d="M28.084,76H38.5a2.084,2.084,0,0,0,2.084-2.084V69.754h4.167a2.084,2.084,0,0,0,2.084-2.084V63.5H51a2.083,2.083,0,0,0,1.469-.615l1.917-1.906A17.71,17.71,0,1,0,41.47,49.252L26.615,64.118A2.084,2.084,0,0,0,26,65.587v8.334A2.084,2.084,0,0,0,28.084,76Zm2.084-9.553,15.2-15.2a2.084,2.084,0,0,0,.427-2.281,13.376,13.376,0,0,1-1.042-5.209,13.543,13.543,0,1,1,9.615,12.959,2.083,2.083,0,0,0-2.083.521l-2.146,2.094H44.752a2.084,2.084,0,0,0-2.084,2.083v4.167H38.5a2.084,2.084,0,0,0-2.083,2.084v4.167H30.167Z" transform="translate(953 1401.002)" fill="#3b3f45"/>
      <circle id="Ellipse_565" data-name="Ellipse 565" cx="3.125" cy="3.125" r="3.125" transform="translate(1012.336 1437.42)" fill="#3b3f45"/>
    </g>
  </g>
</svg>
