<svg xmlns="http://www.w3.org/2000/svg" width="50" height="49.999" viewBox="0 0 50 49.999">
  <g id="layers" transform="translate(-1443.999 -2109)">
    <path id="Path_3393" data-name="Path 3393" d="M26,63.5a2.083,2.083,0,0,0,1.219,1.9L50.135,75.811a2.083,2.083,0,0,0,1.729,0L74.78,65.395a2.083,2.083,0,0,0,0-3.792L65.2,57.249,74.78,52.9a2.083,2.083,0,0,0,0-3.792L65.2,44.749,74.78,40.4a2.083,2.083,0,0,0,0-3.792L51.864,26.188a2.083,2.083,0,0,0-1.729,0L27.219,36.6a2.083,2.083,0,0,0,0,3.792L36.8,44.749,27.219,49.1a2.083,2.083,0,0,0,0,3.792L36.8,57.249,27.219,61.6A2.083,2.083,0,0,0,26,63.5ZM51,30.375,68.884,38.5,51,46.624,33.114,38.5ZM41.833,47.041l8.333,3.771a2.083,2.083,0,0,0,1.729,0l8.333-3.771L68.884,51,51,59.124,33.114,51Zm0,12.5,8.333,3.771a2.083,2.083,0,0,0,1.729,0l8.333-3.771L68.884,63.5,51,71.624,33.114,63.5Z" transform="translate(1418 2083)" fill="#3b3f45"/>
  </g>
</svg>
