<svg xmlns="http://www.w3.org/2000/svg" width="50" height="50" viewBox="0 0 50 50">
  <g id="link" transform="translate(-1612 -2366)">
    <path id="Path_3405" data-name="Path 3405" d="M44.167,32.25V28.083a2.083,2.083,0,1,0-4.167,0V32.25a2.083,2.083,0,0,0,4.167,0Z" transform="translate(1586.583 2340)" fill="#3b3f45"/>
    <path id="Path_3406" data-name="Path 3406" d="M28.083,44.167H32.25a2.083,2.083,0,0,0,0-4.167H28.083a2.083,2.083,0,1,0,0,4.167Z" transform="translate(1586 2340.583)" fill="#3b3f45"/>
    <path id="Path_3407" data-name="Path 3407" d="M35.631,32.693,33.548,30.61a2.083,2.083,0,0,0-2.938,2.938l2.083,2.083a2.083,2.083,0,0,0,2.938-2.937Z" transform="translate(1586.171 2340.171)" fill="#3b3f45"/>
    <path id="Path_3408" data-name="Path 3408" d="M58.083,74.333a2.083,2.083,0,0,0,2.083-2.083V68.083a2.083,2.083,0,0,0-4.167,0V72.25A2.083,2.083,0,0,0,58.083,74.333Z" transform="translate(1587.25 2341.667)" fill="#3b3f45"/>
    <path id="Path_3409" data-name="Path 3409" d="M74.333,58.083A2.083,2.083,0,0,0,72.25,56H68.083a2.083,2.083,0,0,0,0,4.167H72.25A2.083,2.083,0,0,0,74.333,58.083Z" transform="translate(1587.667 2341.25)" fill="#3b3f45"/>
    <path id="Path_3410" data-name="Path 3410" d="M66.693,69.631a2.083,2.083,0,0,0,2.938-2.937L67.548,64.61a2.083,2.083,0,0,0-2.937,2.938Z" transform="translate(1587.588 2341.588)" fill="#3b3f45"/>
    <path id="Path_3411" data-name="Path 3411" d="M28,60.736a12.417,12.417,0,0,0,12.4,12.4,12.281,12.281,0,0,0,8.76-3.635l6.458-6.458a12.385,12.385,0,0,0,0-17.521,2.083,2.083,0,1,0-2.948,2.937,8.25,8.25,0,0,1,0,11.646l-6.458,6.458A8.24,8.24,0,0,1,34.573,54.913L37.8,51.684a2.083,2.083,0,0,0-2.937-2.937l-3.229,3.229A12.281,12.281,0,0,0,28,60.736Z" transform="translate(1586.083 2340.785)" fill="#3b3f45"/>
    <path id="Path_3412" data-name="Path 3412" d="M63.448,49.448a2.083,2.083,0,0,0,2.937,2.938l3.229-3.229A12.281,12.281,0,0,0,73.25,40.4,12.417,12.417,0,0,0,60.854,28a12.281,12.281,0,0,0-8.76,3.635l-6.458,6.458a12.375,12.375,0,0,0,0,17.521,2.077,2.077,0,0,0,2.938-2.938,8.25,8.25,0,0,1,0-11.646l6.458-6.458A8.24,8.24,0,0,1,66.677,46.219Z" transform="translate(1586.667 2340.083)" fill="#3b3f45"/>
  </g>
</svg>
