<svg xmlns="http://www.w3.org/2000/svg" xmlns:xlink="http://www.w3.org/1999/xlink" width="240.955" height="46.298" viewBox="0 0 240.955 46.298">
  <defs>
    <filter id="Path_172" x="53.209" y="0.471" width="57.133" height="45.314" filterUnits="userSpaceOnUse">
      <feOffset dy="3" input="SourceAlpha"/>
      <feGaussianBlur stdDeviation="3" result="blur"/>
      <feFlood flood-opacity="0.161"/>
      <feComposite operator="in" in2="blur"/>
      <feComposite in="SourceGraphic"/>
    </filter>
    <filter id="Path_173" x="96.506" y="0.472" width="57.555" height="45.313" filterUnits="userSpaceOnUse">
      <feOffset dy="3" input="SourceAlpha"/>
      <feGaussianBlur stdDeviation="3" result="blur-2"/>
      <feFlood flood-opacity="0.161"/>
      <feComposite operator="in" in2="blur-2"/>
      <feComposite in="SourceGraphic"/>
    </filter>
    <filter id="Path_174" x="140.237" y="0.472" width="57.555" height="45.312" filterUnits="userSpaceOnUse">
      <feOffset dy="3" input="SourceAlpha"/>
      <feGaussianBlur stdDeviation="3" result="blur-3"/>
      <feFlood flood-opacity="0.161"/>
      <feComposite operator="in" in2="blur-3"/>
      <feComposite in="SourceGraphic"/>
    </filter>
    <filter id="Path_175" x="183.412" y="0.013" width="57.543" height="46.231" filterUnits="userSpaceOnUse">
      <feOffset dy="3" input="SourceAlpha"/>
      <feGaussianBlur stdDeviation="3" result="blur-4"/>
      <feFlood flood-opacity="0.161"/>
      <feComposite operator="in" in2="blur-4"/>
      <feComposite in="SourceGraphic"/>
    </filter>
    <filter id="Path_176" x="0" y="0" width="66.996" height="46.298" filterUnits="userSpaceOnUse">
      <feOffset dy="3" input="SourceAlpha"/>
      <feGaussianBlur stdDeviation="3" result="blur-5"/>
      <feFlood flood-opacity="0.161"/>
      <feComposite operator="in" in2="blur-5"/>
      <feComposite in="SourceGraphic"/>
    </filter>
  </defs>
  <g id="logo-yellow-white" transform="translate(-146.5 -1315)">
    <g id="Group_5514" data-name="Group 5514" transform="translate(155.5 1321)">
      <g transform="matrix(1, 0, 0, 1, -9, -6)" filter="url(#Path_172)">
        <path id="Path_172-2" data-name="Path 172" d="M111.738,38.8c0,9.727-7.861,13.651-21.7,13.651H74.023a1.312,1.312,0,0,1-1.036-.358,1.234,1.234,0,0,1-.376-1V26.512a1.234,1.234,0,0,1,.376-1,1.312,1.312,0,0,1,1.036-.358H90.034C103.877,25.15,111.738,29.171,111.738,38.8Zm-7.427,0c0-3.9-2.224-6.82-14.277-6.82h-10.2V45.632h10.2C102.142,45.632,104.31,42.7,104.31,38.8Z" transform="translate(-10.4 -18.67)" fill="#fff"/>
      </g>
      <g transform="matrix(1, 0, 0, 1, -9, -6)" filter="url(#Path_173)">
        <path id="Path_173-2" data-name="Path 173" d="M151.1,34.435c0,4.485-3.491,9.284-12.031,9.284H118.811V51.09a1.234,1.234,0,0,1-.376,1,1.312,1.312,0,0,1-1.036.358h-4.448a1.312,1.312,0,0,1-1.028-.362,1.234,1.234,0,0,1-.372-1V26.512a1.234,1.234,0,0,1,.373-1,1.311,1.311,0,0,1,1.028-.362H139.07C147.631,25.15,151.1,29.949,151.1,34.435Zm-7.216,0c0-2.064-.923-2.54-4.814-2.54H118.811v5.4H139.07c3.892-.022,4.814-.724,4.814-2.864Z" transform="translate(-6.04 -18.67)" fill="#fff"/>
      </g>
      <g transform="matrix(1, 0, 0, 1, -9, -6)" filter="url(#Path_174)">
        <path id="Path_174-2" data-name="Path 174" d="M190.43,34.435c0,4.485-3.491,9.284-12.042,9.284H158.13V51.09a1.234,1.234,0,0,1-.373,1,1.311,1.311,0,0,1-1.028.362h-4.448a1.311,1.311,0,0,1-1.028-.362,1.234,1.234,0,0,1-.373-1V26.512a1.234,1.234,0,0,1,.373-1,1.311,1.311,0,0,1,1.028-.362h26.074C186.939,25.15,190.43,29.949,190.43,34.435Zm-7.227,0c0-2.064-.923-2.54-4.814-2.54H158.13v5.4h20.259c3.892-.022,4.87-.724,4.87-2.864Z" transform="translate(-1.64 -18.67)" fill="#fff"/>
      </g>
      <g transform="matrix(1, 0, 0, 1, -9, -6)" filter="url(#Path_175)">
        <path id="Path_175-2" data-name="Path 175" d="M209.947,35.831c8.828.821,19.3,1.567,19.3,8.344,0,6.366-7.783,8.776-18.535,8.776h-.478c-12,0-17.857-1.989-19.825-3.156a1.139,1.139,0,0,1-.7-.9,1.121,1.121,0,0,1,.452-1.041L193.024,45a1.508,1.508,0,0,1,1.924-.313c1.723.7,5.982,1.881,15.288,1.881h.478c8.662,0,11.119-1.211,11.119-2.27,0-1.794-4.058-1.675-12.164-2.378-13.076-1.211-19.736-2.064-19.736-8.7,0-5.966,6.86-8.5,18.813-8.5h1c9.84,0,15.767,1.989,17.7,3.156a1.169,1.169,0,0,1,.669.916,1.152,1.152,0,0,1-.436,1.04l-2.8,2.756a1.611,1.611,0,0,1-1.968.313,40.638,40.638,0,0,0-13.165-1.827h-1c-9.829,0-11.4,1.481-11.4,2.378C197.349,35.053,201.085,34.934,209.947,35.831Z" transform="translate(2.71 -18.71)" fill="#fff"/>
      </g>
      <g transform="matrix(1, 0, 0, 1, -9, -6)" filter="url(#Path_176)">
        <path id="Path_176-2" data-name="Path 176" d="M32.589,52.952l.534-.638c.1-.119.222-.227.322-.346,1.112-1.189,2.224-2.378,3.269-3.588,1.479-1.654,2.924-3.318,4.448-4.961s2.98-3.264,4.47-4.993c1.89-2.108,3.758-4.237,5.648-6.355a7.868,7.868,0,0,1,.856-.854.669.669,0,0,1,.661-.161.644.644,0,0,1,.451.5,2.511,2.511,0,0,1,0,.649v4.993a1.928,1.928,0,0,1-.423,1.438c-.9.951-1.768,1.924-2.635,2.907-1.445,1.632-2.88,3.243-4.336,4.9s-3.169,3.448-4.737,5.177c-.4.443-.789.886-1.179,1.34H47.1l4.1-4.55c1.512-1.664,3.024-3.318,4.525-4.993l5.637-6.355Q63.81,34.3,66.29,31.563a1.8,1.8,0,0,1,.5-.411.764.764,0,0,1,.69-.034.728.728,0,0,1,.422.531,2.994,2.994,0,0,1,0,.551V37a2.423,2.423,0,0,1-.623,1.7c-.511.584-1.045,1.156-1.568,1.74-1,1.081-2.013,2.162-3.013,3.318-1.445,1.632-2.88,3.243-4.325,4.9L54.5,52.974h6.5c1.112-1.286,2.313-2.594,3.469-3.9.612-.692,1.234-1.394,1.868-2.075.256-.281.545-.573.978-.422a.99.99,0,0,1,.578,1.081v5.35H73.74V27.661a2.723,2.723,0,0,0-.8-2.113,2.89,2.89,0,0,0-2.149-.838H66.134a1.97,1.97,0,0,0-1.512.67l-3.18,3.545c-.867.984-1.723,1.967-2.6,2.94a.488.488,0,0,1-.334.086.538.538,0,0,1-.111-.227V26.666a1.732,1.732,0,0,0-.5-1.4,1.841,1.841,0,0,0-1.416-.538H51.546a2.918,2.918,0,0,0-2.279.973c-1.112,1.3-2.357,2.572-3.525,3.859L42.318,33.4c-1.112,1.178-2.146,2.345-3.2,3.524-1.579,1.762-3.147,3.534-4.737,5.3-1.012,1.081-2.046,2.259-3.069,3.394s-2.313,2.6-3.48,3.9l-3.08,3.394h0Z" transform="translate(-15.75 -18.71)" fill="#ffea8c"/>
      </g>
    </g>
  </g>
</svg>
