<svg xmlns="http://www.w3.org/2000/svg" width="50" height="50.962" viewBox="0 0 50 50.962">
  <g id="map" transform="translate(-746 -2091)">
    <g id="_51" data-name="51" transform="translate(746 2091)">
      <path id="Path_3399" data-name="Path 3399" d="M12.923,48.332A1.923,1.923,0,0,1,11,46.409V11.794a1.923,1.923,0,0,1,1.25-1.808l4.808-1.808A1.929,1.929,0,1,1,18.4,11.794l-3.558,1.327V43.64l11.538-4.327V29.1a1.923,1.923,0,0,1,3.846,0V40.64a1.923,1.923,0,0,1-1.25,1.808L13.6,48.217A1.923,1.923,0,0,1,12.923,48.332Z" transform="translate(4.385 2.629)" fill="#3b3f45"/>
      <path id="Path_3400" data-name="Path 3400" d="M20.308,50.234a1.923,1.923,0,0,1-.673-.115L6.846,45.272A5.769,5.769,0,0,1,3,39.868V7.926A1.923,1.923,0,0,1,5.6,6.118l15.385,5.769a1.923,1.923,0,0,1,1.25,1.808V48.311A1.923,1.923,0,0,1,20.308,50.234ZM6.846,10.7V39.868A1.923,1.923,0,0,0,8.1,41.676l10.288,3.846v-30.5Z" transform="translate(-3 0.728)" fill="#3b3f45"/>
      <path id="Path_3401" data-name="Path 3401" d="M36.308,48.323a1.923,1.923,0,0,1-.673-.115L20.25,42.439A1.923,1.923,0,0,1,19,40.631V29.093a1.923,1.923,0,1,1,3.846,0V39.3l11.538,4.327V14.458a1.923,1.923,0,0,0-1.25-1.808l-2.308-.865c-1-.385,1.077-1.135,1.462-2.135s-1.115-1.923-.115-1.462l2.308.865a5.769,5.769,0,0,1,3.75,5.4V46.4A1.923,1.923,0,0,1,36.308,48.323Z" transform="translate(11.769 2.638)" fill="#3b3f45"/>
      <path id="Path_3402" data-name="Path 3402" d="M26,35.365a1.923,1.923,0,0,1-1.442-.635C23.424,33.462,13.5,22.135,13.5,15.5A12.769,12.769,0,0,1,26,2.5,12.769,12.769,0,0,1,38.5,15.481c0,6.654-9.923,17.981-11.058,19.231A1.923,1.923,0,0,1,26,35.365ZM26,6.346a8.923,8.923,0,0,0-8.654,9.135C17.347,18.942,22.193,25.9,26,30.5c3.846-4.6,8.654-11.538,8.654-15.019A8.923,8.923,0,0,0,26,6.346Z" transform="translate(6.691 -2.5)" fill="#3b3f45"/>
      <path id="Path_3403" data-name="Path 3403" d="M21.846,14.692a3.846,3.846,0,1,1,3.846-3.846A3.846,3.846,0,0,1,21.846,14.692ZM21.846,10.846Z" transform="translate(10.846 1.654)" fill="#3b3f45"/>
    </g>
  </g>
</svg>
