<svg xmlns="http://www.w3.org/2000/svg" width="50" height="50.003" viewBox="0 0 50 50.003">
  <g id="mapPencil" transform="translate(-329.002 -1628)">
    <path id="Path_3385" data-name="Path 3385" d="M28.083,76H73.92a2.083,2.083,0,0,0,2.021-2.584l-6.25-25a2.083,2.083,0,0,0-2.021-1.583H59.335V32.25A6.25,6.25,0,0,0,53.085,26H48.918a6.25,6.25,0,0,0-6.25,6.25V46.835H34.334a2.083,2.083,0,0,0-2.021,1.583l-6.25,25A2.083,2.083,0,0,0,28.083,76ZM46.835,38.5h8.334V56.554L51,62.117l-4.167-5.563Zm2.083-8.334h4.167a2.083,2.083,0,0,1,2.083,2.083v2.083H46.835V32.25A2.083,2.083,0,0,1,48.918,30.167ZM35.959,51h6.709v6.25a2.083,2.083,0,0,0,.417,1.25l6.25,8.334a2.083,2.083,0,0,0,3.334,0l6.25-8.334a2.083,2.083,0,0,0,.417-1.25V51h6.709l5.209,20.835H30.75Z" transform="translate(303 1602)" fill="#3b3f45"/>
  </g>
</svg>
