<svg xmlns="http://www.w3.org/2000/svg" width="50" height="50" viewBox="0 0 50 50">
  <g id="maze" transform="translate(-814 -2120)">
    <path id="Path_3391" data-name="Path 3391" d="M29.947,15.448a1.007,1.007,0,0,1-1.066-1.066V6.066a1.066,1.066,0,1,1,2.132,0v8.316A1.007,1.007,0,0,1,29.947,15.448Zm8.849,6.93V6.066a1.066,1.066,0,1,0-2.132,0V21.311H29.947a1.066,1.066,0,0,0,0,2.132h7.783A1.068,1.068,0,0,0,38.8,22.377Zm-15.565,0V6.066a1.066,1.066,0,1,0-2.132,0V22.377a1.007,1.007,0,0,0,1.066,1.066A1.068,1.068,0,0,0,23.23,22.377Zm31.77,0a1.007,1.007,0,0,0-1.066-1.066H45.512a1.066,1.066,0,1,0,0,2.132h8.316A1.168,1.168,0,0,0,55,22.377Zm0,15.565V30.16a1.007,1.007,0,0,0-1.066-1.066H45.512a1.007,1.007,0,0,0-1.066,1.066v7.783a1.066,1.066,0,0,0,2.132,0V31.226h6.183v6.716a1.007,1.007,0,0,0,1.066,1.066A1.168,1.168,0,0,0,55,37.942ZM15.448,22.377a1.007,1.007,0,0,0-1.066-1.066H6.066a1.066,1.066,0,1,0,0,2.132h8.316A1.068,1.068,0,0,0,15.448,22.377ZM31.013,37.942V30.16a1.007,1.007,0,0,0-1.066-1.066H6.066a1.066,1.066,0,1,0,0,2.132H28.881v6.716a1.007,1.007,0,0,0,1.066,1.066A1.068,1.068,0,0,0,31.013,37.942Zm-7.783,0a1.007,1.007,0,0,0-1.066-1.066H6.066a1.066,1.066,0,1,0,0,2.132h16.1A1.068,1.068,0,0,0,23.23,37.942Zm0,15.991V45.725a1.066,1.066,0,1,0-2.132,0v8.209A1.007,1.007,0,0,0,22.164,55,1.068,1.068,0,0,0,23.23,53.934Zm31.77,0a1.007,1.007,0,0,0-1.066-1.066H45.512a1.066,1.066,0,0,0,0,2.132h8.316A1.168,1.168,0,0,0,55,53.934Zm0-8.209a1.007,1.007,0,0,0-1.066-1.066H38.8V30.16a1.066,1.066,0,1,0-2.132,0V45.725a1.007,1.007,0,0,0,1.066,1.066h16.1A1.168,1.168,0,0,0,55,45.725ZM38.8,53.934a1.007,1.007,0,0,0-1.066-1.066H31.013V45.725a1.066,1.066,0,1,0-2.132,0v8.209A1.007,1.007,0,0,0,29.947,55h7.783A1.068,1.068,0,0,0,38.8,53.934Zm-23.348,0V45.725a1.007,1.007,0,0,0-1.066-1.066H6.066A1.007,1.007,0,0,0,5,45.725v8.209A1.007,1.007,0,0,0,6.066,55h8.316A1.068,1.068,0,0,0,15.448,53.934ZM7.132,46.791h6.183v6.077H7.132Zm8.316-32.516V6.066A1.007,1.007,0,0,0,14.382,5H6.066A1.007,1.007,0,0,0,5,6.066v8.209a1.007,1.007,0,0,0,1.066,1.066h8.316A1.068,1.068,0,0,0,15.448,14.275ZM7.132,7.132h6.183v6.077H7.132ZM55,14.275V6.066A1.007,1.007,0,0,0,53.934,5H45.512a1.007,1.007,0,0,0-1.066,1.066v8.209a1.007,1.007,0,0,0,1.066,1.066h8.316A1.168,1.168,0,0,0,55,14.275ZM46.578,7.132h6.183v6.077H46.578Z" transform="translate(809 2115)" fill="#3b3f45"/>
  </g>
</svg>
