<svg xmlns="http://www.w3.org/2000/svg" width="50" height="50" viewBox="0 0 50 50">
  <g id="message" transform="translate(-2088.997 -1099)">
    <path id="Path_4233" data-name="Path 4233" d="M50.985,26A25,25,0,0,0,29.363,63.5L26.1,73.258a2.083,2.083,0,0,0,2.634,2.635l9.755-3.26A24.994,24.994,0,1,0,50.985,26Zm0,45.831a20.812,20.812,0,0,1-11.108-3.239,2.154,2.154,0,0,0-1.114-.323,2.4,2.4,0,0,0-.666.1l-6.725,2.25,2.249-6.729a2.084,2.084,0,0,0-.219-1.781,20.817,20.817,0,1,1,17.583,9.718Z" transform="translate(2063 1073)" fill="#0f203c"/>
    <ellipse id="Ellipse_667" data-name="Ellipse 667" cx="2.082" cy="2.083" rx="2.082" ry="2.083" transform="translate(2111.903 1121.915)" fill="#0f203c"/>
    <ellipse id="Ellipse_668" data-name="Ellipse 668" cx="2.082" cy="2.083" rx="2.082" ry="2.083" transform="translate(2103.575 1121.915)" fill="#0f203c"/>
    <ellipse id="Ellipse_669" data-name="Ellipse 669" cx="2.082" cy="2.083" rx="2.082" ry="2.083" transform="translate(2120.231 1121.915)" fill="#0f203c"/>
  </g>
</svg>
