<svg xmlns="http://www.w3.org/2000/svg" width="50" height="50" viewBox="0 0 50 50">
  <g id="messageAdd" transform="translate(-1597 -1966)">
    <path id="Path_3394" data-name="Path 3394" d="M58.75,46.333H52.5v-6.25a2.083,2.083,0,1,0-4.167,0v6.25h-6.25a2.083,2.083,0,1,0,0,4.167h6.25v6.25a2.083,2.083,0,1,0,4.167,0V50.5h6.25a2.083,2.083,0,0,0,0-4.167Z" transform="translate(1571.583 1940.5)" fill="#3b3f45"/>
    <path id="Path_3395" data-name="Path 3395" d="M51,26C37.219,26,26,36.281,26,48.917A21.74,21.74,0,0,0,32.021,63.8v.521c-.188,2.437-.385,5.208-3.292,8.125A2.076,2.076,0,0,0,30.167,76h0a30.687,30.687,0,0,0,15.479-4.719A27.083,27.083,0,0,0,51,71.833c13.781,0,25-10.281,25-22.917S64.781,26,51,26ZM45.677,67.021a2.083,2.083,0,0,0-1.719.354A23.75,23.75,0,0,1,34.583,71.3a17.313,17.313,0,0,0,1.531-6.677,9.369,9.369,0,0,1,.125-1.292,2.083,2.083,0,0,0-.6-1.771,17.708,17.708,0,0,1-5.469-12.646c0-10.333,9.375-18.75,20.833-18.75s20.833,8.417,20.833,18.75C71.833,60.812,59.385,70.281,45.677,67.021Z" transform="translate(1571 1940)" fill="#3b3f45"/>
  </g>
</svg>
