<svg xmlns="http://www.w3.org/2000/svg" width="50" height="50" viewBox="0 0 50 50">
  <g id="monitor" transform="translate(-1026 -1141)">
    <path id="Path_4128" data-name="Path 4128" d="M69.75,26H32.25A6.25,6.25,0,0,0,26,32.25V59.333a6.25,6.25,0,0,0,6.25,6.25H42.667v6.25H38.5A2.083,2.083,0,1,0,38.5,76h25a2.083,2.083,0,1,0,0-4.167H59.333v-6.25H69.75A6.25,6.25,0,0,0,76,59.333V32.25A6.25,6.25,0,0,0,69.75,26ZM30.167,32.25a2.083,2.083,0,0,1,2.083-2.083h37.5a2.083,2.083,0,0,1,2.083,2.083V51H30.167Zm25,39.583H46.833v-6.25h8.333Zm16.667-12.5a2.083,2.083,0,0,1-2.083,2.083H32.25a2.083,2.083,0,0,1-2.083-2.083V55.167H71.833Z" transform="translate(1000 1115)" fill="#0f203c"/>
  </g>
</svg>
