<svg xmlns="http://www.w3.org/2000/svg" width="45.833" height="50" viewBox="0 0 45.833 50">
  <g id="nav-lock" transform="translate(-204 -866)">
    <path id="Path_3179" data-name="Path 3179" d="M28,69.75A6.25,6.25,0,0,0,34.25,76H67.583a6.25,6.25,0,0,0,6.25-6.25V55.167a6.25,6.25,0,0,0-6.25-6.25H65.5V40.583a14.583,14.583,0,1,0-29.167,0v8.333H34.25A6.25,6.25,0,0,0,28,55.167ZM40.5,40.583a10.417,10.417,0,1,1,20.833,0v8.333H57.167V40.583a6.25,6.25,0,1,0-12.5,0v8.333H40.5Zm8.333,8.333V40.583a2.083,2.083,0,1,1,4.167,0v8.333Zm-16.667,6.25a2.083,2.083,0,0,1,2.083-2.083H67.583a2.083,2.083,0,0,1,2.083,2.083V69.75a2.083,2.083,0,0,1-2.083,2.083H34.25a2.083,2.083,0,0,1-2.083-2.083Z" transform="translate(176 840)" fill="#3b3f45"/>
  </g>
</svg>
