<svg xmlns="http://www.w3.org/2000/svg" width="50" height="50" viewBox="0 0 50 50">
  <g id="nav-connections" transform="translate(-202 -439)">
    <path id="Path_376" data-name="Path 376" d="M28.083,76H73.917A2.083,2.083,0,0,0,76,73.917V69.6a8.333,8.333,0,0,0-5.582-7.864L59.333,57.854V56.073A15.24,15.24,0,0,0,63.5,45.656V36.333C63.26,30.729,57.542,26,51,26S38.74,30.729,38.5,36.417v9.24a15.24,15.24,0,0,0,4.167,10.417v1.781L31.583,61.74A8.333,8.333,0,0,0,26,69.6v4.313A2.083,2.083,0,0,0,28.083,76Zm2.083-6.4a4.167,4.167,0,0,1,2.792-3.937l12.5-4.365a2.083,2.083,0,0,0,1.375-1.969V55.167a2.083,2.083,0,0,0-.656-1.521,11.042,11.042,0,0,1-3.51-7.99V36.5C42.8,33.125,46.7,30.167,51,30.167s8.2,2.958,8.333,6.25v9.24a11.042,11.042,0,0,1-3.51,8.031,2.083,2.083,0,0,0-.656,1.479v4.167a2.083,2.083,0,0,0,1.4,1.969l12.5,4.365A4.167,4.167,0,0,1,71.833,69.6v2.229H30.167Z" transform="translate(176 413)" fill="#3b3f45"/>
  </g>
</svg>
