<svg xmlns="http://www.w3.org/2000/svg" width="50" height="50" viewBox="0 0 50 50">
  <g id="nav-product-replicator" transform="translate(-516 -631)">
    <path id="Path_386" data-name="Path 386" d="M71.833,59.333H69.75V55.167a6.25,6.25,0,0,0-6.25-6.25H53.083v-6.25h2.083A4.167,4.167,0,0,0,59.333,38.5V30.167A4.167,4.167,0,0,0,55.167,26H46.833a4.167,4.167,0,0,0-4.167,4.167V38.5a4.167,4.167,0,0,0,4.167,4.167h2.083v6.25H38.5a6.25,6.25,0,0,0-6.25,6.25v4.167H30.167A4.167,4.167,0,0,0,26,63.5v8.333A4.167,4.167,0,0,0,30.167,76H38.5a4.167,4.167,0,0,0,4.167-4.167V63.5A4.167,4.167,0,0,0,38.5,59.333H36.417V55.167A2.083,2.083,0,0,1,38.5,53.083h25a2.083,2.083,0,0,1,2.083,2.083v4.167H63.5A4.167,4.167,0,0,0,59.333,63.5v8.333A4.167,4.167,0,0,0,63.5,76h8.333A4.167,4.167,0,0,0,76,71.833V63.5A4.167,4.167,0,0,0,71.833,59.333Zm-25-29.167h8.333V38.5H46.833ZM38.5,71.833H30.167V63.5H38.5Zm33.333,0H63.5V63.5h8.333Z" transform="translate(490 605)" fill="#3b3f45"/>
  </g>
</svg>
