<svg xmlns="http://www.w3.org/2000/svg" width="50" height="50" viewBox="0 0 50 50">
  <g id="nav-check" transform="translate(-1598 -333)">
    <path id="Path_3175" data-name="Path 3175" d="M33.292,33.294A25,25,0,1,0,51,25.941,25,25,0,0,0,33.292,33.294ZM65.729,65.732a20.833,20.833,0,1,1,0-29.458A20.833,20.833,0,0,1,65.729,65.732Z" transform="translate(1572 307.059)" fill="#0f203c"/>
    <g id="Group_8299" data-name="Group 8299" transform="translate(-8.109 -294.109)">
      <path id="Path_3178" data-name="Path 3178" d="M61.88,52.878,51.441,63.4l-4.1-4.125a3.147,3.147,0,0,0-4.3.168,3.22,3.22,0,0,0-.166,4.341l6.336,6.4a3.147,3.147,0,0,0,4.467,0L66.347,57.387a3.22,3.22,0,0,0-.166-4.341,3.147,3.147,0,0,0-4.3-.168Z" transform="translate(1577 591)" fill="#0f203c"/>
    </g>
  </g>
</svg>
