<svg xmlns="http://www.w3.org/2000/svg" width="50" height="49.998" viewBox="0 0 50 49.998">
  <g id="nav-e-commerce" transform="translate(-1422 -247)">
    <g id="Group_3565" data-name="Group 3565" transform="translate(49 26)">
      <path id="Path_3164" data-name="Path 3164" d="M30.167,30.167a3.781,3.781,0,0,1,3.552,2.51L41.8,55.166a6.25,6.25,0,0,0,5.885,4.167H64.665a6.249,6.249,0,0,0,5.926-4.269l5.3-15.907a2.083,2.083,0,0,0-1.979-2.739H65.582V28.083A2.083,2.083,0,0,0,63.5,26H46.833a2.083,2.083,0,0,0-2.083,2.083v8.333H39.541l-1.833-5.146A7.958,7.958,0,0,0,30.167,26H28.083a2.083,2.083,0,0,0,0,4.167Zm18.749,0h12.5v6.25h-12.5ZM46.833,40.583h24.2L66.623,53.739a2.083,2.083,0,0,1-1.958,1.427H47.687a2.083,2.083,0,0,1-1.958-1.385l-4.719-13.2Z" transform="translate(1347 195)" fill="#3b3f45"/>
      <path id="Path_3165" data-name="Path 3165" d="M40,68.25A6.25,6.25,0,1,0,46.25,62,6.25,6.25,0,0,0,40,68.25Zm8.333,0a2.083,2.083,0,1,1-2.083-2.083A2.083,2.083,0,0,1,48.333,68.25Z" transform="translate(1347.583 196.499)" fill="#3b3f45"/>
      <path id="Path_3166" data-name="Path 3166" d="M62.25,62a6.25,6.25,0,1,0,6.25,6.25A6.25,6.25,0,0,0,62.25,62Zm0,8.333a2.083,2.083,0,1,1,2.083-2.083A2.083,2.083,0,0,1,62.25,70.333Z" transform="translate(1348.249 196.499)" fill="#3b3f45"/>
    </g>
  </g>
</svg>
