<svg xmlns="http://www.w3.org/2000/svg" width="50" height="50" viewBox="0 0 50 50">
  <g id="nav-insights" transform="translate(-830 -631)">
    <g id="Group_2629" data-name="Group 2629" transform="translate(-263 -344)">
      <path id="Path_392" data-name="Path 392" d="M37.091,75.273a4.545,4.545,0,0,0,4.545-4.545V52.545A4.545,4.545,0,0,0,37.091,48H32.545A4.545,4.545,0,0,0,28,52.545V70.727a4.545,4.545,0,0,0,4.545,4.545ZM32.545,52.545h4.545V70.727H32.545Z" transform="translate(1065 949.727)" fill="#3b3f45"/>
      <path id="Path_393" data-name="Path 393" d="M53.091,78a4.545,4.545,0,0,0,4.545-4.545V32.545A4.545,4.545,0,0,0,53.091,28H48.545A4.545,4.545,0,0,0,44,32.545V73.455A4.545,4.545,0,0,0,48.545,78ZM48.545,32.545h4.545V73.455H48.545Z" transform="translate(1067.182 947)" fill="#3b3f45"/>
      <path id="Path_394" data-name="Path 394" d="M69.091,76.364a4.545,4.545,0,0,0,4.545-4.545V44.545A4.545,4.545,0,0,0,69.091,40H64.545A4.545,4.545,0,0,0,60,44.545V71.818a4.545,4.545,0,0,0,4.545,4.545ZM64.545,44.545h4.545V71.818H64.545Z" transform="translate(1069.364 948.636)" fill="#3b3f45"/>
    </g>
  </g>
</svg>
