<svg xmlns="http://www.w3.org/2000/svg" width="50" height="55" viewBox="0 0 50 55">
  <g id="nav-settings" transform="translate(-1144 -50)">
    <g id="Group_2625" data-name="Group 2625" transform="translate(-195.037 -422)">
      <path id="Path_389" data-name="Path 389" d="M50,58a8,8,0,1,0-8-8A8,8,0,0,0,50,58Zm0-12a4,4,0,1,1-4,4A4,4,0,0,1,50,46Z" transform="translate(1314.039 449.5)" fill="#3b3f45"/>
      <path id="Path_390" data-name="Path 390" d="M28.735,66.024A26.075,26.075,0,0,0,30.112,68.4a6.591,6.591,0,0,0,7.741,2.567l2.857-1.031a20.255,20.255,0,0,0,4.36,2.544l.546,3.014A6.651,6.651,0,0,0,51.9,81h2.277a6.651,6.651,0,0,0,6.261-5.489l.569-3.036a20.254,20.254,0,0,0,4.337-2.521L68.2,70.985a6.591,6.591,0,0,0,7.764-2.59A23.59,23.59,0,0,0,77.332,66,6.583,6.583,0,0,0,75.67,57.98l-2.277-1.971a20.021,20.021,0,0,0,0-5.042L75.67,49a6.7,6.7,0,0,0,1.673-8.021A26.072,26.072,0,0,0,75.966,38.6a6.591,6.591,0,0,0-7.741-2.567l-2.857,1.031a19.788,19.788,0,0,0-4.36-2.544l-.546-3.014A6.651,6.651,0,0,0,54.178,26H51.81a6.651,6.651,0,0,0-6.261,5.489l-.478,3.036a19.788,19.788,0,0,0-4.337,2.521l-2.857-1.031a6.591,6.591,0,0,0-7.764,2.59,24.732,24.732,0,0,0-1.366,2.383,6.7,6.7,0,0,0,1.662,8.021l2.277,1.971a20.021,20.021,0,0,0,0,5.042l-2.277,1.971A6.618,6.618,0,0,0,28.735,66.024Zm4.622-4.583,3.279-2.8a2.3,2.3,0,0,0,.763-2.177,15.487,15.487,0,0,1,0-6.027,2.3,2.3,0,0,0-.763-2.177l-3.279-2.784a2.048,2.048,0,0,1-.558-2.452,21.429,21.429,0,0,1,1.138-1.994,2.03,2.03,0,0,1,2.391-.733l4.053,1.455a2.265,2.265,0,0,0,2.277-.424,15.913,15.913,0,0,1,5.168-3,2.287,2.287,0,0,0,1.491-1.753l.774-4.274a2.122,2.122,0,0,1,1.981-1.719,18.175,18.175,0,0,1,1.935,0,2.122,2.122,0,0,1,2,1.719l.774,4.285a2.287,2.287,0,0,0,1.491,1.753,15.913,15.913,0,0,1,5.168,3,2.265,2.265,0,0,0,2.277.424l4.053-1.455a2.03,2.03,0,0,1,2.391.733A21.428,21.428,0,0,1,73.3,43.039a2.048,2.048,0,0,1-.581,2.441l-3.267,2.8a2.3,2.3,0,0,0-.774,2.177,15.487,15.487,0,0,1,0,6.027,2.3,2.3,0,0,0,.774,2.177l3.267,2.865a2.048,2.048,0,0,1,.558,2.452,21.427,21.427,0,0,1-1.138,1.994,2.019,2.019,0,0,1-2.391.733L65.7,65.245a2.265,2.265,0,0,0-2.277.424,15.912,15.912,0,0,1-5.168,3,2.287,2.287,0,0,0-1.491,1.753L55.988,74.7a2.122,2.122,0,0,1-1.981,1.719,18.178,18.178,0,0,1-1.935,0,2.122,2.122,0,0,1-2-1.73l-.774-4.274A2.287,2.287,0,0,0,47.8,68.659a15.912,15.912,0,0,1-5.168-3,2.236,2.236,0,0,0-2.254-.424l-4.053,1.455a2.019,2.019,0,0,1-2.391-.733A21.427,21.427,0,0,1,32.8,63.961a2.048,2.048,0,0,1,.558-2.441Z" transform="translate(1311 446)" fill="#3b3f45"/>
    </g>
  </g>
</svg>
