<svg xmlns="http://www.w3.org/2000/svg" width="50" height="50" viewBox="0 0 50 50">
  <g id="nav-plus" transform="translate(-1598 -333)">
    <path id="Path_3175" data-name="Path 3175" d="M33.292,33.294A25,25,0,1,0,51,25.941,25,25,0,0,0,33.292,33.294ZM65.729,65.732a20.833,20.833,0,1,1,0-29.458A20.833,20.833,0,0,1,65.729,65.732Z" transform="translate(1572 307.059)" fill="#3b3f45"/>
    <path id="Path_3176" data-name="Path 3176" d="M58.75,48.333H52.5v-6.25a2.083,2.083,0,1,0-4.167,0v6.25h-6.25a2.083,2.083,0,1,0,0,4.167h6.25v6.25a2.083,2.083,0,0,0,4.167,0V52.5h6.25a2.083,2.083,0,0,0,0-4.167Z" transform="translate(1572.583 307.645)" fill="#3b3f45"/>
  </g>
</svg>
