<svg xmlns="http://www.w3.org/2000/svg" width="50" height="46" viewBox="0 0 50 46">
  <g id="nav-authorized-dealer-network" transform="translate(-202 -635)">
    <path id="Path_371" data-name="Path 371" d="M69.452,57.494a19.381,19.381,0,0,0,.156-2.339A18.808,18.808,0,0,0,59,38.235a8.623,8.623,0,0,0,.228-1.88,8.306,8.306,0,1,0-16.611,0,8.624,8.624,0,0,0,.228,1.88,18.808,18.808,0,0,0-10.61,16.919,19.383,19.383,0,0,0,.156,2.339,8.344,8.344,0,1,0,8.306,13.379,18.481,18.481,0,0,0,20.432,0,8.274,8.274,0,0,0,9.534,2.541,8.37,8.37,0,0,0-1.229-15.92ZM50.92,32.178a4.178,4.178,0,1,1-4.153,4.178A4.165,4.165,0,0,1,50.92,32.178Zm-16.611,37.6A4.178,4.178,0,1,1,38.462,65.6,4.165,4.165,0,0,1,34.309,69.776Zm16.611,0a14.373,14.373,0,0,1-8.451-2.747,8.151,8.151,0,0,0,.145-1.431,8.348,8.348,0,0,0-6.011-7.99,14.527,14.527,0,0,1,8.171-15.666,8.169,8.169,0,0,0,12.292,0,14.628,14.628,0,0,1,8.389,13.212,13.656,13.656,0,0,1-.218,2.454,8.348,8.348,0,0,0-6.011,7.99,8.152,8.152,0,0,0,.145,1.431,14.373,14.373,0,0,1-8.451,2.747Zm16.611,0A4.178,4.178,0,1,1,71.684,65.6,4.165,4.165,0,0,1,67.531,69.776Z" transform="translate(176.091 607)" fill="#3b3f45"/>
  </g>
</svg>
