<svg xmlns="http://www.w3.org/2000/svg" width="50" height="50" viewBox="0 0 50 50">
  <g id="nav-digital-asset-manager" transform="translate(-516 -439)">
    <g id="Group_2621" data-name="Group 2621" transform="translate(-242 -362)">
      <path id="Path_384" data-name="Path 384" d="M67.667,34.333H62.708L60.26,29.458A6.25,6.25,0,0,0,54.677,26H47.323a6.25,6.25,0,0,0-5.583,3.458l-2.448,4.875H34.333A8.333,8.333,0,0,0,26,42.667v25A8.333,8.333,0,0,0,34.333,76H67.667A8.333,8.333,0,0,0,76,67.667v-25A8.333,8.333,0,0,0,67.667,34.333Zm4.167,33.333a4.167,4.167,0,0,1-4.167,4.167H34.333a4.167,4.167,0,0,1-4.167-4.167v-25A4.167,4.167,0,0,1,34.333,38.5h6.25a2.083,2.083,0,0,0,1.865-1.156l3.01-6.021a2.083,2.083,0,0,1,1.865-1.156h7.354a2.083,2.083,0,0,1,1.865,1.156l3.01,6.021A2.083,2.083,0,0,0,61.417,38.5h6.25a4.167,4.167,0,0,1,4.167,4.167Z" transform="translate(732 775)" fill="#3b3f45"/>
      <circle id="Ellipse_5" data-name="Ellipse 5" cx="2.083" cy="2.083" r="2.083" transform="translate(766.333 818.708)" fill="#3b3f45"/>
      <path id="Path_385" data-name="Path 385" d="M50.417,44A10.417,10.417,0,1,0,60.833,54.417,10.417,10.417,0,0,0,50.417,44Zm0,16.667a6.25,6.25,0,1,1,6.25-6.25,6.25,6.25,0,0,1-6.25,6.25Z" transform="translate(732.583 775.75)" fill="#3b3f45"/>
    </g>
  </g>
</svg>
