<svg xmlns="http://www.w3.org/2000/svg" width="50" height="50" viewBox="0 0 50 50">
  <g id="nav-phone" transform="translate(-1693 -247)">
    <g id="Group_3569" data-name="Group 3569" transform="translate(77 9)">
      <path id="Path_3172" data-name="Path 3172" d="M43.8,70.792A21.065,21.065,0,0,0,58.793,77,21.315,21.315,0,0,0,75.75,68.521l.815-1.087a2.174,2.174,0,0,0,.065-2.511A22.413,22.413,0,0,0,63.4,55.6l-1.087-.272a2.174,2.174,0,0,0-2.065.576l-2.9,2.891a3.011,3.011,0,0,1-4.174,0l-7.967-7.967a2.957,2.957,0,0,1,0-4.174l2.891-2.9a2.174,2.174,0,0,0,.576-2.054L48.4,40.608a22.413,22.413,0,0,0-9.326-13.228,2.174,2.174,0,0,0-2.511.065l-1.087.815A21.315,21.315,0,0,0,27,45.205a21.065,21.065,0,0,0,6.206,14.989ZM37.87,31.879a18.033,18.033,0,0,1,6.272,9.674l-2.033,2.022a7.3,7.3,0,0,0,0,10.326l7.967,7.967a7.467,7.467,0,0,0,10.326,0l2.022-2.022a17.957,17.957,0,0,1,9.7,6.283,16.935,16.935,0,0,1-13.326,6.522,16.728,16.728,0,0,1-11.956-4.935l-10.6-10.6A16.728,16.728,0,0,1,31.3,45.162,16.935,16.935,0,0,1,37.87,31.879Z" transform="translate(1589 211.001)" fill="#3b3f45"/>
      <path id="Path_3173" data-name="Path 3173" d="M61.87,50.043a2.174,2.174,0,0,0,2.174-2.174V47a10.011,10.011,0,0,0-10-10h-.87a2.174,2.174,0,1,0,0,4.348h.87A5.652,5.652,0,0,1,59.7,47v.87A2.174,2.174,0,0,0,61.87,50.043Z" transform="translate(1591.087 211.87)" fill="#3b3f45"/>
      <path id="Path_3174" data-name="Path 3174" d="M72.913,53.087a2.174,2.174,0,0,0,2.174-2.174V49.826A22.826,22.826,0,0,0,52.261,27H51.174a2.174,2.174,0,1,0,0,4.348h1.087A18.478,18.478,0,0,1,70.739,49.826v1.087A2.174,2.174,0,0,0,72.913,53.087Z" transform="translate(1590.913 211)" fill="#3b3f45"/>
    </g>
  </g>
</svg>
