<svg xmlns="http://www.w3.org/2000/svg" width="50" height="55" viewBox="0 0 50 55">
  <g id="nav-network-resources" transform="translate(-1422 -434)">
    <g id="Group_3566" data-name="Group 3566" transform="translate(19 53)">
      <path id="Path_3167" data-name="Path 3167" d="M66.636,26H62.091A11.411,11.411,0,0,0,50.727,37.458h0a11.189,11.189,0,0,0-6.818-2.292H30.273A2.282,2.282,0,0,0,28,37.458V71.833a2.282,2.282,0,0,0,2.273,2.292H43.909a6.829,6.829,0,0,1,6.568,5.156A2.276,2.276,0,0,0,52.682,81h.636a2.276,2.276,0,0,0,2.2-1.719,6.829,6.829,0,0,1,6.568-5.156H75.727A2.282,2.282,0,0,0,78,71.833V37.458a2.282,2.282,0,0,0-2.273-2.292H68.909V28.292A2.282,2.282,0,0,0,66.636,26ZM55.273,37.458a6.847,6.847,0,0,1,6.818-6.875h2.273V60.375H62.091a11.189,11.189,0,0,0-6.818,2.292ZM43.909,69.542H32.545V39.75H43.909a6.847,6.847,0,0,1,6.818,6.875V71.833A11.212,11.212,0,0,0,43.909,69.542ZM73.455,39.75V69.542H62.091a11.212,11.212,0,0,0-6.818,2.292h0a6.847,6.847,0,0,1,6.818-6.875h4.545a2.282,2.282,0,0,0,2.273-2.292V39.75Z" transform="translate(1375 355)" fill="#3b3f45"/>
    </g>
  </g>
</svg>
