<svg xmlns="http://www.w3.org/2000/svg" width="50" height="46" viewBox="0 0 50 46">
  <g id="nav-sales-manager" transform="translate(-830 -443)">
    <g id="Group_2627" data-name="Group 2627" transform="translate(-241 -406)">
      <path id="Path_391" data-name="Path 391" d="M75.062,28.345a2.077,2.077,0,0,0-1.969-.178l-13.76,5.938L43.4,28.136h0a1.807,1.807,0,0,0-.229-.052A2.535,2.535,0,0,0,42.875,28h-.5l-.219.063-.271.073h0L27.3,34.408A2.091,2.091,0,0,0,26,36.363V71.906a2.087,2.087,0,0,0,2.906,1.924l13.812-5.948L58.6,73.861h.063a1.764,1.764,0,0,0,1.406-.021h.083l14.583-6.272A2.091,2.091,0,0,0,76,65.634V30.091a2.093,2.093,0,0,0-.937-1.746Zm-44.9,9.408,10.417-4.527V64.254L30.167,68.77ZM44.75,33.122l12.5,4.7V68.885l-12.5-4.7ZM71.833,64.254,61.417,68.77V37.743l10.417-4.516Z" transform="translate(1045 821.001)" fill="#3b3f45"/>
    </g>
  </g>
</svg>
