<svg xmlns="http://www.w3.org/2000/svg" width="50" height="46" viewBox="0 0 50 46">
  <g id="nav-home" transform="translate(-201.996 -59)">
    <path id="Path_370" data-name="Path 370" d="M75.229,47.287,52.318,28.471a2.077,2.077,0,0,0-2.645,0L26.76,47.287a2.092,2.092,0,0,0,2.645,3.241l2.843-2.342V67.723A6.26,6.26,0,0,0,38.5,74H63.492a6.26,6.26,0,0,0,6.249-6.272V48.186l2.843,2.342a2.092,2.092,0,0,0,2.645-3.241Zm-28.4,22.527V59.36a2.087,2.087,0,0,1,2.083-2.091h4.166a2.087,2.087,0,0,1,2.083,2.091V69.814Zm18.746-2.091a2.087,2.087,0,0,1-2.083,2.091H59.326V59.36a6.26,6.26,0,0,0-6.249-6.272H48.912a6.26,6.26,0,0,0-6.249,6.272V69.814H38.5a2.087,2.087,0,0,1-2.083-2.091v-23l14.58-11.938,14.58,11.938Z" transform="translate(176 31.005)" fill="#3b3f45"/>
  </g>
</svg>
