<svg xmlns="http://www.w3.org/2000/svg" width="22.342" height="13.424" viewBox="0 0 22.342 13.424">
  <g id="nav-down-arrow-line" transform="translate(-1061.303 -1232.535)">
    <path id="Subtraction_2" data-name="Subtraction 2" d="M-9253.831-1939.041a2.244,2.244,0,0,1-1.593-.656l-9.038-9.036a2.271,2.271,0,0,1,.118-3.069,2.239,2.239,0,0,1,1.6-.663,2.258,2.258,0,0,1,1.47.544l2.456,2.451,5.013,5.471,5.5-6h0l1.923-1.921a2.25,2.25,0,0,1,1.47-.544,2.246,2.246,0,0,1,1.6.663,2.274,2.274,0,0,1,.116,3.069l-9.036,9.036A2.252,2.252,0,0,1-9253.831-1939.041Z" transform="translate(10326.305 3185)" fill="#3b3f45"/>
  </g>
</svg>
