<svg xmlns="http://www.w3.org/2000/svg" width="50" height="48" viewBox="0 0 50 48">
  <g id="nav-warranty" transform="translate(-830.044 -57)">
    <g id="Group_2631" data-name="Group 2631" transform="translate(-261 -374)">
      <path id="Path_395" data-name="Path 395" d="M26.28,45.01a4.672,4.672,0,0,0,1.19,4.827l8.353,8.17L33.85,69.5a4.71,4.71,0,0,0,6.829,4.973l10.379-5.412,10.358,5.454a4.71,4.71,0,0,0,6.829-4.973L66.271,58.049l8.353-8.17a4.713,4.713,0,0,0-2.61-8.035L60.455,40.12,55.234,29.672h0a4.708,4.708,0,0,0-8.437,0L41.66,40.12,30.081,41.8a4.668,4.668,0,0,0-3.8,3.208ZM30.248,46.3a.512.512,0,0,1,.428-.355L43.352,44.1a2.088,2.088,0,0,0,1.566-1.149l5.659-11.493c.251-.491.71-.491.961,0h0L57.2,42.952A2.088,2.088,0,0,0,58.763,44.1L71.439,45.94a.512.512,0,0,1,.428.355.5.5,0,0,1-.136.543l-9.189,8.943a2.09,2.09,0,0,0-.606,1.849L64.13,70.252a.512.512,0,0,1-.219.522.5.5,0,0,1-.553,0L52.029,64.851a2.087,2.087,0,0,0-1.942,0L38.758,70.816a.5.5,0,0,1-.553,0,.512.512,0,0,1-.219-.522l2.172-12.621a2.09,2.09,0,0,0-.585-1.891l-9.189-8.933a.5.5,0,0,1-.136-.554Z" transform="translate(1065 403.945)" fill="#3b3f45"/>
    </g>
  </g>
</svg>
