<svg xmlns="http://www.w3.org/2000/svg" width="50" height="50" viewBox="0 0 50 50">
  <g id="nav-rma" transform="translate(-830 -247)">
    <g id="Group_3562" data-name="Group 3562" transform="translate(88)">
      <path id="Path_387" data-name="Path 387" d="M47.448,46.214a2.083,2.083,0,0,0,2.937,0l8.333-8.333a2.083,2.083,0,0,0,0-2.937L50.385,26.61a2.083,2.083,0,0,0-2.937,2.938l4.771,4.781H37.458a11.458,11.458,0,1,0,0,22.917h3.125a2.083,2.083,0,1,0,0-4.167H37.458a7.292,7.292,0,0,1,0-14.583h14.76l-4.771,4.781A2.083,2.083,0,0,0,47.448,46.214Z" transform="translate(716 220.891)" fill="#3b3f45"/>
      <path id="Path_388" data-name="Path 388" d="M63.875,44H60.75a2.083,2.083,0,0,0,0,4.167h3.125a7.292,7.292,0,0,1,0,14.583H49.114l4.771-4.781a2.083,2.083,0,0,0-2.937-2.937l-8.333,8.333a2.083,2.083,0,0,0,0,2.937l8.333,8.333A2.083,2.083,0,0,0,53.885,71.7l-4.771-4.781h14.76a11.458,11.458,0,0,0,0-22.917Z" transform="translate(716.667 221.864)" fill="#3b3f45"/>
    </g>
  </g>
</svg>
