<svg xmlns="http://www.w3.org/2000/svg" width="50" height="50" viewBox="0 0 50 50">
  <g id="paper" transform="translate(-1375 -1148)">
    <path id="Path_3199" data-name="Path 3199" d="M73.917,61.783H65.583V33.522A6.39,6.39,0,0,0,59.333,27H32.25A6.39,6.39,0,0,0,26,33.522V66.13A10.65,10.65,0,0,0,36.417,77H65.583A10.65,10.65,0,0,0,76,66.13V63.957A2.13,2.13,0,0,0,73.917,61.783ZM30.167,66.13V33.522a2.13,2.13,0,0,1,2.083-2.174H59.333a2.13,2.13,0,0,1,2.083,2.174V61.783H44.75a2.13,2.13,0,0,0-2.083,2.174V66.13a6.256,6.256,0,1,1-12.5,0Zm35.417,6.522H44.75a11.072,11.072,0,0,0,2.083-6.522h25A6.39,6.39,0,0,1,65.583,72.652Z" transform="translate(1349 1121)" fill="#3b3f45"/>
    <path id="Path_3200" data-name="Path 3200" d="M36.083,39.348h18.75a2.176,2.176,0,0,0,0-4.348H36.083a2.176,2.176,0,0,0,0,4.348Z" transform="translate(1349.333 1121.696)" fill="#3b3f45"/>
    <path id="Path_3201" data-name="Path 3201" d="M36.083,47.348h18.75a2.176,2.176,0,0,0,0-4.348H36.083a2.176,2.176,0,0,0,0,4.348Z" transform="translate(1349.333 1122.391)" fill="#3b3f45"/>
    <path id="Path_3202" data-name="Path 3202" d="M54.833,55.348a2.176,2.176,0,0,0,0-4.348H36.083a2.176,2.176,0,0,0,0,4.348Z" transform="translate(1349.333 1123.087)" fill="#3b3f45"/>
  </g>
</svg>
