<svg xmlns="http://www.w3.org/2000/svg" width="39.063" height="50" viewBox="0 0 39.063 50">
  <g id="pdf" transform="translate(-473 -1076)">
    <g id="Group_7322" data-name="Group 7322" transform="translate(473 1076)">
      <g id="Group_7321" data-name="Group 7321">
        <g id="Group_7317" data-name="Group 7317" transform="translate(18.126 21.848)">
          <path id="Path_4108" data-name="Path 4108" d="M34.12,30.95a2.7,2.7,0,0,0-2.957-2.984,4.431,4.431,0,0,0-.962.084V34.2a3.87,3.87,0,0,0,.739.042C32.864,34.256,34.12,33.2,34.12,30.95Z" transform="translate(-30.201 -27.966)" fill="#0f203c"/>
        </g>
        <g id="Group_7319" data-name="Group 7319">
          <g id="Group_7318" data-name="Group 7318">
            <path id="Path_4109" data-name="Path 4109" d="M12.765,50H40.3a5.765,5.765,0,0,0,5.766-5.765V5.765A5.765,5.765,0,0,0,40.3,0H12.765A5.765,5.765,0,0,0,7,5.765v38.47A5.765,5.765,0,0,0,12.765,50Zm19.8-29.713h5.745V22.03H34.7v2.148h3.375v1.73H34.7v3.779H32.565Zm-9.573.125a18.926,18.926,0,0,1,2.873-.2,6.043,6.043,0,0,1,3.848,1,4.156,4.156,0,0,1,1.59,3.541,4.769,4.769,0,0,1-1.562,3.808A6.75,6.75,0,0,1,25.4,29.784a18.259,18.259,0,0,1-2.412-.14V20.412Zm-7.967,0a17.372,17.372,0,0,1,2.873-.2,4.5,4.5,0,0,1,2.872.753,2.747,2.747,0,0,1,1,2.176,3,3,0,0,1-.866,2.231,4.353,4.353,0,0,1-3.053.99,5.188,5.188,0,0,1-.726-.042v3.361H15.024V20.412Z" transform="translate(-7)" fill="#0f203c"/>
          </g>
        </g>
        <g id="Group_7320" data-name="Group 7320" transform="translate(10.13 21.82)">
          <path id="Path_4110" data-name="Path 4110" d="M22.505,29.31c0-.864-.6-1.38-1.659-1.38a3.6,3.6,0,0,0-.879.084v2.775a3.23,3.23,0,0,0,.711.055C21.808,30.845,22.505,30.273,22.505,29.31Z" transform="translate(-19.967 -27.93)" fill="#0f203c"/>
        </g>
      </g>
    </g>
  </g>
</svg>
