<svg xmlns="http://www.w3.org/2000/svg" width="47.991" height="48" viewBox="0 0 47.991 48">
  <g id="pencil" transform="translate(-1690 -805)">
    <path id="Path_4081" data-name="Path 4081" d="M60,26a2,2,0,0,0-1.41.59l-6,6h0l-22,22h0a1.88,1.88,0,0,0-.37.56,1.22,1.22,0,0,0-.07.17c0,.07-.06.13-.08.19l-4,16A2,2,0,0,0,28,74a2.12,2.12,0,0,0,.49-.06l16-4,.19-.08.17-.07a1.88,1.88,0,0,0,.56-.37h0l22-22h0l6-6A2,2,0,0,0,74,40,14,14,0,0,0,60,26ZM31.49,66.28l2-8.13a10,10,0,0,1,8.33,8.33l-8.13,2a3.8,3.8,0,0,0-2.2-2.2Zm11.67-6.7a1.38,1.38,0,0,0,.25-.17L62.33,40.49a9.88,9.88,0,0,1,1.59,4.76L45.36,63.81a14.09,14.09,0,0,0-2.2-4.23Zm-2.57-3a1.38,1.38,0,0,0-.17.25,14.09,14.09,0,0,0-4.23-2.2L54.75,36.08a9.88,9.88,0,0,1,4.76,1.59ZM67.36,41.81a14.09,14.09,0,0,0-9.17-9.17L60.8,30A10,10,0,0,1,70,39.2Z" transform="translate(1663.991 779)" fill="#0f203c"/>
  </g>
</svg>
