<svg xmlns="http://www.w3.org/2000/svg" width="50" height="50.02" viewBox="0 0 50 50.02">
  <g id="pin" transform="translate(-1593.003 -1514)">
    <path id="Path_3383" data-name="Path 3383" d="M63,38.5A12.5,12.5,0,1,0,48.418,50.817a1.551,1.551,0,0,0,0,.188V65.59a2.084,2.084,0,0,0,4.167,0V51a1.553,1.553,0,0,0,0-.188A12.5,12.5,0,0,0,63,38.5ZM50.5,46.837A8.335,8.335,0,1,1,58.836,38.5,8.335,8.335,0,0,1,50.5,46.837Z" transform="translate(1567.502 1488.012)" fill="#3b3f45"/>
    <path id="Path_3384" data-name="Path 3384" d="M26.375,73.94a2.084,2.084,0,0,0,1.709.9h45.84a2.084,2.084,0,0,0,1.948-2.813L69.621,55.354A2.084,2.084,0,0,0,67.673,54H59.338a2.084,2.084,0,0,0,0,4.167h6.886l4.688,12.5H31.094l4.688-12.5h6.886a2.084,2.084,0,1,0,0-4.167H34.334a2.084,2.084,0,0,0-1.948,1.354L26.135,72.023A2.084,2.084,0,0,0,26.375,73.94Z" transform="translate(1567 1489.184)" fill="#3b3f45"/>
  </g>
</svg>
