<svg xmlns="http://www.w3.org/2000/svg" width="50" height="52.484" viewBox="0 0 50 52.484">
  <g id="pin" transform="translate(-544.13 -2245)">
    <path id="Path_3397" data-name="Path 3397" d="M64.235,39.119a13.118,13.118,0,1,0-15.3,12.921,1.627,1.627,0,0,0,0,.2v15.3a2.186,2.186,0,0,0,4.373,0v-15.3a1.63,1.63,0,0,0,0-.2A13.118,13.118,0,0,0,64.235,39.119ZM51.118,47.864a8.745,8.745,0,1,1,8.745-8.745A8.745,8.745,0,0,1,51.118,47.864Z" transform="translate(518.012 2219.012)" fill="#3b3f45"/>
    <path id="Path_3398" data-name="Path 3398" d="M27.13,66.464c0,6.209,12.976,9.029,25,9.029s25-2.82,25-9.029c0-5.542-9.707-7.652-15.5-8.428a2.2,2.2,0,1,0-.568,4.373c8.526,1.093,11.554,3.411,11.7,4.088-.251,1.235-6.985,4.624-20.627,4.624S31.754,67.732,31.5,66.475c.142-.7,3.192-3,11.784-4.121a2.2,2.2,0,0,0-.568-4.373C36.9,58.78,27.13,60.9,27.13,66.464Z" transform="translate(517 2221.99)" fill="#3b3f45"/>
  </g>
</svg>
