<svg xmlns="http://www.w3.org/2000/svg" width="50" height="50" viewBox="0 0 50 50">
  <g id="portfolio" transform="translate(-1538 -1239)">
    <path id="Path_3206" data-name="Path 3206" d="M67.667,34.333H59.333a8.333,8.333,0,0,0-16.667,0H34.333A8.333,8.333,0,0,0,26,42.667v25A8.333,8.333,0,0,0,34.333,76H67.667A8.333,8.333,0,0,0,76,67.667v-25A8.333,8.333,0,0,0,67.667,34.333ZM51,30.167a4.167,4.167,0,0,1,4.167,4.167H46.833A4.167,4.167,0,0,1,51,30.167ZM42.667,71.833V69.75a8.333,8.333,0,0,1,16.667,0v2.083Zm4.167-18.75A4.167,4.167,0,1,1,51,57.25,4.167,4.167,0,0,1,46.833,53.083Zm25,14.583a4.167,4.167,0,0,1-4.167,4.167H63.5V69.75A12.5,12.5,0,0,0,57.032,58.8a8.333,8.333,0,1,0-12.063,0A12.5,12.5,0,0,0,38.5,69.75v2.083H34.333a4.167,4.167,0,0,1-4.167-4.167v-25A4.167,4.167,0,0,1,34.333,38.5H67.667a4.167,4.167,0,0,1,4.167,4.167Z" transform="translate(1512 1213)" fill="#3b3f45"/>
  </g>
</svg>
