<svg xmlns="http://www.w3.org/2000/svg" width="50" height="24.063" viewBox="0 0 50 24.063">
  <path id="return" d="M50,35.522v9.62a2.184,2.184,0,1,1-4.348,0V37.968H8.533l5.543,5.489a2.415,2.415,0,0,1-.109,3.424,2.5,2.5,0,0,1-1.793.707,2.468,2.468,0,0,1-1.739-.707L.652,37.261A2.738,2.738,0,0,1,0,35.522a2.384,2.384,0,0,1,.707-1.685l9.728-9.62a2.461,2.461,0,0,1,3.424,0,2.412,2.412,0,0,1-.054,3.424L8.261,33.131H47.5a2.648,2.648,0,0,1,1.793.707A2.485,2.485,0,0,1,50,35.522Z" transform="translate(0 -23.525)" fill="#0f203c"/>
</svg>
