<svg xmlns="http://www.w3.org/2000/svg" width="50" height="50" viewBox="0 0 50 50">
  <g id="search" transform="translate(-592.899 -1023)">
    <path id="Path_3186" data-name="Path 3186" d="M61.7,52.522A18.763,18.763,0,1,0,52.522,61.7L64.819,74A6.49,6.49,0,0,0,74,64.819ZM30.162,44.715A14.553,14.553,0,1,1,44.715,59.268,14.553,14.553,0,0,1,30.162,44.715ZM69.414,71.743a2.308,2.308,0,0,1-1.653-.686L56.15,59.476a19.751,19.751,0,0,0,3.326-3.326l11.58,11.611a2.329,2.329,0,0,1-1.642,3.981Z" transform="translate(567 997.101)" fill="#3b3f45"/>
  </g>
</svg>
