<svg xmlns="http://www.w3.org/2000/svg" width="50" height="45.847" viewBox="0 0 50 45.847">
  <path id="shirt" d="M74.625,32.292l-1.167-.427C68.865,30.188,64.542,28.594,59.573,28a2.083,2.083,0,0,0-2.208,1.4c-.8,2.354-3.552,4.854-6.365,4.854s-5.562-2.5-6.365-4.844A2.083,2.083,0,0,0,42.427,28c-4.948.583-9.292,2.177-13.885,3.854l-1.167.427A2.083,2.083,0,0,0,26,34.251V48.834a2.083,2.083,0,0,0,2.083,2.083h8.333V71.751A2.083,2.083,0,0,0,38.5,73.834h25a2.083,2.083,0,0,0,2.083-2.083V50.917h8.333A2.083,2.083,0,0,0,76,48.834V34.251a2.083,2.083,0,0,0-1.375-1.958ZM71.833,46.751H63.5a2.083,2.083,0,0,0-2.083,2.083V69.667H40.583V48.834A2.083,2.083,0,0,0,38.5,46.751H30.167V35.709a63.978,63.978,0,0,1,11.24-3.344A11.458,11.458,0,0,0,51,38.417a11.458,11.458,0,0,0,9.594-6.052,63.979,63.979,0,0,1,11.24,3.344Z" transform="translate(-26 -27.987)" fill="#3b3f45"/>
</svg>
