<svg xmlns="http://www.w3.org/2000/svg" width="50" height="54.555" viewBox="0 0 50 54.555">
  <g id="sign" transform="translate(-1030 -2083)">
    <path id="Path_3404" data-name="Path 3404" d="M77.339,42.583,68.246,33.49a2.273,2.273,0,0,0-1.6-.671H53V28.273a2.273,2.273,0,1,0-4.546,0v4.546H30.273a2.265,2.265,0,0,0-1.6,3.876l7.479,7.49-7.479,7.49a2.265,2.265,0,0,0,1.6,3.876H48.458V66.916H46.185a6.819,6.819,0,0,0-6.819,6.819v4.546a2.273,2.273,0,0,0,2.273,2.273H59.824A2.273,2.273,0,0,0,62.1,78.282V73.736a6.819,6.819,0,0,0-6.819-6.819H53V55.551H66.643a2.273,2.273,0,0,0,1.6-.671l9.093-9.093A2.273,2.273,0,0,0,77.339,42.583ZM57.551,73.736v2.273H43.912V73.736a2.273,2.273,0,0,1,2.273-2.273h9.093A2.273,2.273,0,0,1,57.551,73.736ZM65.7,51H35.763l5.205-5.217a2.273,2.273,0,0,0,0-3.205l-5.205-5.217H65.7l6.819,6.819Z" transform="translate(1002 2057)" fill="#3b3f45"/>
  </g>
</svg>
