<svg xmlns="http://www.w3.org/2000/svg" width="50" height="45.833" viewBox="0 0 50 45.833">
  <path id="squig" d="M73.917,44.667H71.833a6.25,6.25,0,0,0-6.25,6.25V59.25a2.083,2.083,0,1,1-4.167,0v-25a6.25,6.25,0,0,0-12.5,0V67.583a2.083,2.083,0,0,1-4.167,0v-25a6.25,6.25,0,0,0-12.5,0v8.333A2.083,2.083,0,0,1,30.167,53H28.083a2.083,2.083,0,1,0,0,4.167h2.083a6.25,6.25,0,0,0,6.25-6.25V42.583a2.083,2.083,0,1,1,4.167,0v25a6.25,6.25,0,0,0,12.5,0V34.25a2.083,2.083,0,0,1,4.167,0v25a6.25,6.25,0,1,0,12.5,0V50.917a2.083,2.083,0,0,1,2.083-2.083h2.083a2.083,2.083,0,0,0,0-4.167Z" transform="translate(-26 -28)" fill="#3b3f45"/>
</svg>
