<svg xmlns="http://www.w3.org/2000/svg" width="50" height="50" viewBox="0 0 50 50">
  <path id="stack" d="M61.4,46.833A15.311,15.311,0,0,0,59.32,47v-.167a4.166,4.166,0,0,0-4.165-4.167H53.072V38.5h2.083a4.166,4.166,0,0,0,4.165-4.167V30.167A4.166,4.166,0,0,0,55.155,26H36.412a4.166,4.166,0,0,0-4.165,4.167v4.167H30.165A4.166,4.166,0,0,0,26,38.5v4.167a4.166,4.166,0,0,0,4.165,4.167h2.083V51H30.165A4.166,4.166,0,0,0,26,55.167v4.167A4.166,4.166,0,0,0,30.165,63.5h2.083v4.167a4.166,4.166,0,0,0,4.165,4.167H51.219a14.58,14.58,0,1,0,10.183-25Zm-6.248,0V48.26A14.827,14.827,0,0,0,51.219,51H36.412V46.833ZM36.412,30.167H55.155v4.167H36.412Zm-6.248,12.5V38.5H48.907v4.167Zm0,16.667V55.167H48.252a14.442,14.442,0,0,0-1.26,4.167ZM36.412,63.5H46.992a14.442,14.442,0,0,0,1.26,4.167H36.412ZM61.4,71.833A10.417,10.417,0,1,1,71.815,61.417,10.415,10.415,0,0,1,61.4,71.833Z" transform="translate(-26 -26)" fill="#0f203c"/>
</svg>
