<svg xmlns="http://www.w3.org/2000/svg" width="50" height="49.884" viewBox="0 0 50 49.884">
  <g id="support" transform="translate(-675 -1940)">
    <path id="Path_3390" data-name="Path 3390" d="M69.75,40.579H67.521a16.667,16.667,0,0,0-33.042,0H32.25A6.25,6.25,0,0,0,26,46.829v6.25a6.25,6.25,0,0,0,12.5,0V42.662a12.5,12.5,0,1,1,25,0v18.75a6.25,6.25,0,0,1-6.25,6.25h-.385a6.25,6.25,0,1,0,0,4.167h.385A10.417,10.417,0,0,0,67.667,61.412V59.329H69.75A6.25,6.25,0,0,0,76,53.079v-6.25A6.25,6.25,0,0,0,69.75,40.579Zm-35.417,12.5a2.083,2.083,0,0,1-4.167,0v-6.25a2.083,2.083,0,0,1,2.083-2.083h2.083ZM51,71.829a2.083,2.083,0,1,1,2.083-2.083A2.083,2.083,0,0,1,51,71.829Zm20.833-18.75a2.083,2.083,0,0,1-2.083,2.083H67.667V44.745H69.75a2.083,2.083,0,0,1,2.083,2.083Z" transform="translate(649 1913.888)" fill="#3b3f45"/>
  </g>
</svg>
