<svg xmlns="http://www.w3.org/2000/svg" width="50" height="54.545" viewBox="0 0 50 54.545">
  <g id="trash" transform="translate(-1507 -891)">
    <path id="Path_4101" data-name="Path 4101" d="M75.727,35.091H64.364V32.818A6.818,6.818,0,0,0,57.545,26H48.455a6.818,6.818,0,0,0-6.818,6.818v2.273H30.273a2.273,2.273,0,1,0,0,4.545h4.545v.136l2.023,34.352a6.818,6.818,0,0,0,6.818,6.42H62.352a6.818,6.818,0,0,0,6.818-6.42l2.011-34.352v-.136h4.545a2.273,2.273,0,1,0,0-4.545ZM46.182,32.818a2.273,2.273,0,0,1,2.273-2.273h9.091a2.273,2.273,0,0,1,2.273,2.273v2.273H46.182ZM64.625,73.864A2.273,2.273,0,0,1,62.352,76h-18.7a2.273,2.273,0,0,1-2.273-2.136L39.364,39.636H66.636Z" transform="translate(1479 865)" fill="#0f203c"/>
  </g>
</svg>
