<?xml version="1.0" encoding="utf-8"?>
<svg version="1.1" xmlns:xlink="http://www.w3.org/1999/xlink" width="50px" height="40px" xmlns="http://www.w3.org/2000/svg">
  <g transform="matrix(1 0 0 1 -540 -348 )">
    <path d="M 22.9723458126412 38.2661847740056  C 22.9723458126412 39.2237452191987  23.8801575358508 40  24.9999912958838 40  C 26.1198399106802 40  27.0276442065082 39.2237452191987  27.0276442065082 38.2661847740056  C 27.0276442065082 38.2661847740056  27.0276442065082 19.9137052165913  27.0276442065082 19.9137052165913  C 27.0276442065082 19.9137052165913  29.6534464442363 22.1503269355157  29.6534464442363 22.1503269355157  C 30.4579432885762 22.7394407135996  31.6571609037753 22.6998393525763  32.4061009333097 22.0594148409406  C 33.1550632449891 21.4189980684804  33.2013729696298 20.3935573149943  32.5124239017511 19.7056452225028  C 32.5124239017511 19.7056452225028  26.4294874520229 14.5041840661688  26.4294874520229 14.5041840661688  C 25.638627280408 13.8319360648852  24.3613627387415 13.8319360648852  23.5705025671265 14.5041840661688  C 23.5705025671265 14.5041840661688  17.4875661173984 19.7056452225028  17.4875661173984 19.7056452225028  C 16.7986170495196 20.3935573149943  16.8449490563053 21.4189980684804  17.5938890858397 22.0594148409406  C 18.3428439701375 22.6998393525763  19.5420615853365 22.7394407135996  20.3465435749132 22.1503269355157  C 20.3465435749132 22.1503269355157  22.9723458126412 19.9137052165913  22.9723458126412 19.9137052165913  C 22.9723458126412 19.9137052165913  22.9723458126412 38.2661847740056  22.9723458126412 38.2661847740056  Z M 39.5359380434247 10.4639328043187  C 39.0777776097114 4.55136841026757  34.0807488954403 -0.00997867143308895  28.0805729829646 0.0073371454823814  C 24.7534395622665 -0.120538818638977  21.588247681667 1.42994476819348  19.6764814903754 4.1241092665893  C 19.6764814903754 4.1241092665893  17.6665860194858 4.1241092665893  17.6665860194858 4.1241092665893  C 11.3993889083901 4.1241092665893  6.2960560176861 9.09978430097686  6.21118662674783 15.2919050722454  C 1.7131241658082 17.2532534483816  -0.784236245320576 22.0563385488479  0.221050998205529 26.8124828117069  C 1.22633824173169 31.5686347534204  5.46040074450536 34.9820775535784  10.3767981968086 34.9999001748914  C 10.3767981968086 34.9999001748914  16.6251812196218 34.9999001748914  16.6251812196218 34.9999001748914  C 17.7754727461552 34.9999001748914  18.7079755605596 34.0783224511167  18.7079755605596 32.9415141143379  C 18.7079755605596 31.8046980987046  17.7754727461552 30.8831203749299  16.6251812196218 30.8831203749299  C 16.6251812196218 30.8831203749299  10.3767981968086 30.8831203749299  10.3767981968086 30.8831203749299  C 7.24668627481509 30.8389976769271  4.63271055979455 28.5125658420637  4.26160152401421 25.4406400961481  C 3.89049248823382 22.3687373867959  5.87681312830722 19.4995103633272  8.90842193034347 18.7283613993637  C 9.97007514476607 18.3881574292424  10.6266456270897 17.3386346316558  10.4601111911493 16.2479992470335  C 10.411115215906 15.9829712625452  10.3832679238416 15.7145645820734  10.3767981968086 15.4452287602061  C 10.3767981968086 11.4663842237715  13.6405466031309 8.24088138769628  17.6665860194858 8.24088138769628  C 17.6665860194858 8.24088138769628  20.7907851602874 8.24088138769628  20.7907851602874 8.24088138769628  C 21.5266784633217 8.2328339481719  22.2036499481057 7.84158095328149  22.571562267345 7.21168451799224  C 23.6351914950949 5.20278099588819  25.7900988783869 3.99504308001923  28.0805729829646 4.1241092665893  C 32.1066047699244 4.1241092665893  35.3703531762467 7.34961210266454  35.3703608056419 11.3284643179537  C 35.3703608056419 11.3284643179537  35.3703531762467 12.3576611876577  35.3703531762467 12.3576611876577  C 35.3703531762467 13.4944695244365  36.3028559906511 14.4160318905022  37.4531475171845 14.4160318905022  C 42.0543403262011 14.4160318905022  45.7843363250281 18.102327427892  45.7843363250281 22.649576132716  C 45.7843363250281 27.1968478741036  42.0543250674109 30.8831203749299  37.4531475171845 30.8831203749299  C 37.4531475171845 30.8831203749299  33.287558835309 30.8831203749299  33.287558835309 30.8831203749299  C 32.1372520499854 30.8831203749299  31.2047492355811 31.8046980987046  31.2047492355811 32.9415141143379  C 31.2047492355811 34.0783224511167  32.1372520499854 34.9999001748914  33.287558835309 34.9999001748914  C 33.287558835309 34.9999001748914  37.4531475171845 34.9999001748914  37.4531475171845 34.9999001748914  C 43.9688912466991 35.0254246872759  49.4109845380182 30.0990325411206  49.9556928295888 23.6821593772581  C 50.5004011211593 17.2652708556865  45.9648935891369 11.5116741076595  39.5359380434247 10.4639404831732  Z " fill-rule="nonzero" fill="#4284fc" stroke="none" transform="matrix(1 0 0 1 540 348 )" />
  </g>
</svg>