<svg xmlns="http://www.w3.org/2000/svg" width="50" height="47" viewBox="0 0 50 47">
  <g id="upload" transform="translate(-1144.036 -2494)">
    <g id="Group_5592" data-name="Group 5592" transform="translate(-102 20)">
      <path id="Path_3565" data-name="Path 3565" d="M50.326,72.677a2.064,2.064,0,0,0,2.083-2.045V48.984l2.7,2.638a2.111,2.111,0,0,0,2.827-.107,2.018,2.018,0,0,0,.109-2.776L51.795,42.6a2.11,2.11,0,0,0-2.937,0L42.61,48.738a2.018,2.018,0,0,0,.109,2.776,2.111,2.111,0,0,0,2.827.107l2.7-2.638V70.632A2.064,2.064,0,0,0,50.326,72.677Z" transform="translate(1220.665 2448.323)" fill="#0f203c"/>
      <path id="Path_3566" data-name="Path 3566" d="M65.572,38.389A11.374,11.374,0,0,0,54.116,28a9.861,9.861,0,0,0-8.4,4.09H43.7a11.357,11.357,0,0,0-11.455,11.1,10.182,10.182,0,0,0-5.99,11.446,10.37,10.37,0,0,0,10.156,8.135h6.248a2.045,2.045,0,1,0,0-4.09H36.412A6.208,6.208,0,0,1,30.3,53.27,6.142,6.142,0,0,1,34.944,46.6,2.237,2.237,0,0,0,36.5,44.136a5.024,5.024,0,0,1-.083-.8,7.225,7.225,0,0,1,7.29-7.158h3.124a2.09,2.09,0,0,0,1.781-1.023,5.863,5.863,0,0,1,5.509-3.068,7.225,7.225,0,0,1,7.29,7.158v1.023a2.064,2.064,0,0,0,2.083,2.045,8.182,8.182,0,1,1,0,16.361H59.323a2.045,2.045,0,1,0,0,4.09h4.166a12.257,12.257,0,0,0,2.083-24.378Z" transform="translate(1220 2446.007)" fill="#0f203c"/>
    </g>
  </g>
</svg>
