<?xml version="1.0" encoding="utf-8"?>
<svg version="1.1" xmlns:xlink="http://www.w3.org/1999/xlink" width="6px" height="12px" xmlns="http://www.w3.org/2000/svg">
  <g transform="matrix(1 0 0 1 -297 -26 )">
    <path d="M 0.196395710110664 1.43011028129973  C 0.350379765033722 1.65823678904877  4.40666198730469 6.01655906307228  4.40666198730469 6.01655906307228  C 4.11022567749023 6.30858174494253  0.456229984760284 10.0198312783375  0.132827594876289 10.6143975763005  C -0.190574809908867 11.2089638742635  0.131625965237617 11.8618187418128  0.511077702045441 11.9668220904015  C 0.890533268451691 12.0718254389902  1.28912341594696 11.923281139272  1.54298388957977 11.5822701190098  C 1.54298388957977 11.5822701190098  5.69794464111328 6.80249344885401  5.69794464111328 6.80249344885401  C 6.10068511962891 6.33642140337456  6.10068511962891 5.58369013995408  5.69794464111328 5.11762572386855  C 5.69794464111328 5.11762572386855  1.54298388957977 0.337840470644596  1.54298388957977 0.337840470644596  C 1.13085162639618 -0.0681729858578852  0.563728153705597 -0.136837531182167  0.236118152737617 0.289477742554526  C -0.0914880484342575 0.715800645685145  0.0424116402864456 1.20198377355069  0.196395710110664 1.43011028129973  Z " fill-rule="nonzero" fill="#657786" stroke="none" transform="matrix(1 0 0 1 297 26 )" />
  </g>
</svg>